<?xml version="1.0" encoding="UTF-8" standalone="no"?>
<!-- Created with Inkscape (http://www.inkscape.org/) -->

<svg
   width="210mm"
   height="297mm"
   viewBox="0 0 210 297"
   version="1.1"
   id="svg5"
   inkscape:version="1.1.2 (b8e25be833, 2022-02-05)"
   sodipodi:docname="DIOMUD.svg"
   xmlns:inkscape="http://www.inkscape.org/namespaces/inkscape"
   xmlns:sodipodi="http://sodipodi.sourceforge.net/DTD/sodipodi-0.dtd"
   xmlns="http://www.w3.org/2000/svg"
   xmlns:svg="http://www.w3.org/2000/svg">
  <sodipodi:namedview
     id="namedview7"
     pagecolor="#ffffff"
     bordercolor="#999999"
     borderopacity="1"
     inkscape:pageshadow="0"
     inkscape:pageopacity="0"
     inkscape:pagecheckerboard="0"
     inkscape:document-units="mm"
     showgrid="false"
     inkscape:zoom="1.2810466"
     inkscape:cx="387.18342"
     inkscape:cy="448.07114"
     inkscape:window-width="1920"
     inkscape:window-height="1017"
     inkscape:window-x="-8"
     inkscape:window-y="-8"
     inkscape:window-maximized="1"
     inkscape:current-layer="layer1" />
  <defs
     id="defs2" />
  <g
     inkscape:label="Ebene 1"
     inkscape:groupmode="layer"
     id="layer1">
    <g
       aria-label="DIOM-UD"
       id="text1045"
       style="font-size:10.5833px;line-height:1.25;stroke-width:0.264583"
       transform="translate(-1.2392211,-0.41307371)">
      <path
         d="m 86.018401,133.30091 q 0,1.04903 -0.459919,1.90169 -0.454751,0.85266 -1.214392,1.32291 -0.527098,0.32556 -1.178219,0.47025 -0.645953,0.1447 -1.705317,0.1447 h -1.943027 v -7.6946 h 1.922357 q 1.126542,0 1.787999,0.16536 0.666623,0.1602 1.126542,0.44442 0.785479,0.49093 1.224728,1.30741 0.439248,0.81649 0.439248,1.93786 z m -1.069699,-0.0155 q 0,-0.90434 -0.315225,-1.52445 -0.315225,-0.62012 -0.940508,-0.97668 -0.454751,-0.25839 -0.966346,-0.35657 -0.511595,-0.10335 -1.224728,-0.10335 h -0.961178 v 5.9376 h 0.961178 q 0.738971,0 1.286739,-0.10852 0.552936,-0.10852 1.012855,-0.40307 0.573607,-0.36691 0.857826,-0.96635 0.289387,-0.59945 0.289387,-1.49861 z"
         id="path4315" />
      <path
         d="m 90.385046,137.14046 h -3.038565 v -0.78548 h 1.007688 v -6.12364 h -1.007688 v -0.78548 h 3.038565 v 0.78548 h -1.007687 v 6.12364 h 1.007687 z"
         id="path4317" />
      <path
         d="m 97.862602,130.32953 q 0.470254,0.51676 0.7183,1.26606 0.253214,0.74931 0.253214,1.70015 0,0.95085 -0.258382,1.70532 -0.253213,0.74931 -0.713132,1.25057 -0.475422,0.52193 -1.126543,0.78547 -0.645953,0.26355 -1.477941,0.26355 -0.811317,0 -1.477941,-0.26871 -0.661456,-0.26872 -1.126543,-0.78031 -0.465086,-0.5116 -0.7183,-1.25574 -0.248046,-0.74414 -0.248046,-1.70015 0,-0.94051 0.248046,-1.68464 0.248046,-0.74931 0.723468,-1.28157 0.454751,-0.50643 1.126542,-0.77515 0.67696,-0.26872 1.472774,-0.26872 0.82682,0 1.483109,0.27389 0.661456,0.26872 1.121375,0.76998 z m -0.09302,2.96621 q 0,-1.49861 -0.671792,-2.30993 -0.671791,-0.81648 -1.834507,-0.81648 -1.173052,0 -1.844843,0.81648 -0.666624,0.81132 -0.666624,2.30993 0,1.51412 0.682127,2.32027 0.682127,0.80098 1.82934,0.80098 1.147213,0 1.824172,-0.80098 0.682127,-0.80615 0.682127,-2.32027 z"
         id="path4319" />
      <path
         d="m 107.30902,137.14046 h -1.02319 v -6.63007 l -2.13939,4.51134 h -0.60978 l -2.1239,-4.51134 v 6.63007 h -0.95601 v -7.6946 h 1.39526 l 2.05155,4.28396 1.98437,-4.28396 h 1.42109 z"
         id="path4321" />
      <path
         d="m 112.35779,134.24142 h -3.22459 v -0.93534 h 3.22459 z"
         id="path4323" />
      <path
         d="m 119.97488,134.05022 q 0,0.83715 -0.18604,1.46243 -0.18087,0.62012 -0.59944,1.03353 -0.39791,0.39274 -0.93018,0.57361 -0.53226,0.18086 -1.24023,0.18086 -0.72346,0 -1.2609,-0.1912 -0.53743,-0.1912 -0.90433,-0.56327 -0.41858,-0.42375 -0.60461,-1.02319 -0.18087,-0.59944 -0.18087,-1.47277 v -4.60436 h 1.02319 v 4.65603 q 0,0.62529 0.0827,0.98702 0.0879,0.36173 0.28939,0.65629 0.22737,0.33589 0.61495,0.50643 0.39274,0.17053 0.9405,0.17053 0.55294,0 0.94051,-0.16537 0.38757,-0.17053 0.62012,-0.51159 0.20153,-0.29456 0.28422,-0.67179 0.0879,-0.38241 0.0879,-0.94568 v -4.68187 h 1.02319 z"
         id="path4325" />
      <path
         d="m 128.42911,133.30091 q 0,1.04903 -0.45991,1.90169 -0.45476,0.85266 -1.2144,1.32291 -0.52709,0.32556 -1.17822,0.47025 -0.64595,0.1447 -1.70531,0.1447 h -1.94303 v -7.6946 h 1.92236 q 1.12654,0 1.788,0.16536 0.66662,0.1602 1.12654,0.44442 0.78548,0.49093 1.22473,1.30741 0.43924,0.81649 0.43924,1.93786 z m -1.06969,-0.0155 q 0,-0.90434 -0.31523,-1.52445 -0.31523,-0.62012 -0.94051,-0.97668 -0.45475,-0.25839 -0.96634,-0.35657 -0.5116,-0.10335 -1.22473,-0.10335 h -0.96118 v 5.9376 h 0.96118 q 0.73897,0 1.28674,-0.10852 0.55293,-0.10852 1.01285,-0.40307 0.57361,-0.36691 0.85783,-0.96635 0.28939,-0.59945 0.28939,-1.49861 z"
         id="path4327" />
    </g>
  </g>
</svg>
