M48
; DRILL file {KiCad (6.0.4)} date Fri May 20 19:37:50 2022
; FORMAT={-:-/ absolute / inch / decimal}
; #@! TF.CreationDate,2022-05-20T19:37:50+02:00
; #@! TF.GenerationSoftware,Kicad,Pcbnew,(6.0.4)
; #@! TF.FileFunction,Plated,1,2,PTH
FMAT,2
INCH
; #@! TA.AperFunction,Plated,PTH,ViaDrill
T1C0.0120
; #@! TA.AperFunction,Plated,PTH,ComponentDrill
T2C0.0236
; #@! TA.AperFunction,Plated,PTH,ComponentDrill
T3C0.0256
; #@! TA.AperFunction,Plated,PTH,ComponentDrill
T4C0.0866
%
G90
G05
T1
X2.7324Y-2.6474
X2.7796Y-2.5607
X2.7836Y-2.7182
X2.8387Y-2.6631
X2.8564Y-2.5685
X2.8899Y-2.6277
X2.8938Y-2.6789
X2.9332Y-2.6779
X2.9529Y-2.6324
X2.9725Y-2.6778
X3.0198Y-2.6277
X3.0493Y-2.5685
X3.0828Y-2.5253
X3.1379Y-2.5922
T3
X2.9284Y-2.7731
X2.9284Y-2.8231
X2.9784Y-2.7731
X2.9784Y-2.8231
T4
X2.6773Y-2.3048
X2.6773Y-2.797
X3.2285Y-2.3048
X3.2285Y-2.797
T2
G00X2.7836Y-2.3403
M15
G01X2.7836Y-2.3167
M16
G05
G00X2.7836Y-2.5155
M15
G01X2.7836Y-2.4722
M16
G05
G00X3.1221Y-2.3403
M15
G01X3.1221Y-2.3167
M16
G05
G00X3.1221Y-2.5155
M15
G01X3.1221Y-2.4722
M16
G05
T0
M30
