G04 #@! TF.GenerationSoftware,KiCad,Pcbnew,(6.0.4)*
G04 #@! TF.CreationDate,2022-05-20T19:37:54+02:00*
G04 #@! TF.ProjectId,Unified-Daughterboard-rounded,556e6966-6965-4642-9d44-617567687465,C3*
G04 #@! TF.SameCoordinates,Original*
G04 #@! TF.FileFunction,Legend,Top*
G04 #@! TF.FilePolarity,Positive*
%FSLAX46Y46*%
G04 Gerber Fmt 4.6, Leading zero omitted, Abs format (unit mm)*
G04 Created by KiCad (PCBNEW (6.0.4)) date 2022-05-20 19:37:54*
%MOMM*%
%LPD*%
G01*
G04 APERTURE LIST*
G04 Aperture macros list*
%AMRoundRect*
0 Rectangle with rounded corners*
0 $1 Rounding radius*
0 $2 $3 $4 $5 $6 $7 $8 $9 X,Y pos of 4 corners*
0 Add a 4 corners polygon primitive as box body*
4,1,4,$2,$3,$4,$5,$6,$7,$8,$9,$2,$3,0*
0 Add four circle primitives for the rounded corners*
1,1,$1+$1,$2,$3*
1,1,$1+$1,$4,$5*
1,1,$1+$1,$6,$7*
1,1,$1+$1,$8,$9*
0 Add four rect primitives between the rounded corners*
20,1,$1+$1,$2,$3,$4,$5,0*
20,1,$1+$1,$4,$5,$6,$7,0*
20,1,$1+$1,$6,$7,$8,$9,0*
20,1,$1+$1,$8,$9,$2,$3,0*%
G04 Aperture macros list end*
%ADD10C,0.150000*%
%ADD11C,0.152400*%
%ADD12C,0.400000*%
%ADD13C,0.120000*%
%ADD14C,3.800000*%
%ADD15C,2.600000*%
%ADD16RoundRect,0.125000X0.000000X-0.150000X0.000000X-0.150000X0.000000X0.150000X0.000000X0.150000X0*%
%ADD17R,0.250000X0.550000*%
%ADD18R,0.300000X0.550000*%
%ADD19RoundRect,0.250000X-0.475000X0.250000X-0.475000X-0.250000X0.475000X-0.250000X0.475000X0.250000X0*%
%ADD20RoundRect,0.237500X-0.237500X0.287500X-0.237500X-0.287500X0.237500X-0.287500X0.237500X0.287500X0*%
%ADD21C,0.650000*%
%ADD22RoundRect,0.150000X0.150000X0.575000X-0.150000X0.575000X-0.150000X-0.575000X0.150000X-0.575000X0*%
%ADD23RoundRect,0.075000X0.075000X0.650000X-0.075000X0.650000X-0.075000X-0.650000X0.075000X-0.650000X0*%
%ADD24O,1.100000X2.200000*%
%ADD25O,1.300000X1.900000*%
%ADD26R,1.200000X1.800000*%
%ADD27R,0.600000X1.550000*%
%ADD28RoundRect,0.160000X-0.252791X0.026517X0.026517X-0.252791X0.252791X-0.026517X-0.026517X0.252791X0*%
%ADD29R,0.900000X1.200000*%
%ADD30R,1.000000X1.000000*%
%ADD31O,1.000000X1.000000*%
%ADD32RoundRect,0.160000X-0.160000X0.197500X-0.160000X-0.197500X0.160000X-0.197500X0.160000X0.197500X0*%
%ADD33RoundRect,0.250000X0.176777X-0.707107X0.707107X-0.176777X-0.176777X0.707107X-0.707107X0.176777X0*%
G04 APERTURE END LIST*
D10*
X67140595Y-71495380D02*
X67140595Y-70495380D01*
X67140595Y-70971571D02*
X67712023Y-70971571D01*
X67712023Y-71495380D02*
X67712023Y-70495380D01*
X68140595Y-70590619D02*
X68188214Y-70543000D01*
X68283452Y-70495380D01*
X68521547Y-70495380D01*
X68616785Y-70543000D01*
X68664404Y-70590619D01*
X68712023Y-70685857D01*
X68712023Y-70781095D01*
X68664404Y-70923952D01*
X68092976Y-71495380D01*
X68712023Y-71495380D01*
X76473928Y-66000142D02*
X76959642Y-66000142D01*
X77016785Y-65971571D01*
X77045357Y-65943000D01*
X77073928Y-65885857D01*
X77073928Y-65771571D01*
X77045357Y-65714428D01*
X77016785Y-65685857D01*
X76959642Y-65657285D01*
X76473928Y-65657285D01*
X77073928Y-65057285D02*
X77073928Y-65400142D01*
X77073928Y-65228714D02*
X76473928Y-65228714D01*
X76559642Y-65285857D01*
X76616785Y-65343000D01*
X76645357Y-65400142D01*
X81242595Y-71395380D02*
X81242595Y-70395380D01*
X81242595Y-70871571D02*
X81814023Y-70871571D01*
X81814023Y-71395380D02*
X81814023Y-70395380D01*
X82194976Y-70395380D02*
X82814023Y-70395380D01*
X82480690Y-70776333D01*
X82623547Y-70776333D01*
X82718785Y-70823952D01*
X82766404Y-70871571D01*
X82814023Y-70966809D01*
X82814023Y-71204904D01*
X82766404Y-71300142D01*
X82718785Y-71347761D01*
X82623547Y-71395380D01*
X82337833Y-71395380D01*
X82242595Y-71347761D01*
X82194976Y-71300142D01*
X83739642Y-63409666D02*
X83787261Y-63457285D01*
X83834880Y-63600142D01*
X83834880Y-63695380D01*
X83787261Y-63838238D01*
X83692023Y-63933476D01*
X83596785Y-63981095D01*
X83406309Y-64028714D01*
X83263452Y-64028714D01*
X83072976Y-63981095D01*
X82977738Y-63933476D01*
X82882500Y-63838238D01*
X82834880Y-63695380D01*
X82834880Y-63600142D01*
X82882500Y-63457285D01*
X82930119Y-63409666D01*
X83834880Y-62457285D02*
X83834880Y-63028714D01*
X83834880Y-62743000D02*
X82834880Y-62743000D01*
X82977738Y-62838238D01*
X83072976Y-62933476D01*
X83120595Y-63028714D01*
X67242595Y-58895380D02*
X67242595Y-57895380D01*
X67242595Y-58371571D02*
X67814023Y-58371571D01*
X67814023Y-58895380D02*
X67814023Y-57895380D01*
X68814023Y-58895380D02*
X68242595Y-58895380D01*
X68528309Y-58895380D02*
X68528309Y-57895380D01*
X68433071Y-58038238D01*
X68337833Y-58133476D01*
X68242595Y-58181095D01*
X81242595Y-58795380D02*
X81242595Y-57795380D01*
X81242595Y-58271571D02*
X81814023Y-58271571D01*
X81814023Y-58795380D02*
X81814023Y-57795380D01*
X82718785Y-58128714D02*
X82718785Y-58795380D01*
X82480690Y-57747761D02*
X82242595Y-58462047D01*
X82861642Y-58462047D01*
X66931071Y-64176333D02*
X66931071Y-64509666D01*
X67454880Y-64509666D02*
X66454880Y-64509666D01*
X66454880Y-64033476D01*
X67454880Y-63128714D02*
X67454880Y-63700142D01*
X67454880Y-63414428D02*
X66454880Y-63414428D01*
X66597738Y-63509666D01*
X66692976Y-63604904D01*
X66740595Y-63700142D01*
X74669166Y-59295380D02*
X74669166Y-60009666D01*
X74621547Y-60152523D01*
X74526309Y-60247761D01*
X74383452Y-60295380D01*
X74288214Y-60295380D01*
X75669166Y-60295380D02*
X75097738Y-60295380D01*
X75383452Y-60295380D02*
X75383452Y-59295380D01*
X75288214Y-59438238D01*
X75192976Y-59533476D01*
X75097738Y-59581095D01*
X72669166Y-69495380D02*
X72669166Y-70209666D01*
X72621547Y-70352523D01*
X72526309Y-70447761D01*
X72383452Y-70495380D01*
X72288214Y-70495380D01*
X73097738Y-69590619D02*
X73145357Y-69543000D01*
X73240595Y-69495380D01*
X73478690Y-69495380D01*
X73573928Y-69543000D01*
X73621547Y-69590619D01*
X73669166Y-69685857D01*
X73669166Y-69781095D01*
X73621547Y-69923952D01*
X73050119Y-70495380D01*
X73669166Y-70495380D01*
X79167547Y-65813654D02*
X79066532Y-66386074D01*
X79571608Y-66217715D02*
X78864502Y-66924822D01*
X78595127Y-66655448D01*
X78561456Y-66554433D01*
X78561456Y-66487089D01*
X78595127Y-66386074D01*
X78696143Y-66285059D01*
X78797158Y-66251387D01*
X78864502Y-66251387D01*
X78965517Y-66285059D01*
X79234891Y-66554433D01*
X78494112Y-65140219D02*
X78898173Y-65544280D01*
X78696143Y-65342249D02*
X77989036Y-66049356D01*
X78157395Y-66015684D01*
X78292082Y-66015685D01*
X78393097Y-66049356D01*
X68164404Y-67695380D02*
X68164404Y-66695380D01*
X68402500Y-66695380D01*
X68545357Y-66743000D01*
X68640595Y-66838238D01*
X68688214Y-66933476D01*
X68735833Y-67123952D01*
X68735833Y-67266809D01*
X68688214Y-67457285D01*
X68640595Y-67552523D01*
X68545357Y-67647761D01*
X68402500Y-67695380D01*
X68164404Y-67695380D01*
X69688214Y-67695380D02*
X69116785Y-67695380D01*
X69402500Y-67695380D02*
X69402500Y-66695380D01*
X69307261Y-66838238D01*
X69212023Y-66933476D01*
X69116785Y-66981095D01*
X76769166Y-69495380D02*
X76769166Y-70209666D01*
X76721547Y-70352523D01*
X76626309Y-70447761D01*
X76483452Y-70495380D01*
X76388214Y-70495380D01*
X77150119Y-69495380D02*
X77769166Y-69495380D01*
X77435833Y-69876333D01*
X77578690Y-69876333D01*
X77673928Y-69923952D01*
X77721547Y-69971571D01*
X77769166Y-70066809D01*
X77769166Y-70304904D01*
X77721547Y-70400142D01*
X77673928Y-70447761D01*
X77578690Y-70495380D01*
X77292976Y-70495380D01*
X77197738Y-70447761D01*
X77150119Y-70400142D01*
X73654880Y-66409666D02*
X73178690Y-66743000D01*
X73654880Y-66981095D02*
X72654880Y-66981095D01*
X72654880Y-66600142D01*
X72702500Y-66504904D01*
X72750119Y-66457285D01*
X72845357Y-66409666D01*
X72988214Y-66409666D01*
X73083452Y-66457285D01*
X73131071Y-66504904D01*
X73178690Y-66600142D01*
X73178690Y-66981095D01*
X72750119Y-66028714D02*
X72702500Y-65981095D01*
X72654880Y-65885857D01*
X72654880Y-65647761D01*
X72702500Y-65552523D01*
X72750119Y-65504904D01*
X72845357Y-65457285D01*
X72940595Y-65457285D01*
X73083452Y-65504904D01*
X73654880Y-66076333D01*
X73654880Y-65457285D01*
D11*
X83236052Y-65689052D02*
X83492631Y-65945631D01*
X82953815Y-66484446D01*
X82774210Y-65227211D02*
X83082105Y-65535105D01*
X82928157Y-65381158D02*
X82389342Y-65919973D01*
X82517631Y-65894315D01*
X82620263Y-65894315D01*
X82697237Y-65919973D01*
D12*
X73502500Y-66426400D02*
G75*
G03*
X73502500Y-66426400I0J0D01*
G01*
D13*
X80967500Y-62981748D02*
X80967500Y-63504252D01*
X82437500Y-62981748D02*
X82437500Y-63504252D01*
X68712500Y-63671733D02*
X68712500Y-64014267D01*
X67692500Y-63671733D02*
X67692500Y-64014267D01*
D10*
X72004500Y-68393000D02*
X73004500Y-68393000D01*
X77004500Y-68393000D02*
X78004500Y-68393000D01*
X77004500Y-72593000D02*
X73004500Y-72593000D01*
X72004500Y-70793000D02*
X72004500Y-68393000D01*
X78004500Y-68393000D02*
X78004500Y-70793000D01*
D13*
X78052675Y-66455773D02*
X78289727Y-66692825D01*
X77515273Y-66993175D02*
X77752325Y-67230227D01*
X71052500Y-66243000D02*
X67152500Y-66243000D01*
X71052500Y-68243000D02*
X67152500Y-68243000D01*
X71052500Y-68243000D02*
X71052500Y-66243000D01*
X74122500Y-77268000D02*
X74122500Y-73268000D01*
X73687500Y-72148000D02*
X73762823Y-72148000D01*
X75612500Y-73268000D02*
X75612500Y-77268000D01*
X75732500Y-73268000D02*
X75732500Y-77268000D01*
X73687500Y-73268000D02*
X73687500Y-72148000D01*
X75017500Y-72148000D02*
X75017500Y-73268000D01*
X75392500Y-77268000D02*
X75392500Y-73268000D01*
X75032823Y-72148000D02*
X75002177Y-72148000D01*
X76347500Y-72148000D02*
X76347500Y-73268000D01*
X75912500Y-77268000D02*
X75392500Y-77268000D01*
X76347500Y-73268000D02*
X73687500Y-73268000D01*
X75912500Y-73268000D02*
X75912500Y-77268000D01*
X76272177Y-72148000D02*
X76347500Y-72148000D01*
X75652500Y-69678000D02*
X76412500Y-69678000D01*
X74642500Y-73268000D02*
X74642500Y-77268000D01*
X74642500Y-77268000D02*
X74122500Y-77268000D01*
X75492500Y-73268000D02*
X75492500Y-77268000D01*
X75852500Y-73268000D02*
X75852500Y-77268000D01*
X76412500Y-69678000D02*
X76412500Y-70438000D01*
X71722500Y-66875379D02*
X71722500Y-67210621D01*
X72482500Y-66875379D02*
X72482500Y-67210621D01*
X80920244Y-68512191D02*
X81771691Y-67660744D01*
X79633309Y-67225256D02*
X80484756Y-66373809D01*
%LPC*%
D14*
X68004500Y-71043000D03*
D15*
X68004500Y-71043000D03*
D16*
X74002500Y-66411400D03*
D17*
X74502500Y-66411400D03*
D18*
X75002500Y-66411400D03*
D17*
X75502500Y-66411400D03*
X76002500Y-66411400D03*
X76002500Y-65641400D03*
X75502500Y-65641400D03*
D18*
X75002500Y-65641400D03*
D17*
X74502500Y-65641400D03*
X74002500Y-65641400D03*
D14*
X82004500Y-71043000D03*
D15*
X82004500Y-71043000D03*
D19*
X81702500Y-62293000D03*
X81702500Y-64193000D03*
D15*
X68004500Y-58543000D03*
D14*
X68004500Y-58543000D03*
D15*
X82004500Y-58543000D03*
D14*
X82004500Y-58543000D03*
D20*
X68202500Y-62968000D03*
X68202500Y-64718000D03*
D21*
X72112500Y-62792000D03*
X77892500Y-62792000D03*
D22*
X78252500Y-64118000D03*
X77452500Y-64118000D03*
D23*
X76252500Y-64118000D03*
X75256500Y-64118000D03*
X74752500Y-64118000D03*
X73752500Y-64118000D03*
D22*
X71752500Y-64118000D03*
X72552500Y-64118000D03*
D23*
X73252500Y-64118000D03*
X74252500Y-64118000D03*
X75752500Y-64118000D03*
X76752500Y-64118000D03*
D24*
X79302500Y-63343000D03*
X70702500Y-63343000D03*
D25*
X79302500Y-59143000D03*
X70702500Y-59143000D03*
D26*
X72204500Y-71893000D03*
X77804500Y-71893000D03*
D27*
X73504500Y-68018000D03*
X74504500Y-68018000D03*
X75504500Y-68018000D03*
X76504500Y-68018000D03*
D28*
X77480004Y-66420504D03*
X78324996Y-67265496D03*
D29*
X70452500Y-67243000D03*
X67152500Y-67243000D03*
D30*
X75652500Y-70438000D03*
D31*
X75652500Y-71708000D03*
X74382500Y-70438000D03*
X74382500Y-71708000D03*
D32*
X72102500Y-66445500D03*
X72102500Y-67640500D03*
D33*
X79712551Y-68432949D03*
X81692449Y-66453051D03*
M02*
