G04 #@! TF.GenerationSoftware,KiCad,Pcbnew,(6.0.4)*
G04 #@! TF.CreationDate,2022-05-20T19:37:54+02:00*
G04 #@! TF.ProjectId,Unified-Daughterboard-rounded,556e6966-6965-4642-9d44-617567687465,C3*
G04 #@! TF.SameCoordinates,Original*
G04 #@! TF.FileFunction,Copper,L1,Top*
G04 #@! TF.FilePolarity,Positive*
%FSLAX46Y46*%
G04 Gerber Fmt 4.6, Leading zero omitted, Abs format (unit mm)*
G04 Created by KiCad (PCBNEW (6.0.4)) date 2022-05-20 19:37:54*
%MOMM*%
%LPD*%
G01*
G04 APERTURE LIST*
G04 Aperture macros list*
%AMRoundRect*
0 Rectangle with rounded corners*
0 $1 Rounding radius*
0 $2 $3 $4 $5 $6 $7 $8 $9 X,Y pos of 4 corners*
0 Add a 4 corners polygon primitive as box body*
4,1,4,$2,$3,$4,$5,$6,$7,$8,$9,$2,$3,0*
0 Add four circle primitives for the rounded corners*
1,1,$1+$1,$2,$3*
1,1,$1+$1,$4,$5*
1,1,$1+$1,$6,$7*
1,1,$1+$1,$8,$9*
0 Add four rect primitives between the rounded corners*
20,1,$1+$1,$2,$3,$4,$5,0*
20,1,$1+$1,$4,$5,$6,$7,0*
20,1,$1+$1,$6,$7,$8,$9,0*
20,1,$1+$1,$8,$9,$2,$3,0*%
G04 Aperture macros list end*
G04 #@! TA.AperFunction,ConnectorPad*
%ADD10C,3.800000*%
G04 #@! TD*
G04 #@! TA.AperFunction,ComponentPad*
%ADD11C,2.600000*%
G04 #@! TD*
G04 #@! TA.AperFunction,SMDPad,CuDef*
%ADD12RoundRect,0.125000X0.000000X-0.150000X0.000000X-0.150000X0.000000X0.150000X0.000000X0.150000X0*%
G04 #@! TD*
G04 #@! TA.AperFunction,SMDPad,CuDef*
%ADD13R,0.250000X0.550000*%
G04 #@! TD*
G04 #@! TA.AperFunction,SMDPad,CuDef*
%ADD14R,0.300000X0.550000*%
G04 #@! TD*
G04 #@! TA.AperFunction,SMDPad,CuDef*
%ADD15RoundRect,0.250000X-0.475000X0.250000X-0.475000X-0.250000X0.475000X-0.250000X0.475000X0.250000X0*%
G04 #@! TD*
G04 #@! TA.AperFunction,SMDPad,CuDef*
%ADD16RoundRect,0.237500X-0.237500X0.287500X-0.237500X-0.287500X0.237500X-0.287500X0.237500X0.287500X0*%
G04 #@! TD*
G04 #@! TA.AperFunction,SMDPad,CuDef*
%ADD17RoundRect,0.150000X0.150000X0.575000X-0.150000X0.575000X-0.150000X-0.575000X0.150000X-0.575000X0*%
G04 #@! TD*
G04 #@! TA.AperFunction,SMDPad,CuDef*
%ADD18RoundRect,0.075000X0.075000X0.650000X-0.075000X0.650000X-0.075000X-0.650000X0.075000X-0.650000X0*%
G04 #@! TD*
G04 #@! TA.AperFunction,ComponentPad*
%ADD19O,1.100000X2.200000*%
G04 #@! TD*
G04 #@! TA.AperFunction,ComponentPad*
%ADD20O,1.300000X1.900000*%
G04 #@! TD*
G04 #@! TA.AperFunction,SMDPad,CuDef*
%ADD21R,1.200000X1.800000*%
G04 #@! TD*
G04 #@! TA.AperFunction,SMDPad,CuDef*
%ADD22R,0.600000X1.550000*%
G04 #@! TD*
G04 #@! TA.AperFunction,SMDPad,CuDef*
%ADD23RoundRect,0.160000X-0.252791X0.026517X0.026517X-0.252791X0.252791X-0.026517X-0.026517X0.252791X0*%
G04 #@! TD*
G04 #@! TA.AperFunction,SMDPad,CuDef*
%ADD24R,0.900000X1.200000*%
G04 #@! TD*
G04 #@! TA.AperFunction,ComponentPad*
%ADD25R,1.000000X1.000000*%
G04 #@! TD*
G04 #@! TA.AperFunction,ComponentPad*
%ADD26O,1.000000X1.000000*%
G04 #@! TD*
G04 #@! TA.AperFunction,SMDPad,CuDef*
%ADD27RoundRect,0.160000X-0.160000X0.197500X-0.160000X-0.197500X0.160000X-0.197500X0.160000X0.197500X0*%
G04 #@! TD*
G04 #@! TA.AperFunction,SMDPad,CuDef*
%ADD28RoundRect,0.250000X0.176777X-0.707107X0.707107X-0.176777X-0.176777X0.707107X-0.707107X0.176777X0*%
G04 #@! TD*
G04 #@! TA.AperFunction,ViaPad*
%ADD29C,0.508000*%
G04 #@! TD*
G04 #@! TA.AperFunction,ViaPad*
%ADD30C,0.450000*%
G04 #@! TD*
G04 #@! TA.AperFunction,Conductor*
%ADD31C,0.508000*%
G04 #@! TD*
G04 #@! TA.AperFunction,Conductor*
%ADD32C,0.254000*%
G04 #@! TD*
G04 #@! TA.AperFunction,Conductor*
%ADD33C,0.200000*%
G04 #@! TD*
G04 #@! TA.AperFunction,Conductor*
%ADD34C,0.152400*%
G04 #@! TD*
G04 APERTURE END LIST*
D10*
X68004500Y-71043000D03*
D11*
X68004500Y-71043000D03*
D12*
X74002500Y-66411400D03*
D13*
X74502500Y-66411400D03*
D14*
X75002500Y-66411400D03*
D13*
X75502500Y-66411400D03*
X76002500Y-66411400D03*
X76002500Y-65641400D03*
X75502500Y-65641400D03*
D14*
X75002500Y-65641400D03*
D13*
X74502500Y-65641400D03*
X74002500Y-65641400D03*
D10*
X82004500Y-71043000D03*
D11*
X82004500Y-71043000D03*
D15*
X81702500Y-62293000D03*
X81702500Y-64193000D03*
D11*
X68004500Y-58543000D03*
D10*
X68004500Y-58543000D03*
D11*
X82004500Y-58543000D03*
D10*
X82004500Y-58543000D03*
D16*
X68202500Y-62968000D03*
X68202500Y-64718000D03*
D17*
X78252500Y-64118000D03*
X77452500Y-64118000D03*
D18*
X76252500Y-64118000D03*
X75256500Y-64118000D03*
X74752500Y-64118000D03*
X73752500Y-64118000D03*
D17*
X71752500Y-64118000D03*
X72552500Y-64118000D03*
D18*
X73252500Y-64118000D03*
X74252500Y-64118000D03*
X75752500Y-64118000D03*
X76752500Y-64118000D03*
D19*
X79302500Y-63343000D03*
X70702500Y-63343000D03*
D20*
X79302500Y-59143000D03*
X70702500Y-59143000D03*
D21*
X72204500Y-71893000D03*
X77804500Y-71893000D03*
D22*
X73504500Y-68018000D03*
X74504500Y-68018000D03*
X75504500Y-68018000D03*
X76504500Y-68018000D03*
D23*
X77480004Y-66420504D03*
X78324996Y-67265496D03*
D24*
X70452500Y-67243000D03*
X67152500Y-67243000D03*
D25*
X75652500Y-70438000D03*
D26*
X75652500Y-71708000D03*
X74382500Y-70438000D03*
X74382500Y-71708000D03*
D27*
X72102500Y-66445500D03*
X72102500Y-67640500D03*
D28*
X79712551Y-68432949D03*
X81692449Y-66453051D03*
D29*
X73502500Y-68043000D03*
X75502500Y-68016000D03*
D30*
X73402500Y-66743000D03*
D29*
X74504500Y-68018000D03*
D30*
X76702500Y-66743000D03*
D29*
X72552500Y-65239000D03*
X77452500Y-65239000D03*
X69402500Y-67243000D03*
X72102500Y-67643000D03*
D30*
X75002500Y-66863000D03*
D29*
X78302500Y-64143000D03*
X70602500Y-65043000D03*
X79702500Y-65843000D03*
X70702500Y-69043000D03*
D31*
X78158996Y-69342983D02*
G75*
G03*
X79257525Y-68887974I4J1553583D01*
G01*
X77356053Y-69343019D02*
G75*
G02*
X76752500Y-69093000I47J853619D01*
G01*
X76569995Y-71575495D02*
G75*
G03*
X76702500Y-71255616I-319895J319895D01*
G01*
X76702497Y-68356007D02*
G75*
G03*
X76603500Y-68117000I-337997J7D01*
G01*
X76503500Y-68019000D02*
G75*
G02*
X76505500Y-68019000I1000J-997D01*
G01*
X76502506Y-68021414D02*
G75*
G02*
X76503500Y-68019000I3394J14D01*
G01*
X76752484Y-69093016D02*
G75*
G02*
X76502500Y-68489446I603516J603516D01*
G01*
X76250116Y-71708006D02*
G75*
G03*
X76569999Y-71575499I-16J452406D01*
G01*
D32*
X71325723Y-65043009D02*
G75*
G03*
X71627500Y-64918000I-23J426809D01*
G01*
X71627493Y-64917993D02*
G75*
G03*
X71752500Y-64616223I-301793J301793D01*
G01*
D31*
X81228754Y-64316741D02*
G75*
G02*
X81527500Y-64193000I298746J-298759D01*
G01*
X69502505Y-63949586D02*
G75*
G03*
X69215000Y-63255500I-981605J-14D01*
G01*
X68565000Y-62967985D02*
G75*
G02*
X69183826Y-63224326I0J-875115D01*
G01*
X72186359Y-65707438D02*
G75*
G03*
X72445259Y-65600239I41J366138D01*
G01*
X72462696Y-65582801D02*
G75*
G03*
X72552500Y-65366000I-216796J216801D01*
G01*
X69634731Y-65575249D02*
G75*
G02*
X69502500Y-65255984I319269J319249D01*
G01*
X69953995Y-65707487D02*
G75*
G02*
X69634740Y-65575240I5J451487D01*
G01*
X78362477Y-65238976D02*
G75*
G03*
X79915904Y-64595548I23J2196876D01*
G01*
X80414557Y-64096886D02*
G75*
G03*
X80596980Y-63656497I-440357J440386D01*
G01*
X80596980Y-63656497D02*
G75*
G02*
X80779397Y-63216102I622820J-3D01*
G01*
X77452500Y-64723720D02*
X77452500Y-65067240D01*
X72552500Y-64723720D02*
X72552500Y-65067240D01*
D33*
X74453493Y-67967007D02*
G75*
G02*
X74402500Y-67843875I123107J123107D01*
G01*
X76002486Y-65355132D02*
G75*
G03*
X75852499Y-64993001I-512086J32D01*
G01*
X75852491Y-64993009D02*
G75*
G02*
X75702500Y-64630867I362109J362109D01*
G01*
X74452503Y-66693003D02*
G75*
G03*
X74502500Y-66572289I-120703J120703D01*
G01*
X76186700Y-66411400D02*
G75*
G02*
X76002500Y-66227200I0J184200D01*
G01*
X74443490Y-70376990D02*
G75*
G03*
X74504500Y-70229732I-147290J147290D01*
G01*
X74402505Y-66813710D02*
G75*
G02*
X74452500Y-66693000I170695J10D01*
G01*
X74627504Y-65138382D02*
G75*
G03*
X74752500Y-64836601I-301804J301782D01*
G01*
X76186700Y-66411401D02*
G75*
G02*
X76501149Y-66541649I0J-444699D01*
G01*
X75702482Y-63653355D02*
G75*
G02*
X75727500Y-63593000I85418J-45D01*
G01*
X74502475Y-65440154D02*
G75*
G02*
X74627500Y-65138378I426825J-46D01*
G01*
X74502500Y-65452389D02*
X74502500Y-65830411D01*
X76002500Y-65392200D02*
X76002500Y-65890600D01*
X74502500Y-66295600D02*
X74502500Y-66527200D01*
D32*
X72826252Y-66019252D02*
G75*
G03*
X73252500Y-64990191I-1029052J1029052D01*
G01*
X72251250Y-66445538D02*
G75*
G03*
X72505181Y-66340316I-50J359138D01*
G01*
D33*
X75578500Y-70364000D02*
G75*
G02*
X75578500Y-70364000I0J0D01*
G01*
X75504500Y-68018000D02*
G75*
G02*
X75504500Y-68018000I0J0D01*
G01*
D32*
X75504500Y-68018000D02*
G75*
G02*
X75504500Y-68018000I0J0D01*
G01*
D33*
X75504500Y-68018000D02*
G75*
G02*
X75504500Y-68018000I0J0D01*
G01*
D32*
X75504500Y-68018000D02*
G75*
G02*
X75504500Y-68018000I0J0D01*
G01*
D33*
X74002500Y-66307100D02*
G75*
G02*
X73898200Y-66411400I-104300J0D01*
G01*
D32*
X73898200Y-66411400D02*
G75*
G02*
X74002500Y-66515700I0J-104300D01*
G01*
D33*
X75502495Y-65437326D02*
G75*
G03*
X75379500Y-65140378I-419895J26D01*
G01*
X75552497Y-66693003D02*
G75*
G02*
X75502500Y-66572289I120703J120703D01*
G01*
X75578485Y-70364015D02*
G75*
G02*
X75504500Y-70185348I178615J178615D01*
G01*
X75379525Y-65140353D02*
G75*
G02*
X75256500Y-64843429I296875J296953D01*
G01*
X75602495Y-66813710D02*
G75*
G03*
X75552500Y-66693000I-170695J10D01*
G01*
X75553499Y-67968999D02*
G75*
G03*
X75602500Y-67850703I-118299J118299D01*
G01*
X74002491Y-65219776D02*
G75*
G02*
X74127500Y-64918000I426809J-24D01*
G01*
X73639204Y-66506291D02*
G75*
G02*
X73868300Y-66411400I229096J-229109D01*
G01*
X74127493Y-64917993D02*
G75*
G03*
X74252500Y-64616223I-301793J301793D01*
G01*
X74002500Y-66307100D02*
X74002500Y-66515700D01*
X75502500Y-65452389D02*
X75502500Y-65830411D01*
X74002500Y-65342200D02*
X74002500Y-65940600D01*
X75502500Y-66295600D02*
X75502500Y-66527200D01*
D32*
X76631467Y-65571957D02*
G75*
G02*
X76495202Y-65243000I328933J328957D01*
G01*
X76242990Y-64400489D02*
G75*
G03*
X76254500Y-64372737I-27790J27789D01*
G01*
X76495195Y-65221915D02*
G75*
G03*
X76373850Y-64928949I-414295J15D01*
G01*
X76373845Y-64928954D02*
G75*
G02*
X76252500Y-64635980I292955J292954D01*
G01*
D31*
X80980235Y-59143014D02*
G75*
G03*
X81704499Y-58842999I-35J1024314D01*
G01*
X79302500Y-60194000D02*
G75*
G02*
X80353500Y-59143000I1051000J0D01*
G01*
X71261078Y-68343009D02*
G75*
G02*
X71502500Y-68443000I22J-341391D01*
G01*
X73739343Y-71064837D02*
G75*
G02*
X73501989Y-70491824I573057J573037D01*
G01*
X72648946Y-68543019D02*
G75*
G03*
X73252500Y-68293000I-46J853619D01*
G01*
X68158308Y-64887197D02*
G75*
G03*
X68202500Y-64780500I-106708J106697D01*
G01*
X69030317Y-68342992D02*
G75*
G02*
X67702501Y-67792999I-17J1877792D01*
G01*
X67152502Y-66568000D02*
G75*
G02*
X67629798Y-65415703I1629598J0D01*
G01*
X71743921Y-68542991D02*
G75*
G02*
X71502500Y-68443000I-21J341391D01*
G01*
X67629796Y-67720298D02*
G75*
G02*
X67152500Y-66568000I1152304J1152298D01*
G01*
X78158996Y-69343000D02*
X77356053Y-69343000D01*
X79257525Y-68887974D02*
X79712551Y-68432949D01*
X76502500Y-68021414D02*
X76502500Y-68489446D01*
X76603500Y-68117000D02*
X76505500Y-68019000D01*
X76702500Y-71255616D02*
X76702500Y-68356007D01*
X76250116Y-71708000D02*
X75652500Y-71708000D01*
X73252500Y-68293000D02*
X73502500Y-68043000D01*
X71261078Y-68343000D02*
X69030317Y-68343000D01*
X72648946Y-68543000D02*
X71743921Y-68543000D01*
X68158305Y-64887194D02*
X67629797Y-65415702D01*
X68202500Y-64780500D02*
X68202500Y-64718000D01*
X67702500Y-67793000D02*
X67629797Y-67720297D01*
X73739340Y-71064840D02*
X74382500Y-71708000D01*
X73501989Y-70491824D02*
X73501989Y-68020511D01*
X70702500Y-63343000D02*
X70702500Y-59143000D01*
X79324500Y-59143000D02*
X79324500Y-59283000D01*
X80980235Y-59143000D02*
X80353500Y-59143000D01*
X79302500Y-60194000D02*
X79302500Y-63343000D01*
X68004500Y-71043000D02*
X68004500Y-70950000D01*
X81704500Y-58843000D02*
X82004500Y-58543000D01*
D32*
X76495202Y-65243000D02*
X76495202Y-65221915D01*
X76254500Y-64372737D02*
X76254500Y-64238000D01*
X76631462Y-65571962D02*
X77480004Y-66420504D01*
X76252500Y-64635980D02*
X76252500Y-63568000D01*
X76243000Y-64400499D02*
X76231501Y-64411999D01*
D33*
X75256500Y-64843429D02*
X75256500Y-63568000D01*
X73402500Y-66743000D02*
X73639206Y-66506293D01*
X75504500Y-68018000D02*
X75504500Y-70185348D01*
X75502500Y-66572289D02*
X75502500Y-66527200D01*
D34*
X75578500Y-70364000D02*
X75502500Y-70288000D01*
D33*
X73898200Y-66411400D02*
X73868300Y-66411400D01*
X74002500Y-66307100D02*
X74002500Y-65940600D01*
D32*
X74002500Y-66515700D02*
X74002500Y-66620000D01*
D33*
X74002500Y-65219776D02*
X74002500Y-65342200D01*
X75504500Y-68018000D02*
X75553500Y-67969000D01*
X75602500Y-66813710D02*
X75602500Y-67850703D01*
X74252500Y-64616223D02*
X74252500Y-63568000D01*
X75502500Y-65437326D02*
X75502500Y-65452389D01*
X75502500Y-65830411D02*
X75502500Y-66295600D01*
D32*
X75504500Y-68018000D02*
X75502500Y-68016000D01*
X73252500Y-64990191D02*
X73252500Y-63568000D01*
X72251250Y-66445500D02*
X72102500Y-66445500D01*
X72826249Y-66019249D02*
X72505182Y-66340317D01*
D33*
X75727500Y-63593000D02*
X75752500Y-63568000D01*
X74502500Y-66572289D02*
X74502500Y-66527200D01*
X75702500Y-64630867D02*
X75702500Y-63653355D01*
X74502500Y-65452389D02*
X74502500Y-65440154D01*
X74504500Y-68018000D02*
X74504500Y-70229732D01*
X74443500Y-70377000D02*
X74382500Y-70438000D01*
X74402500Y-67843875D02*
X74402500Y-66813710D01*
X74502500Y-65830411D02*
X74502500Y-66295600D01*
X74453500Y-67967000D02*
X74504500Y-68018000D01*
X74752500Y-64836601D02*
X74752500Y-63568000D01*
X76501149Y-66541649D02*
X76702500Y-66743000D01*
X76002500Y-65355132D02*
X76002500Y-65392200D01*
X76002500Y-66227200D02*
X76002500Y-65890600D01*
D31*
X72552500Y-65239000D02*
X72552500Y-65067240D01*
X72445259Y-65600239D02*
X72462697Y-65582802D01*
X72186359Y-65707480D02*
X69953995Y-65707480D01*
X77452500Y-64723720D02*
X77452500Y-63568000D01*
X68565000Y-62968000D02*
X68202500Y-62968000D01*
X69502500Y-63949586D02*
X69502500Y-65255984D01*
X72552500Y-65239000D02*
X72552500Y-65366000D01*
X69215000Y-63255500D02*
X69183826Y-63224326D01*
X77452500Y-65067240D02*
X77452500Y-65239000D01*
X78362477Y-65239000D02*
X77452500Y-65239000D01*
X72552500Y-64723720D02*
X72552500Y-63568000D01*
X80779397Y-63216102D02*
X81702500Y-62293000D01*
X79915904Y-64595548D02*
X80414562Y-64096891D01*
X81527500Y-64193000D02*
X81702500Y-64193000D01*
D32*
X71752500Y-64616223D02*
X71752500Y-63568000D01*
X75002500Y-66863000D02*
X75002500Y-65641400D01*
X71325723Y-65043000D02*
X70602500Y-65043000D01*
D31*
X79702500Y-65843000D02*
X81228756Y-64316743D01*
X81702500Y-64293000D02*
X81452500Y-64293000D01*
G04 #@! TA.AperFunction,Conductor*
G36*
X79929696Y-68215482D02*
G01*
X79933284Y-68224144D01*
X79917817Y-69015249D01*
X79914229Y-69023453D01*
X79910040Y-69026043D01*
X79850035Y-69047382D01*
X79790358Y-69068603D01*
X79790284Y-69068630D01*
X79720147Y-69094893D01*
X79680664Y-69109677D01*
X79680595Y-69109704D01*
X79622447Y-69132680D01*
X79583635Y-69148015D01*
X79494196Y-69185129D01*
X79407306Y-69222516D01*
X79317922Y-69261674D01*
X79317919Y-69261675D01*
X79221066Y-69304073D01*
X79221005Y-69304100D01*
X79111517Y-69351289D01*
X79111422Y-69351329D01*
X78984441Y-69404731D01*
X78984332Y-69404776D01*
X78845520Y-69461516D01*
X78836565Y-69461474D01*
X78830241Y-69455059D01*
X78648881Y-69005018D01*
X78648967Y-68996064D01*
X78654729Y-68990069D01*
X78756604Y-68941865D01*
X78843455Y-68884252D01*
X78909341Y-68821727D01*
X78958295Y-68754067D01*
X78994347Y-68681050D01*
X79021528Y-68602454D01*
X79043869Y-68518057D01*
X79065387Y-68427698D01*
X79065431Y-68427523D01*
X79090085Y-68331254D01*
X79090245Y-68330689D01*
X79119663Y-68235904D01*
X79125388Y-68229018D01*
X79130608Y-68227674D01*
X79921357Y-68212217D01*
X79929696Y-68215482D01*
G37*
G04 #@! TD.AperFunction*
G04 #@! TA.AperFunction,Conductor*
G36*
X72560933Y-63426769D02*
G01*
X72817417Y-63693481D01*
X72820682Y-63701820D01*
X72819959Y-63705645D01*
X72813587Y-63722898D01*
X72807459Y-63752088D01*
X72803682Y-63786254D01*
X72801819Y-63825317D01*
X72801818Y-63825387D01*
X72801818Y-63825399D01*
X72801437Y-63869150D01*
X72801438Y-63869253D01*
X72802099Y-63917808D01*
X72803372Y-63971076D01*
X72804817Y-64028847D01*
X72804819Y-64028917D01*
X72806005Y-64091167D01*
X72806007Y-64091303D01*
X72806413Y-64146213D01*
X72803047Y-64154512D01*
X72794713Y-64158000D01*
X72310287Y-64158000D01*
X72302014Y-64154573D01*
X72298587Y-64146214D01*
X72298992Y-64091304D01*
X72298994Y-64091167D01*
X72300180Y-64028917D01*
X72300182Y-64028847D01*
X72301627Y-63971076D01*
X72302900Y-63917808D01*
X72303561Y-63869253D01*
X72303562Y-63869150D01*
X72303181Y-63825399D01*
X72303181Y-63825387D01*
X72303180Y-63825317D01*
X72301317Y-63786254D01*
X72297540Y-63752088D01*
X72291412Y-63722898D01*
X72291262Y-63722491D01*
X72291260Y-63722485D01*
X72285040Y-63705644D01*
X72285388Y-63696696D01*
X72287582Y-63693481D01*
X72544067Y-63426769D01*
X72552271Y-63423181D01*
X72560933Y-63426769D01*
G37*
G04 #@! TD.AperFunction*
G04 #@! TA.AperFunction,Conductor*
G36*
X76439457Y-67893661D02*
G01*
X76470276Y-67904159D01*
X76573015Y-67939153D01*
X76574359Y-67939611D01*
X76574361Y-67939612D01*
X76797650Y-68015667D01*
X76804377Y-68021578D01*
X76805472Y-68025170D01*
X76808756Y-68049395D01*
X76820308Y-68085006D01*
X76837332Y-68125156D01*
X76837366Y-68125230D01*
X76857959Y-68170072D01*
X76858004Y-68170171D01*
X76880410Y-68220172D01*
X76880582Y-68220575D01*
X76902867Y-68275765D01*
X76903109Y-68276421D01*
X76923521Y-68337197D01*
X76923776Y-68338066D01*
X76940563Y-68404828D01*
X76940775Y-68405871D01*
X76952152Y-68478947D01*
X76952275Y-68480133D01*
X76955853Y-68548223D01*
X76952865Y-68556665D01*
X76944169Y-68560537D01*
X76448500Y-68560537D01*
X76446699Y-68515435D01*
X76441619Y-68473435D01*
X76433739Y-68434703D01*
X76423540Y-68399408D01*
X76411503Y-68367720D01*
X76398109Y-68339805D01*
X76383838Y-68315832D01*
X76369171Y-68295970D01*
X76354589Y-68280387D01*
X76340573Y-68269252D01*
X76424277Y-67902135D01*
X76429457Y-67894831D01*
X76438285Y-67893329D01*
X76439457Y-67893661D01*
G37*
G04 #@! TD.AperFunction*
G04 #@! TA.AperFunction,Conductor*
G36*
X68507680Y-62603290D02*
G01*
X68546762Y-62631165D01*
X68577324Y-62652964D01*
X68577650Y-62653139D01*
X68577656Y-62653143D01*
X68649711Y-62691875D01*
X68650009Y-62692035D01*
X68650314Y-62692156D01*
X68650320Y-62692159D01*
X68720396Y-62720006D01*
X68720401Y-62720008D01*
X68720608Y-62720090D01*
X68720819Y-62720154D01*
X68720824Y-62720156D01*
X68790438Y-62741351D01*
X68790452Y-62741355D01*
X68790531Y-62741379D01*
X68818711Y-62748867D01*
X68861126Y-62760137D01*
X68861293Y-62760183D01*
X68933659Y-62780569D01*
X68934322Y-62780777D01*
X68956717Y-62788547D01*
X69009874Y-62806991D01*
X69010833Y-62807374D01*
X69063947Y-62831362D01*
X69091139Y-62843643D01*
X69092213Y-62844197D01*
X69178891Y-62894813D01*
X69179877Y-62895459D01*
X69246867Y-62944532D01*
X69265000Y-62957815D01*
X69269649Y-62965469D01*
X69267184Y-62974610D01*
X68962342Y-63351651D01*
X68954476Y-63355930D01*
X68946579Y-63353911D01*
X68945857Y-63353410D01*
X68890547Y-63315074D01*
X68829691Y-63287311D01*
X68829097Y-63287179D01*
X68829094Y-63287178D01*
X68805262Y-63281881D01*
X68772021Y-63274492D01*
X68716620Y-63274299D01*
X68662568Y-63284413D01*
X68608946Y-63302515D01*
X68554836Y-63326287D01*
X68499317Y-63353410D01*
X68499316Y-63353407D01*
X68499302Y-63353417D01*
X68441667Y-63381470D01*
X68441280Y-63381650D01*
X68388087Y-63405045D01*
X68379136Y-63405239D01*
X68374720Y-63402205D01*
X68305750Y-63326330D01*
X67974725Y-62962166D01*
X67971697Y-62953741D01*
X67975514Y-62945640D01*
X67976940Y-62944532D01*
X68494442Y-62603049D01*
X68503235Y-62601353D01*
X68507680Y-62603290D01*
G37*
G04 #@! TD.AperFunction*
G04 #@! TA.AperFunction,Conductor*
G36*
X72577256Y-66104183D02*
G01*
X72740765Y-66267691D01*
X72744192Y-66275964D01*
X72740714Y-66284288D01*
X72692365Y-66332050D01*
X72692254Y-66332158D01*
X72643437Y-66379116D01*
X72643320Y-66379227D01*
X72600516Y-66419284D01*
X72600412Y-66419381D01*
X72561999Y-66454460D01*
X72541122Y-66473215D01*
X72526240Y-66486584D01*
X72526226Y-66486596D01*
X72522496Y-66489936D01*
X72491496Y-66517694D01*
X72456073Y-66549777D01*
X72418274Y-66584825D01*
X72418211Y-66584885D01*
X72418192Y-66584903D01*
X72376406Y-66624827D01*
X72334692Y-66665940D01*
X72326394Y-66669307D01*
X72321317Y-66668107D01*
X72233282Y-66624827D01*
X71958903Y-66489936D01*
X71952991Y-66483210D01*
X71953565Y-66474274D01*
X71954156Y-66473215D01*
X72163710Y-66139405D01*
X72171011Y-66134220D01*
X72176314Y-66134241D01*
X72215344Y-66143489D01*
X72215685Y-66143575D01*
X72259386Y-66155494D01*
X72300321Y-66166649D01*
X72300327Y-66166651D01*
X72300461Y-66166687D01*
X72339457Y-66175597D01*
X72339721Y-66175633D01*
X72339727Y-66175634D01*
X72355437Y-66177769D01*
X72377083Y-66180712D01*
X72377490Y-66180710D01*
X72377492Y-66180710D01*
X72413510Y-66180521D01*
X72413512Y-66180521D01*
X72414049Y-66180518D01*
X72451062Y-66173504D01*
X72467765Y-66166717D01*
X72488329Y-66158361D01*
X72488331Y-66158360D01*
X72488833Y-66158156D01*
X72528070Y-66132962D01*
X72561242Y-66103684D01*
X72569711Y-66100779D01*
X72577256Y-66104183D01*
G37*
G04 #@! TD.AperFunction*
G04 #@! TA.AperFunction,Conductor*
G36*
X73853711Y-70776200D02*
G01*
X73903997Y-70851033D01*
X73904519Y-70851508D01*
X73982836Y-70922772D01*
X73984687Y-70924922D01*
X73990339Y-70933373D01*
X74046260Y-70998703D01*
X74046559Y-70998970D01*
X74046563Y-70998974D01*
X74104101Y-71050335D01*
X74104105Y-71050338D01*
X74104404Y-71050605D01*
X74104729Y-71050824D01*
X74104734Y-71050828D01*
X74165320Y-71091666D01*
X74165605Y-71091858D01*
X74230694Y-71125243D01*
X74300504Y-71153539D01*
X74350712Y-71170852D01*
X74375859Y-71179523D01*
X74375868Y-71179526D01*
X74457580Y-71205972D01*
X74457683Y-71206006D01*
X74538756Y-71233077D01*
X74545518Y-71238948D01*
X74546748Y-71243946D01*
X74559038Y-71872611D01*
X74555773Y-71880950D01*
X74547111Y-71884538D01*
X74096686Y-71875733D01*
X73918117Y-71872242D01*
X73909913Y-71868654D01*
X73907397Y-71864670D01*
X73870253Y-71766096D01*
X73870196Y-71765944D01*
X73829910Y-71675151D01*
X73788733Y-71595309D01*
X73746063Y-71522019D01*
X73701299Y-71450882D01*
X73653840Y-71377498D01*
X73603158Y-71297587D01*
X73603013Y-71297352D01*
X73548534Y-71206571D01*
X73548338Y-71206232D01*
X73489380Y-71100071D01*
X73489179Y-71099693D01*
X73430420Y-70984143D01*
X73429725Y-70975216D01*
X73435731Y-70968319D01*
X73554532Y-70910528D01*
X73838884Y-70772205D01*
X73847821Y-70771667D01*
X73853711Y-70776200D01*
G37*
G04 #@! TD.AperFunction*
G04 #@! TA.AperFunction,Conductor*
G36*
X76513895Y-67876831D02*
G01*
X76572036Y-67938121D01*
X76773602Y-68150604D01*
X76761421Y-68179639D01*
X76750512Y-68215407D01*
X76741575Y-68257508D01*
X76735313Y-68305541D01*
X76732424Y-68359106D01*
X76733612Y-68417800D01*
X76739576Y-68481225D01*
X76751018Y-68548979D01*
X76753859Y-68560537D01*
X76768638Y-68620661D01*
X76768697Y-68620843D01*
X76768699Y-68620849D01*
X76789645Y-68685146D01*
X76788949Y-68694074D01*
X76782548Y-68699755D01*
X76327723Y-68866517D01*
X76318775Y-68866147D01*
X76312527Y-68859019D01*
X76285041Y-68770990D01*
X76284763Y-68769928D01*
X76264778Y-68675599D01*
X76264616Y-68674637D01*
X76253397Y-68585612D01*
X76253323Y-68584804D01*
X76248651Y-68501463D01*
X76248633Y-68500859D01*
X76248298Y-68423648D01*
X76248302Y-68423301D01*
X76250089Y-68352647D01*
X76250089Y-68352635D01*
X76251760Y-68289208D01*
X76251760Y-68289195D01*
X76251763Y-68289083D01*
X76251072Y-68233299D01*
X76249078Y-68215407D01*
X76245834Y-68186312D01*
X76245772Y-68185755D01*
X76235701Y-68153586D01*
X76236500Y-68144666D01*
X76238489Y-68141923D01*
X76245646Y-68134582D01*
X76470276Y-67904159D01*
X76497029Y-67876716D01*
X76505258Y-67873184D01*
X76513895Y-67876831D01*
G37*
G04 #@! TD.AperFunction*
G04 #@! TA.AperFunction,Conductor*
G36*
X75877597Y-71261111D02*
G01*
X75938581Y-71287635D01*
X75971907Y-71299470D01*
X76016654Y-71315362D01*
X76016661Y-71315364D01*
X76016849Y-71315431D01*
X76017036Y-71315484D01*
X76017049Y-71315488D01*
X76100282Y-71339007D01*
X76100289Y-71339009D01*
X76100506Y-71339070D01*
X76156253Y-71350418D01*
X76184524Y-71356173D01*
X76184528Y-71356174D01*
X76184805Y-71356230D01*
X76185087Y-71356259D01*
X76185091Y-71356260D01*
X76226549Y-71360583D01*
X76234423Y-71364850D01*
X76236973Y-71373433D01*
X76232706Y-71381307D01*
X76229499Y-71383154D01*
X76179691Y-71402120D01*
X76179690Y-71402120D01*
X76178410Y-71402608D01*
X76124555Y-71461409D01*
X76124621Y-71463690D01*
X76126864Y-71541090D01*
X76123678Y-71549459D01*
X76117649Y-71552863D01*
X75948773Y-71589497D01*
X75442851Y-71699247D01*
X75434041Y-71697652D01*
X75428938Y-71690293D01*
X75430533Y-71681482D01*
X75432262Y-71679380D01*
X75759333Y-71364850D01*
X75864822Y-71263407D01*
X75873160Y-71260142D01*
X75877597Y-71261111D01*
G37*
G04 #@! TD.AperFunction*
G04 #@! TA.AperFunction,Conductor*
G36*
X76915664Y-71038783D02*
G01*
X76921518Y-71045560D01*
X76922059Y-71048139D01*
X76931075Y-71143711D01*
X76929420Y-71150896D01*
X76885563Y-71222906D01*
X76881206Y-71227073D01*
X76844685Y-71247147D01*
X76793825Y-71275102D01*
X76791083Y-71276185D01*
X76745893Y-71287703D01*
X76672110Y-71306508D01*
X76670900Y-71306749D01*
X76623082Y-71313686D01*
X76535364Y-71326411D01*
X76535146Y-71326440D01*
X76519100Y-71328432D01*
X76437157Y-71338602D01*
X76428525Y-71336220D01*
X76424105Y-71328432D01*
X76426487Y-71319800D01*
X76428347Y-71317904D01*
X76433552Y-71313686D01*
X76449906Y-71263654D01*
X76449492Y-71261111D01*
X76440043Y-71203073D01*
X76442096Y-71194357D01*
X76447912Y-71190087D01*
X76876514Y-71048139D01*
X76906733Y-71038131D01*
X76915664Y-71038783D01*
G37*
G04 #@! TD.AperFunction*
G04 #@! TA.AperFunction,Conductor*
G36*
X73601210Y-67910207D02*
G01*
X73605248Y-67918669D01*
X73606551Y-67958112D01*
X73617706Y-68295820D01*
X73586362Y-68313571D01*
X73553642Y-68340488D01*
X73518482Y-68374976D01*
X73479816Y-68415439D01*
X73436581Y-68460282D01*
X73387713Y-68507910D01*
X73332146Y-68556726D01*
X73268816Y-68605135D01*
X73260457Y-68610511D01*
X73259042Y-68611421D01*
X73197099Y-68651259D01*
X73196182Y-68651791D01*
X73125482Y-68688680D01*
X73116562Y-68689469D01*
X73109454Y-68683226D01*
X72905756Y-68243668D01*
X72905387Y-68234721D01*
X72911062Y-68228324D01*
X72956962Y-68204944D01*
X72956983Y-68204932D01*
X72957170Y-68204837D01*
X72957356Y-68204724D01*
X72957363Y-68204720D01*
X73007270Y-68174377D01*
X73007269Y-68174377D01*
X73007474Y-68174253D01*
X73052070Y-68142324D01*
X73091099Y-68109685D01*
X73091253Y-68109535D01*
X73091262Y-68109527D01*
X73124545Y-68077128D01*
X73124548Y-68077125D01*
X73124704Y-68076973D01*
X73153027Y-68044823D01*
X73176209Y-68013873D01*
X73176331Y-68013678D01*
X73176337Y-68013669D01*
X73194246Y-67984992D01*
X73194393Y-67984757D01*
X73207720Y-67958112D01*
X73213734Y-67941678D01*
X73219795Y-67935087D01*
X73223878Y-67934029D01*
X73579843Y-67908314D01*
X73592711Y-67907385D01*
X73601210Y-67910207D01*
G37*
G04 #@! TD.AperFunction*
G04 #@! TA.AperFunction,Conductor*
G36*
X68333459Y-64526112D02*
G01*
X68338583Y-64533964D01*
X68412358Y-64974297D01*
X68437122Y-65122107D01*
X68435109Y-65130832D01*
X68431294Y-65134252D01*
X68324791Y-65193782D01*
X68221779Y-65250119D01*
X68127684Y-65303200D01*
X68040748Y-65356979D01*
X68040594Y-65357089D01*
X68040581Y-65357098D01*
X67969605Y-65407964D01*
X67959211Y-65415413D01*
X67959012Y-65415584D01*
X67959006Y-65415589D01*
X67881533Y-65482268D01*
X67881526Y-65482275D01*
X67881313Y-65482458D01*
X67805293Y-65562070D01*
X67729391Y-65658204D01*
X67729255Y-65658408D01*
X67651952Y-65774661D01*
X67651849Y-65774816D01*
X67595718Y-65872626D01*
X67576574Y-65905985D01*
X67569484Y-65911454D01*
X67560879Y-65910463D01*
X67134277Y-65680770D01*
X67128618Y-65673830D01*
X67129717Y-65664575D01*
X67207397Y-65531348D01*
X67207816Y-65530681D01*
X67288832Y-65411036D01*
X67289224Y-65410492D01*
X67366774Y-65309018D01*
X67367040Y-65308682D01*
X67440291Y-65219778D01*
X67440324Y-65219738D01*
X67508212Y-65138078D01*
X67508288Y-65137987D01*
X67513802Y-65130832D01*
X67569697Y-65058293D01*
X67569845Y-65058101D01*
X67578641Y-65044545D01*
X67623850Y-64974878D01*
X67623855Y-64974869D01*
X67624031Y-64974598D01*
X67669885Y-64881996D01*
X67706446Y-64774814D01*
X67731196Y-64655091D01*
X67736227Y-64647683D01*
X67740271Y-64646005D01*
X68324661Y-64524442D01*
X68333459Y-64526112D01*
G37*
G04 #@! TD.AperFunction*
G04 #@! TA.AperFunction,Conductor*
G36*
X81875450Y-62119727D02*
G01*
X81879038Y-62128389D01*
X81868588Y-62662980D01*
X81866747Y-62757140D01*
X81863159Y-62765344D01*
X81858864Y-62767971D01*
X81782185Y-62794414D01*
X81707414Y-62820593D01*
X81707400Y-62820598D01*
X81707329Y-62820623D01*
X81639768Y-62845989D01*
X81577252Y-62872569D01*
X81517530Y-62902417D01*
X81458352Y-62937590D01*
X81397468Y-62980143D01*
X81332626Y-63032132D01*
X81332528Y-63032219D01*
X81332518Y-63032228D01*
X81276757Y-63082049D01*
X81261577Y-63095612D01*
X81261478Y-63095708D01*
X81190341Y-63164627D01*
X81182015Y-63167923D01*
X81173927Y-63164497D01*
X80831003Y-62821572D01*
X80827576Y-62813299D01*
X80830873Y-62805158D01*
X80899791Y-62734020D01*
X80899887Y-62733921D01*
X80963367Y-62662872D01*
X81015356Y-62598031D01*
X81057909Y-62537146D01*
X81093082Y-62477968D01*
X81122930Y-62418246D01*
X81149510Y-62355730D01*
X81174876Y-62288170D01*
X81201085Y-62213314D01*
X81227528Y-62136637D01*
X81233465Y-62129933D01*
X81238359Y-62128753D01*
X81637886Y-62120943D01*
X81867111Y-62116462D01*
X81875450Y-62119727D01*
G37*
G04 #@! TD.AperFunction*
G04 #@! TA.AperFunction,Conductor*
G36*
X73514145Y-67876848D02*
G01*
X73607115Y-67975201D01*
X73608585Y-67976756D01*
X73768334Y-68145755D01*
X73771526Y-68154121D01*
X73770774Y-68157932D01*
X73764415Y-68174741D01*
X73764261Y-68175149D01*
X73764169Y-68175574D01*
X73764168Y-68175577D01*
X73758778Y-68200441D01*
X73757939Y-68204309D01*
X73753971Y-68238471D01*
X73753962Y-68238641D01*
X73753961Y-68238654D01*
X73752064Y-68274938D01*
X73751927Y-68277550D01*
X73751926Y-68277653D01*
X73751925Y-68277675D01*
X73751378Y-68321382D01*
X73751377Y-68321462D01*
X73751378Y-68321557D01*
X73751378Y-68321585D01*
X73751889Y-68370062D01*
X73751890Y-68370120D01*
X73753038Y-68423440D01*
X73754391Y-68481335D01*
X73755506Y-68543075D01*
X73755515Y-68543592D01*
X73755517Y-68543720D01*
X73755906Y-68598728D01*
X73752537Y-68607025D01*
X73744206Y-68610511D01*
X73247989Y-68610511D01*
X73248513Y-68543075D01*
X73249789Y-68480108D01*
X73251369Y-68421686D01*
X73252806Y-68367887D01*
X73253652Y-68318786D01*
X73253462Y-68274460D01*
X73251787Y-68234987D01*
X73248182Y-68200441D01*
X73242197Y-68170902D01*
X73233388Y-68146444D01*
X73497278Y-67876703D01*
X73505514Y-67873186D01*
X73514145Y-67876848D01*
G37*
G04 #@! TD.AperFunction*
G04 #@! TA.AperFunction,Conductor*
G36*
X77132597Y-65893046D02*
G01*
X77176091Y-65934194D01*
X77222804Y-65972763D01*
X77265889Y-66002691D01*
X77266124Y-66002824D01*
X77266128Y-66002826D01*
X77306530Y-66025609D01*
X77306537Y-66025612D01*
X77306763Y-66025740D01*
X77346845Y-66043673D01*
X77387553Y-66058249D01*
X77387688Y-66058290D01*
X77387700Y-66058294D01*
X77409224Y-66064830D01*
X77430306Y-66071232D01*
X77476522Y-66084381D01*
X77527476Y-66099416D01*
X77527762Y-66099505D01*
X77565505Y-66111846D01*
X77577120Y-66115644D01*
X77583919Y-66121473D01*
X77585182Y-66126536D01*
X77592903Y-66521476D01*
X77589638Y-66529815D01*
X77580976Y-66533403D01*
X77186036Y-66525682D01*
X77177832Y-66522094D01*
X77175144Y-66517620D01*
X77159011Y-66468281D01*
X77158910Y-66467956D01*
X77143881Y-66417022D01*
X77143850Y-66416913D01*
X77130732Y-66370806D01*
X77117794Y-66328200D01*
X77117790Y-66328188D01*
X77117749Y-66328053D01*
X77103173Y-66287345D01*
X77085240Y-66247263D01*
X77062191Y-66206389D01*
X77032263Y-66163304D01*
X76993694Y-66116591D01*
X76952546Y-66073097D01*
X76949349Y-66064732D01*
X76952772Y-66056783D01*
X77116283Y-65893272D01*
X77124556Y-65889845D01*
X77132597Y-65893046D01*
G37*
G04 #@! TD.AperFunction*
G04 #@! TA.AperFunction,Conductor*
G36*
X76260933Y-63501769D02*
G01*
X76382415Y-63628095D01*
X76385680Y-63636434D01*
X76384955Y-63640264D01*
X76383284Y-63644781D01*
X76383281Y-63644790D01*
X76383135Y-63645186D01*
X76380125Y-63659463D01*
X76378258Y-63676174D01*
X76377323Y-63695280D01*
X76377110Y-63716741D01*
X76377111Y-63716821D01*
X76377407Y-63740473D01*
X76377408Y-63740518D01*
X76378007Y-63766572D01*
X76378696Y-63794863D01*
X76378697Y-63794930D01*
X76379261Y-63825219D01*
X76379263Y-63825352D01*
X76379414Y-63846215D01*
X76376047Y-63854513D01*
X76367714Y-63858000D01*
X76137285Y-63858000D01*
X76129012Y-63854573D01*
X76125585Y-63846215D01*
X76125736Y-63825352D01*
X76125738Y-63825219D01*
X76126302Y-63794930D01*
X76126303Y-63794863D01*
X76126992Y-63766572D01*
X76127591Y-63740518D01*
X76127592Y-63740473D01*
X76127888Y-63716821D01*
X76127889Y-63716741D01*
X76127676Y-63695280D01*
X76126741Y-63676174D01*
X76124874Y-63659463D01*
X76121864Y-63645186D01*
X76120044Y-63640263D01*
X76120389Y-63631315D01*
X76122585Y-63628096D01*
X76244067Y-63501769D01*
X76252271Y-63498181D01*
X76260933Y-63501769D01*
G37*
G04 #@! TD.AperFunction*
G04 #@! TA.AperFunction,Conductor*
G36*
X75264933Y-63501769D02*
G01*
X75385988Y-63627651D01*
X75389253Y-63635990D01*
X75388199Y-63640618D01*
X75382092Y-63654004D01*
X75374542Y-63673328D01*
X75368645Y-63691997D01*
X75364197Y-63710647D01*
X75360994Y-63729920D01*
X75358831Y-63750455D01*
X75357505Y-63772890D01*
X75356810Y-63797867D01*
X75356809Y-63797975D01*
X75356543Y-63826023D01*
X75356516Y-63846316D01*
X75353078Y-63854584D01*
X75344816Y-63858000D01*
X75168184Y-63858000D01*
X75159911Y-63854573D01*
X75156484Y-63846316D01*
X75156456Y-63826023D01*
X75156190Y-63797975D01*
X75156189Y-63797867D01*
X75155494Y-63772890D01*
X75154168Y-63750455D01*
X75152005Y-63729920D01*
X75148802Y-63710647D01*
X75144354Y-63691997D01*
X75138457Y-63673328D01*
X75130907Y-63654004D01*
X75124800Y-63640617D01*
X75124484Y-63631668D01*
X75127012Y-63627651D01*
X75248067Y-63501769D01*
X75256271Y-63498181D01*
X75264933Y-63501769D01*
G37*
G04 #@! TD.AperFunction*
G04 #@! TA.AperFunction,Conductor*
G36*
X73829894Y-66314181D02*
G01*
X73847820Y-66510786D01*
X73845489Y-66512076D01*
X73841785Y-66513372D01*
X73796442Y-66521070D01*
X73783251Y-66526002D01*
X73755382Y-66536423D01*
X73754826Y-66536791D01*
X73723780Y-66557335D01*
X73723777Y-66557337D01*
X73723211Y-66557712D01*
X73698359Y-66584270D01*
X73698053Y-66584769D01*
X73698050Y-66584773D01*
X73679485Y-66615052D01*
X73679482Y-66615057D01*
X73679255Y-66615428D01*
X73664332Y-66650518D01*
X73652017Y-66688873D01*
X73651982Y-66689002D01*
X73651980Y-66689007D01*
X73640744Y-66729823D01*
X73629003Y-66772471D01*
X73628883Y-66772881D01*
X73617718Y-66808332D01*
X73617564Y-66808820D01*
X73611810Y-66815681D01*
X73606633Y-66817003D01*
X73397424Y-66821093D01*
X73337432Y-66822266D01*
X73329093Y-66819001D01*
X73325505Y-66810797D01*
X73325719Y-66808332D01*
X73348954Y-66689007D01*
X73380532Y-66526828D01*
X73385477Y-66519362D01*
X73389994Y-66517540D01*
X73436355Y-66509405D01*
X73436360Y-66509404D01*
X73436871Y-66509314D01*
X73482337Y-66492632D01*
X73521133Y-66470620D01*
X73529693Y-66464320D01*
X73555811Y-66445097D01*
X73555824Y-66445087D01*
X73555923Y-66445014D01*
X73589340Y-66417578D01*
X73589426Y-66417509D01*
X73623778Y-66390260D01*
X73624537Y-66389706D01*
X73662289Y-66364416D01*
X73663586Y-66363663D01*
X73707529Y-66341782D01*
X73709176Y-66341112D01*
X73732065Y-66333783D01*
X73762239Y-66324121D01*
X73763946Y-66323714D01*
X73799456Y-66318019D01*
X73799471Y-66318016D01*
X73799690Y-66317981D01*
X73799891Y-66317949D01*
X73799892Y-66317949D01*
X73810731Y-66316211D01*
X73825519Y-66313839D01*
X73829894Y-66314181D01*
G37*
G04 #@! TD.AperFunction*
G04 #@! TA.AperFunction,Conductor*
G36*
X75731971Y-68124898D02*
G01*
X75710259Y-68168615D01*
X75690045Y-68206588D01*
X75671513Y-68240637D01*
X75654849Y-68272583D01*
X75640238Y-68304245D01*
X75627868Y-68337443D01*
X75617923Y-68373997D01*
X75610589Y-68415728D01*
X75606053Y-68464456D01*
X75604500Y-68522000D01*
X75404500Y-68522000D01*
X75402937Y-68464832D01*
X75398366Y-68416420D01*
X75390965Y-68374966D01*
X75380911Y-68338671D01*
X75368381Y-68305737D01*
X75353551Y-68274365D01*
X75336600Y-68242756D01*
X75317704Y-68209112D01*
X75297040Y-68171635D01*
X75274786Y-68128526D01*
X75501493Y-67889004D01*
X75731971Y-68124898D01*
G37*
G04 #@! TD.AperFunction*
G04 #@! TA.AperFunction,Conductor*
G36*
X75676122Y-68046466D02*
G01*
X75677101Y-68047484D01*
X75768687Y-68142722D01*
X75771952Y-68151061D01*
X75770644Y-68156212D01*
X75747818Y-68200293D01*
X75747554Y-68200774D01*
X75722061Y-68244815D01*
X75721904Y-68245077D01*
X75697774Y-68284286D01*
X75675470Y-68320817D01*
X75655481Y-68356806D01*
X75638213Y-68394520D01*
X75624074Y-68436229D01*
X75613471Y-68484200D01*
X75606810Y-68540701D01*
X75606802Y-68540945D01*
X75604888Y-68596701D01*
X75601180Y-68604852D01*
X75593195Y-68608000D01*
X75415805Y-68608000D01*
X75407532Y-68604573D01*
X75404112Y-68596702D01*
X75402197Y-68540946D01*
X75402197Y-68540945D01*
X75402189Y-68540701D01*
X75395528Y-68484200D01*
X75384925Y-68436229D01*
X75370786Y-68394520D01*
X75353518Y-68356806D01*
X75333529Y-68320817D01*
X75311225Y-68284286D01*
X75287095Y-68245077D01*
X75286938Y-68244815D01*
X75261445Y-68200774D01*
X75261181Y-68200293D01*
X75255112Y-68188572D01*
X75238355Y-68156211D01*
X75237594Y-68147290D01*
X75240312Y-68142722D01*
X75331898Y-68047484D01*
X75504500Y-67868000D01*
X75676122Y-68046466D01*
G37*
G04 #@! TD.AperFunction*
G04 #@! TA.AperFunction,Conductor*
G36*
X75601669Y-69458775D02*
G01*
X75605080Y-69466436D01*
X75609936Y-69559212D01*
X75609956Y-69559592D01*
X75625740Y-69645394D01*
X75650978Y-69716337D01*
X75684795Y-69776001D01*
X75726315Y-69827968D01*
X75774663Y-69875820D01*
X75828964Y-69923138D01*
X75839868Y-69932387D01*
X75888198Y-69973382D01*
X75888440Y-69973592D01*
X75951673Y-70030275D01*
X75952155Y-70030732D01*
X76012868Y-70091716D01*
X76016276Y-70099997D01*
X76015016Y-70105252D01*
X75731283Y-70666158D01*
X75724491Y-70671994D01*
X75715158Y-70671103D01*
X75165833Y-70365700D01*
X75160267Y-70358685D01*
X75160043Y-70353191D01*
X75180430Y-70250720D01*
X75180680Y-70249702D01*
X75207962Y-70156930D01*
X75208267Y-70156031D01*
X75239123Y-70075813D01*
X75239374Y-70075211D01*
X75272112Y-70002477D01*
X75272186Y-70002316D01*
X75304939Y-69932387D01*
X75304993Y-69932272D01*
X75335954Y-69860237D01*
X75363209Y-69781412D01*
X75364422Y-69776362D01*
X75384862Y-69691209D01*
X75384863Y-69691204D01*
X75384933Y-69690912D01*
X75399304Y-69583852D01*
X75404046Y-69466575D01*
X75407804Y-69458447D01*
X75415736Y-69455348D01*
X75593396Y-69455348D01*
X75601669Y-69458775D01*
G37*
G04 #@! TD.AperFunction*
G04 #@! TA.AperFunction,Conductor*
G36*
X75562603Y-66411400D02*
G01*
X75564134Y-66412992D01*
X75609396Y-66460059D01*
X75612661Y-66468398D01*
X75611532Y-66473187D01*
X75609741Y-66476959D01*
X75609724Y-66476995D01*
X75609697Y-66477053D01*
X75609678Y-66477098D01*
X75609666Y-66477123D01*
X75604588Y-66488804D01*
X75604214Y-66489665D01*
X75604161Y-66489810D01*
X75604155Y-66489824D01*
X75599969Y-66501192D01*
X75599108Y-66503531D01*
X75594934Y-66518459D01*
X75592249Y-66534257D01*
X75591609Y-66550731D01*
X75593570Y-66567692D01*
X75598688Y-66584945D01*
X75607519Y-66602300D01*
X75614113Y-66610990D01*
X75616383Y-66619651D01*
X75612614Y-66626761D01*
X75482432Y-66743784D01*
X75481454Y-66744663D01*
X75473010Y-66747645D01*
X75464931Y-66743784D01*
X75464227Y-66742921D01*
X75450440Y-66724288D01*
X75449260Y-66722313D01*
X75436010Y-66694171D01*
X75435283Y-66692175D01*
X75427860Y-66664071D01*
X75427544Y-66662383D01*
X75424422Y-66634465D01*
X75424351Y-66633290D01*
X75424059Y-66605876D01*
X75424067Y-66605301D01*
X75424167Y-66602713D01*
X75425088Y-66578772D01*
X75425802Y-66553869D01*
X75424549Y-66531312D01*
X75419677Y-66511533D01*
X75413350Y-66501192D01*
X75411955Y-66492347D01*
X75413458Y-66488806D01*
X75454628Y-66424119D01*
X75502500Y-66348900D01*
X75562603Y-66411400D01*
G37*
G04 #@! TD.AperFunction*
G04 #@! TA.AperFunction,Conductor*
G36*
X74064333Y-66410758D02*
G01*
X74061936Y-66414346D01*
X74033217Y-66441964D01*
X73957806Y-66514484D01*
X73953664Y-66518467D01*
X73945325Y-66521732D01*
X73940840Y-66520742D01*
X73936707Y-66518922D01*
X73936699Y-66518919D01*
X73936504Y-66518833D01*
X73936301Y-66518762D01*
X73936296Y-66518760D01*
X73924327Y-66514571D01*
X73924324Y-66514570D01*
X73924078Y-66514484D01*
X73923835Y-66514422D01*
X73923830Y-66514420D01*
X73910922Y-66511102D01*
X73910673Y-66511038D01*
X73908856Y-66510742D01*
X73896490Y-66508725D01*
X73896482Y-66508724D01*
X73896224Y-66508682D01*
X73880667Y-66507602D01*
X73880400Y-66507608D01*
X73880396Y-66507608D01*
X73864194Y-66507979D01*
X73864191Y-66507979D01*
X73863937Y-66507985D01*
X73862067Y-66508196D01*
X73850045Y-66509555D01*
X73850044Y-66509556D01*
X73845971Y-66510016D01*
X73826703Y-66513882D01*
X73806070Y-66519769D01*
X73800720Y-66521732D01*
X73788699Y-66526142D01*
X73784425Y-66526855D01*
X73783590Y-66526838D01*
X73708747Y-66342566D01*
X73741347Y-66330938D01*
X73771642Y-66322996D01*
X73799441Y-66318021D01*
X73799456Y-66318019D01*
X73799539Y-66318004D01*
X73799569Y-66317999D01*
X73799569Y-66318000D01*
X73799888Y-66317949D01*
X73799892Y-66317949D01*
X73799897Y-66317948D01*
X73825882Y-66315059D01*
X73832190Y-66314656D01*
X73849985Y-66313519D01*
X73850226Y-66313506D01*
X73872582Y-66312541D01*
X73872607Y-66312540D01*
X73893333Y-66311380D01*
X73893335Y-66311380D01*
X73893493Y-66311371D01*
X73893907Y-66311325D01*
X73900362Y-66310613D01*
X73900363Y-66310613D01*
X73912932Y-66309225D01*
X73931058Y-66305327D01*
X73948014Y-66298900D01*
X74064333Y-66410758D01*
G37*
G04 #@! TD.AperFunction*
G04 #@! TA.AperFunction,Conductor*
G36*
X74098971Y-66155527D02*
G01*
X74102398Y-66163901D01*
X74102246Y-66181484D01*
X74102243Y-66181641D01*
X74101653Y-66208365D01*
X74100973Y-66232859D01*
X74100460Y-66255220D01*
X74100364Y-66275667D01*
X74100940Y-66294422D01*
X74102439Y-66311704D01*
X74102474Y-66311913D01*
X74102474Y-66311914D01*
X74104082Y-66321551D01*
X74105113Y-66327733D01*
X74109216Y-66342730D01*
X74111168Y-66347515D01*
X74112128Y-66349870D01*
X74112079Y-66358824D01*
X74109729Y-66362396D01*
X74033142Y-66442036D01*
X74033139Y-66442039D01*
X74033064Y-66442117D01*
X74005446Y-66470837D01*
X74001859Y-66473233D01*
X73890000Y-66356914D01*
X73895783Y-66342730D01*
X73899886Y-66327733D01*
X73902560Y-66311704D01*
X73904059Y-66294422D01*
X73904635Y-66275667D01*
X73904539Y-66255220D01*
X73904026Y-66232859D01*
X73903346Y-66208365D01*
X73902756Y-66181641D01*
X73902753Y-66181484D01*
X73902601Y-66163901D01*
X73905957Y-66155599D01*
X73914301Y-66152100D01*
X74090698Y-66152100D01*
X74098971Y-66155527D01*
G37*
G04 #@! TD.AperFunction*
G04 #@! TA.AperFunction,Conductor*
G36*
X75703737Y-67592950D02*
G01*
X75707139Y-67649209D01*
X75712237Y-67697678D01*
X75718564Y-67740555D01*
X75725654Y-67780040D01*
X75733040Y-67818331D01*
X75740253Y-67857625D01*
X75746828Y-67900122D01*
X75752297Y-67948020D01*
X75756193Y-68003519D01*
X75452826Y-68132882D01*
X75335418Y-67824691D01*
X75366203Y-67798158D01*
X75394050Y-67774067D01*
X75418887Y-67751230D01*
X75440643Y-67728459D01*
X75459247Y-67704566D01*
X75474628Y-67678364D01*
X75486715Y-67648664D01*
X75495437Y-67614279D01*
X75500722Y-67574021D01*
X75502500Y-67526703D01*
X75702500Y-67526703D01*
X75703737Y-67592950D01*
G37*
G04 #@! TD.AperFunction*
G04 #@! TA.AperFunction,Conductor*
G36*
X75699374Y-67434130D02*
G01*
X75702797Y-67442098D01*
X75704509Y-67507747D01*
X75710089Y-67572767D01*
X75718564Y-67628441D01*
X75729258Y-67677445D01*
X75741498Y-67722460D01*
X75754609Y-67766162D01*
X75766687Y-67807068D01*
X75767863Y-67811052D01*
X75767958Y-67811393D01*
X75772573Y-67829064D01*
X75780670Y-67860066D01*
X75780802Y-67860629D01*
X75792346Y-67915842D01*
X75792463Y-67916490D01*
X75801007Y-67973107D01*
X75798853Y-67981799D01*
X75794802Y-67985251D01*
X75752304Y-68007171D01*
X75678190Y-68045398D01*
X75678190Y-68045399D01*
X75676122Y-68046465D01*
X75456074Y-68159967D01*
X75294690Y-67814588D01*
X75294292Y-67805642D01*
X75297113Y-67801267D01*
X75328336Y-67770755D01*
X75328511Y-67770587D01*
X75362682Y-67738554D01*
X75379595Y-67722460D01*
X75393702Y-67709036D01*
X75421281Y-67680391D01*
X75423772Y-67677321D01*
X75444978Y-67651180D01*
X75444979Y-67651179D01*
X75445205Y-67650900D01*
X75465260Y-67618848D01*
X75481231Y-67582519D01*
X75481340Y-67582122D01*
X75481343Y-67582115D01*
X75492805Y-67540556D01*
X75492806Y-67540552D01*
X75492904Y-67540196D01*
X75497548Y-67507747D01*
X75500024Y-67490450D01*
X75500024Y-67490446D01*
X75500065Y-67490162D01*
X75502041Y-67441923D01*
X75505802Y-67433798D01*
X75513730Y-67430703D01*
X75691101Y-67430703D01*
X75699374Y-67434130D01*
G37*
G04 #@! TD.AperFunction*
G04 #@! TA.AperFunction,Conductor*
G36*
X74260933Y-63501769D02*
G01*
X74381988Y-63627651D01*
X74385253Y-63635990D01*
X74384199Y-63640618D01*
X74378092Y-63654004D01*
X74370542Y-63673328D01*
X74364645Y-63691997D01*
X74360197Y-63710647D01*
X74356994Y-63729920D01*
X74354831Y-63750455D01*
X74353505Y-63772890D01*
X74352810Y-63797867D01*
X74352809Y-63797975D01*
X74352543Y-63826023D01*
X74352516Y-63846316D01*
X74349078Y-63854584D01*
X74340816Y-63858000D01*
X74164184Y-63858000D01*
X74155911Y-63854573D01*
X74152484Y-63846316D01*
X74152456Y-63826023D01*
X74152190Y-63797975D01*
X74152189Y-63797867D01*
X74151494Y-63772890D01*
X74150168Y-63750455D01*
X74148005Y-63729920D01*
X74144802Y-63710647D01*
X74140354Y-63691997D01*
X74134457Y-63673328D01*
X74126907Y-63654004D01*
X74120800Y-63640617D01*
X74120484Y-63631668D01*
X74123012Y-63627651D01*
X74244067Y-63501769D01*
X74252271Y-63498181D01*
X74260933Y-63501769D01*
G37*
G04 #@! TD.AperFunction*
G04 #@! TA.AperFunction,Conductor*
G36*
X75598977Y-66164027D02*
G01*
X75602404Y-66172395D01*
X75602272Y-66188723D01*
X75602270Y-66188869D01*
X75601742Y-66214537D01*
X75601719Y-66214537D01*
X75601741Y-66214591D01*
X75601148Y-66238013D01*
X75600726Y-66259445D01*
X75600711Y-66279042D01*
X75601339Y-66297017D01*
X75602846Y-66313580D01*
X75605468Y-66328943D01*
X75609441Y-66343317D01*
X75609572Y-66343637D01*
X75612118Y-66349865D01*
X75612077Y-66358820D01*
X75609721Y-66362403D01*
X75564217Y-66409721D01*
X75564216Y-66409723D01*
X75502500Y-66473900D01*
X75453513Y-66422959D01*
X75453512Y-66422958D01*
X75423363Y-66391607D01*
X75395278Y-66362402D01*
X75392013Y-66354064D01*
X75392881Y-66349866D01*
X75395428Y-66343636D01*
X75395430Y-66343630D01*
X75395558Y-66343317D01*
X75399531Y-66328943D01*
X75402153Y-66313580D01*
X75403660Y-66297017D01*
X75404288Y-66279042D01*
X75404273Y-66259445D01*
X75403851Y-66238013D01*
X75403258Y-66214591D01*
X75403279Y-66214537D01*
X75403257Y-66214537D01*
X75403257Y-66214536D01*
X75402728Y-66188802D01*
X75402595Y-66172394D01*
X75405955Y-66164094D01*
X75414295Y-66160600D01*
X75590704Y-66160600D01*
X75598977Y-66164027D01*
G37*
G04 #@! TD.AperFunction*
G04 #@! TA.AperFunction,Conductor*
G36*
X73260933Y-63501769D02*
G01*
X73382415Y-63628095D01*
X73385680Y-63636434D01*
X73384955Y-63640264D01*
X73383284Y-63644781D01*
X73383281Y-63644790D01*
X73383135Y-63645186D01*
X73380125Y-63659463D01*
X73378258Y-63676174D01*
X73377323Y-63695280D01*
X73377110Y-63716741D01*
X73377111Y-63716821D01*
X73377407Y-63740473D01*
X73377408Y-63740518D01*
X73378007Y-63766572D01*
X73378696Y-63794863D01*
X73378697Y-63794930D01*
X73379261Y-63825219D01*
X73379263Y-63825352D01*
X73379414Y-63846215D01*
X73376047Y-63854513D01*
X73367714Y-63858000D01*
X73137285Y-63858000D01*
X73129012Y-63854573D01*
X73125585Y-63846215D01*
X73125736Y-63825352D01*
X73125738Y-63825219D01*
X73126302Y-63794930D01*
X73126303Y-63794863D01*
X73126992Y-63766572D01*
X73127591Y-63740518D01*
X73127592Y-63740473D01*
X73127888Y-63716821D01*
X73127889Y-63716741D01*
X73127676Y-63695280D01*
X73126741Y-63676174D01*
X73124874Y-63659463D01*
X73121864Y-63645186D01*
X73120044Y-63640263D01*
X73120389Y-63631315D01*
X73122585Y-63628096D01*
X73244067Y-63501769D01*
X73252271Y-63498181D01*
X73260933Y-63501769D01*
G37*
G04 #@! TD.AperFunction*
G04 #@! TA.AperFunction,Conductor*
G36*
X74550372Y-66424119D02*
G01*
X74576955Y-66465886D01*
X74591540Y-66488803D01*
X74593092Y-66497622D01*
X74591650Y-66501192D01*
X74585322Y-66511533D01*
X74585106Y-66512409D01*
X74585105Y-66512412D01*
X74583616Y-66518459D01*
X74580450Y-66531312D01*
X74579197Y-66553869D01*
X74579911Y-66578772D01*
X74580167Y-66585423D01*
X74580931Y-66605301D01*
X74580939Y-66605875D01*
X74580648Y-66633298D01*
X74580576Y-66634475D01*
X74577455Y-66662378D01*
X74577140Y-66664065D01*
X74569716Y-66692175D01*
X74568989Y-66694171D01*
X74555740Y-66722309D01*
X74554560Y-66724284D01*
X74540771Y-66742920D01*
X74533096Y-66747532D01*
X74524407Y-66745366D01*
X74523544Y-66744662D01*
X74521606Y-66742920D01*
X74392385Y-66626761D01*
X74388524Y-66618683D01*
X74390886Y-66610989D01*
X74397165Y-66602714D01*
X74397166Y-66602713D01*
X74397479Y-66602300D01*
X74406311Y-66584945D01*
X74411429Y-66567692D01*
X74413389Y-66550731D01*
X74412749Y-66534257D01*
X74410064Y-66518459D01*
X74405891Y-66503531D01*
X74400785Y-66489665D01*
X74400411Y-66488803D01*
X74395336Y-66477131D01*
X74395334Y-66477127D01*
X74395302Y-66477053D01*
X74393467Y-66473188D01*
X74393014Y-66464245D01*
X74395603Y-66460060D01*
X74440783Y-66413079D01*
X74440783Y-66413078D01*
X74442397Y-66411400D01*
X74502500Y-66348900D01*
X74550372Y-66424119D01*
G37*
G04 #@! TD.AperFunction*
G04 #@! TA.AperFunction,Conductor*
G36*
X75782017Y-63508115D02*
G01*
X75855593Y-63666637D01*
X75855967Y-63675584D01*
X75853581Y-63679495D01*
X75845628Y-63688118D01*
X75845450Y-63688311D01*
X75845290Y-63688519D01*
X75834470Y-63702577D01*
X75834463Y-63702586D01*
X75834283Y-63702821D01*
X75834122Y-63703083D01*
X75834121Y-63703085D01*
X75830637Y-63708768D01*
X75825185Y-63717659D01*
X75817955Y-63733212D01*
X75812391Y-63749871D01*
X75808292Y-63768024D01*
X75805455Y-63788059D01*
X75805443Y-63788215D01*
X75805441Y-63788229D01*
X75804286Y-63802734D01*
X75803678Y-63810367D01*
X75802761Y-63835336D01*
X75802760Y-63835427D01*
X75802760Y-63835433D01*
X75802608Y-63851764D01*
X75799105Y-63860005D01*
X75790909Y-63863355D01*
X75614304Y-63863355D01*
X75606031Y-63859928D01*
X75602604Y-63851552D01*
X75602842Y-63824549D01*
X75602846Y-63824348D01*
X75603722Y-63790597D01*
X75603727Y-63790434D01*
X75604612Y-63768272D01*
X75604923Y-63760473D01*
X75606218Y-63733534D01*
X75607386Y-63708768D01*
X75608206Y-63685271D01*
X75608269Y-63679495D01*
X75608455Y-63662262D01*
X75608455Y-63662246D01*
X75608456Y-63662140D01*
X75607915Y-63638472D01*
X75606362Y-63613365D01*
X75604381Y-63593865D01*
X75606954Y-63585288D01*
X75610684Y-63582271D01*
X75766067Y-63502629D01*
X75774993Y-63501905D01*
X75782017Y-63508115D01*
G37*
G04 #@! TD.AperFunction*
G04 #@! TA.AperFunction,Conductor*
G36*
X74733100Y-68128716D02*
G01*
X74711199Y-68171925D01*
X74690807Y-68209463D01*
X74672112Y-68243133D01*
X74655300Y-68274739D01*
X74640560Y-68306083D01*
X74628078Y-68338969D01*
X74618044Y-68375200D01*
X74610644Y-68416580D01*
X74606067Y-68464912D01*
X74604500Y-68522000D01*
X74404500Y-68522000D01*
X74402932Y-68464912D01*
X74398355Y-68416580D01*
X74390955Y-68375200D01*
X74380921Y-68338969D01*
X74368439Y-68306083D01*
X74353699Y-68274739D01*
X74336887Y-68243133D01*
X74318192Y-68209463D01*
X74297800Y-68171925D01*
X74275900Y-68128716D01*
X74504500Y-67891000D01*
X74733100Y-68128716D01*
G37*
G04 #@! TD.AperFunction*
G04 #@! TA.AperFunction,Conductor*
G36*
X74673187Y-68043413D02*
G01*
X74768687Y-68142722D01*
X74771952Y-68151061D01*
X74770644Y-68156212D01*
X74747818Y-68200293D01*
X74747554Y-68200774D01*
X74722061Y-68244815D01*
X74721904Y-68245077D01*
X74697774Y-68284286D01*
X74675470Y-68320817D01*
X74655481Y-68356806D01*
X74638213Y-68394520D01*
X74624074Y-68436229D01*
X74613471Y-68484200D01*
X74606810Y-68540701D01*
X74606802Y-68540945D01*
X74604888Y-68596701D01*
X74601180Y-68604852D01*
X74593195Y-68608000D01*
X74415805Y-68608000D01*
X74407532Y-68604573D01*
X74404112Y-68596702D01*
X74402197Y-68540946D01*
X74402197Y-68540945D01*
X74402189Y-68540701D01*
X74395528Y-68484200D01*
X74384925Y-68436229D01*
X74370786Y-68394520D01*
X74353518Y-68356806D01*
X74333529Y-68320817D01*
X74311225Y-68284286D01*
X74287095Y-68245077D01*
X74286938Y-68244815D01*
X74261445Y-68200774D01*
X74261181Y-68200293D01*
X74255112Y-68188572D01*
X74238355Y-68156211D01*
X74237594Y-68147290D01*
X74240312Y-68142722D01*
X74329639Y-68049833D01*
X74504500Y-67868000D01*
X74673187Y-68043413D01*
G37*
G04 #@! TD.AperFunction*
G04 #@! TA.AperFunction,Conductor*
G36*
X74601548Y-69453159D02*
G01*
X74604965Y-69460947D01*
X74608935Y-69556638D01*
X74609749Y-69576272D01*
X74609786Y-69576542D01*
X74609787Y-69576548D01*
X74619151Y-69644009D01*
X74624354Y-69681497D01*
X74646595Y-69770239D01*
X74674758Y-69847326D01*
X74707124Y-69917590D01*
X74707156Y-69917652D01*
X74707160Y-69917661D01*
X74741353Y-69984641D01*
X74741976Y-69985862D01*
X74771886Y-70045569D01*
X74777466Y-70056709D01*
X74777710Y-70057228D01*
X74803549Y-70115934D01*
X74812090Y-70135338D01*
X74812422Y-70136179D01*
X74844112Y-70226546D01*
X74844410Y-70227534D01*
X74869808Y-70327376D01*
X74868526Y-70336238D01*
X74864686Y-70340171D01*
X74400882Y-70631013D01*
X74332206Y-70674079D01*
X74323376Y-70675571D01*
X74315842Y-70669991D01*
X74123961Y-70335641D01*
X74002969Y-70124815D01*
X74001824Y-70115934D01*
X74004414Y-70111172D01*
X74063126Y-70045835D01*
X74063620Y-70045318D01*
X74124977Y-69984906D01*
X74125256Y-69984641D01*
X74183035Y-69931376D01*
X74236244Y-69881601D01*
X74283804Y-69831719D01*
X74324789Y-69777987D01*
X74358276Y-69716665D01*
X74370303Y-69681800D01*
X74383191Y-69644439D01*
X74383192Y-69644435D01*
X74383339Y-69644009D01*
X74395424Y-69576548D01*
X74398991Y-69556638D01*
X74398992Y-69556630D01*
X74399055Y-69556278D01*
X74403933Y-69460835D01*
X74407778Y-69452747D01*
X74415618Y-69449732D01*
X74593275Y-69449732D01*
X74601548Y-69453159D01*
G37*
G04 #@! TD.AperFunction*
G04 #@! TA.AperFunction,Conductor*
G36*
X74504281Y-67576895D02*
G01*
X74509576Y-67616903D01*
X74518315Y-67651073D01*
X74530424Y-67680574D01*
X74545833Y-67706581D01*
X74564469Y-67730263D01*
X74586260Y-67752794D01*
X74611136Y-67775345D01*
X74639024Y-67799088D01*
X74669853Y-67825195D01*
X74555224Y-68134430D01*
X74250705Y-68007803D01*
X74254113Y-67952175D01*
X74259185Y-67904159D01*
X74265446Y-67861553D01*
X74272417Y-67822156D01*
X74279624Y-67783766D01*
X74286588Y-67744182D01*
X74292835Y-67701202D01*
X74297886Y-67652625D01*
X74301267Y-67596250D01*
X74302500Y-67529875D01*
X74502500Y-67529875D01*
X74504281Y-67576895D01*
G37*
G04 #@! TD.AperFunction*
G04 #@! TA.AperFunction,Conductor*
G36*
X74499549Y-67437302D02*
G01*
X74502966Y-67445089D01*
X74504940Y-67492595D01*
X74512118Y-67542005D01*
X74523820Y-67583783D01*
X74523993Y-67584170D01*
X74523994Y-67584173D01*
X74539654Y-67619214D01*
X74539657Y-67619220D01*
X74539832Y-67619611D01*
X74559940Y-67651167D01*
X74583930Y-67680133D01*
X74584109Y-67680314D01*
X74584113Y-67680319D01*
X74584921Y-67681138D01*
X74611589Y-67708189D01*
X74611684Y-67708277D01*
X74631011Y-67726183D01*
X74642702Y-67737015D01*
X74676986Y-67768227D01*
X74677116Y-67768348D01*
X74708412Y-67797992D01*
X74712062Y-67806169D01*
X74711043Y-67811269D01*
X74709130Y-67815540D01*
X74628064Y-67996491D01*
X74628065Y-67996492D01*
X74555182Y-68159178D01*
X74331253Y-68048155D01*
X74272218Y-68018886D01*
X74213718Y-67989882D01*
X74207828Y-67983137D01*
X74207320Y-67977834D01*
X74214994Y-67921011D01*
X74215104Y-67920346D01*
X74225865Y-67864954D01*
X74225994Y-67864368D01*
X74238106Y-67815540D01*
X74238209Y-67815155D01*
X74251021Y-67770132D01*
X74251044Y-67770053D01*
X74263799Y-67726398D01*
X74263832Y-67726286D01*
X74263851Y-67726213D01*
X74263860Y-67726183D01*
X74275852Y-67681263D01*
X74275855Y-67681249D01*
X74275885Y-67681138D01*
X74286478Y-67632005D01*
X74294912Y-67576205D01*
X74300486Y-67511056D01*
X74302203Y-67445270D01*
X74305845Y-67437089D01*
X74313899Y-67433875D01*
X74491276Y-67433875D01*
X74499549Y-67437302D01*
G37*
G04 #@! TD.AperFunction*
G04 #@! TA.AperFunction,Conductor*
G36*
X74598977Y-66164027D02*
G01*
X74602404Y-66172395D01*
X74602272Y-66188723D01*
X74602270Y-66188869D01*
X74601742Y-66214537D01*
X74601719Y-66214537D01*
X74601741Y-66214591D01*
X74601148Y-66238013D01*
X74600726Y-66259445D01*
X74600711Y-66279042D01*
X74601339Y-66297017D01*
X74602846Y-66313580D01*
X74605468Y-66328943D01*
X74609441Y-66343317D01*
X74609572Y-66343637D01*
X74612118Y-66349865D01*
X74612077Y-66358820D01*
X74609721Y-66362403D01*
X74551986Y-66422440D01*
X74551986Y-66422441D01*
X74502500Y-66473900D01*
X74395278Y-66362402D01*
X74392013Y-66354064D01*
X74392881Y-66349866D01*
X74395428Y-66343636D01*
X74395430Y-66343630D01*
X74395558Y-66343317D01*
X74399531Y-66328943D01*
X74402153Y-66313580D01*
X74403660Y-66297017D01*
X74404288Y-66279042D01*
X74404273Y-66259445D01*
X74403851Y-66238013D01*
X74403258Y-66214591D01*
X74403279Y-66214537D01*
X74403257Y-66214537D01*
X74403257Y-66214536D01*
X74402728Y-66188802D01*
X74402595Y-66172394D01*
X74405955Y-66164094D01*
X74414295Y-66160600D01*
X74590704Y-66160600D01*
X74598977Y-66164027D01*
G37*
G04 #@! TD.AperFunction*
G04 #@! TA.AperFunction,Conductor*
G36*
X74760933Y-63501769D02*
G01*
X74881988Y-63627651D01*
X74885253Y-63635990D01*
X74884199Y-63640618D01*
X74878092Y-63654004D01*
X74870542Y-63673328D01*
X74864645Y-63691997D01*
X74860197Y-63710647D01*
X74856994Y-63729920D01*
X74854831Y-63750455D01*
X74853505Y-63772890D01*
X74852810Y-63797867D01*
X74852809Y-63797975D01*
X74852543Y-63826023D01*
X74852516Y-63846316D01*
X74849078Y-63854584D01*
X74840816Y-63858000D01*
X74664184Y-63858000D01*
X74655911Y-63854573D01*
X74652484Y-63846316D01*
X74652456Y-63826023D01*
X74652190Y-63797975D01*
X74652189Y-63797867D01*
X74651494Y-63772890D01*
X74650168Y-63750455D01*
X74648005Y-63729920D01*
X74644802Y-63710647D01*
X74640354Y-63691997D01*
X74634457Y-63673328D01*
X74626907Y-63654004D01*
X74620800Y-63640617D01*
X74620484Y-63631668D01*
X74623012Y-63627651D01*
X74744067Y-63501769D01*
X74752271Y-63498181D01*
X74760933Y-63501769D01*
G37*
G04 #@! TD.AperFunction*
G04 #@! TA.AperFunction,Conductor*
G36*
X76398401Y-66352156D02*
G01*
X76399115Y-66352410D01*
X76449960Y-66372358D01*
X76450671Y-66372665D01*
X76493548Y-66392853D01*
X76494156Y-66393161D01*
X76531467Y-66413464D01*
X76531860Y-66413688D01*
X76565950Y-66433982D01*
X76566033Y-66434032D01*
X76598960Y-66454005D01*
X76599082Y-66454079D01*
X76633227Y-66473600D01*
X76670679Y-66492355D01*
X76670858Y-66492429D01*
X76670869Y-66492434D01*
X76713500Y-66510050D01*
X76713701Y-66510133D01*
X76713899Y-66510197D01*
X76713900Y-66510198D01*
X76756978Y-66524255D01*
X76763779Y-66530079D01*
X76765028Y-66534685D01*
X76774917Y-66701938D01*
X76781302Y-66809913D01*
X76778369Y-66818374D01*
X76770313Y-66822284D01*
X76769404Y-66822302D01*
X76498344Y-66817003D01*
X76490140Y-66813415D01*
X76487423Y-66808849D01*
X76477129Y-66776460D01*
X76477012Y-66776068D01*
X76466327Y-66737870D01*
X76466329Y-66737869D01*
X76466322Y-66737857D01*
X76456317Y-66701938D01*
X76456290Y-66701840D01*
X76445476Y-66668266D01*
X76432412Y-66637261D01*
X76415624Y-66608939D01*
X76393639Y-66583416D01*
X76393193Y-66583064D01*
X76365400Y-66561130D01*
X76365396Y-66561128D01*
X76364985Y-66560803D01*
X76364524Y-66560558D01*
X76364520Y-66560555D01*
X76328572Y-66541421D01*
X76328567Y-66541419D01*
X76328186Y-66541216D01*
X76292146Y-66528446D01*
X76285493Y-66522453D01*
X76284808Y-66514191D01*
X76333610Y-66344113D01*
X76339186Y-66337106D01*
X76348415Y-66336194D01*
X76398401Y-66352156D01*
G37*
G04 #@! TD.AperFunction*
G04 #@! TA.AperFunction,Conductor*
G36*
X77460933Y-63426769D02*
G01*
X77717417Y-63693481D01*
X77720682Y-63701820D01*
X77719959Y-63705645D01*
X77713587Y-63722898D01*
X77707459Y-63752088D01*
X77703682Y-63786254D01*
X77701819Y-63825317D01*
X77701818Y-63825387D01*
X77701818Y-63825399D01*
X77701437Y-63869150D01*
X77701438Y-63869253D01*
X77702099Y-63917808D01*
X77703372Y-63971076D01*
X77704817Y-64028847D01*
X77704819Y-64028917D01*
X77706005Y-64091167D01*
X77706007Y-64091303D01*
X77706413Y-64146213D01*
X77703047Y-64154512D01*
X77694713Y-64158000D01*
X77210287Y-64158000D01*
X77202014Y-64154573D01*
X77198587Y-64146214D01*
X77198992Y-64091304D01*
X77198994Y-64091167D01*
X77200180Y-64028917D01*
X77200182Y-64028847D01*
X77201627Y-63971076D01*
X77202900Y-63917808D01*
X77203561Y-63869253D01*
X77203562Y-63869150D01*
X77203181Y-63825399D01*
X77203181Y-63825387D01*
X77203180Y-63825317D01*
X77201317Y-63786254D01*
X77197540Y-63752088D01*
X77191412Y-63722898D01*
X77191262Y-63722491D01*
X77191260Y-63722485D01*
X77185040Y-63705644D01*
X77185388Y-63696696D01*
X77187582Y-63693481D01*
X77444067Y-63426769D01*
X77452271Y-63423181D01*
X77460933Y-63426769D01*
G37*
G04 #@! TD.AperFunction*
G04 #@! TA.AperFunction,Conductor*
G36*
X71255506Y-68769902D02*
G01*
X71267317Y-68778500D01*
X71292277Y-68798983D01*
X71326170Y-68826798D01*
X71331630Y-68829716D01*
X71331631Y-68829717D01*
X71373561Y-68852128D01*
X71456177Y-68896285D01*
X71462101Y-68898082D01*
X71462104Y-68898083D01*
X71591321Y-68937275D01*
X71591323Y-68937275D01*
X71597243Y-68939071D01*
X71640164Y-68943296D01*
X71715874Y-68950749D01*
X71723230Y-68951693D01*
X71734149Y-68953421D01*
X71743946Y-68954972D01*
X71753735Y-68953421D01*
X71753738Y-68953421D01*
X71766162Y-68951452D01*
X71785880Y-68949900D01*
X72607019Y-68949900D01*
X72626723Y-68951450D01*
X72648968Y-68954972D01*
X72658765Y-68953420D01*
X72658829Y-68953420D01*
X72668394Y-68952288D01*
X72841813Y-68938630D01*
X72846752Y-68938241D01*
X72872310Y-68932104D01*
X72939671Y-68915930D01*
X73010579Y-68919475D01*
X73068314Y-68960793D01*
X73094546Y-69026765D01*
X73095089Y-69038448D01*
X73095089Y-69522785D01*
X73075087Y-69590906D01*
X73021431Y-69637399D01*
X72968835Y-69648785D01*
X70717613Y-69644242D01*
X70708047Y-69643858D01*
X70427901Y-69621932D01*
X70408985Y-69618992D01*
X70140077Y-69555948D01*
X70121825Y-69550175D01*
X69865577Y-69447095D01*
X69848419Y-69438624D01*
X69611851Y-69298538D01*
X69594234Y-69285942D01*
X69440818Y-69154945D01*
X69424036Y-69137571D01*
X69299221Y-68980689D01*
X69286065Y-68960435D01*
X69272347Y-68934086D01*
X69258630Y-68864429D01*
X69284751Y-68798412D01*
X69342417Y-68756997D01*
X69384107Y-68749900D01*
X71187385Y-68749900D01*
X71255506Y-68769902D01*
G37*
G04 #@! TD.AperFunction*
G04 #@! TA.AperFunction,Conductor*
G36*
X80474360Y-64716701D02*
G01*
X80531196Y-64759248D01*
X80537472Y-64768454D01*
X80625563Y-64910807D01*
X80634599Y-64922208D01*
X80749329Y-65036739D01*
X80760740Y-65045751D01*
X80865163Y-65110118D01*
X80912656Y-65162890D01*
X80924080Y-65232962D01*
X80909634Y-65277764D01*
X80899322Y-65296648D01*
X80899454Y-65298482D01*
X80903705Y-65305097D01*
X81679637Y-66081029D01*
X81693581Y-66088643D01*
X81695414Y-66088512D01*
X81702029Y-66084261D01*
X82301183Y-65485107D01*
X82308797Y-65471163D01*
X82308666Y-65469330D01*
X82304415Y-65462715D01*
X82247218Y-65405518D01*
X82213192Y-65343206D01*
X82218257Y-65272391D01*
X82260804Y-65215555D01*
X82320011Y-65192386D01*
X82319970Y-65192198D01*
X82321132Y-65191947D01*
X82323307Y-65191096D01*
X82326707Y-65190743D01*
X82340100Y-65187851D01*
X82494284Y-65136412D01*
X82507462Y-65130239D01*
X82645307Y-65044937D01*
X82656708Y-65035901D01*
X82661175Y-65031426D01*
X82723457Y-64997346D01*
X82794277Y-65002349D01*
X82851151Y-65044845D01*
X82863044Y-65064090D01*
X82889179Y-65116359D01*
X82893184Y-65125206D01*
X83002164Y-65393088D01*
X83004042Y-65397704D01*
X83009958Y-65416232D01*
X83064175Y-65645900D01*
X83076420Y-65697770D01*
X83079415Y-65716992D01*
X83096803Y-65941560D01*
X83082119Y-66011022D01*
X83032213Y-66061518D01*
X82962929Y-66077017D01*
X82896264Y-66052597D01*
X82882084Y-66040382D01*
X82686018Y-65844316D01*
X82672074Y-65836702D01*
X82670241Y-65836833D01*
X82663626Y-65841084D01*
X81083715Y-67420995D01*
X81076101Y-67434939D01*
X81076232Y-67436772D01*
X81080483Y-67443387D01*
X81366548Y-67729452D01*
X81371371Y-67733801D01*
X81446001Y-67794400D01*
X81457512Y-67801822D01*
X81602909Y-67874473D01*
X81623473Y-67881918D01*
X81622964Y-67883325D01*
X81677483Y-67914314D01*
X81710440Y-67977198D01*
X81704168Y-68047917D01*
X81673423Y-68093455D01*
X81035097Y-68696662D01*
X80971849Y-68728911D01*
X80901205Y-68721845D01*
X80845595Y-68677709D01*
X80822558Y-68605082D01*
X80822558Y-68545913D01*
X80783119Y-68424533D01*
X80777289Y-68416508D01*
X80729884Y-68351260D01*
X80729879Y-68351254D01*
X80726972Y-68347253D01*
X79798247Y-67418528D01*
X79794246Y-67415621D01*
X79794240Y-67415616D01*
X79728992Y-67368211D01*
X79728990Y-67368210D01*
X79720967Y-67362381D01*
X79599587Y-67322942D01*
X79471961Y-67322942D01*
X79462528Y-67326007D01*
X79410756Y-67342829D01*
X79339788Y-67344857D01*
X79278990Y-67308194D01*
X79247665Y-67244482D01*
X79245819Y-67222996D01*
X79245819Y-67218772D01*
X79244006Y-67203792D01*
X79209064Y-67061532D01*
X79203733Y-67047426D01*
X79135443Y-66916798D01*
X79128070Y-66905732D01*
X79101469Y-66873750D01*
X79088882Y-66865296D01*
X79078233Y-66871469D01*
X77932131Y-68017571D01*
X77924864Y-68030879D01*
X77931986Y-68040918D01*
X77965232Y-68068570D01*
X77976298Y-68075943D01*
X78106926Y-68144233D01*
X78121032Y-68149564D01*
X78263292Y-68184506D01*
X78278272Y-68186319D01*
X78424753Y-68186319D01*
X78439733Y-68184506D01*
X78446488Y-68182847D01*
X78517413Y-68186022D01*
X78575363Y-68227039D01*
X78601939Y-68292874D01*
X78602544Y-68305210D01*
X78602544Y-68319985D01*
X78641983Y-68441365D01*
X78647812Y-68449388D01*
X78647813Y-68449390D01*
X78695218Y-68514638D01*
X78695223Y-68514644D01*
X78698130Y-68518645D01*
X78753038Y-68573553D01*
X78787064Y-68635865D01*
X78781999Y-68706680D01*
X78733595Y-68767646D01*
X78686349Y-68798986D01*
X78670594Y-68807878D01*
X78592365Y-68844893D01*
X78592363Y-68844894D01*
X78587194Y-68847340D01*
X78584247Y-68849460D01*
X78570888Y-68856125D01*
X78549186Y-68865114D01*
X78522493Y-68876170D01*
X78503694Y-68882278D01*
X78348012Y-68919653D01*
X78328491Y-68922745D01*
X78267657Y-68927532D01*
X78195185Y-68933235D01*
X78178493Y-68932579D01*
X78168790Y-68932579D01*
X78158997Y-68931028D01*
X78149204Y-68932579D01*
X78136766Y-68934549D01*
X78117056Y-68936100D01*
X77398011Y-68936100D01*
X77378294Y-68934548D01*
X77365870Y-68932579D01*
X77365865Y-68932579D01*
X77356076Y-68931028D01*
X77346284Y-68932578D01*
X77336366Y-68932578D01*
X77336366Y-68932104D01*
X77320170Y-68932581D01*
X77281274Y-68928748D01*
X77257059Y-68923930D01*
X77198819Y-68906261D01*
X77139439Y-68867343D01*
X77110527Y-68802500D01*
X77109400Y-68785688D01*
X77109400Y-68577565D01*
X77110701Y-68559504D01*
X77112647Y-68546065D01*
X77113535Y-68539937D01*
X77109957Y-68471847D01*
X77109781Y-68469590D01*
X77109400Y-68459794D01*
X77109400Y-68397950D01*
X77110952Y-68378236D01*
X77112920Y-68365811D01*
X77114472Y-68356016D01*
X77111160Y-68335102D01*
X77110219Y-68327769D01*
X77099228Y-68216145D01*
X77099227Y-68216140D01*
X77098621Y-68209986D01*
X77056028Y-68069568D01*
X77028392Y-68017864D01*
X76989777Y-67945618D01*
X76989774Y-67945613D01*
X76986858Y-67940158D01*
X76982933Y-67935375D01*
X76979490Y-67930223D01*
X76981622Y-67928798D01*
X76958248Y-67873780D01*
X76957399Y-67859179D01*
X76957399Y-67227944D01*
X76948528Y-67183342D01*
X76951126Y-67182825D01*
X76945441Y-67129951D01*
X76980344Y-67063227D01*
X77048898Y-66994673D01*
X77061662Y-66969623D01*
X77083747Y-66926280D01*
X77132495Y-66874666D01*
X77201410Y-66857600D01*
X77268611Y-66880501D01*
X77285108Y-66894389D01*
X77311194Y-66920475D01*
X77347657Y-66948455D01*
X77356717Y-66951753D01*
X77358371Y-66952660D01*
X77408473Y-67002962D01*
X77423426Y-67072366D01*
X77420128Y-67093183D01*
X77405986Y-67150759D01*
X77404173Y-67165739D01*
X77404173Y-67312220D01*
X77405986Y-67327200D01*
X77440928Y-67469460D01*
X77446259Y-67483566D01*
X77514549Y-67614194D01*
X77521922Y-67625260D01*
X77548523Y-67657242D01*
X77561110Y-67665696D01*
X77571759Y-67659523D01*
X78717861Y-66513421D01*
X78725128Y-66500113D01*
X78718006Y-66490074D01*
X78684760Y-66462422D01*
X78673694Y-66455049D01*
X78543066Y-66386759D01*
X78528960Y-66381428D01*
X78386700Y-66346486D01*
X78371720Y-66344673D01*
X78225239Y-66344673D01*
X78210259Y-66346486D01*
X78152683Y-66360628D01*
X78081757Y-66357452D01*
X78023807Y-66316436D01*
X78012160Y-66298871D01*
X78011253Y-66297217D01*
X78007955Y-66288157D01*
X77979975Y-66251694D01*
X77924159Y-66195878D01*
X80227246Y-66195878D01*
X80227388Y-66357996D01*
X80229083Y-66372431D01*
X80266517Y-66530171D01*
X80271490Y-66543834D01*
X80344401Y-66689118D01*
X80351829Y-66700601D01*
X80411712Y-66774155D01*
X80416022Y-66778928D01*
X80698880Y-67061786D01*
X80712824Y-67069400D01*
X80714657Y-67069269D01*
X80721272Y-67065018D01*
X81320427Y-66465863D01*
X81328041Y-66451919D01*
X81327910Y-66450086D01*
X81323659Y-66443471D01*
X80547728Y-65667540D01*
X80533784Y-65659926D01*
X80531951Y-65660057D01*
X80525336Y-65664308D01*
X80416048Y-65773596D01*
X80411699Y-65778419D01*
X80351100Y-65853049D01*
X80343678Y-65864560D01*
X80271027Y-66009957D01*
X80266073Y-66023639D01*
X80228917Y-66181436D01*
X80227246Y-66195878D01*
X77924159Y-66195878D01*
X77648814Y-65920533D01*
X77612351Y-65892553D01*
X77603289Y-65889255D01*
X77594841Y-65884620D01*
X77595878Y-65882729D01*
X77548991Y-65848205D01*
X77523654Y-65781883D01*
X77538196Y-65712392D01*
X77587999Y-65661794D01*
X77649258Y-65645900D01*
X78320531Y-65645900D01*
X78340242Y-65647451D01*
X78350509Y-65649077D01*
X78362473Y-65650972D01*
X78372187Y-65649434D01*
X78372403Y-65649422D01*
X78375320Y-65649422D01*
X78378537Y-65649077D01*
X78654461Y-65633584D01*
X78749721Y-65617400D01*
X78939301Y-65585192D01*
X78939306Y-65585191D01*
X78942778Y-65584601D01*
X79223798Y-65503644D01*
X79227065Y-65502291D01*
X79227073Y-65502288D01*
X79490713Y-65393088D01*
X79493987Y-65391732D01*
X79709924Y-65272391D01*
X79746854Y-65251981D01*
X79746856Y-65251980D01*
X79749946Y-65250272D01*
X79988458Y-65081044D01*
X80194701Y-64896739D01*
X80196949Y-64894926D01*
X80198787Y-64893088D01*
X80199445Y-64892500D01*
X80207208Y-64886860D01*
X80220445Y-64868641D01*
X80233281Y-64853614D01*
X80341233Y-64745662D01*
X80403545Y-64711636D01*
X80474360Y-64716701D01*
G37*
G04 #@! TD.AperFunction*
G04 #@! TA.AperFunction,Conductor*
G36*
X69311012Y-65827500D02*
G01*
X69330434Y-65848661D01*
X69343423Y-65866539D01*
X69364285Y-65881698D01*
X69372046Y-65887816D01*
X69412916Y-65922724D01*
X69447874Y-65952583D01*
X69486180Y-65976058D01*
X69543233Y-66011022D01*
X69563078Y-66023184D01*
X69624887Y-66048788D01*
X69628844Y-66050427D01*
X69684124Y-66094977D01*
X69706543Y-66162341D01*
X69688983Y-66231132D01*
X69656188Y-66267661D01*
X69646776Y-66274715D01*
X69634215Y-66287276D01*
X69557714Y-66389351D01*
X69549176Y-66404946D01*
X69504022Y-66525394D01*
X69500395Y-66540649D01*
X69494869Y-66591514D01*
X69494500Y-66598328D01*
X69494500Y-66970885D01*
X69498975Y-66986124D01*
X69500365Y-66987329D01*
X69508048Y-66989000D01*
X70580500Y-66989000D01*
X70648621Y-67009002D01*
X70695114Y-67062658D01*
X70706500Y-67115000D01*
X70706500Y-67371000D01*
X70686498Y-67439121D01*
X70632842Y-67485614D01*
X70580500Y-67497000D01*
X69512616Y-67497000D01*
X69497377Y-67501475D01*
X69496172Y-67502865D01*
X69494501Y-67510548D01*
X69494501Y-67810100D01*
X69474499Y-67878221D01*
X69420843Y-67924714D01*
X69368501Y-67936100D01*
X69228500Y-67936100D01*
X69160379Y-67916098D01*
X69113886Y-67862442D01*
X69102500Y-67810100D01*
X69102500Y-65922724D01*
X69122502Y-65854603D01*
X69176158Y-65808110D01*
X69246432Y-65798006D01*
X69311012Y-65827500D01*
G37*
G04 #@! TD.AperFunction*
G04 #@! TA.AperFunction,Conductor*
G36*
X75094621Y-65511402D02*
G01*
X75141114Y-65565058D01*
X75152500Y-65617400D01*
X75152500Y-66435400D01*
X75132498Y-66503521D01*
X75078842Y-66550014D01*
X75026500Y-66561400D01*
X74978500Y-66561400D01*
X74910379Y-66541398D01*
X74863886Y-66487742D01*
X74852500Y-66435400D01*
X74852500Y-65617400D01*
X74872502Y-65549279D01*
X74926158Y-65502786D01*
X74978500Y-65491400D01*
X75026500Y-65491400D01*
X75094621Y-65511402D01*
G37*
G04 #@! TD.AperFunction*
G04 #@! TA.AperFunction,Conductor*
G36*
X70117912Y-64290638D02*
G01*
X70139240Y-64314495D01*
X70171374Y-64361250D01*
X70177044Y-64366301D01*
X70177045Y-64366303D01*
X70292726Y-64469371D01*
X70292728Y-64469373D01*
X70298399Y-64474425D01*
X70305108Y-64477977D01*
X70305112Y-64477980D01*
X70407573Y-64532230D01*
X70448753Y-64554034D01*
X70613756Y-64595480D01*
X70621354Y-64595520D01*
X70621356Y-64595520D01*
X70693095Y-64595896D01*
X70783883Y-64596371D01*
X70791265Y-64594599D01*
X70798818Y-64593725D01*
X70799037Y-64595618D01*
X70860003Y-64598672D01*
X70917734Y-64639996D01*
X70943959Y-64705971D01*
X70944501Y-64717641D01*
X70944501Y-64756984D01*
X70944695Y-64761920D01*
X70946930Y-64790336D01*
X70949230Y-64802931D01*
X70991607Y-64948790D01*
X70997852Y-64963221D01*
X71074412Y-65092678D01*
X71078036Y-65097350D01*
X71103986Y-65163434D01*
X71090088Y-65233057D01*
X71040756Y-65284114D01*
X70978480Y-65300580D01*
X70035400Y-65300580D01*
X69967279Y-65280578D01*
X69920786Y-65226922D01*
X69909400Y-65174580D01*
X69909400Y-64385862D01*
X69929402Y-64317741D01*
X69983058Y-64271248D01*
X70053332Y-64261144D01*
X70117912Y-64290638D01*
G37*
G04 #@! TD.AperFunction*
G04 #@! TA.AperFunction,Conductor*
G36*
X80532542Y-56715902D02*
G01*
X80553516Y-56732805D01*
X81991690Y-58170980D01*
X82005631Y-58178592D01*
X82007466Y-58178461D01*
X82014080Y-58174210D01*
X83035773Y-57152517D01*
X83098085Y-57118491D01*
X83168900Y-57123556D01*
X83207946Y-57146880D01*
X83304395Y-57231464D01*
X83316036Y-57243105D01*
X83381522Y-57317778D01*
X83400620Y-57339555D01*
X83430497Y-57403959D01*
X83420811Y-57474292D01*
X83394983Y-57511727D01*
X82376522Y-58530188D01*
X82368908Y-58544132D01*
X82369039Y-58545965D01*
X82373290Y-58552580D01*
X83814695Y-59993984D01*
X83848720Y-60056296D01*
X83851600Y-60083079D01*
X83851600Y-69502921D01*
X83831598Y-69571042D01*
X83814695Y-69592016D01*
X82376520Y-71030190D01*
X82368908Y-71044131D01*
X82369039Y-71045966D01*
X82373290Y-71052580D01*
X83394983Y-72074273D01*
X83429009Y-72136585D01*
X83423944Y-72207400D01*
X83400620Y-72246445D01*
X83316036Y-72342895D01*
X83304395Y-72354536D01*
X83228124Y-72421424D01*
X83207945Y-72439120D01*
X83143541Y-72468997D01*
X83073208Y-72459311D01*
X83035773Y-72433483D01*
X82017312Y-71415022D01*
X82003368Y-71407408D01*
X82001535Y-71407539D01*
X81994920Y-71411790D01*
X80553516Y-72853195D01*
X80491204Y-72887220D01*
X80464421Y-72890100D01*
X78683400Y-72890100D01*
X78615279Y-72870098D01*
X78568786Y-72816442D01*
X78557400Y-72764100D01*
X78557399Y-70984133D01*
X78557399Y-70977944D01*
X78548528Y-70933342D01*
X78533101Y-70910253D01*
X78521627Y-70893082D01*
X78514734Y-70882766D01*
X78504418Y-70875873D01*
X78474475Y-70855865D01*
X78474472Y-70855864D01*
X78464158Y-70848972D01*
X78451991Y-70846552D01*
X78451989Y-70846551D01*
X78433757Y-70842925D01*
X78419557Y-70840100D01*
X78273599Y-70840100D01*
X77235400Y-70840101D01*
X77167279Y-70820099D01*
X77120786Y-70766443D01*
X77109400Y-70714101D01*
X77109400Y-69870707D01*
X77129402Y-69802586D01*
X77183058Y-69756093D01*
X77245292Y-69745096D01*
X77290972Y-69748694D01*
X77336605Y-69752288D01*
X77346172Y-69753420D01*
X77346233Y-69753420D01*
X77356030Y-69754972D01*
X77378275Y-69751450D01*
X77397979Y-69749900D01*
X78117054Y-69749900D01*
X78136764Y-69751451D01*
X78149201Y-69753421D01*
X78149202Y-69753421D01*
X78158995Y-69754972D01*
X78168495Y-69753467D01*
X78169211Y-69753420D01*
X78171300Y-69753420D01*
X78174264Y-69753089D01*
X78411318Y-69737553D01*
X78411324Y-69737552D01*
X78415432Y-69737283D01*
X78443752Y-69731650D01*
X78663431Y-69687955D01*
X78663434Y-69687954D01*
X78667482Y-69687149D01*
X78778308Y-69649530D01*
X78888631Y-69612082D01*
X78893318Y-69610834D01*
X78893256Y-69610625D01*
X78899188Y-69608856D01*
X78905264Y-69607677D01*
X79018921Y-69561219D01*
X79089547Y-69553960D01*
X79152884Y-69586035D01*
X79177033Y-69617192D01*
X79217575Y-69691002D01*
X79267903Y-69741079D01*
X79346097Y-69783523D01*
X79375336Y-69789807D01*
X79411109Y-69797496D01*
X79411115Y-69797497D01*
X79415508Y-69798441D01*
X79419996Y-69798751D01*
X79419998Y-69798751D01*
X79455848Y-69801225D01*
X79455852Y-69801225D01*
X79460344Y-69801535D01*
X79519310Y-69797170D01*
X79520508Y-69797035D01*
X79520523Y-69797034D01*
X79530037Y-69795965D01*
X79530047Y-69795964D01*
X79531219Y-69795832D01*
X79532667Y-69795613D01*
X79548963Y-69793154D01*
X79548977Y-69793152D01*
X79550114Y-69792980D01*
X79551259Y-69792763D01*
X79551268Y-69792761D01*
X79554394Y-69792167D01*
X79561887Y-69790744D01*
X79563029Y-69790482D01*
X79563047Y-69790478D01*
X79572514Y-69788304D01*
X79572519Y-69788303D01*
X79575705Y-69787571D01*
X79606786Y-69776927D01*
X79611406Y-69774785D01*
X79647031Y-69758267D01*
X79647032Y-69758266D01*
X79654096Y-69754991D01*
X79660146Y-69750087D01*
X79705863Y-69713028D01*
X79771377Y-69685670D01*
X79841281Y-69698075D01*
X79893382Y-69746303D01*
X79911138Y-69815044D01*
X79893177Y-69873264D01*
X79894210Y-69873832D01*
X79888493Y-69884230D01*
X79762861Y-70151213D01*
X79759946Y-70158576D01*
X79668767Y-70439195D01*
X79666796Y-70446872D01*
X79611508Y-70736703D01*
X79610515Y-70744564D01*
X79591988Y-71039042D01*
X79591988Y-71046958D01*
X79610515Y-71341436D01*
X79611508Y-71349297D01*
X79666796Y-71639128D01*
X79668767Y-71646805D01*
X79759946Y-71927424D01*
X79762861Y-71934787D01*
X79888493Y-72201770D01*
X79892305Y-72208703D01*
X80050409Y-72457835D01*
X80055063Y-72464241D01*
X80120021Y-72542761D01*
X80132540Y-72551217D01*
X80143278Y-72545011D01*
X81632480Y-71055810D01*
X81640092Y-71041869D01*
X81639961Y-71040034D01*
X81635710Y-71033420D01*
X80607257Y-70004967D01*
X80573231Y-69942655D01*
X80578296Y-69871840D01*
X80607257Y-69826777D01*
X80788277Y-69645757D01*
X80850589Y-69611731D01*
X80921404Y-69616796D01*
X80966467Y-69645757D01*
X81991688Y-70670978D01*
X82005632Y-70678592D01*
X82007465Y-70678461D01*
X82014080Y-70674210D01*
X82533487Y-70154803D01*
X83507573Y-69180716D01*
X83514186Y-69168605D01*
X83505359Y-69156987D01*
X83300530Y-69008170D01*
X83293850Y-69003930D01*
X83035266Y-68861772D01*
X83028131Y-68858415D01*
X82753754Y-68749781D01*
X82746263Y-68747347D01*
X82460441Y-68673961D01*
X82452670Y-68672479D01*
X82159930Y-68635497D01*
X82152040Y-68635000D01*
X81856960Y-68635000D01*
X81849070Y-68635497D01*
X81632264Y-68662886D01*
X81562174Y-68651580D01*
X81509322Y-68604175D01*
X81490490Y-68535721D01*
X81511657Y-68467953D01*
X81529931Y-68446301D01*
X81779360Y-68210595D01*
X81779362Y-68210593D01*
X81781873Y-68208220D01*
X81804289Y-68181809D01*
X81835034Y-68136271D01*
X81861451Y-68061866D01*
X81867723Y-67991147D01*
X81863310Y-67969049D01*
X81852576Y-67915311D01*
X81850297Y-67903900D01*
X81817340Y-67841016D01*
X81755510Y-67777040D01*
X81758143Y-67774495D01*
X81726773Y-67731043D01*
X81722933Y-67660150D01*
X81758030Y-67598435D01*
X81820921Y-67565493D01*
X81845572Y-67563058D01*
X81933039Y-67563058D01*
X81956774Y-67555346D01*
X82044989Y-67526683D01*
X82044991Y-67526682D01*
X82054418Y-67523619D01*
X82062440Y-67517791D01*
X82127691Y-67470384D01*
X82127697Y-67470379D01*
X82131698Y-67467472D01*
X82706870Y-66892300D01*
X82709777Y-66888299D01*
X82709782Y-66888293D01*
X82757189Y-66823042D01*
X82757190Y-66823041D01*
X82763017Y-66815020D01*
X82776284Y-66774191D01*
X82799391Y-66703074D01*
X82802456Y-66693641D01*
X82802456Y-66566015D01*
X82763017Y-66444635D01*
X82736188Y-66407708D01*
X82712330Y-66340841D01*
X82728411Y-66271689D01*
X82779326Y-66222209D01*
X82848908Y-66208110D01*
X82881461Y-66215335D01*
X82908618Y-66225283D01*
X82997400Y-66231108D01*
X83006192Y-66229141D01*
X83006194Y-66229141D01*
X83023808Y-66225201D01*
X83066684Y-66215609D01*
X83144519Y-66172512D01*
X83150850Y-66166106D01*
X83150854Y-66166103D01*
X83182203Y-66134382D01*
X83194425Y-66122016D01*
X83236605Y-66043680D01*
X83251289Y-65974218D01*
X83254232Y-65929370D01*
X83253718Y-65922724D01*
X83238746Y-65729369D01*
X83236844Y-65704802D01*
X83235433Y-65692683D01*
X83234825Y-65688777D01*
X83232624Y-65674654D01*
X83232623Y-65674648D01*
X83232438Y-65673461D01*
X83230096Y-65661492D01*
X83229822Y-65660333D01*
X83229817Y-65660308D01*
X83177612Y-65439166D01*
X83163634Y-65379954D01*
X83160376Y-65368203D01*
X83154460Y-65349675D01*
X83150302Y-65338202D01*
X83143916Y-65322503D01*
X83039646Y-65066200D01*
X83039639Y-65066182D01*
X83039444Y-65065704D01*
X83038062Y-65062486D01*
X83037250Y-65060596D01*
X83037238Y-65060568D01*
X83037031Y-65060087D01*
X83033026Y-65051240D01*
X83032183Y-65049468D01*
X83030704Y-65046362D01*
X83030692Y-65046336D01*
X83030409Y-65045743D01*
X83004274Y-64993474D01*
X82997365Y-64981082D01*
X82985472Y-64961837D01*
X82945664Y-64918355D01*
X82937365Y-64912154D01*
X82896006Y-64881250D01*
X82896002Y-64881248D01*
X82888790Y-64875859D01*
X82828774Y-64853535D01*
X82813846Y-64847982D01*
X82813845Y-64847982D01*
X82805404Y-64844842D01*
X82796419Y-64844207D01*
X82796418Y-64844207D01*
X82743573Y-64840474D01*
X82734584Y-64839839D01*
X82725782Y-64841762D01*
X82725779Y-64841762D01*
X82648983Y-64858538D01*
X82578163Y-64853535D01*
X82521290Y-64811037D01*
X82496422Y-64744539D01*
X82509826Y-64678239D01*
X82560955Y-64577891D01*
X82560955Y-64577890D01*
X82565457Y-64569055D01*
X82580400Y-64474708D01*
X82580400Y-63911292D01*
X82565457Y-63816945D01*
X82507516Y-63703229D01*
X82417271Y-63612984D01*
X82303555Y-63555043D01*
X82293766Y-63553493D01*
X82293764Y-63553492D01*
X82262496Y-63548540D01*
X82209208Y-63540100D01*
X81335033Y-63540100D01*
X81266912Y-63520098D01*
X81220419Y-63466442D01*
X81210315Y-63396168D01*
X81239809Y-63331588D01*
X81245938Y-63325005D01*
X81270123Y-63300820D01*
X81290881Y-63284056D01*
X81295011Y-63281390D01*
X81295012Y-63281389D01*
X81300211Y-63278033D01*
X81367365Y-63212973D01*
X81371049Y-63209546D01*
X81432168Y-63154939D01*
X81437298Y-63150596D01*
X81488956Y-63109177D01*
X81495583Y-63104212D01*
X81540242Y-63072998D01*
X81548007Y-63067987D01*
X81589331Y-63043426D01*
X81597370Y-63039036D01*
X81640033Y-63017714D01*
X81647062Y-63014467D01*
X81695951Y-62993681D01*
X81700961Y-62991677D01*
X81759880Y-62969555D01*
X81762465Y-62968617D01*
X81807132Y-62952977D01*
X81848766Y-62945900D01*
X82209208Y-62945900D01*
X82266148Y-62936882D01*
X82293764Y-62932508D01*
X82293766Y-62932507D01*
X82303555Y-62930957D01*
X82417271Y-62873016D01*
X82507516Y-62782771D01*
X82565457Y-62669055D01*
X82567451Y-62656469D01*
X82575903Y-62603098D01*
X82580400Y-62574708D01*
X82580400Y-62011292D01*
X82565457Y-61916945D01*
X82507516Y-61803229D01*
X82417271Y-61712984D01*
X82303555Y-61655043D01*
X82293766Y-61653493D01*
X82293764Y-61653492D01*
X82266148Y-61649118D01*
X82209208Y-61640100D01*
X81638551Y-61640100D01*
X81570430Y-61620098D01*
X81523937Y-61566442D01*
X81513088Y-61515999D01*
X81513847Y-61510895D01*
X81504077Y-61440574D01*
X81491620Y-61397392D01*
X81427096Y-61254310D01*
X81422353Y-61244680D01*
X81414269Y-61229584D01*
X81411892Y-61225487D01*
X81409413Y-61221212D01*
X81409397Y-61221185D01*
X81408881Y-61220296D01*
X81319500Y-61077623D01*
X81300285Y-61009276D01*
X81321072Y-60941391D01*
X81375261Y-60895520D01*
X81445647Y-60886228D01*
X81457612Y-60888689D01*
X81548544Y-60912036D01*
X81556330Y-60913521D01*
X81849070Y-60950503D01*
X81856960Y-60951000D01*
X82152040Y-60951000D01*
X82159930Y-60950503D01*
X82452670Y-60913521D01*
X82460441Y-60912039D01*
X82746263Y-60838653D01*
X82753754Y-60836219D01*
X83028131Y-60727585D01*
X83035266Y-60724228D01*
X83293850Y-60582070D01*
X83300530Y-60577830D01*
X83505730Y-60428744D01*
X83514153Y-60417821D01*
X83507249Y-60404960D01*
X82017310Y-58915020D01*
X82003369Y-58907408D01*
X82001534Y-58907539D01*
X81994920Y-58911790D01*
X80966467Y-59940243D01*
X80904155Y-59974269D01*
X80833340Y-59969204D01*
X80788277Y-59940243D01*
X80607257Y-59759223D01*
X80573231Y-59696911D01*
X80578296Y-59626096D01*
X80607257Y-59581033D01*
X81632478Y-58555812D01*
X81640092Y-58541868D01*
X81639961Y-58540035D01*
X81635710Y-58533420D01*
X80144381Y-57042092D01*
X80131119Y-57034850D01*
X80121015Y-57042038D01*
X80055063Y-57121759D01*
X80050409Y-57128165D01*
X79892305Y-57377297D01*
X79888493Y-57384230D01*
X79761172Y-57654803D01*
X79759625Y-57654075D01*
X79720231Y-57704579D01*
X79653232Y-57728066D01*
X79622155Y-57725813D01*
X79574269Y-57716288D01*
X79561394Y-57717440D01*
X79556500Y-57732596D01*
X79556500Y-60369267D01*
X79555217Y-60387199D01*
X79552140Y-60408599D01*
X79552139Y-60408614D01*
X79551500Y-60413058D01*
X79551500Y-62157574D01*
X79552956Y-62178969D01*
X79555338Y-62196386D01*
X79556500Y-62213459D01*
X79556500Y-63471000D01*
X79536498Y-63539121D01*
X79482842Y-63585614D01*
X79430500Y-63597000D01*
X79174500Y-63597000D01*
X79106379Y-63576998D01*
X79059886Y-63523342D01*
X79048500Y-63471000D01*
X79048500Y-62201650D01*
X79049783Y-62183718D01*
X79052860Y-62162318D01*
X79052861Y-62162303D01*
X79053500Y-62157859D01*
X79053500Y-60388221D01*
X79051921Y-60373831D01*
X79049739Y-60353961D01*
X79049871Y-60353946D01*
X79048500Y-60337270D01*
X79048500Y-59415115D01*
X79044025Y-59399876D01*
X79042635Y-59398671D01*
X79034952Y-59397000D01*
X78162615Y-59397000D01*
X78147376Y-59401475D01*
X78146171Y-59402865D01*
X78144500Y-59410548D01*
X78144500Y-59494092D01*
X78144766Y-59499881D01*
X78158484Y-59649176D01*
X78160582Y-59660497D01*
X78215213Y-59854203D01*
X78219339Y-59864955D01*
X78250563Y-59928270D01*
X78262753Y-59998212D01*
X78235194Y-60063641D01*
X78176636Y-60103785D01*
X78138694Y-60109993D01*
X74568311Y-60142158D01*
X71840109Y-60166736D01*
X71771811Y-60147348D01*
X71724837Y-60094114D01*
X71714100Y-60023934D01*
X71727466Y-59982074D01*
X71774241Y-59893168D01*
X71778652Y-59882521D01*
X71838333Y-59690316D01*
X71840727Y-59679054D01*
X71860063Y-59515678D01*
X71860500Y-59508272D01*
X71860500Y-59415115D01*
X71856025Y-59399876D01*
X71854635Y-59398671D01*
X71846952Y-59397000D01*
X70974615Y-59397000D01*
X70959376Y-59401475D01*
X70958171Y-59402865D01*
X70956500Y-59410548D01*
X70956500Y-60412305D01*
X70955217Y-60430237D01*
X70952140Y-60451637D01*
X70952139Y-60451652D01*
X70951500Y-60456096D01*
X70951500Y-62157574D01*
X70952956Y-62178969D01*
X70955338Y-62196386D01*
X70956500Y-62213459D01*
X70956500Y-63471000D01*
X70936498Y-63539121D01*
X70882842Y-63585614D01*
X70830500Y-63597000D01*
X70574500Y-63597000D01*
X70506379Y-63576998D01*
X70459886Y-63523342D01*
X70448500Y-63471000D01*
X70448500Y-62201650D01*
X70449783Y-62183718D01*
X70452860Y-62162318D01*
X70452861Y-62162303D01*
X70453500Y-62157859D01*
X70453500Y-60474517D01*
X70449583Y-60444834D01*
X70448500Y-60428351D01*
X70448500Y-58870885D01*
X70956500Y-58870885D01*
X70960975Y-58886124D01*
X70962365Y-58887329D01*
X70970048Y-58889000D01*
X71842385Y-58889000D01*
X71857624Y-58884525D01*
X71858829Y-58883135D01*
X71860500Y-58875452D01*
X71860500Y-58870885D01*
X78144500Y-58870885D01*
X78148975Y-58886124D01*
X78150365Y-58887329D01*
X78158048Y-58889000D01*
X79030385Y-58889000D01*
X79045624Y-58884525D01*
X79046829Y-58883135D01*
X79048500Y-58875452D01*
X79048500Y-57729706D01*
X79044694Y-57716744D01*
X79029778Y-57714808D01*
X79007200Y-57718687D01*
X78996083Y-57721666D01*
X78807248Y-57791331D01*
X78796870Y-57796281D01*
X78623894Y-57899191D01*
X78614585Y-57905955D01*
X78463257Y-58038665D01*
X78455347Y-58047000D01*
X78330736Y-58205069D01*
X78324468Y-58214720D01*
X78230757Y-58392836D01*
X78226348Y-58403479D01*
X78166667Y-58595684D01*
X78164273Y-58606946D01*
X78144937Y-58770322D01*
X78144500Y-58777728D01*
X78144500Y-58870885D01*
X71860500Y-58870885D01*
X71860500Y-58791908D01*
X71860234Y-58786119D01*
X71846516Y-58636824D01*
X71844418Y-58625503D01*
X71789787Y-58431797D01*
X71785663Y-58421050D01*
X71696641Y-58240534D01*
X71690631Y-58230727D01*
X71570201Y-58069451D01*
X71562511Y-58060911D01*
X71414706Y-57924280D01*
X71405581Y-57917279D01*
X71235356Y-57809875D01*
X71225109Y-57804654D01*
X71038168Y-57730072D01*
X71027131Y-57726803D01*
X70974270Y-57716288D01*
X70961394Y-57717440D01*
X70956500Y-57732596D01*
X70956500Y-58870885D01*
X70448500Y-58870885D01*
X70448500Y-57729706D01*
X70444694Y-57716744D01*
X70429778Y-57714808D01*
X70407200Y-57718687D01*
X70394126Y-57722190D01*
X70323149Y-57720498D01*
X70264355Y-57680701D01*
X70247511Y-57654130D01*
X70120506Y-57384230D01*
X70116695Y-57377297D01*
X69958591Y-57128165D01*
X69953937Y-57121759D01*
X69888979Y-57043239D01*
X69876460Y-57034783D01*
X69865722Y-57040989D01*
X68376520Y-58530190D01*
X68368908Y-58544131D01*
X68369039Y-58545966D01*
X68373290Y-58552580D01*
X69401743Y-59581033D01*
X69435769Y-59643345D01*
X69430704Y-59714160D01*
X69401743Y-59759223D01*
X69220723Y-59940243D01*
X69158411Y-59974269D01*
X69087596Y-59969204D01*
X69042533Y-59940243D01*
X68017312Y-58915022D01*
X68003368Y-58907408D01*
X68001535Y-58907539D01*
X67994920Y-58911790D01*
X66501427Y-60405284D01*
X66494814Y-60417394D01*
X66503643Y-60429014D01*
X66708470Y-60577830D01*
X66715150Y-60582070D01*
X66973734Y-60724228D01*
X66980869Y-60727585D01*
X67255246Y-60836219D01*
X67262737Y-60838653D01*
X67548559Y-60912039D01*
X67556330Y-60913521D01*
X67849070Y-60950503D01*
X67856960Y-60951000D01*
X68152040Y-60951000D01*
X68159930Y-60950503D01*
X68452670Y-60913521D01*
X68460441Y-60912039D01*
X68746263Y-60838653D01*
X68753754Y-60836219D01*
X68875251Y-60788115D01*
X68945952Y-60781636D01*
X69008932Y-60814408D01*
X69044196Y-60876028D01*
X69040016Y-60947890D01*
X69040144Y-60947933D01*
X68980304Y-61126524D01*
X68975776Y-61142920D01*
X68969979Y-61169398D01*
X68967242Y-61186183D01*
X68967059Y-61187870D01*
X68967058Y-61187881D01*
X68962546Y-61229584D01*
X68946247Y-61380235D01*
X68945560Y-61388716D01*
X68944829Y-61402269D01*
X68944600Y-61410773D01*
X68944600Y-62328801D01*
X68924598Y-62396922D01*
X68870942Y-62443415D01*
X68800668Y-62453519D01*
X68736088Y-62424025D01*
X68729505Y-62417896D01*
X68672332Y-62360723D01*
X68609681Y-62328801D01*
X68570981Y-62309082D01*
X68570978Y-62309081D01*
X68562144Y-62304580D01*
X68470722Y-62290100D01*
X67934278Y-62290100D01*
X67842856Y-62304580D01*
X67834022Y-62309081D01*
X67834019Y-62309082D01*
X67795319Y-62328801D01*
X67732668Y-62360723D01*
X67645223Y-62448168D01*
X67616458Y-62504623D01*
X67593582Y-62549519D01*
X67593581Y-62549522D01*
X67589080Y-62558356D01*
X67574600Y-62649778D01*
X67574600Y-63286222D01*
X67589080Y-63377644D01*
X67593581Y-63386478D01*
X67593582Y-63386481D01*
X67598518Y-63396168D01*
X67645223Y-63487832D01*
X67732668Y-63575277D01*
X67789123Y-63604042D01*
X67834019Y-63626918D01*
X67834022Y-63626919D01*
X67842856Y-63631420D01*
X67934278Y-63645900D01*
X68470722Y-63645900D01*
X68562144Y-63631420D01*
X68570978Y-63626919D01*
X68570981Y-63626918D01*
X68615877Y-63604042D01*
X68672332Y-63575277D01*
X68724248Y-63523361D01*
X68786560Y-63489335D01*
X68857375Y-63494400D01*
X68891832Y-63516546D01*
X68892505Y-63515620D01*
X68892506Y-63515622D01*
X68894434Y-63517023D01*
X68897780Y-63520370D01*
X68902447Y-63523369D01*
X68907543Y-63528466D01*
X68906709Y-63529299D01*
X68910019Y-63532610D01*
X68910853Y-63531776D01*
X68917864Y-63538787D01*
X68923692Y-63546808D01*
X68931712Y-63552635D01*
X68938725Y-63559648D01*
X68938383Y-63559990D01*
X68950119Y-63571054D01*
X68990879Y-63620719D01*
X69004599Y-63641254D01*
X69007083Y-63645900D01*
X69046008Y-63718725D01*
X69055460Y-63741544D01*
X69080958Y-63825599D01*
X69085777Y-63849823D01*
X69092073Y-63913737D01*
X69091598Y-63929884D01*
X69092079Y-63929884D01*
X69092079Y-63939798D01*
X69090528Y-63949592D01*
X69092079Y-63959384D01*
X69092079Y-63959390D01*
X69094048Y-63971821D01*
X69095600Y-63991533D01*
X69095600Y-65214035D01*
X69094048Y-65233750D01*
X69092290Y-65244849D01*
X69090528Y-65255969D01*
X69092079Y-65265765D01*
X69094559Y-65281429D01*
X69095721Y-65291243D01*
X69103542Y-65390669D01*
X69104696Y-65395478D01*
X69104697Y-65395482D01*
X69124407Y-65477590D01*
X69135080Y-65522053D01*
X69136974Y-65526627D01*
X69138504Y-65531335D01*
X69137335Y-65531715D01*
X69144305Y-65596616D01*
X69112519Y-65660099D01*
X69088430Y-65680228D01*
X69080951Y-65685035D01*
X69072756Y-65688777D01*
X69065949Y-65694676D01*
X69065948Y-65694676D01*
X69025910Y-65729369D01*
X69019100Y-65735270D01*
X69014230Y-65742847D01*
X69014228Y-65742850D01*
X68975869Y-65802538D01*
X68970998Y-65810118D01*
X68950996Y-65878239D01*
X68950355Y-65882695D01*
X68950354Y-65882701D01*
X68948625Y-65894727D01*
X68944600Y-65922724D01*
X68944600Y-67791119D01*
X68924598Y-67859240D01*
X68870942Y-67905733D01*
X68794020Y-67914698D01*
X68726937Y-67901355D01*
X68657713Y-67887586D01*
X68641796Y-67883321D01*
X68475237Y-67826783D01*
X68460010Y-67820476D01*
X68302262Y-67742683D01*
X68287995Y-67734446D01*
X68141744Y-67636725D01*
X68128669Y-67626692D01*
X68058884Y-67565493D01*
X68017870Y-67529525D01*
X68001454Y-67511532D01*
X67999637Y-67509715D01*
X67993808Y-67501692D01*
X67985784Y-67495862D01*
X67985783Y-67495861D01*
X67975592Y-67488456D01*
X67960559Y-67475616D01*
X67947178Y-67462235D01*
X67934337Y-67447201D01*
X67921106Y-67428990D01*
X67913085Y-67423162D01*
X67906398Y-67416475D01*
X67893890Y-67404912D01*
X67856186Y-67360766D01*
X67799355Y-67294226D01*
X67787733Y-67278230D01*
X67773965Y-67255762D01*
X67755399Y-67189929D01*
X67755399Y-66627944D01*
X67751629Y-66608989D01*
X67748950Y-66595517D01*
X67748948Y-66595511D01*
X67746528Y-66583342D01*
X67734951Y-66566015D01*
X67719627Y-66543082D01*
X67712734Y-66532766D01*
X67662158Y-66498972D01*
X67652928Y-66497136D01*
X67599263Y-66453890D01*
X67576843Y-66386526D01*
X67580245Y-66352615D01*
X67616932Y-66199806D01*
X67623041Y-66181003D01*
X67688258Y-66023553D01*
X67706238Y-65994556D01*
X67705860Y-65994287D01*
X67709454Y-65989244D01*
X67713525Y-65984578D01*
X67764211Y-65896255D01*
X67765994Y-65893248D01*
X67787740Y-65857763D01*
X67799355Y-65841778D01*
X67893900Y-65731080D01*
X67906382Y-65719541D01*
X67913086Y-65712837D01*
X67921106Y-65707010D01*
X67934340Y-65688795D01*
X67947181Y-65673761D01*
X68128834Y-65492108D01*
X68151642Y-65474049D01*
X68184464Y-65453745D01*
X68205878Y-65440498D01*
X68210250Y-65437914D01*
X68214459Y-65435540D01*
X68255907Y-65412158D01*
X68317815Y-65395900D01*
X68470722Y-65395900D01*
X68562144Y-65381420D01*
X68570978Y-65376919D01*
X68570981Y-65376918D01*
X68622187Y-65350827D01*
X68672332Y-65325277D01*
X68759777Y-65237832D01*
X68810907Y-65137483D01*
X68811418Y-65136481D01*
X68811419Y-65136478D01*
X68815920Y-65127644D01*
X68825652Y-65066200D01*
X68829626Y-65041110D01*
X68829626Y-65041108D01*
X68830400Y-65036222D01*
X68830400Y-64399778D01*
X68815920Y-64308356D01*
X68811419Y-64299522D01*
X68811418Y-64299519D01*
X68788542Y-64254623D01*
X68759777Y-64198168D01*
X68672332Y-64110723D01*
X68615877Y-64081958D01*
X68570981Y-64059082D01*
X68570978Y-64059081D01*
X68562144Y-64054580D01*
X68470722Y-64040100D01*
X67934278Y-64040100D01*
X67842856Y-64054580D01*
X67834022Y-64059081D01*
X67834019Y-64059082D01*
X67789123Y-64081958D01*
X67732668Y-64110723D01*
X67645223Y-64198168D01*
X67616458Y-64254623D01*
X67593582Y-64299519D01*
X67593581Y-64299522D01*
X67589080Y-64308356D01*
X67574600Y-64399778D01*
X67574600Y-64619748D01*
X67571991Y-64645256D01*
X67555411Y-64725458D01*
X67551273Y-64740629D01*
X67526452Y-64813394D01*
X67520118Y-64828620D01*
X67498281Y-64872719D01*
X67489836Y-64889774D01*
X67482617Y-64902449D01*
X67453738Y-64946952D01*
X67446185Y-64958592D01*
X67446182Y-64958597D01*
X67443642Y-64962511D01*
X67437757Y-64970824D01*
X67388736Y-65034443D01*
X67388730Y-65034449D01*
X67386402Y-65037470D01*
X67383488Y-65041110D01*
X67351149Y-65080009D01*
X67318904Y-65118795D01*
X67318460Y-65119330D01*
X67245176Y-65208274D01*
X67244945Y-65208560D01*
X67244941Y-65208565D01*
X67243391Y-65210484D01*
X67243339Y-65210549D01*
X67243239Y-65210673D01*
X67242973Y-65211009D01*
X67241316Y-65213139D01*
X67241216Y-65213270D01*
X67241158Y-65213345D01*
X67181617Y-65291255D01*
X67163766Y-65314613D01*
X67161118Y-65318181D01*
X67160726Y-65318725D01*
X67160456Y-65319112D01*
X67160425Y-65319155D01*
X67158352Y-65322122D01*
X67158086Y-65322503D01*
X67077070Y-65442148D01*
X67074109Y-65446688D01*
X67073690Y-65447355D01*
X67073467Y-65447723D01*
X67073440Y-65447767D01*
X67071241Y-65451399D01*
X67070990Y-65451814D01*
X67070759Y-65452210D01*
X67070749Y-65452227D01*
X67057757Y-65474510D01*
X66993310Y-65585041D01*
X66988939Y-65598100D01*
X66979735Y-65619048D01*
X66946097Y-65679911D01*
X66944386Y-65683007D01*
X66943035Y-65686270D01*
X66943032Y-65686275D01*
X66878621Y-65841778D01*
X66856854Y-65894329D01*
X66793532Y-66114124D01*
X66755218Y-66339626D01*
X66752961Y-66379829D01*
X66752912Y-66380696D01*
X66729123Y-66447589D01*
X66672945Y-66491001D01*
X66657563Y-66495496D01*
X66655017Y-66496550D01*
X66642842Y-66498972D01*
X66632522Y-66505867D01*
X66632521Y-66505868D01*
X66620396Y-66513970D01*
X66592266Y-66532766D01*
X66585373Y-66543082D01*
X66565365Y-66573025D01*
X66565364Y-66573028D01*
X66558472Y-66583342D01*
X66549600Y-66627943D01*
X66549601Y-67858056D01*
X66558472Y-67902658D01*
X66565367Y-67912978D01*
X66565368Y-67912979D01*
X66585373Y-67942918D01*
X66592266Y-67953234D01*
X66602582Y-67960127D01*
X66632525Y-67980135D01*
X66632528Y-67980136D01*
X66642842Y-67987028D01*
X66655009Y-67989448D01*
X66655011Y-67989449D01*
X66672316Y-67992891D01*
X66687443Y-67995900D01*
X66756612Y-67995900D01*
X67275931Y-67995899D01*
X67344052Y-68015901D01*
X67349994Y-68019964D01*
X67356705Y-68024840D01*
X67371737Y-68037680D01*
X67385116Y-68051059D01*
X67397956Y-68066092D01*
X67401508Y-68070980D01*
X67411192Y-68084308D01*
X67419215Y-68090137D01*
X67419786Y-68090708D01*
X67427733Y-68097120D01*
X67600932Y-68251899D01*
X67600940Y-68251906D01*
X67603576Y-68254261D01*
X67812860Y-68402755D01*
X67824254Y-68409052D01*
X67874199Y-68459508D01*
X67888938Y-68528958D01*
X67863789Y-68595351D01*
X67806738Y-68637608D01*
X67779098Y-68644336D01*
X67556330Y-68672479D01*
X67548559Y-68673961D01*
X67262737Y-68747347D01*
X67255246Y-68749781D01*
X66980869Y-68858415D01*
X66973734Y-68861772D01*
X66715150Y-69003930D01*
X66708470Y-69008170D01*
X66503270Y-69157256D01*
X66494847Y-69168179D01*
X66501751Y-69181040D01*
X67475513Y-70154803D01*
X67991690Y-70670980D01*
X68005631Y-70678592D01*
X68007466Y-70678461D01*
X68014080Y-70674210D01*
X69042533Y-69645757D01*
X69104845Y-69611731D01*
X69175660Y-69616796D01*
X69220723Y-69645757D01*
X69401743Y-69826777D01*
X69435769Y-69889089D01*
X69430704Y-69959904D01*
X69401743Y-70004967D01*
X68376522Y-71030188D01*
X68368908Y-71044132D01*
X68369039Y-71045965D01*
X68373290Y-71052580D01*
X69864619Y-72543908D01*
X69877881Y-72551150D01*
X69887985Y-72543962D01*
X69953937Y-72464241D01*
X69958591Y-72457835D01*
X70116695Y-72208703D01*
X70120507Y-72201770D01*
X70246139Y-71934787D01*
X70249054Y-71927424D01*
X70340233Y-71646805D01*
X70342204Y-71639128D01*
X70397492Y-71349297D01*
X70398485Y-71341436D01*
X70417012Y-71046958D01*
X70417012Y-71039042D01*
X70398485Y-70744564D01*
X70397492Y-70736703D01*
X70342204Y-70446872D01*
X70340233Y-70439195D01*
X70249054Y-70158576D01*
X70246139Y-70151213D01*
X70141189Y-69928184D01*
X70130283Y-69858030D01*
X70159036Y-69793117D01*
X70218320Y-69754053D01*
X70283957Y-69751862D01*
X70302005Y-69756093D01*
X70372943Y-69772724D01*
X70374124Y-69772954D01*
X70374134Y-69772956D01*
X70378285Y-69773764D01*
X70384735Y-69775019D01*
X70389546Y-69775767D01*
X70402477Y-69777777D01*
X70402501Y-69777780D01*
X70403651Y-69777959D01*
X70404797Y-69778093D01*
X70404821Y-69778096D01*
X70413403Y-69779097D01*
X70415580Y-69779351D01*
X70416738Y-69779442D01*
X70416752Y-69779443D01*
X70695087Y-69801227D01*
X70695726Y-69801277D01*
X70696342Y-69801313D01*
X70696394Y-69801317D01*
X70701103Y-69801595D01*
X70701116Y-69801596D01*
X70701714Y-69801631D01*
X70702272Y-69801653D01*
X70702284Y-69801654D01*
X70704771Y-69801754D01*
X70711280Y-69802015D01*
X70713647Y-69802065D01*
X70716756Y-69802131D01*
X70716793Y-69802131D01*
X70717294Y-69802142D01*
X72968516Y-69806685D01*
X72968513Y-69808232D01*
X73031614Y-69823250D01*
X73080830Y-69874419D01*
X73095089Y-69932642D01*
X73095089Y-70449894D01*
X73093538Y-70469600D01*
X73090017Y-70491836D01*
X73091569Y-70501633D01*
X73091843Y-70503365D01*
X73093005Y-70513184D01*
X73106362Y-70682843D01*
X73107519Y-70687661D01*
X73126852Y-70768182D01*
X73123307Y-70839090D01*
X73081988Y-70896825D01*
X73016015Y-70923056D01*
X72946333Y-70909456D01*
X72919388Y-70889731D01*
X72914734Y-70882766D01*
X72904418Y-70875873D01*
X72874475Y-70855865D01*
X72874472Y-70855864D01*
X72864158Y-70848972D01*
X72851991Y-70846552D01*
X72851989Y-70846551D01*
X72833757Y-70842925D01*
X72819557Y-70840100D01*
X72204600Y-70840100D01*
X71589444Y-70840101D01*
X71572790Y-70843413D01*
X71557017Y-70846550D01*
X71557015Y-70846551D01*
X71544842Y-70848972D01*
X71534522Y-70855867D01*
X71534521Y-70855868D01*
X71504582Y-70875873D01*
X71494266Y-70882766D01*
X71487373Y-70893082D01*
X71467365Y-70923025D01*
X71467364Y-70923028D01*
X71460472Y-70933342D01*
X71458052Y-70945509D01*
X71458051Y-70945511D01*
X71454566Y-70963030D01*
X71451600Y-70977943D01*
X71451601Y-71888073D01*
X71451601Y-72764100D01*
X71431599Y-72832221D01*
X71377943Y-72878714D01*
X71325601Y-72890100D01*
X69544579Y-72890100D01*
X69476458Y-72870098D01*
X69455484Y-72853195D01*
X68017310Y-71415020D01*
X68003369Y-71407408D01*
X68001534Y-71407539D01*
X67994920Y-71411790D01*
X66973227Y-72433483D01*
X66910915Y-72467509D01*
X66840100Y-72462444D01*
X66801055Y-72439120D01*
X66780876Y-72421424D01*
X66704605Y-72354536D01*
X66692964Y-72342895D01*
X66608380Y-72246445D01*
X66578503Y-72182041D01*
X66588189Y-72111708D01*
X66614017Y-72074273D01*
X67632478Y-71055812D01*
X67640092Y-71041868D01*
X67639961Y-71040035D01*
X67635710Y-71033420D01*
X66194305Y-69592016D01*
X66160280Y-69529704D01*
X66157400Y-69502921D01*
X66157400Y-60083079D01*
X66177402Y-60014958D01*
X66194305Y-59993984D01*
X67632480Y-58555810D01*
X67640092Y-58541869D01*
X67639961Y-58540034D01*
X67635710Y-58533420D01*
X66614017Y-57511727D01*
X66579991Y-57449415D01*
X66585056Y-57378600D01*
X66608380Y-57339555D01*
X66627478Y-57317778D01*
X66692964Y-57243105D01*
X66704605Y-57231464D01*
X66801054Y-57146880D01*
X66865459Y-57117003D01*
X66935792Y-57126689D01*
X66973227Y-57152517D01*
X67991688Y-58170978D01*
X68005632Y-58178592D01*
X68007465Y-58178461D01*
X68014080Y-58174210D01*
X68568840Y-57619450D01*
X69455484Y-56732805D01*
X69517796Y-56698779D01*
X69544579Y-56695900D01*
X80464421Y-56695900D01*
X80532542Y-56715902D01*
G37*
G04 #@! TD.AperFunction*
M02*
