G04 #@! TF.GenerationSoftware,KiCad,Pcbnew,(6.0.4)*
G04 #@! TF.CreationDate,2022-05-20T19:37:54+02:00*
G04 #@! TF.ProjectId,Unified-Daughterboard-rounded,556e6966-6965-4642-9d44-617567687465,C3*
G04 #@! TF.SameCoordinates,Original*
G04 #@! TF.FileFunction,Copper,L2,Bot*
G04 #@! TF.FilePolarity,Positive*
%FSLAX46Y46*%
G04 Gerber Fmt 4.6, Leading zero omitted, Abs format (unit mm)*
G04 Created by KiCad (PCBNEW (6.0.4)) date 2022-05-20 19:37:54*
%MOMM*%
%LPD*%
G01*
G04 APERTURE LIST*
G04 Aperture macros list*
%AMFreePoly0*
4,1,46,0.068747,0.406986,0.068748,0.389825,0.068756,0.358871,0.068770,0.328777,0.068792,0.299675,0.068820,0.271694,0.068854,0.244966,0.068893,0.219624,0.068938,0.195796,0.068988,0.173616,0.069043,0.153214,0.069102,0.134721,0.069166,0.118268,0.069233,0.103986,0.069303,0.092007,0.069376,0.082462,0.069452,0.075481,0.069531,0.071197,0.069611,0.069739,0.070388,0.070253,
0.073417,0.072395,0.078610,0.076119,0.085842,0.081333,0.094985,0.087945,0.105914,0.095864,0.118502,0.104998,0.132622,0.115254,0.148149,0.126541,0.164954,0.138767,0.182913,0.151840,0.201899,0.165668,0.221784,0.180160,0.242443,0.195223,0.263750,0.210765,0.359569,0.280681,0.478909,0.367758,0.994882,0.744233,1.074570,0.744233,1.074570,-0.124029,0.931099,-0.124029,
0.930353,0.519464,0.068007,-0.123947,-0.074731,-0.124029,-0.074731,0.744233,0.068747,0.744233,0.068747,0.406986,0.068747,0.406986,$1*%
%AMFreePoly1*
4,1,12,0.003288,0.773876,0.085012,0.773493,0.085763,0.416278,0.764682,0.416278,0.764682,0.287592,0.085751,0.287592,0.085751,0.034657,0.813494,0.034657,0.813494,-0.094029,-0.078435,-0.094029,-0.078435,0.774258,0.003288,0.773876,0.003288,0.773876,$1*%
%AMFreePoly2*
4,1,34,0.084421,-0.184029,-0.079765,-0.184029,-0.079765,0.249116,-0.079762,0.280411,-0.079753,0.315353,-0.079738,0.349426,-0.079717,0.382515,-0.079690,0.414502,-0.079657,0.445272,-0.079620,0.474709,-0.079577,0.502696,-0.079530,0.529118,-0.079478,0.553859,-0.079423,0.576802,-0.079363,0.597831,-0.079300,0.616831,-0.079233,0.633685,-0.079164,0.648277,-0.079091,0.660491,-0.079016,0.670211,
-0.078939,0.677321,-0.078860,0.681705,-0.078779,0.683247,-0.078157,0.683357,-0.074910,0.683536,-0.069138,0.683701,-0.061112,0.683850,-0.051103,0.683979,-0.039385,0.684085,-0.026228,0.684165,-0.011904,0.684215,0.003314,0.684233,0.084421,0.684233,0.084421,-0.184029,0.084421,-0.184029,$1*%
%AMFreePoly3*
4,1,5,0.082346,-0.294029,-0.081840,-0.294029,-0.081840,0.574233,0.082346,0.574233,0.082346,-0.294029,0.082346,-0.294029,$1*%
%AMFreePoly4*
4,1,243,-0.066911,0.474026,-0.029886,0.474008,0.004963,0.473974,0.037575,0.473927,0.067891,0.473865,0.095849,0.473788,0.121390,0.473699,0.144453,0.473596,0.164979,0.473479,0.182908,0.473350,0.198179,0.473209,0.210732,0.473055,0.220507,0.472889,0.227444,0.472711,0.231483,0.472522,0.237137,0.472068,0.265071,0.469006,0.290460,0.464759,0.313456,0.459297,0.334210,0.452591,
0.334816,0.452364,0.358101,0.442428,0.378810,0.431054,0.396964,0.418223,0.412579,0.403920,0.425675,0.388126,0.436271,0.370825,0.444385,0.352000,0.446185,0.346852,0.448098,0.341211,0.449720,0.336013,0.451078,0.330975,0.452198,0.325813,0.453106,0.320243,0.453827,0.313983,0.454388,0.306749,0.454815,0.298257,0.455134,0.288225,0.455370,0.276368,0.455550,0.262402,
0.455699,0.246046,0.455845,0.227015,0.455901,0.219124,0.456011,0.199114,0.456045,0.181718,0.455990,0.166684,0.455834,0.153757,0.455565,0.142686,0.455170,0.133217,0.454638,0.125097,0.453956,0.118075,0.453111,0.111896,0.452092,0.106308,0.450886,0.101058,0.449481,0.095893,0.448048,0.091184,0.443513,0.079144,0.437945,0.068650,0.430795,0.058772,0.421513,0.048579,
0.408658,0.036859,0.391868,0.024655,0.374014,0.014706,0.355658,0.007361,0.352150,0.006203,0.348261,0.004834,0.346233,0.004003,0.346162,0.003934,0.347190,0.003066,0.350370,0.001668,0.355107,0.000007,0.367310,-0.004652,0.383421,-0.013403,0.397960,-0.024494,0.410787,-0.037750,0.421759,-0.052993,0.430735,-0.070047,0.437575,-0.088735,0.442139,-0.108898,0.442861,-0.115151,
0.443453,-0.123868,0.443917,-0.134561,0.444252,-0.146738,0.444456,-0.159912,0.444531,-0.173593,0.444476,-0.187292,0.444290,-0.200519,0.443972,-0.212784,0.443524,-0.223600,0.442943,-0.232475,0.442231,-0.238921,0.442093,-0.239803,0.437360,-0.262045,0.430475,-0.282284,0.421412,-0.300576,0.410142,-0.316976,0.396639,-0.331537,0.395515,-0.332578,0.379667,-0.345468,0.361931,-0.356757,
0.342202,-0.366479,0.320374,-0.374669,0.296342,-0.381360,0.269999,-0.386589,0.241240,-0.390390,0.209960,-0.392797,0.206929,-0.392927,0.199447,-0.393130,0.189048,-0.393313,0.175759,-0.393475,0.159607,-0.393616,0.140617,-0.393736,0.118817,-0.393835,0.094232,-0.393912,0.066889,-0.393969,0.036814,-0.394003,0.004034,-0.394017,-0.031425,-0.394008,-0.069537,-0.393978,-0.110275,-0.393927,
-0.400928,-0.393493,-0.401699,-0.265627,-0.054206,-0.265112,-0.022011,-0.265060,0.007495,-0.265008,0.034436,-0.264954,0.058934,-0.264898,0.081114,-0.264838,0.101099,-0.264773,0.119012,-0.264703,0.134977,-0.264625,0.149117,-0.264538,0.161556,-0.264442,0.172416,-0.264335,0.181822,-0.264216,0.189898,-0.264083,0.196765,-0.263937,0.202549,-0.263774,0.207372,-0.263595,0.211358,-0.263398,
0.214630,-0.263182,0.217312,-0.262945,0.219527,-0.262687,0.221398,-0.262406,0.223050,-0.262101,0.235632,-0.259124,0.246579,-0.255351,0.255535,-0.250693,0.262986,-0.244896,0.269417,-0.237704,0.270432,-0.236357,0.272710,-0.233097,0.274566,-0.229844,0.276047,-0.226267,0.277201,-0.222038,0.278074,-0.216826,0.278713,-0.210304,0.279165,-0.202140,0.279478,-0.192007,0.279698,-0.179573,
0.279873,-0.164511,0.279893,-0.162473,0.280015,-0.147592,0.280035,-0.135283,0.279921,-0.125202,0.279642,-0.117006,0.279164,-0.110352,0.278455,-0.104896,0.277483,-0.100294,0.276214,-0.096204,0.274618,-0.092282,0.272661,-0.088185,0.268629,-0.081430,0.262300,-0.074348,0.254177,-0.068520,0.243885,-0.063686,0.231049,-0.059589,0.218836,-0.056317,-0.363950,-0.054767,-0.364720,0.073087,
-0.050795,0.073647,-0.018414,0.073702,0.011242,0.073755,0.038304,0.073808,0.062901,0.073865,0.085163,0.073930,0.105220,0.074005,0.123202,0.074095,0.139238,0.074203,0.153457,0.074332,0.165991,0.074485,0.176968,0.074668,0.186519,0.074882,0.194773,0.075131,0.201859,0.075419,0.207909,0.075749,0.213050,0.076125,0.217414,0.076549,0.221130,0.077027,0.224328,0.077561,
0.227137,0.078154,0.229687,0.078810,0.232109,0.079533,0.234531,0.080326,0.237084,0.081192,0.239897,0.082135,0.242024,0.082851,0.256147,0.088622,0.267622,0.095389,0.276633,0.103349,0.283362,0.112695,0.287993,0.123624,0.290709,0.136330,0.290791,0.136997,0.291226,0.142773,0.291546,0.151397,0.291751,0.162775,0.291838,0.176815,0.291807,0.193423,0.291656,0.212506,
0.291540,0.223211,0.291345,0.238241,0.291110,0.250811,0.290801,0.261230,0.290384,0.269806,0.289826,0.276847,0.289093,0.282660,0.288151,0.287554,0.286966,0.291836,0.285505,0.295814,0.283733,0.299797,0.281618,0.304092,0.281130,0.305037,0.274850,0.314468,0.266565,0.322593,0.256059,0.329555,0.243116,0.335501,0.227520,0.340576,0.212920,0.344604,-0.400928,0.346083,
-0.401699,0.474030,-0.095055,0.474030,-0.066911,0.474026,-0.066911,0.474026,$1*%
%AMFreePoly5*
4,1,219,0.533046,0.464006,0.560050,0.463987,0.586556,0.463959,0.612387,0.463920,0.637369,0.463872,0.661326,0.463814,0.684081,0.463747,0.705460,0.463669,0.725286,0.463582,0.743383,0.463485,0.759577,0.463378,0.773691,0.463261,0.785549,0.463134,0.794977,0.462998,0.801797,0.462851,0.805835,0.462694,0.809248,0.462474,0.830305,0.460737,0.849006,0.458433,0.865846,0.455443,
0.881320,0.451648,0.895924,0.446930,0.910155,0.441169,0.924506,0.434247,0.925882,0.433527,0.943719,0.422490,0.959403,0.409438,0.972880,0.394443,0.984093,0.377575,0.992987,0.358905,0.999505,0.338505,1.000264,0.335510,1.001227,0.331773,1.002118,0.328305,1.002938,0.324986,1.003692,0.321698,1.004382,0.318320,1.005011,0.314732,1.005582,0.310816,1.006098,0.306452,
1.006562,0.301521,1.006978,0.295902,1.007348,0.289476,1.007675,0.282124,1.007962,0.273726,1.008212,0.264163,1.008429,0.253315,1.008615,0.241063,1.008774,0.227287,1.008908,0.211867,1.009020,0.194684,1.009113,0.175619,1.009192,0.154552,1.009257,0.131363,1.009313,0.105933,1.009362,0.078142,1.009408,0.047871,1.009454,0.015001,1.009502,-0.020589,1.009556,-0.059017,
1.010053,-0.404029,0.844293,-0.404029,0.844292,-0.034112,0.844287,0.001018,0.844278,0.033401,0.844263,0.063151,0.844243,0.090381,0.844216,0.115203,0.844182,0.137732,0.844139,0.158080,0.844088,0.176361,0.844027,0.192687,0.843956,0.207172,0.843874,0.219928,0.843780,0.231069,0.843673,0.240709,0.843553,0.248960,0.843419,0.255935,0.843270,0.261748,0.843106,0.266511,
0.842926,0.270338,0.842728,0.273342,0.842513,0.275636,0.842279,0.277334,0.842026,0.278547,0.841693,0.279782,0.836778,0.292623,0.829625,0.303717,0.820189,0.313093,0.808426,0.320781,0.794289,0.326811,0.777734,0.331215,0.758715,0.334021,0.757371,0.334117,0.752564,0.334299,0.745076,0.334468,0.735089,0.334626,0.722784,0.334772,0.708343,0.334906,0.691949,0.335028,
0.673782,0.335138,0.654026,0.335236,0.632862,0.335322,0.610471,0.335397,0.587037,0.335459,0.562740,0.335509,0.537763,0.335548,0.512288,0.335574,0.486496,0.335589,0.460570,0.335592,0.434691,0.335583,0.409041,0.335562,0.383803,0.335529,0.359158,0.335484,0.335288,0.335427,0.312375,0.335358,0.290601,0.335278,0.270149,0.335185,0.251199,0.335081,0.233933,0.334964,
0.218535,0.334836,0.205185,0.334696,0.194065,0.334544,0.185359,0.334380,0.179246,0.334204,0.175910,0.334016,0.159412,0.331646,0.142509,0.327411,0.128049,0.321571,0.115997,0.314107,0.106317,0.305001,0.098977,0.294237,0.098866,0.294030,0.097893,0.292277,0.096994,0.290699,0.096166,0.289178,0.095405,0.287598,0.094709,0.285845,0.094075,0.283801,0.093500,0.281351,
0.092981,0.278379,0.092515,0.274769,0.092100,0.270405,0.091732,0.265170,0.091408,0.258949,0.091127,0.251626,0.090884,0.243085,0.090677,0.233209,0.090503,0.221883,0.090360,0.208991,0.090244,0.194417,0.090152,0.178044,0.090082,0.159757,0.090030,0.139440,0.089995,0.116977,0.089972,0.092251,0.089959,0.065147,0.089953,0.035549,0.089951,-0.069371,0.089925,-0.404029,
-0.074260,-0.404029,-0.074233,-0.056895,-0.074227,-0.019475,-0.074217,0.015124,-0.074202,0.047016,-0.074181,0.076313,-0.074153,0.103130,-0.074119,0.127580,-0.074076,0.149778,-0.074025,0.169835,-0.073965,0.187867,-0.073894,0.203987,-0.073813,0.218309,-0.073720,0.230945,-0.073615,0.242011,-0.073498,0.251618,-0.073366,0.259882,-0.073220,0.266916,-0.073060,0.272833,-0.072883,0.277748,
-0.072690,0.281773,-0.072480,0.285022,-0.072252,0.287609,-0.072005,0.289648,-0.070903,0.296724,-0.065671,0.320281,-0.058291,0.341867,-0.048721,0.361574,-0.036916,0.379497,-0.022834,0.395730,-0.016870,0.401474,-0.003985,0.412081,0.010583,0.421761,0.027473,0.430958,0.034325,0.434254,0.056097,0.443200,0.079213,0.450434,0.103987,0.456031,0.130734,0.460065,0.159766,0.462612,
0.162074,0.462714,0.168001,0.462866,0.176592,0.463008,0.187672,0.463141,0.201065,0.463265,0.216596,0.463380,0.234088,0.463485,0.253366,0.463581,0.274255,0.463667,0.296578,0.463744,0.320160,0.463811,0.344824,0.463869,0.370397,0.463917,0.396701,0.463956,0.423561,0.463985,0.450801,0.464005,0.478246,0.464015,0.505719,0.464015,0.533046,0.464006,0.533046,0.464006,
$1*%
%AMFreePoly6*
4,1,54,0.801419,0.625552,0.072936,0.624807,0.072181,0.359299,0.764440,0.359299,0.764440,0.230613,0.072197,0.230613,0.072197,0.014657,0.801419,0.014657,0.801419,-0.114029,-0.091989,-0.114029,-0.091989,0.319116,-0.091987,0.350411,-0.091978,0.385353,-0.091963,0.419426,-0.091941,0.452515,-0.091914,0.484502,-0.091882,0.515272,-0.091844,0.544709,-0.091802,0.572696,-0.091755,0.599118,
-0.091703,0.623859,-0.091647,0.646802,-0.091588,0.667831,-0.091524,0.686831,-0.091458,0.703685,-0.091388,0.718277,-0.091316,0.730491,-0.091241,0.740211,-0.091164,0.747321,-0.091084,0.751705,-0.091003,0.753247,-0.090950,0.753260,-0.088934,0.753340,-0.084093,0.753417,-0.076541,0.753493,-0.066393,0.753567,-0.053764,0.753638,-0.038766,0.753707,-0.021516,0.753772,-0.002127,0.753834,
0.019286,0.753893,0.042608,0.753947,0.067726,0.753998,0.094525,0.754045,0.122891,0.754087,0.152708,0.754124,0.183864,0.754156,0.216242,0.754183,0.249730,0.754204,0.284211,0.754220,0.319573,0.754230,0.355701,0.754233,0.801419,0.754233,0.801419,0.625552,0.801419,0.625552,$1*%
%AMFreePoly7*
4,1,182,0.894083,0.285396,0.162643,0.284604,0.148215,0.280620,0.140689,0.278330,0.125966,0.272283,0.113823,0.264855,0.104221,0.256019,0.097122,0.245749,0.096154,0.243975,0.095065,0.242029,0.094077,0.240196,0.093185,0.238338,0.092383,0.236315,0.091667,0.233986,0.091032,0.231212,0.090474,0.227854,0.089987,0.223772,0.089566,0.218826,0.089207,0.212877,0.088905,0.205785,
0.088655,0.197410,0.088453,0.187613,0.088293,0.176254,0.088170,0.163194,0.088081,0.148292,0.088019,0.131409,0.087981,0.112407,0.087960,0.091143,0.087954,0.067481,0.087956,0.041279,0.087962,0.012397,0.087968,-0.035011,0.087973,-0.093142,0.087983,-0.118217,0.088004,-0.140816,0.088041,-0.161079,0.088097,-0.179143,0.088177,-0.195148,0.088286,-0.209231,0.088427,-0.221532,
0.088606,-0.232189,0.088825,-0.241342,0.089091,-0.249127,0.089407,-0.255685,0.089777,-0.261153,0.090206,-0.265671,0.090698,-0.269377,0.091257,-0.272409,0.091889,-0.274907,0.092597,-0.277009,0.093385,-0.278853,0.094258,-0.280578,0.095220,-0.282323,0.096276,-0.284226,0.102003,-0.292642,0.111022,-0.301664,0.122093,-0.309466,0.134767,-0.315738,0.148591,-0.320169,0.149299,-0.320338,
0.151761,-0.320894,0.154316,-0.321409,0.157079,-0.321885,0.160163,-0.322323,0.163683,-0.322725,0.167755,-0.323092,0.172493,-0.323425,0.178011,-0.323727,0.184424,-0.323999,0.191847,-0.324243,0.200394,-0.324459,0.210180,-0.324651,0.221320,-0.324818,0.233927,-0.324964,0.248118,-0.325088,0.264006,-0.325194,0.281706,-0.325282,0.301333,-0.325354,0.323001,-0.325412,0.346825,-0.325457,
0.372919,-0.325491,0.401399,-0.325515,0.432379,-0.325531,0.465973,-0.325540,0.502296,-0.325545,0.541462,-0.325546,0.894083,-0.325546,0.894083,-0.454326,0.523926,-0.453788,0.487637,-0.453732,0.447892,-0.453663,0.410961,-0.453591,0.376767,-0.453514,0.345233,-0.453431,0.316282,-0.453344,0.289836,-0.453250,0.265818,-0.453149,0.244150,-0.453042,0.224755,-0.452928,0.207556,-0.452805,
0.192475,-0.452675,0.179434,-0.452535,0.168358,-0.452386,0.159167,-0.452228,0.151784,-0.452059,0.146134,-0.451880,0.142136,-0.451690,0.139716,-0.451488,0.129032,-0.450053,0.100521,-0.445150,0.074518,-0.438966,0.050879,-0.431444,0.029459,-0.422527,0.010114,-0.412157,-0.007300,-0.400278,-0.022926,-0.386832,-0.030704,-0.378898,-0.042344,-0.364820,-0.052076,-0.349726,-0.060136,-0.333172,
-0.066762,-0.314711,-0.072189,-0.293898,-0.075501,-0.278953,-0.075501,-0.000861,-0.075498,0.030031,-0.075491,0.058179,-0.075478,0.083719,-0.075459,0.106786,-0.075432,0.127516,-0.075396,0.146044,-0.075348,0.162506,-0.075289,0.177038,-0.075216,0.189776,-0.075129,0.200854,-0.075025,0.210410,-0.074904,0.218577,-0.074764,0.225492,-0.074604,0.231291,-0.074422,0.236108,-0.074218,0.240081,
-0.073989,0.243343,-0.073735,0.246032,-0.073454,0.248282,-0.073144,0.250229,-0.072805,0.252009,-0.071402,0.258470,-0.064639,0.281934,-0.055649,0.303459,-0.044427,0.323062,-0.043823,0.323961,-0.037047,0.332809,-0.028538,0.342284,-0.019054,0.351632,-0.009353,0.360104,-0.000191,0.366948,0.019103,0.378489,0.041682,0.389062,0.066269,0.397774,0.092960,0.404651,0.121848,0.409723,
0.153028,0.413017,0.153298,0.413029,0.156133,0.413074,0.161763,0.413121,0.170059,0.413168,0.180892,0.413216,0.194134,0.413263,0.209656,0.413311,0.227328,0.413358,0.247024,0.413404,0.268613,0.413449,0.291966,0.413493,0.316956,0.413536,0.343454,0.413577,0.371330,0.413616,0.400456,0.413653,0.430703,0.413687,0.461942,0.413718,0.494046,0.413747,0.526884,0.413772,
0.894083,0.414030,0.894083,0.285396,0.894083,0.285396,$1*%
%AMFreePoly8*
4,1,179,0.313898,0.744212,0.329394,0.744211,0.370812,0.744199,0.410509,0.744176,0.448409,0.744143,0.484433,0.744099,0.518505,0.744046,0.550548,0.743982,0.580483,0.743909,0.608234,0.743827,0.633723,0.743735,0.656872,0.743635,0.677605,0.743527,0.695844,0.743410,0.711511,0.743285,0.724530,0.743153,0.734822,0.743013,0.742311,0.742866,0.746919,0.742712,0.765300,0.741620,
0.792054,0.739291,0.816538,0.736161,0.839122,0.732172,0.860175,0.727264,0.880066,0.721378,0.899954,0.714129,0.922318,0.703905,0.942262,0.692199,0.959866,0.678908,0.975210,0.663926,0.988374,0.647150,0.999436,0.628476,1.008478,0.607800,1.015577,0.585016,1.020814,0.560023,1.024268,0.532714,1.024308,0.532253,1.024561,0.528022,1.024784,0.521829,1.024977,0.513591,
1.025141,0.503226,1.025275,0.490650,1.025381,0.475780,1.025458,0.458533,1.025508,0.438826,1.025529,0.416576,1.025524,0.391701,1.025492,0.364116,1.025433,0.333739,1.025349,0.300487,1.025318,0.289715,1.025233,0.261007,1.025149,0.235055,1.025064,0.211710,1.024976,0.190822,1.024882,0.172242,1.024782,0.155820,1.024672,0.141407,1.024552,0.128854,1.024418,0.118010,
1.024270,0.108727,1.024104,0.100855,1.023919,0.094244,1.023713,0.088745,1.023484,0.084209,1.023230,0.080485,1.022949,0.077425,1.022638,0.074879,1.022297,0.072698,1.021170,0.066444,1.016388,0.043784,1.010876,0.023626,1.004491,0.005648,0.997090,-0.010475,0.988530,-0.025063,0.978668,-0.038440,0.967359,-0.050927,0.957464,-0.060150,0.940664,-0.073051,0.921860,-0.084428,
0.900958,-0.094314,0.877866,-0.102741,0.852488,-0.109741,0.824732,-0.115348,0.794505,-0.119594,0.761711,-0.122511,0.760380,-0.122580,0.755247,-0.122731,0.747246,-0.122876,0.736436,-0.123012,0.722881,-0.123141,0.706643,-0.123262,0.687783,-0.123374,0.666363,-0.123478,0.642445,-0.123573,0.616092,-0.123660,0.587364,-0.123737,0.556324,-0.123805,0.523033,-0.123864,0.487554,-0.123913,
0.449948,-0.123952,0.410278,-0.123980,0.368605,-0.123999,0.324991,-0.124007,-0.089541,-0.124029,-0.089541,0.615547,0.074645,0.615547,0.074645,0.004595,0.433090,0.005060,0.503793,0.005146,0.535091,0.005186,0.563843,0.005230,0.590167,0.005279,0.614183,0.005337,0.636007,0.005407,0.655758,0.005492,0.673554,0.005595,0.689512,0.005720,0.703752,0.005870,0.716391,0.006047,
0.727547,0.006255,0.737338,0.006496,0.745882,0.006775,0.753297,0.007094,0.759702,0.007457,0.765214,0.007865,0.769951,0.008324,0.774032,0.008835,0.777575,0.009401,0.780697,0.010027,0.783516,0.010715,0.786151,0.011468,0.788720,0.012289,0.791341,0.013182,0.794132,0.014149,0.797210,0.015194,0.801711,0.016743,0.810985,0.020469,0.818680,0.024594,0.825753,0.029682,
0.833165,0.036295,0.838456,0.041941,0.846530,0.053656,0.852863,0.067553,0.857536,0.083791,0.860814,0.098583,0.860814,0.524579,0.857544,0.539296,0.854239,0.551617,0.849523,0.563370,0.843457,0.573443,0.835723,0.582459,0.829369,0.588175,0.819304,0.595087,0.807602,0.600851,0.794019,0.605547,0.778308,0.609255,0.760224,0.612057,0.739524,0.614032,0.738586,0.614088,
0.733673,0.614263,0.725895,0.614428,0.715324,0.614582,0.702033,0.614726,0.686092,0.614860,0.667574,0.614982,0.646549,0.615093,0.623091,0.615192,0.597269,0.615280,0.569156,0.615355,0.538823,0.615417,0.506343,0.615466,0.471786,0.615502,0.435225,0.615525,0.396730,0.615534,0.074645,0.615547,-0.089541,0.615547,-0.089541,0.744233,0.313898,0.744212,0.313898,0.744212,
$1*%
G04 Aperture macros list end*
G04 #@! TA.AperFunction,NonConductor*
%ADD10C,0.030000*%
G04 #@! TD*
G04 #@! TA.AperFunction,ConnectorPad*
%ADD11C,3.800000*%
G04 #@! TD*
G04 #@! TA.AperFunction,ComponentPad*
%ADD12C,2.600000*%
G04 #@! TD*
G04 #@! TA.AperFunction,ComponentPad*
%ADD13O,1.100000X2.200000*%
G04 #@! TD*
G04 #@! TA.AperFunction,ComponentPad*
%ADD14O,1.300000X1.900000*%
G04 #@! TD*
G04 #@! TA.AperFunction,ComponentPad*
%ADD15R,1.000000X1.000000*%
G04 #@! TD*
G04 #@! TA.AperFunction,ComponentPad*
%ADD16O,1.000000X1.000000*%
G04 #@! TD*
G04 #@! TA.AperFunction,SMDPad,CuDef*
%ADD17FreePoly0,180.000000*%
G04 #@! TD*
G04 #@! TA.AperFunction,SMDPad,CuDef*
%ADD18FreePoly1,180.000000*%
G04 #@! TD*
G04 #@! TA.AperFunction,SMDPad,CuDef*
%ADD19FreePoly2,180.000000*%
G04 #@! TD*
G04 #@! TA.AperFunction,SMDPad,CuDef*
%ADD20FreePoly3,180.000000*%
G04 #@! TD*
G04 #@! TA.AperFunction,SMDPad,CuDef*
%ADD21FreePoly4,180.000000*%
G04 #@! TD*
G04 #@! TA.AperFunction,SMDPad,CuDef*
%ADD22FreePoly5,180.000000*%
G04 #@! TD*
G04 #@! TA.AperFunction,SMDPad,CuDef*
%ADD23FreePoly6,180.000000*%
G04 #@! TD*
G04 #@! TA.AperFunction,SMDPad,CuDef*
%ADD24FreePoly7,180.000000*%
G04 #@! TD*
G04 #@! TA.AperFunction,SMDPad,CuDef*
%ADD25FreePoly8,180.000000*%
G04 #@! TD*
G04 #@! TA.AperFunction,ViaPad*
%ADD26C,0.508000*%
G04 #@! TD*
G04 #@! TA.AperFunction,ViaPad*
%ADD27C,0.450000*%
G04 #@! TD*
G04 #@! TA.AperFunction,Conductor*
%ADD28C,0.200000*%
G04 #@! TD*
G04 #@! TA.AperFunction,Conductor*
%ADD29C,0.508000*%
G04 #@! TD*
G04 APERTURE END LIST*
D10*
G36*
X81394477Y-61716025D02*
G01*
X81395494Y-61679206D01*
X81397190Y-61644325D01*
X81399564Y-61611381D01*
X81402616Y-61580376D01*
X81406347Y-61551308D01*
X81410755Y-61524178D01*
X81415842Y-61498986D01*
X81418661Y-61486850D01*
X81421692Y-61474859D01*
X81424934Y-61463014D01*
X81428389Y-61451314D01*
X81432056Y-61439759D01*
X81435934Y-61428350D01*
X81440025Y-61417086D01*
X81444328Y-61405968D01*
X81448842Y-61394994D01*
X81453569Y-61384167D01*
X81458507Y-61373484D01*
X81463658Y-61362947D01*
X81469020Y-61352555D01*
X81474595Y-61342309D01*
X81480381Y-61332208D01*
X81486379Y-61322252D01*
X81495420Y-61308188D01*
X81504910Y-61294480D01*
X81514847Y-61281130D01*
X81525233Y-61268137D01*
X81536066Y-61255502D01*
X81547348Y-61243224D01*
X81559078Y-61231303D01*
X81571257Y-61219739D01*
X81583883Y-61208533D01*
X81596958Y-61197683D01*
X81610480Y-61187192D01*
X81624451Y-61177057D01*
X81638870Y-61167280D01*
X81653737Y-61157860D01*
X81669052Y-61148798D01*
X81684815Y-61140092D01*
X81700918Y-61131739D01*
X81717250Y-61123924D01*
X81733813Y-61116648D01*
X81750605Y-61109911D01*
X81767628Y-61103713D01*
X81784881Y-61098054D01*
X81802364Y-61092934D01*
X81820077Y-61088353D01*
X81838021Y-61084311D01*
X81856194Y-61080807D01*
X81874598Y-61077843D01*
X81893232Y-61075418D01*
X81912096Y-61073532D01*
X81931190Y-61072184D01*
X81950514Y-61071376D01*
X81970068Y-61071106D01*
X81970068Y-61071104D01*
X81990916Y-61071361D01*
X82011406Y-61072133D01*
X82031538Y-61073420D01*
X82051314Y-61075222D01*
X82070732Y-61077538D01*
X82089792Y-61080369D01*
X82108496Y-61083715D01*
X82126842Y-61087575D01*
X82144831Y-61091950D01*
X82162462Y-61096841D01*
X82179736Y-61102245D01*
X82196653Y-61108165D01*
X82213213Y-61114599D01*
X82229415Y-61121548D01*
X82245260Y-61129012D01*
X82260748Y-61136991D01*
X82275866Y-61145430D01*
X82290603Y-61154275D01*
X82304958Y-61163525D01*
X82318932Y-61173181D01*
X82332524Y-61183243D01*
X82345734Y-61193710D01*
X82358564Y-61204584D01*
X82371011Y-61215863D01*
X82383077Y-61227547D01*
X82394762Y-61239638D01*
X82406065Y-61252134D01*
X82416987Y-61265036D01*
X82427527Y-61278343D01*
X82437686Y-61292057D01*
X82447463Y-61306176D01*
X82456859Y-61320701D01*
X82462115Y-61329445D01*
X82467227Y-61338432D01*
X82477013Y-61357133D01*
X82486218Y-61376802D01*
X82494842Y-61397440D01*
X82502884Y-61419047D01*
X82510345Y-61441623D01*
X82517225Y-61465168D01*
X82523523Y-61489682D01*
X82529337Y-61515577D01*
X82534375Y-61543651D01*
X82538638Y-61573906D01*
X82542126Y-61606341D01*
X82544839Y-61640956D01*
X82546777Y-61677751D01*
X82547939Y-61716727D01*
X82548327Y-61757882D01*
X82548327Y-62046237D01*
X81394138Y-62046237D01*
X81394138Y-61892759D01*
X81525909Y-61892759D01*
X82416550Y-61892759D01*
X82416550Y-61748582D01*
X82416308Y-61722311D01*
X82415581Y-61696986D01*
X82414370Y-61672605D01*
X82412675Y-61649169D01*
X82410495Y-61626678D01*
X82407830Y-61605131D01*
X82404681Y-61584529D01*
X82401048Y-61564872D01*
X82399114Y-61555313D01*
X82396991Y-61545821D01*
X82394681Y-61536395D01*
X82392183Y-61527036D01*
X82389498Y-61517743D01*
X82386624Y-61508517D01*
X82383563Y-61499358D01*
X82380314Y-61490265D01*
X82376877Y-61481239D01*
X82373253Y-61472280D01*
X82369440Y-61463387D01*
X82365440Y-61454560D01*
X82361253Y-61445801D01*
X82356877Y-61437107D01*
X82352314Y-61428481D01*
X82347563Y-61419921D01*
X82340723Y-61408379D01*
X82333574Y-61397200D01*
X82326116Y-61386384D01*
X82318349Y-61375931D01*
X82310274Y-61365842D01*
X82301890Y-61356117D01*
X82293196Y-61346754D01*
X82284194Y-61337755D01*
X82274884Y-61329120D01*
X82265264Y-61320847D01*
X82255335Y-61312938D01*
X82245098Y-61305393D01*
X82234552Y-61298211D01*
X82223697Y-61291392D01*
X82212533Y-61284936D01*
X82201060Y-61278844D01*
X82189267Y-61273118D01*
X82177140Y-61267762D01*
X82164680Y-61262775D01*
X82151888Y-61258157D01*
X82138762Y-61253909D01*
X82125303Y-61250030D01*
X82111511Y-61246521D01*
X82097386Y-61243381D01*
X82082927Y-61240610D01*
X82068136Y-61238209D01*
X82053012Y-61236177D01*
X82037554Y-61234515D01*
X82021764Y-61233222D01*
X82005640Y-61232298D01*
X81989184Y-61231744D01*
X81972394Y-61231559D01*
X81972394Y-61231560D01*
X81955710Y-61231730D01*
X81939378Y-61232239D01*
X81923397Y-61233086D01*
X81907767Y-61234273D01*
X81892488Y-61235800D01*
X81877560Y-61237665D01*
X81862984Y-61239869D01*
X81848759Y-61242413D01*
X81834885Y-61245295D01*
X81821363Y-61248517D01*
X81808191Y-61252078D01*
X81795371Y-61255978D01*
X81782902Y-61260217D01*
X81770784Y-61264795D01*
X81759018Y-61269712D01*
X81747602Y-61274969D01*
X81736499Y-61280468D01*
X81725668Y-61286305D01*
X81715110Y-61292482D01*
X81704824Y-61298998D01*
X81694811Y-61305853D01*
X81685070Y-61313048D01*
X81675602Y-61320581D01*
X81666406Y-61328453D01*
X81657483Y-61336665D01*
X81648832Y-61345216D01*
X81640453Y-61354106D01*
X81632348Y-61363335D01*
X81624514Y-61372903D01*
X81616953Y-61382811D01*
X81609665Y-61393057D01*
X81602649Y-61403643D01*
X81597235Y-61412321D01*
X81592039Y-61421108D01*
X81587061Y-61430004D01*
X81582302Y-61439009D01*
X81577760Y-61448122D01*
X81573436Y-61457345D01*
X81569330Y-61466677D01*
X81565442Y-61476118D01*
X81561772Y-61485668D01*
X81558320Y-61495327D01*
X81555086Y-61505095D01*
X81552070Y-61514972D01*
X81549273Y-61524958D01*
X81546693Y-61535053D01*
X81544331Y-61545257D01*
X81542187Y-61555570D01*
X81538373Y-61576560D01*
X81535066Y-61598445D01*
X81532268Y-61621228D01*
X81529979Y-61644906D01*
X81528199Y-61669481D01*
X81526927Y-61694951D01*
X81526164Y-61721318D01*
X81525909Y-61748582D01*
X81525909Y-61892759D01*
X81394138Y-61892759D01*
X81394138Y-61754782D01*
X81394477Y-61716025D01*
G37*
X81394477Y-61716025D02*
X81395494Y-61679206D01*
X81397190Y-61644325D01*
X81399564Y-61611381D01*
X81402616Y-61580376D01*
X81406347Y-61551308D01*
X81410755Y-61524178D01*
X81415842Y-61498986D01*
X81418661Y-61486850D01*
X81421692Y-61474859D01*
X81424934Y-61463014D01*
X81428389Y-61451314D01*
X81432056Y-61439759D01*
X81435934Y-61428350D01*
X81440025Y-61417086D01*
X81444328Y-61405968D01*
X81448842Y-61394994D01*
X81453569Y-61384167D01*
X81458507Y-61373484D01*
X81463658Y-61362947D01*
X81469020Y-61352555D01*
X81474595Y-61342309D01*
X81480381Y-61332208D01*
X81486379Y-61322252D01*
X81495420Y-61308188D01*
X81504910Y-61294480D01*
X81514847Y-61281130D01*
X81525233Y-61268137D01*
X81536066Y-61255502D01*
X81547348Y-61243224D01*
X81559078Y-61231303D01*
X81571257Y-61219739D01*
X81583883Y-61208533D01*
X81596958Y-61197683D01*
X81610480Y-61187192D01*
X81624451Y-61177057D01*
X81638870Y-61167280D01*
X81653737Y-61157860D01*
X81669052Y-61148798D01*
X81684815Y-61140092D01*
X81700918Y-61131739D01*
X81717250Y-61123924D01*
X81733813Y-61116648D01*
X81750605Y-61109911D01*
X81767628Y-61103713D01*
X81784881Y-61098054D01*
X81802364Y-61092934D01*
X81820077Y-61088353D01*
X81838021Y-61084311D01*
X81856194Y-61080807D01*
X81874598Y-61077843D01*
X81893232Y-61075418D01*
X81912096Y-61073532D01*
X81931190Y-61072184D01*
X81950514Y-61071376D01*
X81970068Y-61071106D01*
X81970068Y-61071104D01*
X81990916Y-61071361D01*
X82011406Y-61072133D01*
X82031538Y-61073420D01*
X82051314Y-61075222D01*
X82070732Y-61077538D01*
X82089792Y-61080369D01*
X82108496Y-61083715D01*
X82126842Y-61087575D01*
X82144831Y-61091950D01*
X82162462Y-61096841D01*
X82179736Y-61102245D01*
X82196653Y-61108165D01*
X82213213Y-61114599D01*
X82229415Y-61121548D01*
X82245260Y-61129012D01*
X82260748Y-61136991D01*
X82275866Y-61145430D01*
X82290603Y-61154275D01*
X82304958Y-61163525D01*
X82318932Y-61173181D01*
X82332524Y-61183243D01*
X82345734Y-61193710D01*
X82358564Y-61204584D01*
X82371011Y-61215863D01*
X82383077Y-61227547D01*
X82394762Y-61239638D01*
X82406065Y-61252134D01*
X82416987Y-61265036D01*
X82427527Y-61278343D01*
X82437686Y-61292057D01*
X82447463Y-61306176D01*
X82456859Y-61320701D01*
X82462115Y-61329445D01*
X82467227Y-61338432D01*
X82477013Y-61357133D01*
X82486218Y-61376802D01*
X82494842Y-61397440D01*
X82502884Y-61419047D01*
X82510345Y-61441623D01*
X82517225Y-61465168D01*
X82523523Y-61489682D01*
X82529337Y-61515577D01*
X82534375Y-61543651D01*
X82538638Y-61573906D01*
X82542126Y-61606341D01*
X82544839Y-61640956D01*
X82546777Y-61677751D01*
X82547939Y-61716727D01*
X82548327Y-61757882D01*
X82548327Y-62046237D01*
X81394138Y-62046237D01*
X81394138Y-61892759D01*
X81525909Y-61892759D01*
X82416550Y-61892759D01*
X82416550Y-61748582D01*
X82416308Y-61722311D01*
X82415581Y-61696986D01*
X82414370Y-61672605D01*
X82412675Y-61649169D01*
X82410495Y-61626678D01*
X82407830Y-61605131D01*
X82404681Y-61584529D01*
X82401048Y-61564872D01*
X82399114Y-61555313D01*
X82396991Y-61545821D01*
X82394681Y-61536395D01*
X82392183Y-61527036D01*
X82389498Y-61517743D01*
X82386624Y-61508517D01*
X82383563Y-61499358D01*
X82380314Y-61490265D01*
X82376877Y-61481239D01*
X82373253Y-61472280D01*
X82369440Y-61463387D01*
X82365440Y-61454560D01*
X82361253Y-61445801D01*
X82356877Y-61437107D01*
X82352314Y-61428481D01*
X82347563Y-61419921D01*
X82340723Y-61408379D01*
X82333574Y-61397200D01*
X82326116Y-61386384D01*
X82318349Y-61375931D01*
X82310274Y-61365842D01*
X82301890Y-61356117D01*
X82293196Y-61346754D01*
X82284194Y-61337755D01*
X82274884Y-61329120D01*
X82265264Y-61320847D01*
X82255335Y-61312938D01*
X82245098Y-61305393D01*
X82234552Y-61298211D01*
X82223697Y-61291392D01*
X82212533Y-61284936D01*
X82201060Y-61278844D01*
X82189267Y-61273118D01*
X82177140Y-61267762D01*
X82164680Y-61262775D01*
X82151888Y-61258157D01*
X82138762Y-61253909D01*
X82125303Y-61250030D01*
X82111511Y-61246521D01*
X82097386Y-61243381D01*
X82082927Y-61240610D01*
X82068136Y-61238209D01*
X82053012Y-61236177D01*
X82037554Y-61234515D01*
X82021764Y-61233222D01*
X82005640Y-61232298D01*
X81989184Y-61231744D01*
X81972394Y-61231559D01*
X81972394Y-61231560D01*
X81955710Y-61231730D01*
X81939378Y-61232239D01*
X81923397Y-61233086D01*
X81907767Y-61234273D01*
X81892488Y-61235800D01*
X81877560Y-61237665D01*
X81862984Y-61239869D01*
X81848759Y-61242413D01*
X81834885Y-61245295D01*
X81821363Y-61248517D01*
X81808191Y-61252078D01*
X81795371Y-61255978D01*
X81782902Y-61260217D01*
X81770784Y-61264795D01*
X81759018Y-61269712D01*
X81747602Y-61274969D01*
X81736499Y-61280468D01*
X81725668Y-61286305D01*
X81715110Y-61292482D01*
X81704824Y-61298998D01*
X81694811Y-61305853D01*
X81685070Y-61313048D01*
X81675602Y-61320581D01*
X81666406Y-61328453D01*
X81657483Y-61336665D01*
X81648832Y-61345216D01*
X81640453Y-61354106D01*
X81632348Y-61363335D01*
X81624514Y-61372903D01*
X81616953Y-61382811D01*
X81609665Y-61393057D01*
X81602649Y-61403643D01*
X81597235Y-61412321D01*
X81592039Y-61421108D01*
X81587061Y-61430004D01*
X81582302Y-61439009D01*
X81577760Y-61448122D01*
X81573436Y-61457345D01*
X81569330Y-61466677D01*
X81565442Y-61476118D01*
X81561772Y-61485668D01*
X81558320Y-61495327D01*
X81555086Y-61505095D01*
X81552070Y-61514972D01*
X81549273Y-61524958D01*
X81546693Y-61535053D01*
X81544331Y-61545257D01*
X81542187Y-61555570D01*
X81538373Y-61576560D01*
X81535066Y-61598445D01*
X81532268Y-61621228D01*
X81529979Y-61644906D01*
X81528199Y-61669481D01*
X81526927Y-61694951D01*
X81526164Y-61721318D01*
X81525909Y-61748582D01*
X81525909Y-61892759D01*
X81394138Y-61892759D01*
X81394138Y-61754782D01*
X81394477Y-61716025D01*
G36*
X82548322Y-62492708D02*
G01*
X81846042Y-62492708D01*
X81825344Y-62492914D01*
X81805493Y-62493532D01*
X81786490Y-62494562D01*
X81768334Y-62496004D01*
X81751027Y-62497859D01*
X81734567Y-62500125D01*
X81718955Y-62502803D01*
X81704190Y-62505893D01*
X81697166Y-62507513D01*
X81690238Y-62509272D01*
X81683407Y-62511171D01*
X81676673Y-62513209D01*
X81670036Y-62515386D01*
X81663496Y-62517702D01*
X81657053Y-62520158D01*
X81650706Y-62522753D01*
X81644456Y-62525487D01*
X81638304Y-62528360D01*
X81632248Y-62531373D01*
X81626289Y-62534525D01*
X81620427Y-62537816D01*
X81614662Y-62541247D01*
X81608994Y-62544817D01*
X81603423Y-62548526D01*
X81597128Y-62552977D01*
X81591033Y-62557610D01*
X81585137Y-62562424D01*
X81579442Y-62567420D01*
X81573946Y-62572598D01*
X81568650Y-62577957D01*
X81563555Y-62583498D01*
X81558658Y-62589221D01*
X81553962Y-62595125D01*
X81549466Y-62601211D01*
X81545169Y-62607479D01*
X81541072Y-62613929D01*
X81537175Y-62620560D01*
X81533478Y-62627373D01*
X81529981Y-62634367D01*
X81526683Y-62641543D01*
X81523679Y-62648907D01*
X81520869Y-62656465D01*
X81518253Y-62664217D01*
X81515831Y-62672162D01*
X81513602Y-62680301D01*
X81511567Y-62688634D01*
X81509726Y-62697160D01*
X81508079Y-62705881D01*
X81506625Y-62714795D01*
X81505365Y-62723903D01*
X81504299Y-62733205D01*
X81503427Y-62742700D01*
X81502749Y-62752390D01*
X81502264Y-62762273D01*
X81501877Y-62782620D01*
X81501977Y-62792800D01*
X81502276Y-62802798D01*
X81502776Y-62812614D01*
X81503475Y-62822249D01*
X81504375Y-62831702D01*
X81505474Y-62840973D01*
X81506773Y-62850063D01*
X81508271Y-62858971D01*
X81509970Y-62867697D01*
X81511869Y-62876242D01*
X81513967Y-62884605D01*
X81516265Y-62892786D01*
X81518763Y-62900786D01*
X81521461Y-62908604D01*
X81524359Y-62916241D01*
X81527457Y-62923695D01*
X81530751Y-62930868D01*
X81534239Y-62937854D01*
X81537921Y-62944652D01*
X81541797Y-62951262D01*
X81545867Y-62957684D01*
X81550130Y-62963918D01*
X81554587Y-62969965D01*
X81559238Y-62975824D01*
X81564083Y-62981496D01*
X81569121Y-62986979D01*
X81574353Y-62992275D01*
X81579779Y-62997383D01*
X81585399Y-63002304D01*
X81591212Y-63007036D01*
X81597219Y-63011581D01*
X81603420Y-63015938D01*
X81608983Y-63019650D01*
X81614624Y-63023228D01*
X81620344Y-63026673D01*
X81626143Y-63029985D01*
X81632020Y-63033164D01*
X81637976Y-63036210D01*
X81644011Y-63039123D01*
X81650124Y-63041902D01*
X81656316Y-63044549D01*
X81662587Y-63047062D01*
X81668937Y-63049442D01*
X81675365Y-63051689D01*
X81681872Y-63053803D01*
X81688457Y-63055784D01*
X81695122Y-63057632D01*
X81701865Y-63059347D01*
X81716047Y-63062254D01*
X81731465Y-63064774D01*
X81748118Y-63066906D01*
X81766007Y-63068651D01*
X81785132Y-63070008D01*
X81805491Y-63070977D01*
X81827086Y-63071558D01*
X81849917Y-63071752D01*
X82548322Y-63071752D01*
X82548322Y-63225231D01*
X81857669Y-63225231D01*
X81825561Y-63224807D01*
X81794738Y-63223535D01*
X81765198Y-63221416D01*
X81736941Y-63218449D01*
X81709969Y-63214633D01*
X81684280Y-63209970D01*
X81671917Y-63207321D01*
X81659876Y-63204459D01*
X81648155Y-63201386D01*
X81636755Y-63198100D01*
X81625618Y-63194476D01*
X81614687Y-63190580D01*
X81603962Y-63186410D01*
X81593444Y-63181968D01*
X81583131Y-63177254D01*
X81573023Y-63172267D01*
X81563122Y-63167008D01*
X81553427Y-63161476D01*
X81543937Y-63155671D01*
X81534654Y-63149594D01*
X81525576Y-63143245D01*
X81516704Y-63136623D01*
X81508038Y-63129728D01*
X81499578Y-63122561D01*
X81491324Y-63115122D01*
X81483276Y-63107410D01*
X81476405Y-63100430D01*
X81469747Y-63093251D01*
X81463300Y-63085872D01*
X81457066Y-63078293D01*
X81451043Y-63070515D01*
X81445233Y-63062536D01*
X81439634Y-63054358D01*
X81434248Y-63045980D01*
X81429073Y-63037402D01*
X81424110Y-63028624D01*
X81419360Y-63019646D01*
X81414821Y-63010469D01*
X81410494Y-63001091D01*
X81406380Y-62991514D01*
X81402477Y-62981737D01*
X81398786Y-62971760D01*
X81395313Y-62961574D01*
X81392065Y-62951170D01*
X81389040Y-62940548D01*
X81386239Y-62929708D01*
X81381310Y-62907374D01*
X81377277Y-62884168D01*
X81374140Y-62860090D01*
X81371900Y-62835141D01*
X81370555Y-62809319D01*
X81370107Y-62782625D01*
X81370531Y-62756488D01*
X81371803Y-62731175D01*
X81373922Y-62706685D01*
X81375300Y-62694749D01*
X81376890Y-62683019D01*
X81378691Y-62671495D01*
X81380705Y-62660176D01*
X81382930Y-62649064D01*
X81385368Y-62638157D01*
X81388017Y-62627457D01*
X81390878Y-62616962D01*
X81393951Y-62606674D01*
X81397237Y-62596591D01*
X81400752Y-62586690D01*
X81404516Y-62576946D01*
X81408528Y-62567359D01*
X81412788Y-62557930D01*
X81417296Y-62548659D01*
X81422053Y-62539544D01*
X81427058Y-62530588D01*
X81432312Y-62521789D01*
X81437814Y-62513147D01*
X81443564Y-62504663D01*
X81449562Y-62496336D01*
X81455809Y-62488166D01*
X81462304Y-62480155D01*
X81469047Y-62472300D01*
X81476038Y-62464603D01*
X81483278Y-62457064D01*
X81491150Y-62449355D01*
X81499265Y-62441924D01*
X81507622Y-62434773D01*
X81516221Y-62427899D01*
X81525063Y-62421305D01*
X81534147Y-62414989D01*
X81543473Y-62408951D01*
X81553041Y-62403192D01*
X81562851Y-62397711D01*
X81572904Y-62392509D01*
X81583199Y-62387586D01*
X81593736Y-62382941D01*
X81604515Y-62378575D01*
X81615537Y-62374487D01*
X81626800Y-62370678D01*
X81638306Y-62367147D01*
X81662251Y-62360607D01*
X81687189Y-62354938D01*
X81713120Y-62350142D01*
X81740044Y-62346217D01*
X81767962Y-62343165D01*
X81796872Y-62340985D01*
X81826775Y-62339677D01*
X81857671Y-62339241D01*
X82548322Y-62339229D01*
X82548322Y-62492708D01*
G37*
X82548322Y-62492708D02*
X81846042Y-62492708D01*
X81825344Y-62492914D01*
X81805493Y-62493532D01*
X81786490Y-62494562D01*
X81768334Y-62496004D01*
X81751027Y-62497859D01*
X81734567Y-62500125D01*
X81718955Y-62502803D01*
X81704190Y-62505893D01*
X81697166Y-62507513D01*
X81690238Y-62509272D01*
X81683407Y-62511171D01*
X81676673Y-62513209D01*
X81670036Y-62515386D01*
X81663496Y-62517702D01*
X81657053Y-62520158D01*
X81650706Y-62522753D01*
X81644456Y-62525487D01*
X81638304Y-62528360D01*
X81632248Y-62531373D01*
X81626289Y-62534525D01*
X81620427Y-62537816D01*
X81614662Y-62541247D01*
X81608994Y-62544817D01*
X81603423Y-62548526D01*
X81597128Y-62552977D01*
X81591033Y-62557610D01*
X81585137Y-62562424D01*
X81579442Y-62567420D01*
X81573946Y-62572598D01*
X81568650Y-62577957D01*
X81563555Y-62583498D01*
X81558658Y-62589221D01*
X81553962Y-62595125D01*
X81549466Y-62601211D01*
X81545169Y-62607479D01*
X81541072Y-62613929D01*
X81537175Y-62620560D01*
X81533478Y-62627373D01*
X81529981Y-62634367D01*
X81526683Y-62641543D01*
X81523679Y-62648907D01*
X81520869Y-62656465D01*
X81518253Y-62664217D01*
X81515831Y-62672162D01*
X81513602Y-62680301D01*
X81511567Y-62688634D01*
X81509726Y-62697160D01*
X81508079Y-62705881D01*
X81506625Y-62714795D01*
X81505365Y-62723903D01*
X81504299Y-62733205D01*
X81503427Y-62742700D01*
X81502749Y-62752390D01*
X81502264Y-62762273D01*
X81501877Y-62782620D01*
X81501977Y-62792800D01*
X81502276Y-62802798D01*
X81502776Y-62812614D01*
X81503475Y-62822249D01*
X81504375Y-62831702D01*
X81505474Y-62840973D01*
X81506773Y-62850063D01*
X81508271Y-62858971D01*
X81509970Y-62867697D01*
X81511869Y-62876242D01*
X81513967Y-62884605D01*
X81516265Y-62892786D01*
X81518763Y-62900786D01*
X81521461Y-62908604D01*
X81524359Y-62916241D01*
X81527457Y-62923695D01*
X81530751Y-62930868D01*
X81534239Y-62937854D01*
X81537921Y-62944652D01*
X81541797Y-62951262D01*
X81545867Y-62957684D01*
X81550130Y-62963918D01*
X81554587Y-62969965D01*
X81559238Y-62975824D01*
X81564083Y-62981496D01*
X81569121Y-62986979D01*
X81574353Y-62992275D01*
X81579779Y-62997383D01*
X81585399Y-63002304D01*
X81591212Y-63007036D01*
X81597219Y-63011581D01*
X81603420Y-63015938D01*
X81608983Y-63019650D01*
X81614624Y-63023228D01*
X81620344Y-63026673D01*
X81626143Y-63029985D01*
X81632020Y-63033164D01*
X81637976Y-63036210D01*
X81644011Y-63039123D01*
X81650124Y-63041902D01*
X81656316Y-63044549D01*
X81662587Y-63047062D01*
X81668937Y-63049442D01*
X81675365Y-63051689D01*
X81681872Y-63053803D01*
X81688457Y-63055784D01*
X81695122Y-63057632D01*
X81701865Y-63059347D01*
X81716047Y-63062254D01*
X81731465Y-63064774D01*
X81748118Y-63066906D01*
X81766007Y-63068651D01*
X81785132Y-63070008D01*
X81805491Y-63070977D01*
X81827086Y-63071558D01*
X81849917Y-63071752D01*
X82548322Y-63071752D01*
X82548322Y-63225231D01*
X81857669Y-63225231D01*
X81825561Y-63224807D01*
X81794738Y-63223535D01*
X81765198Y-63221416D01*
X81736941Y-63218449D01*
X81709969Y-63214633D01*
X81684280Y-63209970D01*
X81671917Y-63207321D01*
X81659876Y-63204459D01*
X81648155Y-63201386D01*
X81636755Y-63198100D01*
X81625618Y-63194476D01*
X81614687Y-63190580D01*
X81603962Y-63186410D01*
X81593444Y-63181968D01*
X81583131Y-63177254D01*
X81573023Y-63172267D01*
X81563122Y-63167008D01*
X81553427Y-63161476D01*
X81543937Y-63155671D01*
X81534654Y-63149594D01*
X81525576Y-63143245D01*
X81516704Y-63136623D01*
X81508038Y-63129728D01*
X81499578Y-63122561D01*
X81491324Y-63115122D01*
X81483276Y-63107410D01*
X81476405Y-63100430D01*
X81469747Y-63093251D01*
X81463300Y-63085872D01*
X81457066Y-63078293D01*
X81451043Y-63070515D01*
X81445233Y-63062536D01*
X81439634Y-63054358D01*
X81434248Y-63045980D01*
X81429073Y-63037402D01*
X81424110Y-63028624D01*
X81419360Y-63019646D01*
X81414821Y-63010469D01*
X81410494Y-63001091D01*
X81406380Y-62991514D01*
X81402477Y-62981737D01*
X81398786Y-62971760D01*
X81395313Y-62961574D01*
X81392065Y-62951170D01*
X81389040Y-62940548D01*
X81386239Y-62929708D01*
X81381310Y-62907374D01*
X81377277Y-62884168D01*
X81374140Y-62860090D01*
X81371900Y-62835141D01*
X81370555Y-62809319D01*
X81370107Y-62782625D01*
X81370531Y-62756488D01*
X81371803Y-62731175D01*
X81373922Y-62706685D01*
X81375300Y-62694749D01*
X81376890Y-62683019D01*
X81378691Y-62671495D01*
X81380705Y-62660176D01*
X81382930Y-62649064D01*
X81385368Y-62638157D01*
X81388017Y-62627457D01*
X81390878Y-62616962D01*
X81393951Y-62606674D01*
X81397237Y-62596591D01*
X81400752Y-62586690D01*
X81404516Y-62576946D01*
X81408528Y-62567359D01*
X81412788Y-62557930D01*
X81417296Y-62548659D01*
X81422053Y-62539544D01*
X81427058Y-62530588D01*
X81432312Y-62521789D01*
X81437814Y-62513147D01*
X81443564Y-62504663D01*
X81449562Y-62496336D01*
X81455809Y-62488166D01*
X81462304Y-62480155D01*
X81469047Y-62472300D01*
X81476038Y-62464603D01*
X81483278Y-62457064D01*
X81491150Y-62449355D01*
X81499265Y-62441924D01*
X81507622Y-62434773D01*
X81516221Y-62427899D01*
X81525063Y-62421305D01*
X81534147Y-62414989D01*
X81543473Y-62408951D01*
X81553041Y-62403192D01*
X81562851Y-62397711D01*
X81572904Y-62392509D01*
X81583199Y-62387586D01*
X81593736Y-62382941D01*
X81604515Y-62378575D01*
X81615537Y-62374487D01*
X81626800Y-62370678D01*
X81638306Y-62367147D01*
X81662251Y-62360607D01*
X81687189Y-62354938D01*
X81713120Y-62350142D01*
X81740044Y-62346217D01*
X81767962Y-62343165D01*
X81796872Y-62340985D01*
X81826775Y-62339677D01*
X81857671Y-62339241D01*
X82548322Y-62339229D01*
X82548322Y-62492708D01*
G36*
X82548325Y-64452284D02*
G01*
X81905730Y-64749938D01*
X82548325Y-65057672D01*
X82548325Y-65266961D01*
X81394135Y-65266961D01*
X81394135Y-65123557D01*
X82388645Y-65123557D01*
X81711945Y-64804972D01*
X81711945Y-64713507D01*
X82388645Y-64392598D01*
X81394135Y-64392598D01*
X81394135Y-64239119D01*
X82548325Y-64239119D01*
X82548325Y-64452284D01*
G37*
X82548325Y-64452284D02*
X81905730Y-64749938D01*
X82548325Y-65057672D01*
X82548325Y-65266961D01*
X81394135Y-65266961D01*
X81394135Y-65123557D01*
X82388645Y-65123557D01*
X81711945Y-64804972D01*
X81711945Y-64713507D01*
X82388645Y-64392598D01*
X81394135Y-64392598D01*
X81394135Y-64239119D01*
X82548325Y-64239119D01*
X82548325Y-64452284D01*
G36*
X81969290Y-63965492D02*
G01*
X81828990Y-63965492D01*
X81828990Y-63481804D01*
X81969290Y-63481804D01*
X81969290Y-63965492D01*
G37*
X81969290Y-63965492D02*
X81828990Y-63965492D01*
X81828990Y-63481804D01*
X81969290Y-63481804D01*
X81969290Y-63965492D01*
G36*
X81370723Y-66015993D02*
G01*
X81371495Y-66000938D01*
X81372576Y-65986101D01*
X81373965Y-65971482D01*
X81375664Y-65957081D01*
X81377671Y-65942898D01*
X81379988Y-65928933D01*
X81382613Y-65915187D01*
X81385547Y-65901658D01*
X81388790Y-65888347D01*
X81392342Y-65875255D01*
X81396202Y-65862380D01*
X81400372Y-65849723D01*
X81404850Y-65837285D01*
X81409637Y-65825064D01*
X81414731Y-65812959D01*
X81420126Y-65801060D01*
X81425825Y-65789366D01*
X81431826Y-65777878D01*
X81438131Y-65766597D01*
X81444737Y-65755521D01*
X81451647Y-65744651D01*
X81458860Y-65733986D01*
X81466375Y-65723528D01*
X81474193Y-65713275D01*
X81482314Y-65703229D01*
X81490737Y-65693388D01*
X81499463Y-65683753D01*
X81508492Y-65674324D01*
X81517824Y-65665100D01*
X81527459Y-65656083D01*
X81537003Y-65647581D01*
X81546837Y-65639321D01*
X81556962Y-65631303D01*
X81567378Y-65623527D01*
X81578085Y-65615994D01*
X81589082Y-65608702D01*
X81600370Y-65601653D01*
X81611949Y-65594847D01*
X81623818Y-65588282D01*
X81635978Y-65581960D01*
X81648429Y-65575880D01*
X81661171Y-65570042D01*
X81674203Y-65564446D01*
X81687526Y-65559093D01*
X81701139Y-65553982D01*
X81715044Y-65549113D01*
X81743796Y-65540029D01*
X81773470Y-65532156D01*
X81804064Y-65525495D01*
X81835579Y-65520044D01*
X81868014Y-65515805D01*
X81901369Y-65512777D01*
X81935645Y-65510960D01*
X81970842Y-65510354D01*
X82006026Y-65510948D01*
X82040266Y-65512728D01*
X82073560Y-65515696D01*
X82089854Y-65517624D01*
X82105911Y-65519850D01*
X82121731Y-65522372D01*
X82137316Y-65525191D01*
X82152664Y-65528307D01*
X82167777Y-65531720D01*
X82182653Y-65535429D01*
X82197293Y-65539435D01*
X82211697Y-65543738D01*
X82225864Y-65548337D01*
X82239778Y-65553118D01*
X82253419Y-65558159D01*
X82266787Y-65563461D01*
X82279883Y-65569023D01*
X82292706Y-65574846D01*
X82305257Y-65580929D01*
X82317535Y-65587273D01*
X82329541Y-65593877D01*
X82341274Y-65600741D01*
X82352734Y-65607866D01*
X82363923Y-65615251D01*
X82374838Y-65622897D01*
X82385481Y-65630803D01*
X82395851Y-65638969D01*
X82405949Y-65647396D01*
X82415775Y-65656083D01*
X82415772Y-65656083D01*
X82425034Y-65664825D01*
X82434024Y-65673803D01*
X82442741Y-65683017D01*
X82451186Y-65692468D01*
X82459358Y-65702154D01*
X82467258Y-65712077D01*
X82474885Y-65722235D01*
X82482240Y-65732630D01*
X82489322Y-65743261D01*
X82496132Y-65754129D01*
X82502669Y-65765232D01*
X82508934Y-65776571D01*
X82514926Y-65788147D01*
X82520646Y-65799959D01*
X82526093Y-65812007D01*
X82531268Y-65824291D01*
X82536243Y-65836696D01*
X82540898Y-65849301D01*
X82545231Y-65862106D01*
X82549243Y-65875110D01*
X82552934Y-65888315D01*
X82556304Y-65901720D01*
X82559354Y-65915324D01*
X82562082Y-65929129D01*
X82564489Y-65943133D01*
X82566575Y-65957337D01*
X82568341Y-65971741D01*
X82569785Y-65986344D01*
X82570908Y-66001148D01*
X82571711Y-66016151D01*
X82572192Y-66031354D01*
X82572353Y-66046757D01*
X82572195Y-66061609D01*
X82571723Y-66076322D01*
X82570936Y-66090895D01*
X82569833Y-66105329D01*
X82568416Y-66119623D01*
X82566684Y-66133779D01*
X82564638Y-66147795D01*
X82562276Y-66161672D01*
X82559599Y-66175409D01*
X82556607Y-66189007D01*
X82553301Y-66202467D01*
X82549679Y-66215786D01*
X82545743Y-66228967D01*
X82541492Y-66242008D01*
X82536925Y-66254911D01*
X82532044Y-66267674D01*
X82526866Y-66280142D01*
X82521410Y-66292356D01*
X82515675Y-66304316D01*
X82509661Y-66316022D01*
X82503369Y-66327473D01*
X82496799Y-66338670D01*
X82489949Y-66349613D01*
X82482822Y-66360302D01*
X82475415Y-66370736D01*
X82467731Y-66380915D01*
X82459767Y-66390841D01*
X82451525Y-66400512D01*
X82443005Y-66409929D01*
X82434206Y-66419091D01*
X82425128Y-66427999D01*
X82415772Y-66436653D01*
X82405665Y-66445434D01*
X82395304Y-66453948D01*
X82384688Y-66462196D01*
X82373818Y-66470178D01*
X82362693Y-66477893D01*
X82351314Y-66485342D01*
X82339681Y-66492524D01*
X82327794Y-66499440D01*
X82315652Y-66506089D01*
X82303256Y-66512472D01*
X82290605Y-66518589D01*
X82277700Y-66524439D01*
X82264541Y-66530022D01*
X82251127Y-66535339D01*
X82237459Y-66540390D01*
X82223537Y-66545175D01*
X82195171Y-66553895D01*
X82165885Y-66561452D01*
X82135679Y-66567847D01*
X82104552Y-66573080D01*
X82072504Y-66577149D01*
X82039536Y-66580056D01*
X82005648Y-66581800D01*
X81970840Y-66582382D01*
X81935486Y-66581800D01*
X81901125Y-66580056D01*
X81867757Y-66577149D01*
X81851446Y-66575260D01*
X81835383Y-66573080D01*
X81819568Y-66570609D01*
X81804002Y-66567847D01*
X81788684Y-66564795D01*
X81773614Y-66561452D01*
X81758792Y-66557819D01*
X81744219Y-66553895D01*
X81729894Y-66549680D01*
X81715817Y-66545175D01*
X81702001Y-66540302D01*
X81688457Y-66535182D01*
X81675186Y-66529813D01*
X81662187Y-66524196D01*
X81649460Y-66518331D01*
X81637007Y-66512218D01*
X81624825Y-66505856D01*
X81612917Y-66499246D01*
X81601280Y-66492388D01*
X81589916Y-66485281D01*
X81578825Y-66477927D01*
X81568006Y-66470324D01*
X81557460Y-66462472D01*
X81547187Y-66454373D01*
X81537185Y-66446025D01*
X81527457Y-66437428D01*
X81518007Y-66428593D01*
X81508842Y-66419528D01*
X81499961Y-66410232D01*
X81491365Y-66400706D01*
X81483054Y-66390950D01*
X81475027Y-66380964D01*
X81467285Y-66370748D01*
X81459827Y-66360302D01*
X81452654Y-66349626D01*
X81445766Y-66338719D01*
X81439162Y-66327583D01*
X81432842Y-66316216D01*
X81426808Y-66304619D01*
X81421058Y-66292792D01*
X81415592Y-66280735D01*
X81410411Y-66268447D01*
X81405530Y-66255863D01*
X81400964Y-66243109D01*
X81396713Y-66230186D01*
X81392777Y-66217093D01*
X81389156Y-66203831D01*
X81385850Y-66190399D01*
X81382858Y-66176798D01*
X81380181Y-66163027D01*
X81377820Y-66149086D01*
X81375773Y-66134976D01*
X81374041Y-66120697D01*
X81372624Y-66106248D01*
X81371522Y-66091629D01*
X81370735Y-66076841D01*
X81370262Y-66061884D01*
X81370105Y-66046757D01*
X81370113Y-66045979D01*
X81502655Y-66045979D01*
X81503124Y-66067216D01*
X81504532Y-66087909D01*
X81506879Y-66108056D01*
X81510164Y-66127659D01*
X81514388Y-66146717D01*
X81519551Y-66165229D01*
X81525652Y-66183197D01*
X81532692Y-66200620D01*
X81540671Y-66217497D01*
X81549588Y-66233830D01*
X81559444Y-66249618D01*
X81570238Y-66264860D01*
X81581971Y-66279558D01*
X81594643Y-66293710D01*
X81608253Y-66307318D01*
X81622802Y-66320381D01*
X81638332Y-66332771D01*
X81654692Y-66344361D01*
X81671881Y-66355153D01*
X81689900Y-66365145D01*
X81708749Y-66374337D01*
X81728427Y-66382731D01*
X81748935Y-66390325D01*
X81770273Y-66397120D01*
X81792440Y-66403115D01*
X81815437Y-66408311D01*
X81839264Y-66412708D01*
X81863920Y-66416305D01*
X81889406Y-66419103D01*
X81915722Y-66421101D01*
X81942867Y-66422300D01*
X81970842Y-66422700D01*
X81998538Y-66422309D01*
X82025429Y-66421138D01*
X82051514Y-66419184D01*
X82076794Y-66416450D01*
X82101269Y-66412935D01*
X82124938Y-66408638D01*
X82147802Y-66403560D01*
X82169860Y-66397701D01*
X82191113Y-66391061D01*
X82211561Y-66383639D01*
X82231203Y-66375437D01*
X82250040Y-66366453D01*
X82268071Y-66356688D01*
X82285297Y-66346142D01*
X82301717Y-66334815D01*
X82317332Y-66322706D01*
X82332163Y-66309816D01*
X82346037Y-66296338D01*
X82358954Y-66282274D01*
X82370914Y-66267621D01*
X82381918Y-66252382D01*
X82391964Y-66236555D01*
X82401054Y-66220141D01*
X82409187Y-66203139D01*
X82416363Y-66185550D01*
X82422582Y-66167374D01*
X82427845Y-66148610D01*
X82432150Y-66129259D01*
X82435499Y-66109320D01*
X82437891Y-66088794D01*
X82439326Y-66067680D01*
X82439805Y-66045979D01*
X82439326Y-66024465D01*
X82437891Y-66003527D01*
X82435499Y-65983165D01*
X82432150Y-65963377D01*
X82427845Y-65944165D01*
X82422582Y-65925529D01*
X82416363Y-65907467D01*
X82409187Y-65889981D01*
X82401054Y-65873070D01*
X82391964Y-65856735D01*
X82381918Y-65840975D01*
X82370914Y-65825790D01*
X82358954Y-65811180D01*
X82346037Y-65797146D01*
X82332163Y-65783687D01*
X82317332Y-65770803D01*
X82301717Y-65758601D01*
X82285297Y-65747186D01*
X82268071Y-65736558D01*
X82250040Y-65726717D01*
X82231203Y-65717664D01*
X82211561Y-65709398D01*
X82191113Y-65701919D01*
X82169860Y-65695227D01*
X82147802Y-65689323D01*
X82124938Y-65684206D01*
X82101269Y-65679876D01*
X82076794Y-65676334D01*
X82051514Y-65673578D01*
X82025429Y-65671610D01*
X81998538Y-65670429D01*
X81970842Y-65670036D01*
X81970842Y-65670033D01*
X81942867Y-65670433D01*
X81915722Y-65671632D01*
X81889406Y-65673631D01*
X81863920Y-65676428D01*
X81839264Y-65680025D01*
X81815437Y-65684422D01*
X81792440Y-65689618D01*
X81770273Y-65695613D01*
X81748935Y-65702408D01*
X81728427Y-65710002D01*
X81708749Y-65718395D01*
X81689900Y-65727588D01*
X81671881Y-65737580D01*
X81654692Y-65748372D01*
X81638332Y-65759962D01*
X81622802Y-65772353D01*
X81608253Y-65785321D01*
X81594643Y-65798841D01*
X81581971Y-65812912D01*
X81570238Y-65827534D01*
X81559444Y-65842707D01*
X81549588Y-65858431D01*
X81540671Y-65874706D01*
X81532692Y-65891532D01*
X81525652Y-65908909D01*
X81519551Y-65926837D01*
X81514388Y-65945317D01*
X81510164Y-65964347D01*
X81506879Y-65983928D01*
X81504532Y-66004061D01*
X81503124Y-66024744D01*
X81502655Y-66045979D01*
X81370113Y-66045979D01*
X81370259Y-66031266D01*
X81370723Y-66015993D01*
G37*
X81370723Y-66015993D02*
X81371495Y-66000938D01*
X81372576Y-65986101D01*
X81373965Y-65971482D01*
X81375664Y-65957081D01*
X81377671Y-65942898D01*
X81379988Y-65928933D01*
X81382613Y-65915187D01*
X81385547Y-65901658D01*
X81388790Y-65888347D01*
X81392342Y-65875255D01*
X81396202Y-65862380D01*
X81400372Y-65849723D01*
X81404850Y-65837285D01*
X81409637Y-65825064D01*
X81414731Y-65812959D01*
X81420126Y-65801060D01*
X81425825Y-65789366D01*
X81431826Y-65777878D01*
X81438131Y-65766597D01*
X81444737Y-65755521D01*
X81451647Y-65744651D01*
X81458860Y-65733986D01*
X81466375Y-65723528D01*
X81474193Y-65713275D01*
X81482314Y-65703229D01*
X81490737Y-65693388D01*
X81499463Y-65683753D01*
X81508492Y-65674324D01*
X81517824Y-65665100D01*
X81527459Y-65656083D01*
X81537003Y-65647581D01*
X81546837Y-65639321D01*
X81556962Y-65631303D01*
X81567378Y-65623527D01*
X81578085Y-65615994D01*
X81589082Y-65608702D01*
X81600370Y-65601653D01*
X81611949Y-65594847D01*
X81623818Y-65588282D01*
X81635978Y-65581960D01*
X81648429Y-65575880D01*
X81661171Y-65570042D01*
X81674203Y-65564446D01*
X81687526Y-65559093D01*
X81701139Y-65553982D01*
X81715044Y-65549113D01*
X81743796Y-65540029D01*
X81773470Y-65532156D01*
X81804064Y-65525495D01*
X81835579Y-65520044D01*
X81868014Y-65515805D01*
X81901369Y-65512777D01*
X81935645Y-65510960D01*
X81970842Y-65510354D01*
X82006026Y-65510948D01*
X82040266Y-65512728D01*
X82073560Y-65515696D01*
X82089854Y-65517624D01*
X82105911Y-65519850D01*
X82121731Y-65522372D01*
X82137316Y-65525191D01*
X82152664Y-65528307D01*
X82167777Y-65531720D01*
X82182653Y-65535429D01*
X82197293Y-65539435D01*
X82211697Y-65543738D01*
X82225864Y-65548337D01*
X82239778Y-65553118D01*
X82253419Y-65558159D01*
X82266787Y-65563461D01*
X82279883Y-65569023D01*
X82292706Y-65574846D01*
X82305257Y-65580929D01*
X82317535Y-65587273D01*
X82329541Y-65593877D01*
X82341274Y-65600741D01*
X82352734Y-65607866D01*
X82363923Y-65615251D01*
X82374838Y-65622897D01*
X82385481Y-65630803D01*
X82395851Y-65638969D01*
X82405949Y-65647396D01*
X82415775Y-65656083D01*
X82415772Y-65656083D01*
X82425034Y-65664825D01*
X82434024Y-65673803D01*
X82442741Y-65683017D01*
X82451186Y-65692468D01*
X82459358Y-65702154D01*
X82467258Y-65712077D01*
X82474885Y-65722235D01*
X82482240Y-65732630D01*
X82489322Y-65743261D01*
X82496132Y-65754129D01*
X82502669Y-65765232D01*
X82508934Y-65776571D01*
X82514926Y-65788147D01*
X82520646Y-65799959D01*
X82526093Y-65812007D01*
X82531268Y-65824291D01*
X82536243Y-65836696D01*
X82540898Y-65849301D01*
X82545231Y-65862106D01*
X82549243Y-65875110D01*
X82552934Y-65888315D01*
X82556304Y-65901720D01*
X82559354Y-65915324D01*
X82562082Y-65929129D01*
X82564489Y-65943133D01*
X82566575Y-65957337D01*
X82568341Y-65971741D01*
X82569785Y-65986344D01*
X82570908Y-66001148D01*
X82571711Y-66016151D01*
X82572192Y-66031354D01*
X82572353Y-66046757D01*
X82572195Y-66061609D01*
X82571723Y-66076322D01*
X82570936Y-66090895D01*
X82569833Y-66105329D01*
X82568416Y-66119623D01*
X82566684Y-66133779D01*
X82564638Y-66147795D01*
X82562276Y-66161672D01*
X82559599Y-66175409D01*
X82556607Y-66189007D01*
X82553301Y-66202467D01*
X82549679Y-66215786D01*
X82545743Y-66228967D01*
X82541492Y-66242008D01*
X82536925Y-66254911D01*
X82532044Y-66267674D01*
X82526866Y-66280142D01*
X82521410Y-66292356D01*
X82515675Y-66304316D01*
X82509661Y-66316022D01*
X82503369Y-66327473D01*
X82496799Y-66338670D01*
X82489949Y-66349613D01*
X82482822Y-66360302D01*
X82475415Y-66370736D01*
X82467731Y-66380915D01*
X82459767Y-66390841D01*
X82451525Y-66400512D01*
X82443005Y-66409929D01*
X82434206Y-66419091D01*
X82425128Y-66427999D01*
X82415772Y-66436653D01*
X82405665Y-66445434D01*
X82395304Y-66453948D01*
X82384688Y-66462196D01*
X82373818Y-66470178D01*
X82362693Y-66477893D01*
X82351314Y-66485342D01*
X82339681Y-66492524D01*
X82327794Y-66499440D01*
X82315652Y-66506089D01*
X82303256Y-66512472D01*
X82290605Y-66518589D01*
X82277700Y-66524439D01*
X82264541Y-66530022D01*
X82251127Y-66535339D01*
X82237459Y-66540390D01*
X82223537Y-66545175D01*
X82195171Y-66553895D01*
X82165885Y-66561452D01*
X82135679Y-66567847D01*
X82104552Y-66573080D01*
X82072504Y-66577149D01*
X82039536Y-66580056D01*
X82005648Y-66581800D01*
X81970840Y-66582382D01*
X81935486Y-66581800D01*
X81901125Y-66580056D01*
X81867757Y-66577149D01*
X81851446Y-66575260D01*
X81835383Y-66573080D01*
X81819568Y-66570609D01*
X81804002Y-66567847D01*
X81788684Y-66564795D01*
X81773614Y-66561452D01*
X81758792Y-66557819D01*
X81744219Y-66553895D01*
X81729894Y-66549680D01*
X81715817Y-66545175D01*
X81702001Y-66540302D01*
X81688457Y-66535182D01*
X81675186Y-66529813D01*
X81662187Y-66524196D01*
X81649460Y-66518331D01*
X81637007Y-66512218D01*
X81624825Y-66505856D01*
X81612917Y-66499246D01*
X81601280Y-66492388D01*
X81589916Y-66485281D01*
X81578825Y-66477927D01*
X81568006Y-66470324D01*
X81557460Y-66462472D01*
X81547187Y-66454373D01*
X81537185Y-66446025D01*
X81527457Y-66437428D01*
X81518007Y-66428593D01*
X81508842Y-66419528D01*
X81499961Y-66410232D01*
X81491365Y-66400706D01*
X81483054Y-66390950D01*
X81475027Y-66380964D01*
X81467285Y-66370748D01*
X81459827Y-66360302D01*
X81452654Y-66349626D01*
X81445766Y-66338719D01*
X81439162Y-66327583D01*
X81432842Y-66316216D01*
X81426808Y-66304619D01*
X81421058Y-66292792D01*
X81415592Y-66280735D01*
X81410411Y-66268447D01*
X81405530Y-66255863D01*
X81400964Y-66243109D01*
X81396713Y-66230186D01*
X81392777Y-66217093D01*
X81389156Y-66203831D01*
X81385850Y-66190399D01*
X81382858Y-66176798D01*
X81380181Y-66163027D01*
X81377820Y-66149086D01*
X81375773Y-66134976D01*
X81374041Y-66120697D01*
X81372624Y-66106248D01*
X81371522Y-66091629D01*
X81370735Y-66076841D01*
X81370262Y-66061884D01*
X81370105Y-66046757D01*
X81370113Y-66045979D01*
X81502655Y-66045979D01*
X81503124Y-66067216D01*
X81504532Y-66087909D01*
X81506879Y-66108056D01*
X81510164Y-66127659D01*
X81514388Y-66146717D01*
X81519551Y-66165229D01*
X81525652Y-66183197D01*
X81532692Y-66200620D01*
X81540671Y-66217497D01*
X81549588Y-66233830D01*
X81559444Y-66249618D01*
X81570238Y-66264860D01*
X81581971Y-66279558D01*
X81594643Y-66293710D01*
X81608253Y-66307318D01*
X81622802Y-66320381D01*
X81638332Y-66332771D01*
X81654692Y-66344361D01*
X81671881Y-66355153D01*
X81689900Y-66365145D01*
X81708749Y-66374337D01*
X81728427Y-66382731D01*
X81748935Y-66390325D01*
X81770273Y-66397120D01*
X81792440Y-66403115D01*
X81815437Y-66408311D01*
X81839264Y-66412708D01*
X81863920Y-66416305D01*
X81889406Y-66419103D01*
X81915722Y-66421101D01*
X81942867Y-66422300D01*
X81970842Y-66422700D01*
X81998538Y-66422309D01*
X82025429Y-66421138D01*
X82051514Y-66419184D01*
X82076794Y-66416450D01*
X82101269Y-66412935D01*
X82124938Y-66408638D01*
X82147802Y-66403560D01*
X82169860Y-66397701D01*
X82191113Y-66391061D01*
X82211561Y-66383639D01*
X82231203Y-66375437D01*
X82250040Y-66366453D01*
X82268071Y-66356688D01*
X82285297Y-66346142D01*
X82301717Y-66334815D01*
X82317332Y-66322706D01*
X82332163Y-66309816D01*
X82346037Y-66296338D01*
X82358954Y-66282274D01*
X82370914Y-66267621D01*
X82381918Y-66252382D01*
X82391964Y-66236555D01*
X82401054Y-66220141D01*
X82409187Y-66203139D01*
X82416363Y-66185550D01*
X82422582Y-66167374D01*
X82427845Y-66148610D01*
X82432150Y-66129259D01*
X82435499Y-66109320D01*
X82437891Y-66088794D01*
X82439326Y-66067680D01*
X82439805Y-66045979D01*
X82439326Y-66024465D01*
X82437891Y-66003527D01*
X82435499Y-65983165D01*
X82432150Y-65963377D01*
X82427845Y-65944165D01*
X82422582Y-65925529D01*
X82416363Y-65907467D01*
X82409187Y-65889981D01*
X82401054Y-65873070D01*
X82391964Y-65856735D01*
X82381918Y-65840975D01*
X82370914Y-65825790D01*
X82358954Y-65811180D01*
X82346037Y-65797146D01*
X82332163Y-65783687D01*
X82317332Y-65770803D01*
X82301717Y-65758601D01*
X82285297Y-65747186D01*
X82268071Y-65736558D01*
X82250040Y-65726717D01*
X82231203Y-65717664D01*
X82211561Y-65709398D01*
X82191113Y-65701919D01*
X82169860Y-65695227D01*
X82147802Y-65689323D01*
X82124938Y-65684206D01*
X82101269Y-65679876D01*
X82076794Y-65676334D01*
X82051514Y-65673578D01*
X82025429Y-65671610D01*
X81998538Y-65670429D01*
X81970842Y-65670036D01*
X81970842Y-65670033D01*
X81942867Y-65670433D01*
X81915722Y-65671632D01*
X81889406Y-65673631D01*
X81863920Y-65676428D01*
X81839264Y-65680025D01*
X81815437Y-65684422D01*
X81792440Y-65689618D01*
X81770273Y-65695613D01*
X81748935Y-65702408D01*
X81728427Y-65710002D01*
X81708749Y-65718395D01*
X81689900Y-65727588D01*
X81671881Y-65737580D01*
X81654692Y-65748372D01*
X81638332Y-65759962D01*
X81622802Y-65772353D01*
X81608253Y-65785321D01*
X81594643Y-65798841D01*
X81581971Y-65812912D01*
X81570238Y-65827534D01*
X81559444Y-65842707D01*
X81549588Y-65858431D01*
X81540671Y-65874706D01*
X81532692Y-65891532D01*
X81525652Y-65908909D01*
X81519551Y-65926837D01*
X81514388Y-65945317D01*
X81510164Y-65964347D01*
X81506879Y-65983928D01*
X81504532Y-66004061D01*
X81503124Y-66024744D01*
X81502655Y-66045979D01*
X81370113Y-66045979D01*
X81370259Y-66031266D01*
X81370723Y-66015993D01*
G36*
X81394477Y-68077632D02*
G01*
X81395494Y-68040813D01*
X81397190Y-68005932D01*
X81399564Y-67972988D01*
X81402616Y-67941983D01*
X81406347Y-67912915D01*
X81410755Y-67885785D01*
X81415842Y-67860593D01*
X81418661Y-67848457D01*
X81421692Y-67836466D01*
X81424934Y-67824621D01*
X81428389Y-67812921D01*
X81432056Y-67801367D01*
X81435934Y-67789957D01*
X81440025Y-67778694D01*
X81444328Y-67767575D01*
X81448842Y-67756602D01*
X81453569Y-67745774D01*
X81458507Y-67735091D01*
X81463658Y-67724554D01*
X81469020Y-67714163D01*
X81474595Y-67703916D01*
X81480381Y-67693815D01*
X81486379Y-67683859D01*
X81495420Y-67669795D01*
X81504910Y-67656088D01*
X81514847Y-67642738D01*
X81525233Y-67629745D01*
X81536066Y-67617109D01*
X81547348Y-67604831D01*
X81559078Y-67592910D01*
X81571257Y-67581347D01*
X81583883Y-67570140D01*
X81596958Y-67559291D01*
X81610480Y-67548799D01*
X81624451Y-67538665D01*
X81638870Y-67528888D01*
X81653737Y-67519468D01*
X81669052Y-67510405D01*
X81684815Y-67501699D01*
X81700918Y-67493345D01*
X81717250Y-67485530D01*
X81733813Y-67478254D01*
X81750605Y-67471517D01*
X81767628Y-67465319D01*
X81784881Y-67459660D01*
X81802364Y-67454540D01*
X81820077Y-67449959D01*
X81838021Y-67445917D01*
X81856194Y-67442413D01*
X81874598Y-67439449D01*
X81893232Y-67437024D01*
X81912096Y-67435137D01*
X81931190Y-67433790D01*
X81950514Y-67432981D01*
X81970068Y-67432712D01*
X81990916Y-67432969D01*
X82011406Y-67433741D01*
X82031538Y-67435028D01*
X82051314Y-67436830D01*
X82070732Y-67439146D01*
X82089792Y-67441977D01*
X82108496Y-67445323D01*
X82126842Y-67449183D01*
X82144831Y-67453559D01*
X82162462Y-67458449D01*
X82179736Y-67463854D01*
X82196653Y-67469773D01*
X82213213Y-67476208D01*
X82229415Y-67483157D01*
X82245260Y-67490621D01*
X82260748Y-67498600D01*
X82275866Y-67507039D01*
X82290603Y-67515884D01*
X82304958Y-67525134D01*
X82318932Y-67534790D01*
X82332524Y-67544852D01*
X82345734Y-67555319D01*
X82358564Y-67566192D01*
X82371011Y-67577471D01*
X82383077Y-67589156D01*
X82394762Y-67601247D01*
X82406065Y-67613743D01*
X82416987Y-67626645D01*
X82427527Y-67639953D01*
X82437686Y-67653666D01*
X82447463Y-67667785D01*
X82456859Y-67682310D01*
X82462115Y-67691054D01*
X82467227Y-67700041D01*
X82477013Y-67718741D01*
X82486218Y-67738410D01*
X82494842Y-67759048D01*
X82502884Y-67780655D01*
X82510345Y-67803230D01*
X82517225Y-67826775D01*
X82523523Y-67851289D01*
X82529337Y-67877184D01*
X82534375Y-67905259D01*
X82538638Y-67935514D01*
X82542126Y-67967950D01*
X82544839Y-68002565D01*
X82546777Y-68039360D01*
X82547939Y-68078335D01*
X82548327Y-68119490D01*
X82548327Y-68407842D01*
X81394138Y-68407842D01*
X81394138Y-68254366D01*
X81525909Y-68254366D01*
X82416550Y-68254366D01*
X82416550Y-68110189D01*
X82416308Y-68083919D01*
X82415581Y-68058593D01*
X82414370Y-68034212D01*
X82412675Y-68010776D01*
X82410495Y-67988285D01*
X82407830Y-67966738D01*
X82404681Y-67946136D01*
X82401048Y-67926479D01*
X82399114Y-67916920D01*
X82396991Y-67907427D01*
X82394681Y-67898001D01*
X82392183Y-67888642D01*
X82389498Y-67879349D01*
X82386624Y-67870123D01*
X82383563Y-67860964D01*
X82380314Y-67851871D01*
X82376877Y-67842845D01*
X82373253Y-67833885D01*
X82369440Y-67824992D01*
X82365440Y-67816166D01*
X82361253Y-67807406D01*
X82356877Y-67798712D01*
X82352314Y-67790086D01*
X82347563Y-67781526D01*
X82340723Y-67769984D01*
X82333574Y-67758805D01*
X82326116Y-67747990D01*
X82318349Y-67737537D01*
X82310274Y-67727449D01*
X82301890Y-67717723D01*
X82293196Y-67708361D01*
X82284194Y-67699362D01*
X82274884Y-67690727D01*
X82265264Y-67682455D01*
X82255335Y-67674546D01*
X82245098Y-67667000D01*
X82234552Y-67659818D01*
X82223697Y-67652999D01*
X82212533Y-67646544D01*
X82201060Y-67640452D01*
X82189267Y-67634726D01*
X82177140Y-67629369D01*
X82164680Y-67624382D01*
X82151888Y-67619765D01*
X82138762Y-67615516D01*
X82125303Y-67611638D01*
X82111511Y-67608128D01*
X82097386Y-67604988D01*
X82082927Y-67602218D01*
X82068136Y-67599817D01*
X82053012Y-67597785D01*
X82037554Y-67596123D01*
X82021764Y-67594830D01*
X82005640Y-67593906D01*
X81989184Y-67593352D01*
X81972394Y-67593167D01*
X81955710Y-67593337D01*
X81939378Y-67593846D01*
X81923397Y-67594693D01*
X81907767Y-67595880D01*
X81892488Y-67597406D01*
X81877560Y-67599272D01*
X81862984Y-67601476D01*
X81848759Y-67604019D01*
X81834885Y-67606902D01*
X81821363Y-67610124D01*
X81808191Y-67613684D01*
X81795371Y-67617584D01*
X81782902Y-67621823D01*
X81770784Y-67626401D01*
X81759018Y-67631319D01*
X81747602Y-67636575D01*
X81736499Y-67642074D01*
X81725668Y-67647911D01*
X81715110Y-67654089D01*
X81704824Y-67660605D01*
X81694811Y-67667460D01*
X81685070Y-67674655D01*
X81675602Y-67682188D01*
X81666406Y-67690061D01*
X81657483Y-67698273D01*
X81648832Y-67706823D01*
X81640453Y-67715713D01*
X81632348Y-67724943D01*
X81624514Y-67734511D01*
X81616953Y-67744418D01*
X81609665Y-67754664D01*
X81602649Y-67765250D01*
X81597235Y-67773928D01*
X81592039Y-67782715D01*
X81587061Y-67791612D01*
X81582302Y-67800617D01*
X81577760Y-67809731D01*
X81573436Y-67818954D01*
X81569330Y-67828286D01*
X81565442Y-67837727D01*
X81561772Y-67847277D01*
X81558320Y-67856936D01*
X81555086Y-67866704D01*
X81552070Y-67876581D01*
X81549273Y-67886567D01*
X81546693Y-67896662D01*
X81544331Y-67906866D01*
X81542187Y-67917179D01*
X81538373Y-67938168D01*
X81535066Y-67960054D01*
X81532268Y-67982836D01*
X81529979Y-68006514D01*
X81528199Y-68031088D01*
X81526927Y-68056558D01*
X81526164Y-68082925D01*
X81525909Y-68110189D01*
X81525909Y-68254366D01*
X81394138Y-68254366D01*
X81394138Y-68116389D01*
X81394477Y-68077632D01*
G37*
X81394477Y-68077632D02*
X81395494Y-68040813D01*
X81397190Y-68005932D01*
X81399564Y-67972988D01*
X81402616Y-67941983D01*
X81406347Y-67912915D01*
X81410755Y-67885785D01*
X81415842Y-67860593D01*
X81418661Y-67848457D01*
X81421692Y-67836466D01*
X81424934Y-67824621D01*
X81428389Y-67812921D01*
X81432056Y-67801367D01*
X81435934Y-67789957D01*
X81440025Y-67778694D01*
X81444328Y-67767575D01*
X81448842Y-67756602D01*
X81453569Y-67745774D01*
X81458507Y-67735091D01*
X81463658Y-67724554D01*
X81469020Y-67714163D01*
X81474595Y-67703916D01*
X81480381Y-67693815D01*
X81486379Y-67683859D01*
X81495420Y-67669795D01*
X81504910Y-67656088D01*
X81514847Y-67642738D01*
X81525233Y-67629745D01*
X81536066Y-67617109D01*
X81547348Y-67604831D01*
X81559078Y-67592910D01*
X81571257Y-67581347D01*
X81583883Y-67570140D01*
X81596958Y-67559291D01*
X81610480Y-67548799D01*
X81624451Y-67538665D01*
X81638870Y-67528888D01*
X81653737Y-67519468D01*
X81669052Y-67510405D01*
X81684815Y-67501699D01*
X81700918Y-67493345D01*
X81717250Y-67485530D01*
X81733813Y-67478254D01*
X81750605Y-67471517D01*
X81767628Y-67465319D01*
X81784881Y-67459660D01*
X81802364Y-67454540D01*
X81820077Y-67449959D01*
X81838021Y-67445917D01*
X81856194Y-67442413D01*
X81874598Y-67439449D01*
X81893232Y-67437024D01*
X81912096Y-67435137D01*
X81931190Y-67433790D01*
X81950514Y-67432981D01*
X81970068Y-67432712D01*
X81990916Y-67432969D01*
X82011406Y-67433741D01*
X82031538Y-67435028D01*
X82051314Y-67436830D01*
X82070732Y-67439146D01*
X82089792Y-67441977D01*
X82108496Y-67445323D01*
X82126842Y-67449183D01*
X82144831Y-67453559D01*
X82162462Y-67458449D01*
X82179736Y-67463854D01*
X82196653Y-67469773D01*
X82213213Y-67476208D01*
X82229415Y-67483157D01*
X82245260Y-67490621D01*
X82260748Y-67498600D01*
X82275866Y-67507039D01*
X82290603Y-67515884D01*
X82304958Y-67525134D01*
X82318932Y-67534790D01*
X82332524Y-67544852D01*
X82345734Y-67555319D01*
X82358564Y-67566192D01*
X82371011Y-67577471D01*
X82383077Y-67589156D01*
X82394762Y-67601247D01*
X82406065Y-67613743D01*
X82416987Y-67626645D01*
X82427527Y-67639953D01*
X82437686Y-67653666D01*
X82447463Y-67667785D01*
X82456859Y-67682310D01*
X82462115Y-67691054D01*
X82467227Y-67700041D01*
X82477013Y-67718741D01*
X82486218Y-67738410D01*
X82494842Y-67759048D01*
X82502884Y-67780655D01*
X82510345Y-67803230D01*
X82517225Y-67826775D01*
X82523523Y-67851289D01*
X82529337Y-67877184D01*
X82534375Y-67905259D01*
X82538638Y-67935514D01*
X82542126Y-67967950D01*
X82544839Y-68002565D01*
X82546777Y-68039360D01*
X82547939Y-68078335D01*
X82548327Y-68119490D01*
X82548327Y-68407842D01*
X81394138Y-68407842D01*
X81394138Y-68254366D01*
X81525909Y-68254366D01*
X82416550Y-68254366D01*
X82416550Y-68110189D01*
X82416308Y-68083919D01*
X82415581Y-68058593D01*
X82414370Y-68034212D01*
X82412675Y-68010776D01*
X82410495Y-67988285D01*
X82407830Y-67966738D01*
X82404681Y-67946136D01*
X82401048Y-67926479D01*
X82399114Y-67916920D01*
X82396991Y-67907427D01*
X82394681Y-67898001D01*
X82392183Y-67888642D01*
X82389498Y-67879349D01*
X82386624Y-67870123D01*
X82383563Y-67860964D01*
X82380314Y-67851871D01*
X82376877Y-67842845D01*
X82373253Y-67833885D01*
X82369440Y-67824992D01*
X82365440Y-67816166D01*
X82361253Y-67807406D01*
X82356877Y-67798712D01*
X82352314Y-67790086D01*
X82347563Y-67781526D01*
X82340723Y-67769984D01*
X82333574Y-67758805D01*
X82326116Y-67747990D01*
X82318349Y-67737537D01*
X82310274Y-67727449D01*
X82301890Y-67717723D01*
X82293196Y-67708361D01*
X82284194Y-67699362D01*
X82274884Y-67690727D01*
X82265264Y-67682455D01*
X82255335Y-67674546D01*
X82245098Y-67667000D01*
X82234552Y-67659818D01*
X82223697Y-67652999D01*
X82212533Y-67646544D01*
X82201060Y-67640452D01*
X82189267Y-67634726D01*
X82177140Y-67629369D01*
X82164680Y-67624382D01*
X82151888Y-67619765D01*
X82138762Y-67615516D01*
X82125303Y-67611638D01*
X82111511Y-67608128D01*
X82097386Y-67604988D01*
X82082927Y-67602218D01*
X82068136Y-67599817D01*
X82053012Y-67597785D01*
X82037554Y-67596123D01*
X82021764Y-67594830D01*
X82005640Y-67593906D01*
X81989184Y-67593352D01*
X81972394Y-67593167D01*
X81955710Y-67593337D01*
X81939378Y-67593846D01*
X81923397Y-67594693D01*
X81907767Y-67595880D01*
X81892488Y-67597406D01*
X81877560Y-67599272D01*
X81862984Y-67601476D01*
X81848759Y-67604019D01*
X81834885Y-67606902D01*
X81821363Y-67610124D01*
X81808191Y-67613684D01*
X81795371Y-67617584D01*
X81782902Y-67621823D01*
X81770784Y-67626401D01*
X81759018Y-67631319D01*
X81747602Y-67636575D01*
X81736499Y-67642074D01*
X81725668Y-67647911D01*
X81715110Y-67654089D01*
X81704824Y-67660605D01*
X81694811Y-67667460D01*
X81685070Y-67674655D01*
X81675602Y-67682188D01*
X81666406Y-67690061D01*
X81657483Y-67698273D01*
X81648832Y-67706823D01*
X81640453Y-67715713D01*
X81632348Y-67724943D01*
X81624514Y-67734511D01*
X81616953Y-67744418D01*
X81609665Y-67754664D01*
X81602649Y-67765250D01*
X81597235Y-67773928D01*
X81592039Y-67782715D01*
X81587061Y-67791612D01*
X81582302Y-67800617D01*
X81577760Y-67809731D01*
X81573436Y-67818954D01*
X81569330Y-67828286D01*
X81565442Y-67837727D01*
X81561772Y-67847277D01*
X81558320Y-67856936D01*
X81555086Y-67866704D01*
X81552070Y-67876581D01*
X81549273Y-67886567D01*
X81546693Y-67896662D01*
X81544331Y-67906866D01*
X81542187Y-67917179D01*
X81538373Y-67938168D01*
X81535066Y-67960054D01*
X81532268Y-67982836D01*
X81529979Y-68006514D01*
X81528199Y-68031088D01*
X81526927Y-68056558D01*
X81526164Y-68082925D01*
X81525909Y-68110189D01*
X81525909Y-68254366D01*
X81394138Y-68254366D01*
X81394138Y-68116389D01*
X81394477Y-68077632D01*
G36*
X81511957Y-66928868D02*
G01*
X82430503Y-66928868D01*
X82430503Y-66777714D01*
X82548325Y-66777714D01*
X82548325Y-67233500D01*
X82430503Y-67233500D01*
X82430503Y-67082347D01*
X81511957Y-67082347D01*
X81511957Y-67233500D01*
X81394135Y-67233500D01*
X81394135Y-66777714D01*
X81511957Y-66777714D01*
X81511957Y-66928868D01*
G37*
X81511957Y-66928868D02*
X82430503Y-66928868D01*
X82430503Y-66777714D01*
X82548325Y-66777714D01*
X82548325Y-67233500D01*
X82430503Y-67233500D01*
X82430503Y-67082347D01*
X81511957Y-67082347D01*
X81511957Y-67233500D01*
X81394135Y-67233500D01*
X81394135Y-66777714D01*
X81511957Y-66777714D01*
X81511957Y-66928868D01*
D11*
X68004500Y-71043000D03*
D12*
X68004500Y-71043000D03*
D11*
X82004500Y-71043000D03*
D12*
X82004500Y-71043000D03*
D11*
X68004500Y-58543000D03*
D12*
X68004500Y-58543000D03*
X82004500Y-58543000D03*
D11*
X82004500Y-58543000D03*
D13*
X79302500Y-63343000D03*
X70702500Y-63343000D03*
D14*
X79302500Y-59143000D03*
X70702500Y-59143000D03*
D15*
X75652500Y-70438000D03*
D16*
X75652500Y-71708000D03*
X74382500Y-70438000D03*
X74382500Y-71708000D03*
D17*
X76862500Y-57540000D03*
D18*
X75212500Y-57510000D03*
D19*
X75542500Y-57600000D03*
D20*
X74222500Y-57710000D03*
D21*
X74482500Y-59350000D03*
D22*
X78102500Y-57820000D03*
D23*
X73882500Y-57530000D03*
D24*
X75902500Y-59410000D03*
D25*
X72852500Y-57540000D03*
D26*
X73502500Y-68043000D03*
X75502500Y-68016000D03*
D27*
X73402500Y-66743000D03*
D26*
X74504500Y-68018000D03*
D27*
X76702500Y-66743000D03*
D26*
X72552500Y-65239000D03*
X77452500Y-65239000D03*
X69402500Y-67243000D03*
X72102500Y-67643000D03*
D27*
X75002500Y-66863000D03*
D26*
X78302500Y-64143000D03*
X70602500Y-65043000D03*
X79702500Y-65843000D03*
X70702500Y-69043000D03*
D28*
X75848946Y-68543019D02*
G75*
G03*
X76452500Y-68293000I-46J853619D01*
G01*
X76452486Y-68292986D02*
G75*
G03*
X76702500Y-67689446I-603586J603586D01*
G01*
X75400731Y-68542987D02*
G75*
G02*
X74767000Y-68280500I-31J896187D01*
G01*
X74524327Y-67442989D02*
G75*
G02*
X75216000Y-67729500I-27J-978211D01*
G01*
X74516000Y-67442993D02*
G75*
G02*
X73810111Y-67150611I0J998293D01*
G01*
X74524327Y-67443000D02*
X74516000Y-67443000D01*
X75216000Y-67729500D02*
X75502500Y-68016000D01*
X73402500Y-66743000D02*
X73810111Y-67150611D01*
X75848946Y-68543000D02*
X75400731Y-68543000D01*
X76702500Y-66743000D02*
X76702500Y-67689446D01*
X74504500Y-68018000D02*
X74767000Y-68280500D01*
D29*
X77452500Y-65239000D02*
X72552500Y-65239000D01*
G04 #@! TA.AperFunction,Conductor*
G36*
X75075571Y-67494651D02*
G01*
X75136016Y-67530634D01*
X75136231Y-67530765D01*
X75195718Y-67567937D01*
X75195784Y-67567979D01*
X75246897Y-67601087D01*
X75292149Y-67630775D01*
X75334117Y-67657729D01*
X75334179Y-67657767D01*
X75334188Y-67657772D01*
X75375287Y-67682579D01*
X75375300Y-67682586D01*
X75375407Y-67682651D01*
X75418622Y-67706243D01*
X75418758Y-67706308D01*
X75418763Y-67706311D01*
X75466239Y-67729149D01*
X75466258Y-67729157D01*
X75466365Y-67729209D01*
X75466489Y-67729261D01*
X75466500Y-67729266D01*
X75521118Y-67752198D01*
X75521242Y-67752250D01*
X75521355Y-67752292D01*
X75521366Y-67752296D01*
X75555530Y-67764889D01*
X75578361Y-67773305D01*
X75584938Y-67779382D01*
X75586012Y-67784054D01*
X75592064Y-68093637D01*
X75588799Y-68101976D01*
X75580137Y-68105564D01*
X75494681Y-68103894D01*
X75270829Y-68099517D01*
X75262626Y-68095930D01*
X75259958Y-68091516D01*
X75242821Y-68040038D01*
X75242773Y-68039891D01*
X75225765Y-67986463D01*
X75225735Y-67986372D01*
X75209627Y-67937976D01*
X75209622Y-67937961D01*
X75209580Y-67937836D01*
X75192431Y-67893327D01*
X75172445Y-67851992D01*
X75147768Y-67812935D01*
X75116544Y-67775262D01*
X75092071Y-67752296D01*
X75077144Y-67738289D01*
X75076917Y-67738076D01*
X75076674Y-67737893D01*
X75076667Y-67737887D01*
X75027239Y-67700639D01*
X75027032Y-67700483D01*
X74974607Y-67667594D01*
X74969421Y-67660296D01*
X74970706Y-67651812D01*
X75000137Y-67601087D01*
X75059466Y-67498832D01*
X75066582Y-67493396D01*
X75075571Y-67494651D01*
G37*
G04 #@! TD.AperFunction*
G04 #@! TA.AperFunction,Conductor*
G36*
X73606790Y-66669000D02*
G01*
X73614994Y-66672588D01*
X73617656Y-66676985D01*
X73628222Y-66708563D01*
X73628271Y-66708712D01*
X73639425Y-66743732D01*
X73649662Y-66775416D01*
X73660068Y-66804712D01*
X73671746Y-66832632D01*
X73685800Y-66860186D01*
X73685927Y-66860390D01*
X73703208Y-66888179D01*
X73703214Y-66888188D01*
X73703336Y-66888384D01*
X73725457Y-66918238D01*
X73753267Y-66950756D01*
X73779968Y-66978683D01*
X73783207Y-66987030D01*
X73779783Y-66995040D01*
X73654540Y-67120283D01*
X73646267Y-67123710D01*
X73638183Y-67120468D01*
X73610256Y-67093767D01*
X73577738Y-67065957D01*
X73547884Y-67043836D01*
X73547688Y-67043714D01*
X73547679Y-67043708D01*
X73519890Y-67026427D01*
X73519686Y-67026300D01*
X73492132Y-67012246D01*
X73491933Y-67012163D01*
X73491927Y-67012160D01*
X73464346Y-67000624D01*
X73464345Y-67000623D01*
X73464212Y-67000568D01*
X73434916Y-66990162D01*
X73434837Y-66990136D01*
X73434821Y-66990131D01*
X73403232Y-66979925D01*
X73368212Y-66968771D01*
X73368063Y-66968722D01*
X73336485Y-66958156D01*
X73329727Y-66952281D01*
X73328500Y-66947290D01*
X73323189Y-66675616D01*
X73326454Y-66667277D01*
X73335116Y-66663689D01*
X73606790Y-66669000D01*
G37*
G04 #@! TD.AperFunction*
G04 #@! TA.AperFunction,Conductor*
G36*
X76710933Y-66639269D02*
G01*
X76899281Y-66835128D01*
X76902546Y-66843467D01*
X76901319Y-66848458D01*
X76886463Y-66878256D01*
X76886392Y-66878397D01*
X76869514Y-66911049D01*
X76854349Y-66940692D01*
X76840991Y-66968766D01*
X76840937Y-66968899D01*
X76840928Y-66968918D01*
X76829590Y-66996561D01*
X76829506Y-66996766D01*
X76819960Y-67026188D01*
X76812421Y-67058527D01*
X76806953Y-67095278D01*
X76803624Y-67137937D01*
X76803620Y-67138101D01*
X76803620Y-67138107D01*
X76802757Y-67176563D01*
X76799145Y-67184757D01*
X76791060Y-67188000D01*
X76613940Y-67188000D01*
X76605667Y-67184573D01*
X76602243Y-67176563D01*
X76601379Y-67138107D01*
X76601379Y-67138101D01*
X76601375Y-67137937D01*
X76598046Y-67095278D01*
X76592578Y-67058527D01*
X76585039Y-67026188D01*
X76575493Y-66996766D01*
X76575409Y-66996561D01*
X76564071Y-66968918D01*
X76564062Y-66968899D01*
X76564008Y-66968766D01*
X76550650Y-66940692D01*
X76535485Y-66911049D01*
X76518579Y-66878342D01*
X76503681Y-66848458D01*
X76503057Y-66839525D01*
X76505719Y-66835128D01*
X76694067Y-66639269D01*
X76702271Y-66635681D01*
X76710933Y-66639269D01*
G37*
G04 #@! TD.AperFunction*
G04 #@! TA.AperFunction,Conductor*
G36*
X74736134Y-67934482D02*
G01*
X74744338Y-67938070D01*
X74747021Y-67942531D01*
X74762619Y-67990042D01*
X74762693Y-67990276D01*
X74778035Y-68040547D01*
X74792392Y-68086533D01*
X74807553Y-68128824D01*
X74825343Y-68168130D01*
X74825516Y-68168417D01*
X74825517Y-68168420D01*
X74847381Y-68204820D01*
X74847385Y-68204826D01*
X74847587Y-68205162D01*
X74876111Y-68240630D01*
X74912738Y-68275246D01*
X74913015Y-68275451D01*
X74913016Y-68275452D01*
X74959077Y-68309560D01*
X74959083Y-68309564D01*
X74959295Y-68309721D01*
X74959524Y-68309858D01*
X74959532Y-68309864D01*
X75007964Y-68338970D01*
X75013290Y-68346168D01*
X75012194Y-68354627D01*
X74927062Y-68509733D01*
X74920077Y-68515337D01*
X74911076Y-68514306D01*
X74853303Y-68481864D01*
X74853115Y-68481755D01*
X74795770Y-68448135D01*
X74795629Y-68448051D01*
X74746258Y-68418170D01*
X74746210Y-68418141D01*
X74718804Y-68401373D01*
X74702506Y-68391401D01*
X74661960Y-68367079D01*
X74622159Y-68344511D01*
X74611462Y-68338970D01*
X74604064Y-68335139D01*
X74580639Y-68323005D01*
X74580522Y-68322951D01*
X74580508Y-68322944D01*
X74535083Y-68301936D01*
X74535081Y-68301935D01*
X74534938Y-68301869D01*
X74534795Y-68301810D01*
X74534785Y-68301806D01*
X74509684Y-68291515D01*
X74482594Y-68280408D01*
X74461627Y-68272739D01*
X74428666Y-68260683D01*
X74422073Y-68254623D01*
X74420987Y-68249924D01*
X74420806Y-68240630D01*
X74414936Y-67940363D01*
X74418201Y-67932024D01*
X74426863Y-67928436D01*
X74736134Y-67934482D01*
G37*
G04 #@! TD.AperFunction*
G04 #@! TA.AperFunction,Conductor*
G36*
X79502781Y-60255902D02*
G01*
X79667168Y-60265611D01*
X79761299Y-60271171D01*
X79778281Y-60273341D01*
X79959033Y-60309045D01*
X80028110Y-60322690D01*
X80044646Y-60327142D01*
X80285488Y-60409916D01*
X80301268Y-60416570D01*
X80528653Y-60531233D01*
X80543384Y-60539965D01*
X80753127Y-60684407D01*
X80766539Y-60695056D01*
X80954750Y-60866598D01*
X80966593Y-60878967D01*
X81129815Y-61074456D01*
X81139873Y-61088318D01*
X81259206Y-61278801D01*
X81278421Y-61347148D01*
X81272747Y-61380086D01*
X81273500Y-61380292D01*
X81273006Y-61382099D01*
X81271748Y-61385887D01*
X81271646Y-61386477D01*
X81271235Y-61387678D01*
X81271309Y-61387702D01*
X81269917Y-61392041D01*
X81269846Y-61392119D01*
X81268659Y-61395151D01*
X81267690Y-61398985D01*
X81266536Y-61402582D01*
X81266624Y-61402608D01*
X81265313Y-61406984D01*
X81265243Y-61407064D01*
X81264115Y-61410117D01*
X81263219Y-61413973D01*
X81262083Y-61417766D01*
X81261443Y-61417574D01*
X81260878Y-61419042D01*
X81261426Y-61419189D01*
X81260243Y-61423599D01*
X81260176Y-61423680D01*
X81259137Y-61426765D01*
X81256046Y-61442071D01*
X81253190Y-61450282D01*
X81253407Y-61450331D01*
X81252393Y-61454783D01*
X81252328Y-61454868D01*
X81251407Y-61457991D01*
X81250772Y-61461902D01*
X81250769Y-61461913D01*
X81248702Y-61474633D01*
X81246225Y-61482681D01*
X81246620Y-61482757D01*
X81245755Y-61487243D01*
X81245693Y-61487330D01*
X81244877Y-61490482D01*
X81243208Y-61503486D01*
X81242557Y-61508561D01*
X81240383Y-61516499D01*
X81240931Y-61516588D01*
X81240202Y-61521081D01*
X81240142Y-61521170D01*
X81239420Y-61524344D01*
X81237566Y-61543175D01*
X81233926Y-61542817D01*
X81234307Y-61551563D01*
X81236267Y-61551829D01*
X81235653Y-61556359D01*
X81235596Y-61556449D01*
X81234957Y-61559641D01*
X81233622Y-61578173D01*
X81233101Y-61578135D01*
X81232839Y-61579556D01*
X81233514Y-61579605D01*
X81233516Y-61579626D01*
X81233383Y-61581482D01*
X81232501Y-61588611D01*
X81232545Y-61588616D01*
X81232038Y-61593146D01*
X81231984Y-61593237D01*
X81231420Y-61596443D01*
X81230539Y-61614560D01*
X81229073Y-61614489D01*
X81228825Y-61615406D01*
X81230493Y-61615487D01*
X81230241Y-61620672D01*
X81229607Y-61626943D01*
X81229718Y-61626953D01*
X81229306Y-61631501D01*
X81229253Y-61631593D01*
X81228756Y-61634810D01*
X81228268Y-61652461D01*
X81226357Y-61652408D01*
X81226298Y-61652657D01*
X81228262Y-61652711D01*
X81228023Y-61661351D01*
X81227946Y-61661349D01*
X81227748Y-61666891D01*
X81227420Y-61671462D01*
X81227368Y-61671557D01*
X81226931Y-61674783D01*
X81226896Y-61678754D01*
X81226896Y-61678757D01*
X81226623Y-61709900D01*
X81226520Y-61712769D01*
X81226238Y-61715007D01*
X81226238Y-61724233D01*
X81226190Y-61727712D01*
X81226076Y-61731839D01*
X81223851Y-61731778D01*
X81223693Y-61732587D01*
X81226238Y-61732587D01*
X81226238Y-61753466D01*
X81226233Y-61754567D01*
X81226065Y-61773771D01*
X81223153Y-61773746D01*
X81223020Y-61774503D01*
X81226238Y-61774503D01*
X81226238Y-61861549D01*
X81223044Y-61861549D01*
X81223952Y-61867503D01*
X81222577Y-61871086D01*
X81224330Y-61886233D01*
X81225403Y-61895510D01*
X81226238Y-61909992D01*
X81226238Y-62015027D01*
X81223044Y-62015027D01*
X81223952Y-62020981D01*
X81222577Y-62024564D01*
X81224330Y-62039711D01*
X81225403Y-62048988D01*
X81225757Y-62055121D01*
X81226238Y-62059095D01*
X81226238Y-62066695D01*
X81228051Y-62074077D01*
X81228825Y-62080470D01*
X81229444Y-62083909D01*
X81232059Y-62106514D01*
X81238259Y-62115637D01*
X81240891Y-62126352D01*
X81255947Y-62143430D01*
X81265637Y-62155924D01*
X81269856Y-62162132D01*
X81269859Y-62162135D01*
X81278429Y-62174745D01*
X81288150Y-62179958D01*
X81295447Y-62188234D01*
X81306520Y-62192484D01*
X81349246Y-62245554D01*
X81356803Y-62316147D01*
X81330580Y-62370389D01*
X81331931Y-62371434D01*
X81329137Y-62375046D01*
X81329043Y-62375095D01*
X81326893Y-62377540D01*
X81324669Y-62380821D01*
X81322978Y-62383007D01*
X81321127Y-62384928D01*
X81319715Y-62386866D01*
X81319622Y-62386918D01*
X81317543Y-62389424D01*
X81315417Y-62392762D01*
X81313791Y-62394994D01*
X81312008Y-62396953D01*
X81310643Y-62398943D01*
X81310553Y-62398997D01*
X81308547Y-62401561D01*
X81306522Y-62404953D01*
X81304955Y-62407237D01*
X81303232Y-62409243D01*
X81301919Y-62411281D01*
X81301828Y-62411339D01*
X81299896Y-62413959D01*
X81297957Y-62417428D01*
X81296463Y-62419747D01*
X81294803Y-62421794D01*
X81293551Y-62423865D01*
X81293463Y-62423925D01*
X81291607Y-62426600D01*
X81289776Y-62430108D01*
X81288343Y-62432479D01*
X81286782Y-62434520D01*
X81285559Y-62436679D01*
X81285473Y-62436741D01*
X81283694Y-62439467D01*
X81281961Y-62443030D01*
X81280595Y-62445442D01*
X81279121Y-62447489D01*
X81277943Y-62449713D01*
X81277858Y-62449778D01*
X81276156Y-62452554D01*
X81274525Y-62456165D01*
X81273232Y-62458605D01*
X81271856Y-62460632D01*
X81270704Y-62462961D01*
X81270622Y-62463028D01*
X81268998Y-62465850D01*
X81267468Y-62469505D01*
X81266215Y-62472040D01*
X81264953Y-62474016D01*
X81263853Y-62476407D01*
X81263772Y-62476476D01*
X81262228Y-62479342D01*
X81260802Y-62483034D01*
X81259619Y-62485604D01*
X81258447Y-62487556D01*
X81257378Y-62490056D01*
X81257299Y-62490128D01*
X81255834Y-62493035D01*
X81254507Y-62496772D01*
X81253446Y-62499255D01*
X81252507Y-62500917D01*
X81251390Y-62503731D01*
X81251314Y-62503804D01*
X81249925Y-62506749D01*
X81248699Y-62510511D01*
X81247714Y-62512992D01*
X81246986Y-62514364D01*
X81245847Y-62517457D01*
X81245773Y-62517531D01*
X81244458Y-62520510D01*
X81243328Y-62524294D01*
X81242391Y-62526837D01*
X81241800Y-62528019D01*
X81240666Y-62531342D01*
X81240593Y-62531419D01*
X81239350Y-62534428D01*
X81238308Y-62538252D01*
X81237258Y-62541328D01*
X81236192Y-62544261D01*
X81235838Y-62545383D01*
X81235768Y-62545461D01*
X81234596Y-62548499D01*
X81233646Y-62552338D01*
X81232457Y-62556108D01*
X81232392Y-62556087D01*
X81232194Y-62556701D01*
X81231360Y-62559571D01*
X81231291Y-62559651D01*
X81230188Y-62562714D01*
X81229325Y-62566575D01*
X81228218Y-62570384D01*
X81228160Y-62570367D01*
X81227211Y-62573927D01*
X81227142Y-62574011D01*
X81226107Y-62577098D01*
X81225326Y-62580997D01*
X81224307Y-62584821D01*
X81224280Y-62584814D01*
X81223404Y-62588410D01*
X81223337Y-62588495D01*
X81222369Y-62591603D01*
X81221673Y-62595514D01*
X81220736Y-62599361D01*
X81220730Y-62599360D01*
X81219911Y-62603059D01*
X81219848Y-62603143D01*
X81218946Y-62606272D01*
X81218335Y-62610184D01*
X81217635Y-62613346D01*
X81217648Y-62613349D01*
X81216753Y-62617822D01*
X81216692Y-62617906D01*
X81215854Y-62621052D01*
X81215324Y-62624959D01*
X81214667Y-62628243D01*
X81214709Y-62628251D01*
X81213904Y-62632734D01*
X81213845Y-62632819D01*
X81213070Y-62635981D01*
X81212618Y-62639900D01*
X81211918Y-62643797D01*
X81211192Y-62643667D01*
X81210920Y-62644712D01*
X81211497Y-62644799D01*
X81210819Y-62649313D01*
X81210761Y-62649401D01*
X81210076Y-62652584D01*
X81209735Y-62656523D01*
X81209733Y-62656537D01*
X81208843Y-62666818D01*
X81206951Y-62675174D01*
X81207247Y-62675208D01*
X81206734Y-62679728D01*
X81206680Y-62679818D01*
X81206111Y-62683024D01*
X81205913Y-62686967D01*
X81205912Y-62686974D01*
X81205785Y-62689506D01*
X81205455Y-62696084D01*
X81205370Y-62697769D01*
X81203790Y-62706080D01*
X81204173Y-62706110D01*
X81203811Y-62710679D01*
X81203759Y-62710772D01*
X81203298Y-62713995D01*
X81203234Y-62717962D01*
X81203047Y-62729451D01*
X81201757Y-62737754D01*
X81202176Y-62737773D01*
X81201965Y-62742343D01*
X81201917Y-62742437D01*
X81201563Y-62745673D01*
X81201629Y-62749625D01*
X81201629Y-62749630D01*
X81201836Y-62761938D01*
X81200814Y-62770404D01*
X81201149Y-62770408D01*
X81201099Y-62774987D01*
X81201053Y-62775085D01*
X81200813Y-62778331D01*
X81201631Y-62794027D01*
X81200908Y-62802639D01*
X81201152Y-62802632D01*
X81201274Y-62807189D01*
X81201233Y-62807286D01*
X81201116Y-62810540D01*
X81202472Y-62825640D01*
X81202077Y-62834429D01*
X81202230Y-62834419D01*
X81202534Y-62838983D01*
X81202496Y-62839084D01*
X81202508Y-62842340D01*
X81203021Y-62846273D01*
X81203021Y-62846280D01*
X81204406Y-62856909D01*
X81204374Y-62865850D01*
X81204432Y-62865844D01*
X81204929Y-62870376D01*
X81204895Y-62870477D01*
X81205046Y-62873729D01*
X81205723Y-62877625D01*
X81205725Y-62877643D01*
X81207485Y-62887771D01*
X81207864Y-62897189D01*
X81208515Y-62901374D01*
X81208486Y-62901476D01*
X81208783Y-62904718D01*
X81211476Y-62916922D01*
X81212163Y-62925442D01*
X81212476Y-62925382D01*
X81213339Y-62929870D01*
X81213314Y-62929973D01*
X81213727Y-62933203D01*
X81214719Y-62937041D01*
X81215375Y-62940452D01*
X81215988Y-62944002D01*
X81216197Y-62944959D01*
X81216174Y-62945063D01*
X81216666Y-62948281D01*
X81217752Y-62952095D01*
X81218443Y-62955264D01*
X81218585Y-62956645D01*
X81219387Y-62959927D01*
X81219367Y-62960032D01*
X81219940Y-62963237D01*
X81221122Y-62967023D01*
X81221879Y-62970119D01*
X81222095Y-62971782D01*
X81222921Y-62974818D01*
X81222904Y-62974922D01*
X81223560Y-62978111D01*
X81224838Y-62981859D01*
X81225623Y-62984744D01*
X81225883Y-62986404D01*
X81226793Y-62989435D01*
X81226778Y-62989541D01*
X81227516Y-62992712D01*
X81228891Y-62996428D01*
X81229685Y-62999075D01*
X81229989Y-63000737D01*
X81230990Y-63003788D01*
X81230978Y-63003895D01*
X81231796Y-63007046D01*
X81233269Y-63010737D01*
X81234111Y-63013302D01*
X81234490Y-63015113D01*
X81235521Y-63018002D01*
X81235512Y-63018109D01*
X81236412Y-63021238D01*
X81237975Y-63024877D01*
X81238882Y-63027417D01*
X81239358Y-63029420D01*
X81240399Y-63032109D01*
X81240393Y-63032214D01*
X81241376Y-63035317D01*
X81243032Y-63038905D01*
X81243975Y-63041341D01*
X81244549Y-63043498D01*
X81245627Y-63046072D01*
X81245623Y-63046178D01*
X81246689Y-63049254D01*
X81248444Y-63052802D01*
X81249429Y-63055155D01*
X81250089Y-63057391D01*
X81251201Y-63059854D01*
X81251200Y-63059961D01*
X81252350Y-63063007D01*
X81254209Y-63066520D01*
X81255234Y-63068792D01*
X81256017Y-63071200D01*
X81257141Y-63073516D01*
X81257143Y-63073623D01*
X81258377Y-63076636D01*
X81260329Y-63080088D01*
X81261426Y-63082350D01*
X81262311Y-63084831D01*
X81263438Y-63086995D01*
X81263443Y-63087099D01*
X81264763Y-63090076D01*
X81266803Y-63093459D01*
X81267931Y-63095624D01*
X81268920Y-63098167D01*
X81270095Y-63100275D01*
X81270103Y-63100380D01*
X81271506Y-63103317D01*
X81273645Y-63106645D01*
X81274839Y-63108787D01*
X81275955Y-63111427D01*
X81277123Y-63113387D01*
X81277135Y-63113493D01*
X81278623Y-63116389D01*
X81280865Y-63119664D01*
X81282075Y-63121694D01*
X81283286Y-63124341D01*
X81284504Y-63126256D01*
X81284519Y-63126364D01*
X81286090Y-63129215D01*
X81288426Y-63132423D01*
X81289715Y-63134450D01*
X81291059Y-63137177D01*
X81292266Y-63138957D01*
X81292284Y-63139061D01*
X81293939Y-63141865D01*
X81296364Y-63144996D01*
X81297682Y-63146939D01*
X81299106Y-63149623D01*
X81300371Y-63151375D01*
X81300392Y-63151479D01*
X81302129Y-63154233D01*
X81304647Y-63157294D01*
X81306037Y-63159219D01*
X81307587Y-63161944D01*
X81308850Y-63163587D01*
X81308873Y-63163688D01*
X81310691Y-63166388D01*
X81313287Y-63169359D01*
X81314719Y-63171222D01*
X81316346Y-63173892D01*
X81317669Y-63175512D01*
X81317696Y-63175614D01*
X81319594Y-63178260D01*
X81322289Y-63181166D01*
X81323755Y-63182960D01*
X81325473Y-63185601D01*
X81326843Y-63187180D01*
X81326873Y-63187282D01*
X81328848Y-63189870D01*
X81331625Y-63192691D01*
X81333101Y-63194392D01*
X81334810Y-63196857D01*
X81336309Y-63198486D01*
X81336342Y-63198588D01*
X81338392Y-63201118D01*
X81341256Y-63203863D01*
X81343934Y-63206773D01*
X81343318Y-63207340D01*
X81343642Y-63207750D01*
X81344015Y-63207385D01*
X81347211Y-63210651D01*
X81347246Y-63210749D01*
X81349372Y-63213214D01*
X81352306Y-63215859D01*
X81355077Y-63218690D01*
X81354479Y-63219275D01*
X81354803Y-63219660D01*
X81355162Y-63219287D01*
X81358460Y-63222459D01*
X81358500Y-63222560D01*
X81360700Y-63224960D01*
X81363727Y-63227525D01*
X81366593Y-63230281D01*
X81366017Y-63230880D01*
X81366319Y-63231220D01*
X81366658Y-63230845D01*
X81370060Y-63233920D01*
X81370103Y-63234020D01*
X81372376Y-63236351D01*
X81375489Y-63238828D01*
X81378422Y-63241479D01*
X81377881Y-63242078D01*
X81378225Y-63242441D01*
X81378534Y-63242078D01*
X81382010Y-63245030D01*
X81382055Y-63245125D01*
X81384400Y-63247384D01*
X81387572Y-63249752D01*
X81390583Y-63252308D01*
X81390038Y-63252950D01*
X81390397Y-63253304D01*
X81390716Y-63252904D01*
X81394292Y-63255756D01*
X81394341Y-63255852D01*
X81396754Y-63258038D01*
X81400009Y-63260315D01*
X81403097Y-63262777D01*
X81402556Y-63263455D01*
X81402902Y-63263777D01*
X81403227Y-63263343D01*
X81406885Y-63266081D01*
X81406936Y-63266174D01*
X81409415Y-63268285D01*
X81412722Y-63270450D01*
X81415906Y-63272833D01*
X81415366Y-63273554D01*
X81415718Y-63273860D01*
X81416049Y-63273388D01*
X81419798Y-63276019D01*
X81419852Y-63276111D01*
X81422394Y-63278145D01*
X81425775Y-63280213D01*
X81429024Y-63282493D01*
X81428532Y-63283195D01*
X81428899Y-63283496D01*
X81429197Y-63283043D01*
X81433010Y-63285549D01*
X81433066Y-63285638D01*
X81435669Y-63287593D01*
X81439102Y-63289552D01*
X81442418Y-63291731D01*
X81441953Y-63292439D01*
X81442334Y-63292734D01*
X81442618Y-63292272D01*
X81446514Y-63294667D01*
X81446573Y-63294755D01*
X81449234Y-63296631D01*
X81452727Y-63298486D01*
X81456115Y-63300569D01*
X81455704Y-63301237D01*
X81456080Y-63301510D01*
X81456325Y-63301083D01*
X81460286Y-63303357D01*
X81460349Y-63303445D01*
X81463065Y-63305240D01*
X81466627Y-63306997D01*
X81470053Y-63308964D01*
X81469660Y-63309648D01*
X81470060Y-63309921D01*
X81470302Y-63309470D01*
X81474324Y-63311624D01*
X81474388Y-63311708D01*
X81477156Y-63313422D01*
X81480752Y-63315066D01*
X81484254Y-63316941D01*
X81483864Y-63317670D01*
X81484251Y-63317917D01*
X81484504Y-63317409D01*
X81488596Y-63319449D01*
X81488664Y-63319533D01*
X81491481Y-63321166D01*
X81495142Y-63322712D01*
X81498674Y-63324473D01*
X81498292Y-63325240D01*
X81498705Y-63325487D01*
X81498963Y-63324929D01*
X81503114Y-63326852D01*
X81503184Y-63326933D01*
X81506046Y-63328484D01*
X81509742Y-63329921D01*
X81513337Y-63331586D01*
X81513005Y-63332303D01*
X81513449Y-63332553D01*
X81513673Y-63332030D01*
X81517874Y-63333832D01*
X81517946Y-63333912D01*
X81520851Y-63335381D01*
X81524584Y-63336712D01*
X81528233Y-63338277D01*
X81527912Y-63339025D01*
X81528361Y-63339260D01*
X81528588Y-63338687D01*
X81532824Y-63340365D01*
X81532896Y-63340441D01*
X81535842Y-63341828D01*
X81539603Y-63343052D01*
X81543273Y-63344506D01*
X81543021Y-63345142D01*
X81544535Y-63345877D01*
X81544664Y-63345515D01*
X81548966Y-63347054D01*
X81549042Y-63347128D01*
X81552033Y-63348415D01*
X81555840Y-63349512D01*
X81559572Y-63350847D01*
X81559530Y-63350965D01*
X81559658Y-63351009D01*
X81559664Y-63350990D01*
X81564001Y-63352424D01*
X81564079Y-63352496D01*
X81567100Y-63353710D01*
X81570928Y-63354713D01*
X81571813Y-63355006D01*
X81630214Y-63395377D01*
X81657432Y-63460157D01*
X81660255Y-63484555D01*
X81661090Y-63499037D01*
X81661090Y-63934282D01*
X81657897Y-63934282D01*
X81658805Y-63940234D01*
X81657429Y-63943819D01*
X81659181Y-63958965D01*
X81658924Y-63961004D01*
X81630546Y-64026082D01*
X81571489Y-64065487D01*
X81533917Y-64071219D01*
X81425345Y-64071219D01*
X81425345Y-64068025D01*
X81419391Y-64068933D01*
X81415808Y-64067558D01*
X81391384Y-64070384D01*
X81385251Y-64070738D01*
X81381277Y-64071219D01*
X81373677Y-64071219D01*
X81366295Y-64073032D01*
X81359902Y-64073806D01*
X81356463Y-64074425D01*
X81333858Y-64077040D01*
X81324735Y-64083240D01*
X81314020Y-64085872D01*
X81296942Y-64100928D01*
X81284448Y-64110618D01*
X81278240Y-64114837D01*
X81278237Y-64114840D01*
X81265627Y-64123410D01*
X81260414Y-64133131D01*
X81252138Y-64140428D01*
X81246674Y-64154662D01*
X81243984Y-64161669D01*
X81237397Y-64176056D01*
X81232114Y-64185908D01*
X81232112Y-64185914D01*
X81226643Y-64196114D01*
X81226235Y-64199344D01*
X81226235Y-64207909D01*
X81225093Y-64207909D01*
X81223705Y-64212259D01*
X81223950Y-64213863D01*
X81222574Y-64217446D01*
X81224327Y-64232593D01*
X81225400Y-64241870D01*
X81226235Y-64256352D01*
X81226235Y-64361388D01*
X81223041Y-64361388D01*
X81223949Y-64367342D01*
X81222574Y-64370925D01*
X81224327Y-64386072D01*
X81225400Y-64395349D01*
X81225754Y-64401482D01*
X81226235Y-64405456D01*
X81226235Y-64413056D01*
X81228048Y-64420438D01*
X81228822Y-64426831D01*
X81229441Y-64430270D01*
X81232056Y-64452875D01*
X81238256Y-64461998D01*
X81240888Y-64472713D01*
X81255944Y-64489791D01*
X81265634Y-64502285D01*
X81269853Y-64508493D01*
X81269856Y-64508496D01*
X81278426Y-64521106D01*
X81288147Y-64526319D01*
X81295444Y-64534595D01*
X81309678Y-64540059D01*
X81316685Y-64542749D01*
X81331072Y-64549336D01*
X81340924Y-64554619D01*
X81340930Y-64554621D01*
X81351130Y-64560090D01*
X81354360Y-64560498D01*
X81362925Y-64560498D01*
X81362925Y-64561640D01*
X81367275Y-64563028D01*
X81368879Y-64562783D01*
X81372462Y-64564159D01*
X81396887Y-64561333D01*
X81411368Y-64560498D01*
X81417099Y-64560498D01*
X81485220Y-64580500D01*
X81531713Y-64634156D01*
X81538512Y-64685396D01*
X81541356Y-64685179D01*
X81543678Y-64715550D01*
X81544045Y-64725155D01*
X81544045Y-64776091D01*
X81543984Y-64777540D01*
X81539630Y-64790470D01*
X81542013Y-64805532D01*
X81542604Y-64809270D01*
X81533492Y-64879679D01*
X81487760Y-64933985D01*
X81421900Y-64954334D01*
X81415808Y-64951996D01*
X81391384Y-64954822D01*
X81385251Y-64955176D01*
X81381277Y-64955657D01*
X81373677Y-64955657D01*
X81366295Y-64957470D01*
X81359902Y-64958244D01*
X81356463Y-64958863D01*
X81333858Y-64961478D01*
X81324735Y-64967678D01*
X81314020Y-64970310D01*
X81296942Y-64985366D01*
X81284448Y-64995056D01*
X81278240Y-64999275D01*
X81278237Y-64999278D01*
X81265627Y-65007848D01*
X81260414Y-65017569D01*
X81252138Y-65024866D01*
X81246674Y-65039100D01*
X81243984Y-65046107D01*
X81237397Y-65060494D01*
X81232114Y-65070346D01*
X81232112Y-65070352D01*
X81226643Y-65080552D01*
X81226235Y-65083782D01*
X81226235Y-65092347D01*
X81225093Y-65092347D01*
X81223705Y-65096697D01*
X81223950Y-65098301D01*
X81222574Y-65101884D01*
X81224327Y-65117031D01*
X81225400Y-65126308D01*
X81226235Y-65140790D01*
X81226235Y-65235751D01*
X81223041Y-65235751D01*
X81223949Y-65241705D01*
X81222574Y-65245288D01*
X81224327Y-65260435D01*
X81225400Y-65269712D01*
X81225754Y-65275845D01*
X81226235Y-65279819D01*
X81226235Y-65287419D01*
X81228048Y-65294801D01*
X81228822Y-65301194D01*
X81229441Y-65304633D01*
X81232056Y-65327238D01*
X81238256Y-65336361D01*
X81240888Y-65347076D01*
X81255944Y-65364154D01*
X81265634Y-65376648D01*
X81269853Y-65382856D01*
X81269856Y-65382859D01*
X81278426Y-65395469D01*
X81288147Y-65400682D01*
X81295444Y-65408958D01*
X81309679Y-65414422D01*
X81318922Y-65420846D01*
X81363446Y-65476146D01*
X81371004Y-65546739D01*
X81346750Y-65601314D01*
X81344305Y-65604481D01*
X81344212Y-65604530D01*
X81342065Y-65606977D01*
X81339854Y-65610246D01*
X81337429Y-65613387D01*
X81336935Y-65613005D01*
X81335663Y-65614412D01*
X81336145Y-65614763D01*
X81333461Y-65618452D01*
X81333368Y-65618504D01*
X81331291Y-65621011D01*
X81329166Y-65624353D01*
X81326838Y-65627553D01*
X81326331Y-65627184D01*
X81325097Y-65628630D01*
X81325589Y-65628967D01*
X81323007Y-65632736D01*
X81322916Y-65632791D01*
X81320911Y-65635356D01*
X81318881Y-65638759D01*
X81316648Y-65642019D01*
X81316126Y-65641661D01*
X81314961Y-65643107D01*
X81315475Y-65643438D01*
X81312995Y-65647286D01*
X81312906Y-65647343D01*
X81310974Y-65649963D01*
X81309042Y-65653420D01*
X81306896Y-65656750D01*
X81306367Y-65656409D01*
X81305207Y-65657934D01*
X81305728Y-65658249D01*
X81303366Y-65662151D01*
X81303280Y-65662210D01*
X81301423Y-65664884D01*
X81299595Y-65668383D01*
X81297540Y-65671779D01*
X81297009Y-65671457D01*
X81295909Y-65672993D01*
X81296443Y-65673296D01*
X81294188Y-65677268D01*
X81294101Y-65677331D01*
X81292319Y-65680056D01*
X81290579Y-65683626D01*
X81288631Y-65687058D01*
X81288086Y-65686749D01*
X81287020Y-65688327D01*
X81287574Y-65688622D01*
X81285426Y-65692664D01*
X81285340Y-65692729D01*
X81283634Y-65695502D01*
X81281995Y-65699118D01*
X81280137Y-65702612D01*
X81279579Y-65702316D01*
X81278561Y-65703914D01*
X81279144Y-65704204D01*
X81277114Y-65708288D01*
X81277032Y-65708355D01*
X81275403Y-65711174D01*
X81273869Y-65714820D01*
X81272104Y-65718371D01*
X81272044Y-65718341D01*
X81271360Y-65719762D01*
X81269447Y-65723866D01*
X81269367Y-65723934D01*
X81267809Y-65726792D01*
X81266365Y-65730479D01*
X81264691Y-65734070D01*
X81264141Y-65733814D01*
X81263146Y-65735575D01*
X81263721Y-65735824D01*
X81261907Y-65740015D01*
X81261828Y-65740086D01*
X81260350Y-65742986D01*
X81259010Y-65746707D01*
X81257432Y-65750353D01*
X81256887Y-65750117D01*
X81255933Y-65751922D01*
X81256522Y-65752158D01*
X81254825Y-65756394D01*
X81254748Y-65756467D01*
X81253350Y-65759407D01*
X81252111Y-65763168D01*
X81250639Y-65766842D01*
X81250093Y-65766623D01*
X81249161Y-65768509D01*
X81249770Y-65768734D01*
X81248189Y-65773013D01*
X81248115Y-65773087D01*
X81246797Y-65776064D01*
X81245661Y-65779851D01*
X81244293Y-65783554D01*
X81243737Y-65783349D01*
X81242845Y-65785279D01*
X81243494Y-65785500D01*
X81242026Y-65789818D01*
X81241954Y-65789894D01*
X81240715Y-65792904D01*
X81239680Y-65796719D01*
X81238406Y-65800466D01*
X81237838Y-65800273D01*
X81236976Y-65802261D01*
X81237667Y-65802476D01*
X81236308Y-65806840D01*
X81236238Y-65806918D01*
X81235077Y-65809959D01*
X81234141Y-65813799D01*
X81232961Y-65817590D01*
X81232923Y-65817578D01*
X81231964Y-65820802D01*
X81231042Y-65824052D01*
X81230974Y-65824132D01*
X81229891Y-65827202D01*
X81229052Y-65831070D01*
X81227972Y-65834879D01*
X81227943Y-65834871D01*
X81227361Y-65837024D01*
X81227364Y-65837025D01*
X81226228Y-65841445D01*
X81226161Y-65841528D01*
X81225154Y-65844625D01*
X81224411Y-65848516D01*
X81223425Y-65852353D01*
X81223409Y-65852349D01*
X81222868Y-65854566D01*
X81222885Y-65854570D01*
X81221859Y-65859009D01*
X81221794Y-65859093D01*
X81220863Y-65862213D01*
X81220215Y-65866116D01*
X81219324Y-65869971D01*
X81219319Y-65869970D01*
X81218814Y-65872276D01*
X81218845Y-65872282D01*
X81217921Y-65876763D01*
X81217857Y-65876850D01*
X81217000Y-65879991D01*
X81216444Y-65883923D01*
X81215802Y-65887033D01*
X81215192Y-65890175D01*
X81215240Y-65890184D01*
X81214425Y-65894661D01*
X81214364Y-65894748D01*
X81213581Y-65897908D01*
X81213117Y-65901838D01*
X81212760Y-65903800D01*
X81212007Y-65908212D01*
X81212069Y-65908222D01*
X81211351Y-65912738D01*
X81211292Y-65912827D01*
X81210580Y-65916004D01*
X81210205Y-65919950D01*
X81210114Y-65920524D01*
X81209246Y-65926407D01*
X81209327Y-65926418D01*
X81208709Y-65930949D01*
X81208652Y-65931039D01*
X81208010Y-65934231D01*
X81207723Y-65938176D01*
X81207711Y-65938339D01*
X81206904Y-65944774D01*
X81207000Y-65944785D01*
X81206480Y-65949320D01*
X81206425Y-65949412D01*
X81205852Y-65952617D01*
X81205649Y-65956576D01*
X81205648Y-65956586D01*
X81205624Y-65957050D01*
X81204978Y-65963268D01*
X81205092Y-65963279D01*
X81204667Y-65967831D01*
X81204614Y-65967922D01*
X81204108Y-65971138D01*
X81203988Y-65975091D01*
X81203965Y-65975849D01*
X81203457Y-65981949D01*
X81203585Y-65981958D01*
X81203254Y-65986507D01*
X81203202Y-65986601D01*
X81202762Y-65989827D01*
X81202723Y-65993788D01*
X81202713Y-65994780D01*
X81202333Y-66000824D01*
X81202466Y-66000831D01*
X81202226Y-66005398D01*
X81202176Y-66005493D01*
X81201801Y-66008727D01*
X81201842Y-66012690D01*
X81201842Y-66012693D01*
X81201873Y-66015655D01*
X81201686Y-66015657D01*
X81201657Y-66016218D01*
X81201493Y-66016646D01*
X81198576Y-66016492D01*
X81199445Y-66021980D01*
X81198552Y-66024306D01*
X81200416Y-66040413D01*
X81201072Y-66048179D01*
X81201168Y-66049992D01*
X81201177Y-66056671D01*
X81201257Y-66056670D01*
X81201314Y-66061239D01*
X81201271Y-66061336D01*
X81201107Y-66064587D01*
X81201405Y-66068540D01*
X81201419Y-66069658D01*
X81201549Y-66075148D01*
X81201614Y-66075146D01*
X81201774Y-66079700D01*
X81201734Y-66079796D01*
X81201644Y-66083050D01*
X81202029Y-66086975D01*
X81202104Y-66089114D01*
X81202309Y-66093526D01*
X81202364Y-66093523D01*
X81202628Y-66098074D01*
X81202589Y-66098173D01*
X81202573Y-66101429D01*
X81203049Y-66105352D01*
X81203226Y-66108410D01*
X81203464Y-66111812D01*
X81203507Y-66111808D01*
X81203878Y-66116364D01*
X81203842Y-66116464D01*
X81203902Y-66119719D01*
X81204471Y-66123643D01*
X81204789Y-66127542D01*
X81205020Y-66130017D01*
X81205055Y-66130013D01*
X81205533Y-66134551D01*
X81205499Y-66134652D01*
X81205636Y-66137905D01*
X81206297Y-66141807D01*
X81206712Y-66145750D01*
X81206704Y-66145751D01*
X81206986Y-66148149D01*
X81207004Y-66148147D01*
X81207592Y-66152671D01*
X81207560Y-66152773D01*
X81207776Y-66156022D01*
X81208533Y-66159915D01*
X81209042Y-66163834D01*
X81209025Y-66163836D01*
X81209356Y-66166162D01*
X81209367Y-66166160D01*
X81210067Y-66170680D01*
X81210038Y-66170782D01*
X81210333Y-66174025D01*
X81211183Y-66177889D01*
X81211791Y-66181816D01*
X81211769Y-66181819D01*
X81212148Y-66184076D01*
X81212150Y-66184076D01*
X81212960Y-66188567D01*
X81212934Y-66188670D01*
X81213310Y-66191904D01*
X81214258Y-66195754D01*
X81214959Y-66199640D01*
X81214927Y-66199646D01*
X81215484Y-66202526D01*
X81216275Y-66206356D01*
X81216251Y-66206461D01*
X81216708Y-66209684D01*
X81217751Y-66213505D01*
X81218553Y-66217387D01*
X81218048Y-66217491D01*
X81218348Y-66219727D01*
X81218980Y-66219580D01*
X81220016Y-66224023D01*
X81219995Y-66224128D01*
X81220534Y-66227339D01*
X81221673Y-66231129D01*
X81222576Y-66234999D01*
X81222046Y-66235123D01*
X81222387Y-66237321D01*
X81223037Y-66237152D01*
X81224188Y-66241568D01*
X81224170Y-66241672D01*
X81224792Y-66244868D01*
X81226028Y-66248626D01*
X81227027Y-66252457D01*
X81226461Y-66252605D01*
X81226844Y-66254769D01*
X81227525Y-66254572D01*
X81228794Y-66258969D01*
X81228778Y-66259075D01*
X81229482Y-66262253D01*
X81230819Y-66265989D01*
X81231915Y-66269786D01*
X81231359Y-66269947D01*
X81231795Y-66272073D01*
X81232451Y-66271865D01*
X81233835Y-66276230D01*
X81233822Y-66276337D01*
X81234609Y-66279496D01*
X81236046Y-66283200D01*
X81237242Y-66286972D01*
X81236731Y-66287134D01*
X81237320Y-66289649D01*
X81237866Y-66289458D01*
X81239379Y-66293788D01*
X81239369Y-66293893D01*
X81240247Y-66297027D01*
X81241786Y-66300677D01*
X81243093Y-66304418D01*
X81242521Y-66304618D01*
X81243041Y-66306592D01*
X81243674Y-66306352D01*
X81245294Y-66310620D01*
X81245287Y-66310724D01*
X81246249Y-66313834D01*
X81247879Y-66317429D01*
X81249289Y-66321144D01*
X81248729Y-66321357D01*
X81249292Y-66323280D01*
X81249894Y-66323033D01*
X81251625Y-66327247D01*
X81251621Y-66327350D01*
X81252667Y-66330433D01*
X81254393Y-66333983D01*
X81255894Y-66337637D01*
X81255335Y-66337867D01*
X81255946Y-66339760D01*
X81256529Y-66339502D01*
X81258376Y-66343672D01*
X81258375Y-66343778D01*
X81259504Y-66346831D01*
X81261330Y-66350341D01*
X81262933Y-66353959D01*
X81262366Y-66354210D01*
X81263018Y-66356059D01*
X81263590Y-66355787D01*
X81265555Y-66359913D01*
X81265557Y-66360020D01*
X81266770Y-66363042D01*
X81268699Y-66366512D01*
X81270398Y-66370078D01*
X81269831Y-66370348D01*
X81270517Y-66372136D01*
X81271077Y-66371850D01*
X81273157Y-66375922D01*
X81273162Y-66376028D01*
X81274458Y-66379014D01*
X81276478Y-66382421D01*
X81278282Y-66385951D01*
X81277723Y-66386237D01*
X81278448Y-66387977D01*
X81278989Y-66387681D01*
X81281179Y-66391686D01*
X81281187Y-66391791D01*
X81282567Y-66394740D01*
X81284680Y-66398086D01*
X81286578Y-66401556D01*
X81286029Y-66401856D01*
X81286813Y-66403598D01*
X81287332Y-66403295D01*
X81289634Y-66407234D01*
X81289644Y-66407339D01*
X81291107Y-66410248D01*
X81293313Y-66413531D01*
X81295311Y-66416951D01*
X81294769Y-66417268D01*
X81295589Y-66418959D01*
X81296094Y-66418644D01*
X81298510Y-66422520D01*
X81298523Y-66422625D01*
X81300068Y-66425491D01*
X81302368Y-66428713D01*
X81304461Y-66432071D01*
X81303923Y-66432406D01*
X81304782Y-66434057D01*
X81305280Y-66433727D01*
X81307803Y-66437531D01*
X81307820Y-66437636D01*
X81309446Y-66440457D01*
X81311839Y-66443614D01*
X81314025Y-66446910D01*
X81313499Y-66447259D01*
X81314401Y-66448877D01*
X81314883Y-66448537D01*
X81317519Y-66452276D01*
X81317539Y-66452381D01*
X81319244Y-66455154D01*
X81321727Y-66458243D01*
X81324014Y-66461486D01*
X81323489Y-66461856D01*
X81326791Y-66467408D01*
X81327669Y-66466833D01*
X81328292Y-66467784D01*
X81329619Y-66472163D01*
X81338307Y-66486767D01*
X81338526Y-66487291D01*
X81334691Y-66488894D01*
X81348889Y-66535727D01*
X81329484Y-66604020D01*
X81306222Y-66631342D01*
X81296946Y-66639519D01*
X81284448Y-66649213D01*
X81278240Y-66653432D01*
X81278237Y-66653435D01*
X81265627Y-66662005D01*
X81260414Y-66671726D01*
X81252138Y-66679023D01*
X81246674Y-66693257D01*
X81243984Y-66700264D01*
X81237397Y-66714651D01*
X81232114Y-66724503D01*
X81232112Y-66724509D01*
X81226643Y-66734709D01*
X81226235Y-66737939D01*
X81226235Y-66746504D01*
X81225093Y-66746504D01*
X81223705Y-66750854D01*
X81223950Y-66752458D01*
X81222574Y-66756041D01*
X81224327Y-66771188D01*
X81225400Y-66780465D01*
X81226235Y-66794947D01*
X81226235Y-67202290D01*
X81223041Y-67202290D01*
X81223949Y-67208244D01*
X81222574Y-67211827D01*
X81225209Y-67234597D01*
X81225400Y-67236251D01*
X81225754Y-67242384D01*
X81226235Y-67246358D01*
X81226235Y-67253958D01*
X81228048Y-67261340D01*
X81228822Y-67267733D01*
X81229441Y-67271172D01*
X81232056Y-67293777D01*
X81238256Y-67302900D01*
X81240888Y-67313615D01*
X81255944Y-67330693D01*
X81265634Y-67343187D01*
X81269853Y-67349395D01*
X81269856Y-67349398D01*
X81278426Y-67362008D01*
X81288147Y-67367221D01*
X81295444Y-67375497D01*
X81309677Y-67380961D01*
X81322196Y-67389661D01*
X81320487Y-67392120D01*
X81358453Y-67421111D01*
X81382628Y-67487865D01*
X81366875Y-67557092D01*
X81363160Y-67563053D01*
X81363087Y-67563146D01*
X81362639Y-67563890D01*
X81360492Y-67567335D01*
X81358782Y-67569807D01*
X81358755Y-67569788D01*
X81356511Y-67573190D01*
X81356420Y-67573247D01*
X81354460Y-67575847D01*
X81352491Y-67579284D01*
X81350306Y-67582597D01*
X81350281Y-67582580D01*
X81348109Y-67586036D01*
X81348021Y-67586094D01*
X81346119Y-67588737D01*
X81344228Y-67592213D01*
X81342127Y-67595556D01*
X81342104Y-67595541D01*
X81339987Y-67599079D01*
X81339898Y-67599140D01*
X81338054Y-67601823D01*
X81336233Y-67605351D01*
X81334202Y-67608746D01*
X81334185Y-67608736D01*
X81332157Y-67612297D01*
X81332071Y-67612359D01*
X81330285Y-67615081D01*
X81328548Y-67618635D01*
X81326576Y-67622097D01*
X81326562Y-67622089D01*
X81324601Y-67625714D01*
X81324515Y-67625779D01*
X81322789Y-67628540D01*
X81321124Y-67632141D01*
X81319241Y-67635623D01*
X81319238Y-67635621D01*
X81317357Y-67639283D01*
X81317273Y-67639349D01*
X81315606Y-67642146D01*
X81314019Y-67645782D01*
X81312210Y-67649303D01*
X81312207Y-67649302D01*
X81310385Y-67653044D01*
X81310305Y-67653110D01*
X81308699Y-67655942D01*
X81307197Y-67659592D01*
X81305632Y-67662808D01*
X81305635Y-67662810D01*
X81303727Y-67666949D01*
X81303646Y-67667018D01*
X81302100Y-67669883D01*
X81300669Y-67673580D01*
X81299171Y-67676829D01*
X81299183Y-67676834D01*
X81297358Y-67681020D01*
X81297278Y-67681091D01*
X81295792Y-67683987D01*
X81294439Y-67687712D01*
X81292988Y-67691039D01*
X81293006Y-67691046D01*
X81291268Y-67695268D01*
X81291190Y-67695341D01*
X81289764Y-67698268D01*
X81288490Y-67702018D01*
X81287113Y-67705362D01*
X81287150Y-67705376D01*
X81285498Y-67709635D01*
X81285421Y-67709709D01*
X81284055Y-67712664D01*
X81282856Y-67716443D01*
X81281529Y-67719862D01*
X81281574Y-67719879D01*
X81280009Y-67724166D01*
X81279934Y-67724242D01*
X81278628Y-67727224D01*
X81277506Y-67731023D01*
X81276235Y-67734505D01*
X81276291Y-67734524D01*
X81274810Y-67738848D01*
X81274737Y-67738925D01*
X81273491Y-67741932D01*
X81272444Y-67745757D01*
X81271237Y-67749282D01*
X81271310Y-67749305D01*
X81269917Y-67753648D01*
X81269846Y-67753726D01*
X81268659Y-67756758D01*
X81267688Y-67760599D01*
X81266537Y-67764189D01*
X81266624Y-67764215D01*
X81265313Y-67768591D01*
X81265243Y-67768671D01*
X81264115Y-67771724D01*
X81263219Y-67775580D01*
X81262083Y-67779373D01*
X81261443Y-67779181D01*
X81260878Y-67780649D01*
X81261426Y-67780796D01*
X81260243Y-67785206D01*
X81260176Y-67785287D01*
X81259137Y-67788372D01*
X81256046Y-67803678D01*
X81253190Y-67811889D01*
X81253407Y-67811938D01*
X81252393Y-67816390D01*
X81252328Y-67816475D01*
X81251407Y-67819598D01*
X81250772Y-67823509D01*
X81250769Y-67823520D01*
X81248702Y-67836240D01*
X81246225Y-67844288D01*
X81246620Y-67844364D01*
X81245755Y-67848850D01*
X81245693Y-67848937D01*
X81244877Y-67852089D01*
X81243033Y-67866460D01*
X81242557Y-67870168D01*
X81240383Y-67878106D01*
X81240931Y-67878195D01*
X81240202Y-67882688D01*
X81240142Y-67882777D01*
X81239420Y-67885951D01*
X81237566Y-67904782D01*
X81233926Y-67904424D01*
X81234307Y-67913170D01*
X81236267Y-67913436D01*
X81235653Y-67917966D01*
X81235596Y-67918056D01*
X81234957Y-67921248D01*
X81233622Y-67939780D01*
X81233101Y-67939742D01*
X81232839Y-67941163D01*
X81233514Y-67941212D01*
X81233516Y-67941233D01*
X81233383Y-67943089D01*
X81232501Y-67950218D01*
X81232545Y-67950223D01*
X81232038Y-67954753D01*
X81231984Y-67954844D01*
X81231420Y-67958050D01*
X81230539Y-67976167D01*
X81229073Y-67976096D01*
X81228825Y-67977013D01*
X81230493Y-67977094D01*
X81230241Y-67982279D01*
X81229607Y-67988550D01*
X81229718Y-67988560D01*
X81229306Y-67993108D01*
X81229253Y-67993200D01*
X81228756Y-67996417D01*
X81228268Y-68014068D01*
X81226357Y-68014015D01*
X81226298Y-68014264D01*
X81228262Y-68014318D01*
X81228023Y-68022958D01*
X81227946Y-68022956D01*
X81227748Y-68028498D01*
X81227420Y-68033069D01*
X81227368Y-68033164D01*
X81226931Y-68036390D01*
X81226896Y-68040361D01*
X81226896Y-68040364D01*
X81226623Y-68071507D01*
X81226520Y-68074376D01*
X81226238Y-68076614D01*
X81226238Y-68085840D01*
X81226190Y-68089319D01*
X81226076Y-68093446D01*
X81223851Y-68093385D01*
X81223693Y-68094194D01*
X81226238Y-68094194D01*
X81226238Y-68115073D01*
X81226233Y-68116174D01*
X81226065Y-68135378D01*
X81223153Y-68135353D01*
X81223020Y-68136110D01*
X81226238Y-68136110D01*
X81226238Y-68223156D01*
X81223044Y-68223156D01*
X81223952Y-68229110D01*
X81222577Y-68232693D01*
X81224330Y-68247840D01*
X81225403Y-68257117D01*
X81226238Y-68271599D01*
X81226238Y-68376632D01*
X81223044Y-68376632D01*
X81223952Y-68382586D01*
X81222577Y-68386169D01*
X81224330Y-68401316D01*
X81225403Y-68410593D01*
X81225756Y-68416724D01*
X81226238Y-68420705D01*
X81226238Y-68428300D01*
X81228051Y-68435680D01*
X81228958Y-68443173D01*
X81217287Y-68513204D01*
X81190414Y-68549890D01*
X80595853Y-69111741D01*
X80588658Y-69118040D01*
X80364160Y-69300032D01*
X80348450Y-69310903D01*
X80103146Y-69454426D01*
X80085973Y-69462795D01*
X79821783Y-69567566D01*
X79803545Y-69573240D01*
X79526548Y-69636849D01*
X79507653Y-69639701D01*
X79451497Y-69643858D01*
X79219453Y-69661036D01*
X79209897Y-69661380D01*
X74759173Y-69652398D01*
X70717613Y-69644242D01*
X70708047Y-69643858D01*
X70427901Y-69621932D01*
X70408985Y-69618992D01*
X70140077Y-69555948D01*
X70121825Y-69550175D01*
X69865577Y-69447095D01*
X69848419Y-69438624D01*
X69611851Y-69298538D01*
X69594234Y-69285942D01*
X69440818Y-69154945D01*
X69424036Y-69137571D01*
X69299221Y-68980689D01*
X69286063Y-68960430D01*
X69193487Y-68782623D01*
X69184436Y-68760226D01*
X69127490Y-68568010D01*
X69122880Y-68544297D01*
X69103080Y-68338695D01*
X69102500Y-68326617D01*
X69102500Y-66743000D01*
X72974328Y-66743000D01*
X72975879Y-66752793D01*
X72990453Y-66844808D01*
X72995284Y-66875312D01*
X73056102Y-66994673D01*
X73150827Y-67089398D01*
X73270188Y-67150216D01*
X73279977Y-67151766D01*
X73279979Y-67151767D01*
X73392707Y-67169621D01*
X73402500Y-67171172D01*
X73410464Y-67169911D01*
X73477599Y-67189623D01*
X73491371Y-67199864D01*
X73494208Y-67202290D01*
X73501650Y-67208655D01*
X73506825Y-67213335D01*
X73511788Y-67218080D01*
X73529064Y-67234597D01*
X73534122Y-67237855D01*
X73534125Y-67237857D01*
X73538460Y-67240649D01*
X73559329Y-67257484D01*
X73604896Y-67303051D01*
X73620562Y-67322138D01*
X73627783Y-67332945D01*
X73635443Y-67338063D01*
X73641480Y-67343219D01*
X73641482Y-67343221D01*
X73648711Y-67349395D01*
X73723815Y-67413538D01*
X73762625Y-67472986D01*
X73763133Y-67543981D01*
X73725178Y-67603980D01*
X73660810Y-67633935D01*
X73622276Y-67633798D01*
X73512294Y-67616379D01*
X73512293Y-67616379D01*
X73502500Y-67614828D01*
X73492707Y-67616379D01*
X73379979Y-67634233D01*
X73379977Y-67634234D01*
X73370188Y-67635784D01*
X73250827Y-67696602D01*
X73156102Y-67791327D01*
X73095284Y-67910688D01*
X73093734Y-67920477D01*
X73093733Y-67920479D01*
X73078871Y-68014314D01*
X73074328Y-68043000D01*
X73075879Y-68052793D01*
X73092492Y-68157681D01*
X73095284Y-68175312D01*
X73156102Y-68294673D01*
X73250827Y-68389398D01*
X73370188Y-68450216D01*
X73379977Y-68451766D01*
X73379979Y-68451767D01*
X73492707Y-68469621D01*
X73502500Y-68471172D01*
X73512293Y-68469621D01*
X73625021Y-68451767D01*
X73625023Y-68451766D01*
X73634812Y-68450216D01*
X73754173Y-68389398D01*
X73848898Y-68294673D01*
X73897602Y-68199087D01*
X73946351Y-68147472D01*
X74015266Y-68130406D01*
X74082467Y-68153307D01*
X74122135Y-68199086D01*
X74146977Y-68247840D01*
X74158102Y-68269673D01*
X74252827Y-68364398D01*
X74372188Y-68425216D01*
X74381977Y-68426766D01*
X74381979Y-68426767D01*
X74434863Y-68435143D01*
X74462936Y-68443005D01*
X74466601Y-68444507D01*
X74469233Y-68445586D01*
X74474328Y-68447807D01*
X74508596Y-68463656D01*
X74513655Y-68466135D01*
X74544738Y-68482235D01*
X74548933Y-68484509D01*
X74581080Y-68502736D01*
X74583749Y-68504293D01*
X74620211Y-68526165D01*
X74621157Y-68526738D01*
X74663801Y-68552830D01*
X74664452Y-68553226D01*
X74713871Y-68583136D01*
X74715767Y-68584266D01*
X74773253Y-68617970D01*
X74773834Y-68618309D01*
X74773915Y-68618356D01*
X74774103Y-68618465D01*
X74774322Y-68618590D01*
X74774426Y-68618650D01*
X74775376Y-68619191D01*
X74775991Y-68619542D01*
X74833764Y-68651984D01*
X74839732Y-68653914D01*
X74845473Y-68656425D01*
X74845264Y-68656902D01*
X74863572Y-68665326D01*
X74877427Y-68673817D01*
X74881996Y-68675709D01*
X74881997Y-68675710D01*
X75039966Y-68741140D01*
X75039969Y-68741141D01*
X75044537Y-68743033D01*
X75049350Y-68744188D01*
X75049352Y-68744189D01*
X75057567Y-68746161D01*
X75220419Y-68785254D01*
X75381564Y-68797931D01*
X75385203Y-68798435D01*
X75387964Y-68798435D01*
X75388969Y-68798514D01*
X75400740Y-68800855D01*
X75412909Y-68798434D01*
X75412911Y-68798434D01*
X75413193Y-68798378D01*
X75413474Y-68798322D01*
X75438057Y-68795900D01*
X75811637Y-68795900D01*
X75836213Y-68798320D01*
X75848960Y-68800855D01*
X75861131Y-68798433D01*
X75864143Y-68798433D01*
X75868962Y-68797766D01*
X75960408Y-68790564D01*
X76022580Y-68785668D01*
X76191925Y-68745006D01*
X76352824Y-68678354D01*
X76357044Y-68675768D01*
X76497101Y-68589938D01*
X76497104Y-68589936D01*
X76501317Y-68587354D01*
X76523966Y-68568010D01*
X76618371Y-68487380D01*
X76622441Y-68484299D01*
X76624517Y-68482223D01*
X76634831Y-68475331D01*
X76639650Y-68468119D01*
X76641723Y-68465017D01*
X76643749Y-68462991D01*
X76646974Y-68458731D01*
X76743626Y-68345567D01*
X76743627Y-68345566D01*
X76746839Y-68341805D01*
X76837837Y-68193315D01*
X76845295Y-68175312D01*
X76902596Y-68036985D01*
X76902598Y-68036980D01*
X76904487Y-68032419D01*
X76908906Y-68014015D01*
X76943992Y-67867900D01*
X76943992Y-67867899D01*
X76945150Y-67863077D01*
X76952584Y-67768671D01*
X76957235Y-67709619D01*
X76957933Y-67704571D01*
X76957933Y-67701633D01*
X76960355Y-67689460D01*
X76957820Y-67676712D01*
X76955400Y-67652137D01*
X76955400Y-67217408D01*
X76958404Y-67190058D01*
X76959273Y-67186151D01*
X76959273Y-67186149D01*
X76960617Y-67180106D01*
X76960963Y-67164716D01*
X76961308Y-67149346D01*
X76961657Y-67142382D01*
X76962361Y-67133356D01*
X76963154Y-67123192D01*
X76988390Y-67056835D01*
X76999677Y-67043894D01*
X77048898Y-66994673D01*
X77109716Y-66875312D01*
X77114548Y-66844808D01*
X77129121Y-66752793D01*
X77130672Y-66743000D01*
X77127026Y-66719978D01*
X77111267Y-66620479D01*
X77111266Y-66620477D01*
X77109716Y-66610688D01*
X77048898Y-66491327D01*
X76954173Y-66396602D01*
X76834812Y-66335784D01*
X76825023Y-66334234D01*
X76825021Y-66334233D01*
X76712293Y-66316379D01*
X76702500Y-66314828D01*
X76692707Y-66316379D01*
X76579979Y-66334233D01*
X76579977Y-66334234D01*
X76570188Y-66335784D01*
X76450827Y-66396602D01*
X76356102Y-66491327D01*
X76295284Y-66610688D01*
X76293734Y-66620477D01*
X76293733Y-66620479D01*
X76277974Y-66719978D01*
X76274328Y-66743000D01*
X76275879Y-66752793D01*
X76290453Y-66844808D01*
X76295284Y-66875312D01*
X76356102Y-66994673D01*
X76405321Y-67043892D01*
X76439347Y-67106204D01*
X76441844Y-67123187D01*
X76443341Y-67142375D01*
X76443691Y-67149342D01*
X76444383Y-67180110D01*
X76446443Y-67189623D01*
X76446747Y-67191028D01*
X76449600Y-67217690D01*
X76449600Y-67652113D01*
X76447178Y-67676700D01*
X76447066Y-67677261D01*
X76447066Y-67677264D01*
X76444645Y-67689432D01*
X76447065Y-67701603D01*
X76447065Y-67708964D01*
X76446458Y-67721313D01*
X76443702Y-67749282D01*
X76439560Y-67791327D01*
X76439270Y-67794267D01*
X76434451Y-67818487D01*
X76408007Y-67905651D01*
X76407471Y-67907418D01*
X76398019Y-67930235D01*
X76354209Y-68012194D01*
X76340491Y-68032725D01*
X76293850Y-68089556D01*
X76285556Y-68098705D01*
X76280485Y-68103776D01*
X76273547Y-68108412D01*
X76270169Y-68110669D01*
X76263276Y-68120985D01*
X76258075Y-68126186D01*
X76248915Y-68134489D01*
X76192240Y-68181002D01*
X76171703Y-68194725D01*
X76100943Y-68232549D01*
X76031438Y-68247022D01*
X75965141Y-68221620D01*
X75923102Y-68164408D01*
X75917096Y-68101718D01*
X75929121Y-68025794D01*
X75929121Y-68025793D01*
X75930672Y-68016000D01*
X75923303Y-67969475D01*
X75911267Y-67893479D01*
X75911266Y-67893477D01*
X75909716Y-67883688D01*
X75848898Y-67764327D01*
X75754173Y-67669602D01*
X75634812Y-67608784D01*
X75625021Y-67607233D01*
X75625020Y-67607233D01*
X75573751Y-67599113D01*
X75544684Y-67590839D01*
X75534152Y-67586417D01*
X75528310Y-67583788D01*
X75493631Y-67567106D01*
X75487876Y-67564153D01*
X75474942Y-67557092D01*
X75456478Y-67547012D01*
X75451748Y-67544295D01*
X75419116Y-67524599D01*
X75416136Y-67522743D01*
X75378623Y-67498650D01*
X75377597Y-67497985D01*
X75371281Y-67493841D01*
X75333512Y-67469063D01*
X75332740Y-67468560D01*
X75281627Y-67435452D01*
X75279460Y-67434073D01*
X75219907Y-67396859D01*
X75218390Y-67395923D01*
X75218175Y-67395792D01*
X75216786Y-67394955D01*
X75156341Y-67358972D01*
X75150421Y-67356892D01*
X75150416Y-67356890D01*
X75147330Y-67355806D01*
X75123264Y-67344363D01*
X75096002Y-67327657D01*
X75084953Y-67320886D01*
X75080382Y-67318993D01*
X75080377Y-67318990D01*
X74910512Y-67248628D01*
X74905930Y-67246730D01*
X74717511Y-67201490D01*
X74693853Y-67199628D01*
X74541203Y-67187610D01*
X74540899Y-67187568D01*
X74540664Y-67187568D01*
X74533792Y-67187027D01*
X74524334Y-67185145D01*
X74520167Y-67185974D01*
X74516000Y-67185145D01*
X74503827Y-67187566D01*
X74496531Y-67187566D01*
X74484185Y-67186959D01*
X74453618Y-67183949D01*
X74382933Y-67176987D01*
X74358716Y-67172171D01*
X74271961Y-67145855D01*
X74242628Y-67136957D01*
X74219808Y-67127504D01*
X74112834Y-67070326D01*
X74092298Y-67056605D01*
X74013702Y-66992106D01*
X74004536Y-66983799D01*
X73999335Y-66978598D01*
X73992439Y-66968277D01*
X73982004Y-66961305D01*
X73981637Y-66961059D01*
X73962544Y-66945389D01*
X73916784Y-66899629D01*
X73899569Y-66878165D01*
X73894097Y-66869564D01*
X73889816Y-66865086D01*
X73872835Y-66847325D01*
X73868155Y-66842150D01*
X73859367Y-66831875D01*
X73830290Y-66767105D01*
X73829255Y-66751945D01*
X73830672Y-66743000D01*
X73827026Y-66719978D01*
X73811267Y-66620479D01*
X73811266Y-66620477D01*
X73809716Y-66610688D01*
X73748898Y-66491327D01*
X73654173Y-66396602D01*
X73534812Y-66335784D01*
X73525023Y-66334234D01*
X73525021Y-66334233D01*
X73412293Y-66316379D01*
X73402500Y-66314828D01*
X73392707Y-66316379D01*
X73279979Y-66334233D01*
X73279977Y-66334234D01*
X73270188Y-66335784D01*
X73150827Y-66396602D01*
X73056102Y-66491327D01*
X72995284Y-66610688D01*
X72993734Y-66620477D01*
X72993733Y-66620479D01*
X72977974Y-66719978D01*
X72974328Y-66743000D01*
X69102500Y-66743000D01*
X69102500Y-65239000D01*
X72124328Y-65239000D01*
X72125879Y-65248793D01*
X72141705Y-65348712D01*
X72145284Y-65371312D01*
X72206102Y-65490673D01*
X72300827Y-65585398D01*
X72420188Y-65646216D01*
X72429977Y-65647766D01*
X72429979Y-65647767D01*
X72542707Y-65665621D01*
X72552500Y-65667172D01*
X72677015Y-65647451D01*
X72696725Y-65645900D01*
X77308275Y-65645900D01*
X77327985Y-65647451D01*
X77452500Y-65667172D01*
X77462293Y-65665621D01*
X77575021Y-65647767D01*
X77575023Y-65647766D01*
X77584812Y-65646216D01*
X77704173Y-65585398D01*
X77798898Y-65490673D01*
X77859716Y-65371312D01*
X77863296Y-65348712D01*
X77879121Y-65248793D01*
X77880672Y-65239000D01*
X77863967Y-65133525D01*
X77861267Y-65116479D01*
X77861266Y-65116477D01*
X77859716Y-65106688D01*
X77798898Y-64987327D01*
X77704173Y-64892602D01*
X77584812Y-64831784D01*
X77575023Y-64830234D01*
X77575021Y-64830233D01*
X77462293Y-64812379D01*
X77452500Y-64810828D01*
X77442707Y-64812379D01*
X77327986Y-64830549D01*
X77308275Y-64832100D01*
X72696725Y-64832100D01*
X72677014Y-64830549D01*
X72562293Y-64812379D01*
X72552500Y-64810828D01*
X72542707Y-64812379D01*
X72429979Y-64830233D01*
X72429977Y-64830234D01*
X72420188Y-64831784D01*
X72300827Y-64892602D01*
X72206102Y-64987327D01*
X72145284Y-65106688D01*
X72143734Y-65116477D01*
X72143733Y-65116479D01*
X72141033Y-65133525D01*
X72124328Y-65239000D01*
X69102500Y-65239000D01*
X69102500Y-63935664D01*
X69999600Y-63935664D01*
X70014876Y-64061897D01*
X70075012Y-64221043D01*
X70171374Y-64361250D01*
X70177044Y-64366301D01*
X70177045Y-64366303D01*
X70292726Y-64469371D01*
X70292728Y-64469373D01*
X70298399Y-64474425D01*
X70305108Y-64477977D01*
X70305112Y-64477980D01*
X70376731Y-64515900D01*
X70448753Y-64554034D01*
X70613756Y-64595480D01*
X70621354Y-64595520D01*
X70621356Y-64595520D01*
X70693095Y-64595896D01*
X70783883Y-64596371D01*
X70791263Y-64594599D01*
X70791265Y-64594599D01*
X70941931Y-64558427D01*
X70941933Y-64558426D01*
X70949311Y-64556655D01*
X71082974Y-64487666D01*
X71093742Y-64482108D01*
X71100490Y-64478625D01*
X71111493Y-64469027D01*
X71178258Y-64410784D01*
X71228693Y-64366787D01*
X71296485Y-64270329D01*
X71322149Y-64233813D01*
X71322150Y-64233811D01*
X71326518Y-64227596D01*
X71374161Y-64105398D01*
X71385558Y-64076168D01*
X71385559Y-64076165D01*
X71388318Y-64069088D01*
X71405400Y-63939336D01*
X71405400Y-63187034D01*
X71425402Y-63118913D01*
X71479058Y-63072420D01*
X71549332Y-63062316D01*
X71613912Y-63091810D01*
X71631360Y-63110328D01*
X71702049Y-63202451D01*
X71822267Y-63294698D01*
X71928465Y-63338687D01*
X71951951Y-63348415D01*
X71962264Y-63352687D01*
X71970452Y-63353765D01*
X72033657Y-63362086D01*
X72074780Y-63367500D01*
X72150220Y-63367500D01*
X72191344Y-63362086D01*
X72254548Y-63353765D01*
X72262736Y-63352687D01*
X72273050Y-63348415D01*
X72296535Y-63338687D01*
X72402733Y-63294698D01*
X72522951Y-63202451D01*
X72615198Y-63082233D01*
X72673187Y-62942236D01*
X72692966Y-62792000D01*
X77312034Y-62792000D01*
X77331813Y-62942236D01*
X77389802Y-63082233D01*
X77482049Y-63202451D01*
X77602267Y-63294698D01*
X77708465Y-63338687D01*
X77731951Y-63348415D01*
X77742264Y-63352687D01*
X77750452Y-63353765D01*
X77813657Y-63362086D01*
X77854780Y-63367500D01*
X77930220Y-63367500D01*
X77971344Y-63362086D01*
X78034548Y-63353765D01*
X78042736Y-63352687D01*
X78053050Y-63348415D01*
X78076535Y-63338687D01*
X78182733Y-63294698D01*
X78302951Y-63202451D01*
X78373639Y-63110330D01*
X78430976Y-63068463D01*
X78501846Y-63064241D01*
X78563749Y-63099005D01*
X78597031Y-63161718D01*
X78599600Y-63187034D01*
X78599600Y-63935664D01*
X78614876Y-64061897D01*
X78675012Y-64221043D01*
X78771374Y-64361250D01*
X78777044Y-64366301D01*
X78777045Y-64366303D01*
X78892726Y-64469371D01*
X78892728Y-64469373D01*
X78898399Y-64474425D01*
X78905108Y-64477977D01*
X78905112Y-64477980D01*
X78976731Y-64515900D01*
X79048753Y-64554034D01*
X79213756Y-64595480D01*
X79221354Y-64595520D01*
X79221356Y-64595520D01*
X79293095Y-64595896D01*
X79383883Y-64596371D01*
X79391263Y-64594599D01*
X79391265Y-64594599D01*
X79541931Y-64558427D01*
X79541933Y-64558426D01*
X79549311Y-64556655D01*
X79682974Y-64487666D01*
X79693742Y-64482108D01*
X79700490Y-64478625D01*
X79711493Y-64469027D01*
X79778258Y-64410784D01*
X79828693Y-64366787D01*
X79896485Y-64270329D01*
X79922149Y-64233813D01*
X79922150Y-64233811D01*
X79926518Y-64227596D01*
X79974161Y-64105398D01*
X79985558Y-64076168D01*
X79985559Y-64076165D01*
X79988318Y-64069088D01*
X80005400Y-63939336D01*
X80005400Y-62750336D01*
X79990124Y-62624103D01*
X79929988Y-62464957D01*
X79881904Y-62394994D01*
X79837928Y-62331009D01*
X79837927Y-62331008D01*
X79833626Y-62324750D01*
X79827865Y-62319617D01*
X79712274Y-62216629D01*
X79712272Y-62216627D01*
X79706601Y-62211575D01*
X79699892Y-62208023D01*
X79699888Y-62208020D01*
X79562957Y-62135519D01*
X79556247Y-62131966D01*
X79391244Y-62090520D01*
X79383646Y-62090480D01*
X79383644Y-62090480D01*
X79311905Y-62090104D01*
X79221117Y-62089629D01*
X79213737Y-62091401D01*
X79213735Y-62091401D01*
X79063069Y-62127573D01*
X79063067Y-62127574D01*
X79055689Y-62129345D01*
X79048944Y-62132826D01*
X79048945Y-62132826D01*
X78920291Y-62199230D01*
X78904510Y-62207375D01*
X78898788Y-62212367D01*
X78898786Y-62212368D01*
X78850571Y-62254429D01*
X78776307Y-62319213D01*
X78737582Y-62374313D01*
X78687592Y-62445442D01*
X78678482Y-62458404D01*
X78675723Y-62465480D01*
X78675721Y-62465484D01*
X78646272Y-62541017D01*
X78602891Y-62597219D01*
X78536012Y-62621045D01*
X78466868Y-62604931D01*
X78417412Y-62553993D01*
X78412470Y-62543465D01*
X78404373Y-62523918D01*
X78395198Y-62501767D01*
X78302951Y-62381549D01*
X78182733Y-62289302D01*
X78042736Y-62231313D01*
X77995627Y-62225111D01*
X77934307Y-62217038D01*
X77934306Y-62217038D01*
X77930220Y-62216500D01*
X77854780Y-62216500D01*
X77850694Y-62217038D01*
X77850693Y-62217038D01*
X77789373Y-62225111D01*
X77742264Y-62231313D01*
X77602267Y-62289302D01*
X77482049Y-62381549D01*
X77389802Y-62501767D01*
X77331813Y-62641764D01*
X77330735Y-62649952D01*
X77327777Y-62672422D01*
X77312034Y-62792000D01*
X72692966Y-62792000D01*
X72677223Y-62672422D01*
X72674265Y-62649952D01*
X72673187Y-62641764D01*
X72615198Y-62501767D01*
X72522951Y-62381549D01*
X72402733Y-62289302D01*
X72262736Y-62231313D01*
X72215627Y-62225111D01*
X72154307Y-62217038D01*
X72154306Y-62217038D01*
X72150220Y-62216500D01*
X72074780Y-62216500D01*
X72070694Y-62217038D01*
X72070693Y-62217038D01*
X72009373Y-62225111D01*
X71962264Y-62231313D01*
X71822267Y-62289302D01*
X71702049Y-62381549D01*
X71609802Y-62501767D01*
X71595741Y-62535713D01*
X71592534Y-62543456D01*
X71547985Y-62598736D01*
X71480622Y-62621157D01*
X71411830Y-62603598D01*
X71363452Y-62551636D01*
X71358259Y-62539774D01*
X71332673Y-62472062D01*
X71332672Y-62472060D01*
X71329988Y-62464957D01*
X71281904Y-62394994D01*
X71237928Y-62331009D01*
X71237927Y-62331008D01*
X71233626Y-62324750D01*
X71227865Y-62319617D01*
X71112274Y-62216629D01*
X71112272Y-62216627D01*
X71106601Y-62211575D01*
X71099892Y-62208023D01*
X71099888Y-62208020D01*
X70962957Y-62135519D01*
X70956247Y-62131966D01*
X70791244Y-62090520D01*
X70783646Y-62090480D01*
X70783644Y-62090480D01*
X70711905Y-62090104D01*
X70621117Y-62089629D01*
X70613737Y-62091401D01*
X70613735Y-62091401D01*
X70463069Y-62127573D01*
X70463067Y-62127574D01*
X70455689Y-62129345D01*
X70448944Y-62132826D01*
X70448945Y-62132826D01*
X70320291Y-62199230D01*
X70304510Y-62207375D01*
X70298788Y-62212367D01*
X70298786Y-62212368D01*
X70250571Y-62254429D01*
X70176307Y-62319213D01*
X70137582Y-62374313D01*
X70087592Y-62445442D01*
X70078482Y-62458404D01*
X70049600Y-62532483D01*
X70022366Y-62602334D01*
X70016682Y-62616912D01*
X70015690Y-62624445D01*
X70015690Y-62624446D01*
X70000739Y-62738010D01*
X69999600Y-62746664D01*
X69999600Y-63935664D01*
X69102500Y-63935664D01*
X69102500Y-61410773D01*
X69103231Y-61397220D01*
X69124226Y-61203168D01*
X69130023Y-61176690D01*
X69189863Y-60998099D01*
X69201190Y-60973473D01*
X69297842Y-60811814D01*
X69314173Y-60790180D01*
X69444048Y-60651993D01*
X69462531Y-60635822D01*
X69623013Y-60520967D01*
X69641962Y-60509769D01*
X69821141Y-60424039D01*
X69841749Y-60416310D01*
X70033115Y-60363067D01*
X70054753Y-60359042D01*
X70063254Y-60358219D01*
X70257974Y-60339378D01*
X70268959Y-60338797D01*
X73571535Y-60309045D01*
X76530540Y-60282387D01*
X79494217Y-60255688D01*
X79502781Y-60255902D01*
G37*
G04 #@! TD.AperFunction*
G04 #@! TA.AperFunction,Conductor*
G36*
X71868151Y-56715902D02*
G01*
X71914644Y-56769558D01*
X71924748Y-56839832D01*
X71895254Y-56904412D01*
X71837854Y-56941460D01*
X71838034Y-56942024D01*
X71798519Y-56954661D01*
X71775427Y-56963088D01*
X71757489Y-56970584D01*
X71733232Y-56980721D01*
X71733216Y-56980728D01*
X71731893Y-56981281D01*
X71730581Y-56981902D01*
X71730562Y-56981910D01*
X71714099Y-56989697D01*
X71710991Y-56991167D01*
X71709554Y-56991939D01*
X71666146Y-57015257D01*
X71666135Y-57015263D01*
X71664704Y-57016032D01*
X71655629Y-57021523D01*
X71647410Y-57026495D01*
X71647400Y-57026502D01*
X71645900Y-57027409D01*
X71598946Y-57059496D01*
X71597554Y-57060565D01*
X71583355Y-57071468D01*
X71583340Y-57071480D01*
X71582146Y-57072397D01*
X71544760Y-57104052D01*
X71543690Y-57105049D01*
X71543678Y-57105060D01*
X71535826Y-57112379D01*
X71534865Y-57113275D01*
X71533947Y-57114206D01*
X71533938Y-57114215D01*
X71505286Y-57143280D01*
X71505270Y-57143297D01*
X71504363Y-57144217D01*
X71503496Y-57145174D01*
X71503484Y-57145187D01*
X71501951Y-57146880D01*
X71493054Y-57156704D01*
X71460329Y-57196711D01*
X71450467Y-57210088D01*
X71420889Y-57254944D01*
X71412329Y-57269532D01*
X71388521Y-57315207D01*
X71381120Y-57331330D01*
X71363905Y-57373715D01*
X71357520Y-57391693D01*
X71346087Y-57428126D01*
X71340575Y-57448284D01*
X71340359Y-57449179D01*
X71340354Y-57449196D01*
X71333681Y-57476769D01*
X71333454Y-57477707D01*
X71328672Y-57500367D01*
X71328573Y-57500874D01*
X71326451Y-57511727D01*
X71325745Y-57515335D01*
X71324618Y-57521589D01*
X71322640Y-57533340D01*
X71322299Y-57535521D01*
X71319923Y-57552589D01*
X71319612Y-57555135D01*
X71317974Y-57570447D01*
X71317693Y-57573507D01*
X71316732Y-57585527D01*
X71316478Y-57589251D01*
X71315940Y-57598306D01*
X71315711Y-57602842D01*
X71315418Y-57609514D01*
X71315212Y-57615013D01*
X71315053Y-57619874D01*
X71314868Y-57626485D01*
X71314781Y-57630024D01*
X71314777Y-57630224D01*
X71314615Y-57637896D01*
X71314615Y-57637922D01*
X71314566Y-57640514D01*
X71314566Y-57640538D01*
X71314562Y-57640771D01*
X71314561Y-57640841D01*
X71314418Y-57649821D01*
X71314392Y-57651662D01*
X71314390Y-57651808D01*
X71314340Y-57655881D01*
X71293502Y-57723751D01*
X71239278Y-57769580D01*
X71168885Y-57778818D01*
X71141660Y-57771361D01*
X71038168Y-57730072D01*
X71027131Y-57726803D01*
X70974270Y-57716288D01*
X70961394Y-57717440D01*
X70956500Y-57732596D01*
X70956500Y-58870885D01*
X70960975Y-58886124D01*
X70962365Y-58887329D01*
X70970048Y-58889000D01*
X71842385Y-58889000D01*
X71857624Y-58884525D01*
X71862507Y-58878890D01*
X71891953Y-58824964D01*
X71954266Y-58790939D01*
X71995295Y-58788939D01*
X71995302Y-58788873D01*
X71995853Y-58788932D01*
X71995885Y-58788936D01*
X72004680Y-58789880D01*
X72015893Y-58791084D01*
X72016531Y-58791140D01*
X72016546Y-58791141D01*
X72023309Y-58791730D01*
X72042647Y-58793413D01*
X72043072Y-58793444D01*
X72043132Y-58793449D01*
X72056239Y-58794409D01*
X72056278Y-58794412D01*
X72056734Y-58794445D01*
X72057165Y-58794471D01*
X72057231Y-58794475D01*
X72065972Y-58794994D01*
X72075115Y-58795537D01*
X72075449Y-58795552D01*
X72075477Y-58795554D01*
X72087986Y-58796134D01*
X72088017Y-58796135D01*
X72088422Y-58796154D01*
X72092391Y-58796287D01*
X72092879Y-58796303D01*
X72092898Y-58796304D01*
X72093030Y-58796308D01*
X72093106Y-58796310D01*
X72093170Y-58796312D01*
X72099981Y-58796493D01*
X72100066Y-58796495D01*
X72100107Y-58796496D01*
X72100166Y-58796497D01*
X72100248Y-58796499D01*
X72107596Y-58796643D01*
X72110690Y-58796694D01*
X72114489Y-58796746D01*
X72120873Y-58796833D01*
X72120982Y-58796834D01*
X72121030Y-58796835D01*
X72122762Y-58796856D01*
X72135781Y-58796988D01*
X72136890Y-58796998D01*
X72152557Y-58797123D01*
X72153361Y-58797128D01*
X72153361Y-58797134D01*
X72153386Y-58797128D01*
X72169168Y-58797229D01*
X72171596Y-58797245D01*
X72171600Y-58797245D01*
X72172219Y-58797249D01*
X72192952Y-58797357D01*
X72193409Y-58797359D01*
X72216558Y-58797459D01*
X72216923Y-58797461D01*
X72242412Y-58797553D01*
X72242748Y-58797554D01*
X72270499Y-58797636D01*
X72270509Y-58797636D01*
X72270765Y-58797637D01*
X72270765Y-58797636D01*
X72271174Y-58797637D01*
X72300653Y-58797709D01*
X72300653Y-58797710D01*
X72300926Y-58797710D01*
X72332969Y-58797774D01*
X72333445Y-58797774D01*
X72367132Y-58797827D01*
X72367294Y-58797828D01*
X72367440Y-58797828D01*
X72403464Y-58797872D01*
X72403644Y-58797872D01*
X72441544Y-58797905D01*
X72441693Y-58797905D01*
X72481390Y-58797928D01*
X72481539Y-58797928D01*
X72522957Y-58797940D01*
X72523073Y-58797940D01*
X72538569Y-58797941D01*
X72538575Y-58797941D01*
X72939756Y-58797962D01*
X72942014Y-58797962D01*
X72944263Y-58797801D01*
X72944269Y-58797801D01*
X73015152Y-58792733D01*
X73015207Y-58793500D01*
X73046205Y-58792948D01*
X73076633Y-58797323D01*
X73076640Y-58797324D01*
X73081081Y-58797962D01*
X73427689Y-58797962D01*
X73495810Y-58817964D01*
X73542303Y-58871620D01*
X73552407Y-58941894D01*
X73549164Y-58957425D01*
X73542662Y-58981030D01*
X73537929Y-59003272D01*
X73532853Y-59030784D01*
X73532715Y-59031666D01*
X73529646Y-59054678D01*
X73528934Y-59061124D01*
X73526925Y-59083966D01*
X73526344Y-59092841D01*
X73525687Y-59105140D01*
X73525239Y-59115956D01*
X73524972Y-59123901D01*
X73524654Y-59136166D01*
X73524532Y-59142258D01*
X73524346Y-59155485D01*
X73524299Y-59160645D01*
X73524244Y-59174344D01*
X73524248Y-59179223D01*
X73524323Y-59192904D01*
X73524377Y-59198042D01*
X73524581Y-59211216D01*
X73524713Y-59217390D01*
X73525048Y-59229567D01*
X73525337Y-59237710D01*
X73525801Y-59248403D01*
X73526499Y-59260941D01*
X73527091Y-59269658D01*
X73529301Y-59293775D01*
X73530023Y-59300028D01*
X73530115Y-59300705D01*
X73530116Y-59300709D01*
X73530374Y-59302600D01*
X73528943Y-59345065D01*
X73525013Y-59364147D01*
X73523994Y-59369735D01*
X73523897Y-59370341D01*
X73523890Y-59370384D01*
X73521801Y-59383489D01*
X73520397Y-59392290D01*
X73519552Y-59398469D01*
X73517221Y-59418414D01*
X73516539Y-59425436D01*
X73515232Y-59441511D01*
X73514700Y-59449631D01*
X73514047Y-59461805D01*
X73513652Y-59471274D01*
X73513358Y-59480207D01*
X73513089Y-59491278D01*
X73513084Y-59491542D01*
X73513082Y-59491644D01*
X73512974Y-59497558D01*
X73512818Y-59510485D01*
X73512816Y-59510686D01*
X73512784Y-59514805D01*
X73512783Y-59515056D01*
X73512729Y-59529715D01*
X73512729Y-59530089D01*
X73512727Y-59532722D01*
X73512727Y-59532968D01*
X73512738Y-59538514D01*
X73512761Y-59550118D01*
X73512768Y-59551938D01*
X73512768Y-59552025D01*
X73512878Y-59571948D01*
X73512883Y-59572770D01*
X73512939Y-59580661D01*
X73512941Y-59580956D01*
X73513087Y-59599987D01*
X73513093Y-59600726D01*
X73513242Y-59617082D01*
X73513264Y-59619023D01*
X73513444Y-59632989D01*
X73513503Y-59636591D01*
X73513739Y-59648448D01*
X73513897Y-59654552D01*
X73514216Y-59664584D01*
X73514224Y-59664785D01*
X73514225Y-59664807D01*
X73514550Y-59672726D01*
X73514604Y-59674056D01*
X73515031Y-59682548D01*
X73515921Y-59696470D01*
X73515953Y-59696884D01*
X73515955Y-59696911D01*
X73516354Y-59702051D01*
X73516482Y-59703704D01*
X73518318Y-59722764D01*
X73519039Y-59729024D01*
X73522358Y-59752898D01*
X73523266Y-59758468D01*
X73523418Y-59759267D01*
X73527077Y-59778540D01*
X73528254Y-59784742D01*
X73529374Y-59789904D01*
X73535397Y-59814679D01*
X73536755Y-59819717D01*
X73536927Y-59820308D01*
X73536931Y-59820323D01*
X73542184Y-59838396D01*
X73542198Y-59838443D01*
X73542372Y-59839041D01*
X73543994Y-59844239D01*
X73547888Y-59856200D01*
X73549801Y-59861841D01*
X73551375Y-59866412D01*
X73553175Y-59871560D01*
X73553587Y-59872617D01*
X73560332Y-59889921D01*
X73566343Y-59905344D01*
X73574457Y-59924169D01*
X73575491Y-59926163D01*
X73575494Y-59926170D01*
X73597138Y-59967922D01*
X73610731Y-60037605D01*
X73584493Y-60103575D01*
X73526753Y-60144887D01*
X73486411Y-60151905D01*
X72506847Y-60160730D01*
X71840109Y-60166736D01*
X71771811Y-60147348D01*
X71724837Y-60094114D01*
X71714100Y-60023934D01*
X71727466Y-59982074D01*
X71774241Y-59893168D01*
X71778652Y-59882521D01*
X71838333Y-59690316D01*
X71840727Y-59679054D01*
X71860063Y-59515678D01*
X71860500Y-59508272D01*
X71860500Y-59415115D01*
X71856025Y-59399876D01*
X71854635Y-59398671D01*
X71846952Y-59397000D01*
X70574500Y-59397000D01*
X70506379Y-59376998D01*
X70459886Y-59323342D01*
X70448500Y-59271000D01*
X70448500Y-57729706D01*
X70444694Y-57716744D01*
X70429778Y-57714808D01*
X70407200Y-57718687D01*
X70394126Y-57722190D01*
X70323149Y-57720498D01*
X70264355Y-57680701D01*
X70247511Y-57654130D01*
X70120506Y-57384230D01*
X70116695Y-57377297D01*
X69958591Y-57128165D01*
X69953937Y-57121759D01*
X69888979Y-57043239D01*
X69876460Y-57034783D01*
X69865722Y-57040989D01*
X68376520Y-58530190D01*
X68368908Y-58544131D01*
X68369039Y-58545966D01*
X68373290Y-58552580D01*
X69401743Y-59581033D01*
X69435769Y-59643345D01*
X69430704Y-59714160D01*
X69401743Y-59759223D01*
X69220723Y-59940243D01*
X69158411Y-59974269D01*
X69087596Y-59969204D01*
X69042533Y-59940243D01*
X68017312Y-58915022D01*
X68003368Y-58907408D01*
X68001535Y-58907539D01*
X67994920Y-58911790D01*
X66501427Y-60405284D01*
X66494814Y-60417394D01*
X66503643Y-60429014D01*
X66708470Y-60577830D01*
X66715150Y-60582070D01*
X66973734Y-60724228D01*
X66980869Y-60727585D01*
X67255246Y-60836219D01*
X67262737Y-60838653D01*
X67548559Y-60912039D01*
X67556330Y-60913521D01*
X67849070Y-60950503D01*
X67856960Y-60951000D01*
X68152040Y-60951000D01*
X68159930Y-60950503D01*
X68452670Y-60913521D01*
X68460441Y-60912039D01*
X68746263Y-60838653D01*
X68753754Y-60836219D01*
X68875251Y-60788115D01*
X68945952Y-60781636D01*
X69008932Y-60814408D01*
X69044196Y-60876028D01*
X69040016Y-60947890D01*
X69040144Y-60947933D01*
X69039609Y-60949531D01*
X69039606Y-60949538D01*
X69019505Y-61009530D01*
X68980304Y-61126524D01*
X68978074Y-61134599D01*
X68976414Y-61140611D01*
X68975776Y-61142920D01*
X68969979Y-61169398D01*
X68967242Y-61186183D01*
X68967059Y-61187870D01*
X68967058Y-61187881D01*
X68953735Y-61311022D01*
X68946247Y-61380235D01*
X68945560Y-61388716D01*
X68945516Y-61389523D01*
X68945516Y-61389530D01*
X68944878Y-61401369D01*
X68944829Y-61402269D01*
X68944600Y-61410773D01*
X68944600Y-68326617D01*
X68944782Y-68334191D01*
X68945362Y-68346269D01*
X68945907Y-68353831D01*
X68965707Y-68559433D01*
X68967882Y-68574430D01*
X68972492Y-68598143D01*
X68976094Y-68612863D01*
X68976518Y-68614294D01*
X68976522Y-68614309D01*
X68978042Y-68619439D01*
X68978217Y-68690435D01*
X68939981Y-68750256D01*
X68875473Y-68779908D01*
X68810850Y-68772387D01*
X68753754Y-68749781D01*
X68746263Y-68747347D01*
X68460441Y-68673961D01*
X68452670Y-68672479D01*
X68159930Y-68635497D01*
X68152040Y-68635000D01*
X67856960Y-68635000D01*
X67849070Y-68635497D01*
X67556330Y-68672479D01*
X67548559Y-68673961D01*
X67262737Y-68747347D01*
X67255246Y-68749781D01*
X66980869Y-68858415D01*
X66973734Y-68861772D01*
X66715150Y-69003930D01*
X66708470Y-69008170D01*
X66503270Y-69157256D01*
X66494847Y-69168179D01*
X66501751Y-69181040D01*
X67991690Y-70670980D01*
X68005631Y-70678592D01*
X68007466Y-70678461D01*
X68014080Y-70674210D01*
X69042533Y-69645757D01*
X69104845Y-69611731D01*
X69175660Y-69616796D01*
X69220723Y-69645757D01*
X69401743Y-69826777D01*
X69435769Y-69889089D01*
X69430704Y-69959904D01*
X69401743Y-70004967D01*
X68376522Y-71030188D01*
X68368908Y-71044132D01*
X68369039Y-71045965D01*
X68373290Y-71052580D01*
X69864619Y-72543908D01*
X69877881Y-72551150D01*
X69887985Y-72543962D01*
X69953937Y-72464241D01*
X69958591Y-72457835D01*
X70116695Y-72208703D01*
X70120507Y-72201770D01*
X70246139Y-71934787D01*
X70249054Y-71927424D01*
X70340233Y-71646805D01*
X70342204Y-71639128D01*
X70397492Y-71349297D01*
X70398485Y-71341436D01*
X70417012Y-71046958D01*
X70417012Y-71039042D01*
X70398485Y-70744564D01*
X70397492Y-70736703D01*
X70342204Y-70446872D01*
X70340233Y-70439195D01*
X70249054Y-70158576D01*
X70246139Y-70151213D01*
X70141189Y-69928184D01*
X70130283Y-69858030D01*
X70159036Y-69793117D01*
X70218320Y-69754053D01*
X70283957Y-69751862D01*
X70319773Y-69760259D01*
X70372943Y-69772724D01*
X70374124Y-69772954D01*
X70374134Y-69772956D01*
X70378285Y-69773764D01*
X70384735Y-69775019D01*
X70389546Y-69775767D01*
X70402477Y-69777777D01*
X70402501Y-69777780D01*
X70403651Y-69777959D01*
X70404797Y-69778093D01*
X70404821Y-69778096D01*
X70413403Y-69779097D01*
X70415580Y-69779351D01*
X70416738Y-69779442D01*
X70416752Y-69779443D01*
X70695087Y-69801227D01*
X70695726Y-69801277D01*
X70696342Y-69801313D01*
X70696394Y-69801317D01*
X70701103Y-69801595D01*
X70701116Y-69801596D01*
X70701714Y-69801631D01*
X70702272Y-69801653D01*
X70702284Y-69801654D01*
X70704771Y-69801754D01*
X70711280Y-69802015D01*
X70713647Y-69802065D01*
X70716756Y-69802131D01*
X70716793Y-69802131D01*
X70717294Y-69802142D01*
X73784674Y-69808332D01*
X73852754Y-69828472D01*
X73899138Y-69882221D01*
X73909100Y-69952515D01*
X73887506Y-70006782D01*
X73802871Y-70127206D01*
X73800109Y-70134289D01*
X73800109Y-70134290D01*
X73765161Y-70223929D01*
X73745468Y-70274438D01*
X73724841Y-70431113D01*
X73742182Y-70588185D01*
X73796489Y-70736587D01*
X73884628Y-70867751D01*
X73890246Y-70872863D01*
X73989339Y-70963030D01*
X73999402Y-70972187D01*
X73999403Y-70972188D01*
X74001510Y-70974105D01*
X74001190Y-70974456D01*
X74042089Y-71026368D01*
X74048901Y-71097037D01*
X74016425Y-71160170D01*
X74007988Y-71168249D01*
X73893737Y-71267916D01*
X73889367Y-71274134D01*
X73814502Y-71380657D01*
X73802871Y-71397206D01*
X73745468Y-71544438D01*
X73744477Y-71551967D01*
X73733002Y-71639128D01*
X73724841Y-71701113D01*
X73742182Y-71858185D01*
X73796489Y-72006587D01*
X73800726Y-72012893D01*
X73800728Y-72012896D01*
X73820409Y-72042184D01*
X73884628Y-72137751D01*
X73890246Y-72142863D01*
X73962604Y-72208703D01*
X74001510Y-72244105D01*
X74140386Y-72319509D01*
X74293241Y-72359610D01*
X74373744Y-72360875D01*
X74443649Y-72361973D01*
X74443652Y-72361973D01*
X74451248Y-72362092D01*
X74458653Y-72360396D01*
X74458654Y-72360396D01*
X74535098Y-72342888D01*
X74605286Y-72326813D01*
X74746463Y-72255808D01*
X74752235Y-72250879D01*
X74752237Y-72250877D01*
X74860851Y-72158112D01*
X74860855Y-72158108D01*
X74866627Y-72153178D01*
X74871061Y-72147008D01*
X74871064Y-72147005D01*
X74915021Y-72085832D01*
X74971015Y-72042184D01*
X75041719Y-72035738D01*
X75104683Y-72068541D01*
X75121918Y-72089074D01*
X75154628Y-72137751D01*
X75160246Y-72142863D01*
X75232604Y-72208703D01*
X75271510Y-72244105D01*
X75410386Y-72319509D01*
X75563241Y-72359610D01*
X75643744Y-72360875D01*
X75713649Y-72361973D01*
X75713652Y-72361973D01*
X75721248Y-72362092D01*
X75728653Y-72360396D01*
X75728654Y-72360396D01*
X75805098Y-72342888D01*
X75875286Y-72326813D01*
X76016463Y-72255808D01*
X76022235Y-72250879D01*
X76022237Y-72250877D01*
X76130851Y-72158112D01*
X76130855Y-72158108D01*
X76136627Y-72153178D01*
X76228843Y-72024847D01*
X76287785Y-71878224D01*
X76310051Y-71721774D01*
X76310195Y-71708000D01*
X76291210Y-71551118D01*
X76235352Y-71403293D01*
X76145844Y-71273058D01*
X76148338Y-71271344D01*
X76124186Y-71219596D01*
X76133706Y-71149241D01*
X76179752Y-71095202D01*
X76200173Y-71084412D01*
X76212158Y-71082028D01*
X76262734Y-71048234D01*
X76269627Y-71037918D01*
X76289635Y-71007975D01*
X76289636Y-71007972D01*
X76296528Y-70997658D01*
X76300757Y-70976401D01*
X76304193Y-70959124D01*
X76305400Y-70953057D01*
X76305399Y-69939674D01*
X76325401Y-69871553D01*
X76379057Y-69825060D01*
X76431653Y-69813674D01*
X79209051Y-69819279D01*
X79209058Y-69819279D01*
X79209578Y-69819280D01*
X79215577Y-69819178D01*
X79225133Y-69818834D01*
X79226477Y-69818760D01*
X79230586Y-69818534D01*
X79230602Y-69818533D01*
X79231110Y-69818505D01*
X79519310Y-69797170D01*
X79520508Y-69797035D01*
X79520523Y-69797034D01*
X79530037Y-69795965D01*
X79530047Y-69795964D01*
X79531219Y-69795832D01*
X79532930Y-69795574D01*
X79548929Y-69793159D01*
X79548936Y-69793158D01*
X79550114Y-69792980D01*
X79551269Y-69792761D01*
X79551284Y-69792758D01*
X79560716Y-69790966D01*
X79560733Y-69790963D01*
X79561888Y-69790743D01*
X79563035Y-69790480D01*
X79563057Y-69790475D01*
X79724855Y-69753320D01*
X79795724Y-69757569D01*
X79853046Y-69799458D01*
X79878622Y-69865688D01*
X79867063Y-69929772D01*
X79762861Y-70151213D01*
X79759946Y-70158576D01*
X79668767Y-70439195D01*
X79666796Y-70446872D01*
X79611508Y-70736703D01*
X79610515Y-70744564D01*
X79591988Y-71039042D01*
X79591988Y-71046958D01*
X79610515Y-71341436D01*
X79611508Y-71349297D01*
X79666796Y-71639128D01*
X79668767Y-71646805D01*
X79759946Y-71927424D01*
X79762861Y-71934787D01*
X79888493Y-72201770D01*
X79892305Y-72208703D01*
X80050409Y-72457835D01*
X80055063Y-72464241D01*
X80120021Y-72542761D01*
X80132540Y-72551217D01*
X80143278Y-72545011D01*
X81632480Y-71055810D01*
X81640092Y-71041869D01*
X81639961Y-71040034D01*
X81635710Y-71033420D01*
X80607257Y-70004967D01*
X80573231Y-69942655D01*
X80578296Y-69871840D01*
X80607257Y-69826777D01*
X80788277Y-69645757D01*
X80850589Y-69611731D01*
X80921404Y-69616796D01*
X80966467Y-69645757D01*
X81991688Y-70670978D01*
X82005632Y-70678592D01*
X82007465Y-70678461D01*
X82014080Y-70674210D01*
X83507573Y-69180716D01*
X83514186Y-69168606D01*
X83505357Y-69156986D01*
X83300530Y-69008170D01*
X83293850Y-69003930D01*
X83035266Y-68861772D01*
X83028131Y-68858415D01*
X82753754Y-68749781D01*
X82746260Y-68747346D01*
X82723744Y-68741565D01*
X82662737Y-68705251D01*
X82631048Y-68641719D01*
X82638738Y-68571140D01*
X82661441Y-68535214D01*
X82664228Y-68532119D01*
X82676835Y-68523551D01*
X82682048Y-68513830D01*
X82690324Y-68506533D01*
X82698478Y-68485292D01*
X82705065Y-68470905D01*
X82710348Y-68461053D01*
X82710350Y-68461047D01*
X82715819Y-68450847D01*
X82716227Y-68447617D01*
X82716227Y-68439052D01*
X82717369Y-68439052D01*
X82718757Y-68434702D01*
X82718512Y-68433098D01*
X82719888Y-68429515D01*
X82717062Y-68405090D01*
X82716227Y-68390609D01*
X82716227Y-68163255D01*
X82716311Y-68160109D01*
X82716595Y-68157681D01*
X82716306Y-68127067D01*
X82716570Y-68120997D01*
X82716439Y-68120993D01*
X82716590Y-68116425D01*
X82716638Y-68116329D01*
X82716950Y-68113088D01*
X82716116Y-68085116D01*
X82716268Y-68078164D01*
X82716207Y-68078163D01*
X82716254Y-68073592D01*
X82716299Y-68073496D01*
X82716537Y-68070249D01*
X82716163Y-68063148D01*
X82715207Y-68044991D01*
X82715786Y-68037013D01*
X82715206Y-68037022D01*
X82715136Y-68032448D01*
X82715179Y-68032351D01*
X82715334Y-68029099D01*
X82715025Y-68025159D01*
X82715025Y-68025150D01*
X82713492Y-68005594D01*
X82713996Y-67997427D01*
X82713419Y-67997453D01*
X82713217Y-67992898D01*
X82713256Y-67992801D01*
X82713316Y-67989545D01*
X82712893Y-67985615D01*
X82712893Y-67985607D01*
X82710971Y-67967736D01*
X82711232Y-67959345D01*
X82710808Y-67959378D01*
X82710456Y-67954827D01*
X82710492Y-67954729D01*
X82710445Y-67951474D01*
X82707601Y-67931291D01*
X82707565Y-67922628D01*
X82707319Y-67922656D01*
X82706796Y-67918107D01*
X82706829Y-67918004D01*
X82706661Y-67914753D01*
X82705843Y-67910192D01*
X82703299Y-67896019D01*
X82702897Y-67887052D01*
X82702872Y-67887056D01*
X82702154Y-67882553D01*
X82702182Y-67882453D01*
X82701872Y-67879212D01*
X82698455Y-67863991D01*
X82697780Y-67855747D01*
X82697278Y-67855843D01*
X82696423Y-67851366D01*
X82696448Y-67851264D01*
X82696039Y-67848034D01*
X82694475Y-67841946D01*
X82692404Y-67833882D01*
X82691453Y-67825546D01*
X82691038Y-67825639D01*
X82690034Y-67821180D01*
X82690056Y-67821076D01*
X82689542Y-67817862D01*
X82685596Y-67804355D01*
X82684347Y-67795942D01*
X82684013Y-67796030D01*
X82682854Y-67791608D01*
X82682872Y-67791503D01*
X82682246Y-67788308D01*
X82677990Y-67775432D01*
X82676417Y-67766946D01*
X82676167Y-67767022D01*
X82674843Y-67762640D01*
X82674857Y-67762535D01*
X82674113Y-67759365D01*
X82669534Y-67747063D01*
X82667606Y-67738507D01*
X82667445Y-67738563D01*
X82665955Y-67734255D01*
X82665965Y-67734149D01*
X82665096Y-67731012D01*
X82660192Y-67719276D01*
X82657886Y-67710686D01*
X82657813Y-67710715D01*
X82656142Y-67706470D01*
X82656148Y-67706365D01*
X82655148Y-67703266D01*
X82653472Y-67699684D01*
X82653469Y-67699677D01*
X82649918Y-67692089D01*
X82647166Y-67683359D01*
X82645352Y-67679289D01*
X82645353Y-67679184D01*
X82644217Y-67676133D01*
X82642378Y-67672618D01*
X82639268Y-67666675D01*
X82636387Y-67658662D01*
X82636081Y-67658811D01*
X82634080Y-67654714D01*
X82634077Y-67654609D01*
X82632834Y-67651599D01*
X82630878Y-67648159D01*
X82629923Y-67646205D01*
X82629422Y-67644804D01*
X82627829Y-67641732D01*
X82627824Y-67641623D01*
X82626510Y-67638644D01*
X82624463Y-67635238D01*
X82622931Y-67632283D01*
X82621607Y-67628886D01*
X82620858Y-67627551D01*
X82620849Y-67627445D01*
X82619438Y-67624512D01*
X82615945Y-67619112D01*
X82612433Y-67611561D01*
X82612020Y-67611810D01*
X82609658Y-67607894D01*
X82609646Y-67607788D01*
X82608143Y-67604900D01*
X82605888Y-67601643D01*
X82605884Y-67601637D01*
X82604510Y-67599653D01*
X82600749Y-67592197D01*
X82600361Y-67592448D01*
X82597885Y-67588625D01*
X82597869Y-67588518D01*
X82596274Y-67585680D01*
X82593914Y-67582495D01*
X82593910Y-67582488D01*
X82592509Y-67580597D01*
X82588506Y-67573260D01*
X82588140Y-67573514D01*
X82585546Y-67569779D01*
X82585527Y-67569675D01*
X82583841Y-67566890D01*
X82583156Y-67566025D01*
X82580958Y-67559424D01*
X82575898Y-67550150D01*
X82575452Y-67548970D01*
X82577250Y-67548290D01*
X82560925Y-67499266D01*
X82578472Y-67430472D01*
X82580867Y-67427925D01*
X82580897Y-67427814D01*
X82581516Y-67427235D01*
X82616023Y-67390536D01*
X82617726Y-67389379D01*
X82617727Y-67389378D01*
X82619375Y-67391803D01*
X82623474Y-67387967D01*
X82628440Y-67386747D01*
X82645518Y-67371691D01*
X82658012Y-67362001D01*
X82664220Y-67357782D01*
X82664223Y-67357779D01*
X82676833Y-67349209D01*
X82682046Y-67339488D01*
X82690322Y-67332191D01*
X82698476Y-67310950D01*
X82705063Y-67296563D01*
X82710346Y-67286711D01*
X82710348Y-67286705D01*
X82715817Y-67276505D01*
X82716225Y-67273275D01*
X82716225Y-67264710D01*
X82717367Y-67264710D01*
X82718755Y-67260360D01*
X82718510Y-67258756D01*
X82719886Y-67255173D01*
X82717060Y-67230748D01*
X82716225Y-67216267D01*
X82716225Y-67119630D01*
X82736227Y-67051509D01*
X82789883Y-67005016D01*
X82839506Y-66993659D01*
X82862394Y-66993165D01*
X82887556Y-66992622D01*
X82896142Y-66989898D01*
X82896144Y-66989898D01*
X82946639Y-66973880D01*
X82946640Y-66973880D01*
X82955229Y-66971155D01*
X83029018Y-66921454D01*
X83074341Y-66866813D01*
X83083006Y-66852669D01*
X83095470Y-66832325D01*
X83095474Y-66832318D01*
X83097820Y-66828488D01*
X83128513Y-66757256D01*
X83169826Y-66661374D01*
X83170341Y-66660179D01*
X83174941Y-66648181D01*
X83181488Y-66628779D01*
X83185095Y-66616456D01*
X83234838Y-66416741D01*
X83237433Y-66404159D01*
X83240751Y-66383948D01*
X83242315Y-66371202D01*
X83259461Y-66160948D01*
X83259852Y-66154538D01*
X83260269Y-66144297D01*
X83260400Y-66137873D01*
X83260400Y-66020007D01*
X83260282Y-66013908D01*
X83259906Y-66004181D01*
X83259553Y-65998090D01*
X83236844Y-65704802D01*
X83235433Y-65692683D01*
X83232438Y-65673461D01*
X83230096Y-65661492D01*
X83229822Y-65660333D01*
X83229817Y-65660308D01*
X83163915Y-65381144D01*
X83163914Y-65381140D01*
X83163634Y-65379954D01*
X83160374Y-65368196D01*
X83154457Y-65349668D01*
X83150301Y-65338202D01*
X83102880Y-65221639D01*
X83097604Y-65210036D01*
X83097032Y-65208902D01*
X83097022Y-65208881D01*
X83091050Y-65197041D01*
X83088449Y-65191884D01*
X83053619Y-65146097D01*
X83001061Y-65098367D01*
X82921013Y-65059532D01*
X82850994Y-65047794D01*
X82842048Y-65048868D01*
X82842046Y-65048868D01*
X82828220Y-65050528D01*
X82758201Y-65038788D01*
X82708475Y-64993628D01*
X82708190Y-64991746D01*
X82703476Y-64985307D01*
X82701572Y-64977557D01*
X82691489Y-64966120D01*
X82691488Y-64966118D01*
X82683103Y-64956607D01*
X82675954Y-64947717D01*
X82666297Y-64934527D01*
X82666293Y-64934523D01*
X82659455Y-64925184D01*
X82656718Y-64923421D01*
X82652220Y-64921267D01*
X82652219Y-64921266D01*
X82651746Y-64921040D01*
X82651788Y-64920952D01*
X82651552Y-64920820D01*
X82647016Y-64915675D01*
X82645779Y-64915200D01*
X82645778Y-64915199D01*
X82641018Y-64913372D01*
X82641007Y-64913368D01*
X82632782Y-64910211D01*
X82632780Y-64910210D01*
X82619112Y-64904964D01*
X82609849Y-64900976D01*
X82541003Y-64868006D01*
X82488203Y-64820543D01*
X82469446Y-64752069D01*
X82490686Y-64684324D01*
X82542466Y-64640035D01*
X82592318Y-64616943D01*
X82594631Y-64615979D01*
X82608602Y-64614363D01*
X82631533Y-64598779D01*
X82632230Y-64599805D01*
X82634564Y-64597375D01*
X82637457Y-64596035D01*
X82643387Y-64591291D01*
X82643393Y-64591288D01*
X82644293Y-64590568D01*
X82652174Y-64584751D01*
X82664225Y-64576561D01*
X82676833Y-64567993D01*
X82680074Y-64561949D01*
X82685430Y-64557665D01*
X82697440Y-64530364D01*
X82701729Y-64521562D01*
X82710346Y-64505492D01*
X82715817Y-64495289D01*
X82716225Y-64492059D01*
X82716225Y-64487666D01*
X82718651Y-64482152D01*
X82716510Y-64450370D01*
X82716225Y-64441902D01*
X82716225Y-64270329D01*
X82719419Y-64270329D01*
X82718511Y-64264375D01*
X82719886Y-64260792D01*
X82717060Y-64236367D01*
X82716706Y-64230235D01*
X82716225Y-64226261D01*
X82716225Y-64218661D01*
X82714412Y-64211279D01*
X82713638Y-64204886D01*
X82713019Y-64201445D01*
X82712156Y-64193989D01*
X82710404Y-64178842D01*
X82704204Y-64169719D01*
X82701572Y-64159004D01*
X82686516Y-64141926D01*
X82676826Y-64129432D01*
X82672607Y-64123224D01*
X82672604Y-64123221D01*
X82664034Y-64110611D01*
X82654313Y-64105398D01*
X82647016Y-64097122D01*
X82625775Y-64088968D01*
X82611388Y-64082381D01*
X82601536Y-64077098D01*
X82601530Y-64077096D01*
X82591330Y-64071627D01*
X82588100Y-64071219D01*
X82579535Y-64071219D01*
X82579535Y-64070077D01*
X82575185Y-64068689D01*
X82573581Y-64068934D01*
X82569998Y-64067558D01*
X82545574Y-64070384D01*
X82531092Y-64071219D01*
X82263190Y-64071219D01*
X82195069Y-64051217D01*
X82148576Y-63997561D01*
X82137190Y-63945219D01*
X82137190Y-63519131D01*
X82157192Y-63451010D01*
X82210848Y-63404517D01*
X82263190Y-63393131D01*
X82517112Y-63393131D01*
X82517112Y-63396325D01*
X82523066Y-63395417D01*
X82526649Y-63396792D01*
X82551074Y-63393966D01*
X82557206Y-63393612D01*
X82561180Y-63393131D01*
X82568780Y-63393131D01*
X82576162Y-63391318D01*
X82582555Y-63390544D01*
X82585994Y-63389925D01*
X82608599Y-63387310D01*
X82617722Y-63381110D01*
X82628437Y-63378478D01*
X82645515Y-63363422D01*
X82658009Y-63353732D01*
X82664217Y-63349513D01*
X82664220Y-63349510D01*
X82676830Y-63340940D01*
X82682043Y-63331219D01*
X82690319Y-63323922D01*
X82698473Y-63302681D01*
X82705060Y-63288294D01*
X82710343Y-63278442D01*
X82710345Y-63278436D01*
X82715814Y-63268236D01*
X82716222Y-63265006D01*
X82716222Y-63256441D01*
X82717364Y-63256441D01*
X82718752Y-63252091D01*
X82718507Y-63250487D01*
X82719883Y-63246904D01*
X82717057Y-63222479D01*
X82716222Y-63207998D01*
X82716222Y-63102962D01*
X82719416Y-63102962D01*
X82718508Y-63097008D01*
X82719883Y-63093425D01*
X82717057Y-63069000D01*
X82716703Y-63062868D01*
X82716222Y-63058894D01*
X82716222Y-63051294D01*
X82714409Y-63043912D01*
X82713635Y-63037519D01*
X82713016Y-63034078D01*
X82712153Y-63026622D01*
X82710401Y-63011475D01*
X82704201Y-63002352D01*
X82701569Y-62991637D01*
X82686513Y-62974559D01*
X82676823Y-62962065D01*
X82672604Y-62955857D01*
X82672601Y-62955854D01*
X82664031Y-62943244D01*
X82654310Y-62938031D01*
X82647013Y-62929755D01*
X82625772Y-62921601D01*
X82611385Y-62915014D01*
X82601531Y-62909730D01*
X82601525Y-62909728D01*
X82591327Y-62904260D01*
X82588097Y-62903852D01*
X82583112Y-62903852D01*
X82574664Y-62901156D01*
X82515849Y-62861391D01*
X82487870Y-62796140D01*
X82499610Y-62726120D01*
X82547341Y-62673563D01*
X82579410Y-62662524D01*
X82579161Y-62661854D01*
X82593452Y-62656540D01*
X82608599Y-62654787D01*
X82617722Y-62648587D01*
X82628437Y-62645955D01*
X82645515Y-62630899D01*
X82658009Y-62621209D01*
X82664217Y-62616990D01*
X82664220Y-62616987D01*
X82676830Y-62608417D01*
X82682043Y-62598696D01*
X82690319Y-62591399D01*
X82698473Y-62570158D01*
X82705060Y-62555771D01*
X82710343Y-62545919D01*
X82710345Y-62545913D01*
X82715814Y-62535713D01*
X82716222Y-62532483D01*
X82716222Y-62523918D01*
X82717364Y-62523918D01*
X82718752Y-62519568D01*
X82718507Y-62517964D01*
X82719883Y-62514381D01*
X82717057Y-62489956D01*
X82716222Y-62475475D01*
X82716222Y-62370437D01*
X82719416Y-62370437D01*
X82718508Y-62364483D01*
X82719883Y-62360899D01*
X82717057Y-62336477D01*
X82716704Y-62330350D01*
X82716222Y-62326367D01*
X82716222Y-62318771D01*
X82714410Y-62311394D01*
X82713637Y-62305003D01*
X82713016Y-62301555D01*
X82712153Y-62294099D01*
X82710400Y-62278949D01*
X82704200Y-62269827D01*
X82701569Y-62259114D01*
X82693323Y-62249761D01*
X82679948Y-62182434D01*
X82693176Y-62146024D01*
X82690324Y-62144929D01*
X82698478Y-62123687D01*
X82705065Y-62109300D01*
X82710348Y-62099448D01*
X82710350Y-62099442D01*
X82715819Y-62089242D01*
X82716227Y-62086012D01*
X82716227Y-62077447D01*
X82717369Y-62077447D01*
X82718757Y-62073097D01*
X82718512Y-62071493D01*
X82719888Y-62067910D01*
X82717062Y-62043485D01*
X82716227Y-62029004D01*
X82716227Y-61801647D01*
X82716311Y-61798501D01*
X82716595Y-61796073D01*
X82716306Y-61765463D01*
X82716570Y-61759394D01*
X82716439Y-61759390D01*
X82716590Y-61754816D01*
X82716638Y-61754721D01*
X82716950Y-61751481D01*
X82716116Y-61723507D01*
X82716267Y-61716555D01*
X82716207Y-61716554D01*
X82716254Y-61711983D01*
X82716299Y-61711887D01*
X82716537Y-61708640D01*
X82716329Y-61704690D01*
X82715207Y-61683382D01*
X82715786Y-61675404D01*
X82715206Y-61675413D01*
X82715136Y-61670839D01*
X82715179Y-61670742D01*
X82715334Y-61667490D01*
X82715025Y-61663550D01*
X82715025Y-61663541D01*
X82713492Y-61643984D01*
X82713995Y-61635819D01*
X82713419Y-61635845D01*
X82713217Y-61631288D01*
X82713256Y-61631191D01*
X82713316Y-61627936D01*
X82712893Y-61624006D01*
X82712893Y-61623998D01*
X82710971Y-61606128D01*
X82711232Y-61597731D01*
X82710807Y-61597764D01*
X82710456Y-61593220D01*
X82710492Y-61593121D01*
X82710445Y-61589866D01*
X82707598Y-61569658D01*
X82707561Y-61560998D01*
X82707319Y-61561026D01*
X82706797Y-61556496D01*
X82706830Y-61556395D01*
X82706661Y-61553144D01*
X82705963Y-61549255D01*
X82705961Y-61549237D01*
X82703300Y-61534413D01*
X82702898Y-61525445D01*
X82702872Y-61525449D01*
X82702154Y-61520946D01*
X82702182Y-61520846D01*
X82701872Y-61517605D01*
X82698455Y-61502384D01*
X82697780Y-61494138D01*
X82697278Y-61494234D01*
X82696423Y-61489758D01*
X82696448Y-61489657D01*
X82696039Y-61486427D01*
X82692745Y-61473604D01*
X82692403Y-61472272D01*
X82691453Y-61463939D01*
X82691038Y-61464032D01*
X82690034Y-61459573D01*
X82690056Y-61459469D01*
X82689542Y-61456255D01*
X82686638Y-61446314D01*
X82685595Y-61442746D01*
X82684347Y-61434334D01*
X82684013Y-61434422D01*
X82682854Y-61430001D01*
X82682872Y-61429898D01*
X82682246Y-61426704D01*
X82680871Y-61422545D01*
X82677989Y-61413822D01*
X82676416Y-61405333D01*
X82676165Y-61405409D01*
X82674843Y-61401033D01*
X82674857Y-61400927D01*
X82674113Y-61397757D01*
X82669533Y-61385452D01*
X82667606Y-61376899D01*
X82667445Y-61376955D01*
X82665955Y-61372646D01*
X82665965Y-61372541D01*
X82665096Y-61369404D01*
X82663572Y-61365758D01*
X82663570Y-61365751D01*
X82660196Y-61357678D01*
X82657886Y-61349078D01*
X82657813Y-61349107D01*
X82656142Y-61344862D01*
X82656148Y-61344757D01*
X82655148Y-61341658D01*
X82653472Y-61338076D01*
X82653469Y-61338069D01*
X82649920Y-61330486D01*
X82647170Y-61321763D01*
X82645353Y-61317687D01*
X82645354Y-61317580D01*
X82644218Y-61314529D01*
X82639270Y-61305074D01*
X82636387Y-61297053D01*
X82636081Y-61297202D01*
X82634080Y-61293105D01*
X82634077Y-61293000D01*
X82632834Y-61289990D01*
X82630878Y-61286550D01*
X82629923Y-61284596D01*
X82629422Y-61283195D01*
X82627829Y-61280123D01*
X82627824Y-61280014D01*
X82626510Y-61277035D01*
X82624463Y-61273629D01*
X82622931Y-61270674D01*
X82621607Y-61267277D01*
X82620858Y-61265942D01*
X82620849Y-61265836D01*
X82619438Y-61262903D01*
X82615945Y-61257503D01*
X82612433Y-61249952D01*
X82612020Y-61250201D01*
X82609658Y-61246285D01*
X82609646Y-61246179D01*
X82608143Y-61243291D01*
X82604516Y-61238052D01*
X82600758Y-61230603D01*
X82600371Y-61230854D01*
X82597887Y-61227019D01*
X82597872Y-61226915D01*
X82596277Y-61224076D01*
X82593925Y-61220901D01*
X82593916Y-61220887D01*
X82592515Y-61218996D01*
X82588510Y-61211652D01*
X82588144Y-61211907D01*
X82585544Y-61208164D01*
X82585525Y-61208060D01*
X82583839Y-61205275D01*
X82579949Y-61200363D01*
X82575701Y-61193142D01*
X82575353Y-61193401D01*
X82572632Y-61189744D01*
X82572610Y-61189641D01*
X82570834Y-61186912D01*
X82566813Y-61182162D01*
X82562319Y-61175065D01*
X82561988Y-61175329D01*
X82559155Y-61171772D01*
X82559130Y-61171671D01*
X82557265Y-61169002D01*
X82553126Y-61164426D01*
X82548396Y-61157471D01*
X82548075Y-61157744D01*
X82545116Y-61154270D01*
X82545087Y-61154167D01*
X82543136Y-61151561D01*
X82540383Y-61148712D01*
X82540376Y-61148704D01*
X82538852Y-61147127D01*
X82533894Y-61140333D01*
X82533589Y-61140611D01*
X82530518Y-61137239D01*
X82530486Y-61137139D01*
X82528449Y-61134599D01*
X82525602Y-61131842D01*
X82524030Y-61130319D01*
X82518851Y-61123698D01*
X82518556Y-61123985D01*
X82515382Y-61120724D01*
X82515347Y-61120625D01*
X82513227Y-61118154D01*
X82510304Y-61115505D01*
X82510291Y-61115492D01*
X82508681Y-61114033D01*
X82503282Y-61107580D01*
X82502993Y-61107880D01*
X82499703Y-61104715D01*
X82499664Y-61104616D01*
X82497464Y-61102216D01*
X82495961Y-61100942D01*
X82492153Y-61094279D01*
X82486458Y-61087472D01*
X82485712Y-61086279D01*
X82487089Y-61085418D01*
X82460955Y-61039686D01*
X82464646Y-60968785D01*
X82506084Y-60911136D01*
X82552198Y-60888480D01*
X82746263Y-60838653D01*
X82753754Y-60836219D01*
X83028131Y-60727585D01*
X83035266Y-60724228D01*
X83293850Y-60582070D01*
X83300530Y-60577830D01*
X83505730Y-60428744D01*
X83514153Y-60417821D01*
X83507249Y-60404960D01*
X82017310Y-58915020D01*
X82003369Y-58907408D01*
X82001534Y-58907539D01*
X81994920Y-58911790D01*
X80966467Y-59940243D01*
X80904155Y-59974269D01*
X80833340Y-59969204D01*
X80788277Y-59940243D01*
X80607257Y-59759223D01*
X80573231Y-59696911D01*
X80578296Y-59626096D01*
X80607257Y-59581033D01*
X81632478Y-58555812D01*
X81640092Y-58541868D01*
X81639961Y-58540035D01*
X81635710Y-58533420D01*
X80144381Y-57042092D01*
X80131119Y-57034850D01*
X80121015Y-57042038D01*
X80055063Y-57121759D01*
X80050409Y-57128165D01*
X79892305Y-57377297D01*
X79888493Y-57384230D01*
X79761172Y-57654803D01*
X79759625Y-57654075D01*
X79720231Y-57704579D01*
X79653232Y-57728066D01*
X79622155Y-57725813D01*
X79574269Y-57716288D01*
X79561394Y-57717440D01*
X79556500Y-57732596D01*
X79556500Y-59271000D01*
X79536498Y-59339121D01*
X79482842Y-59385614D01*
X79430500Y-59397000D01*
X78162615Y-59397000D01*
X78147376Y-59401475D01*
X78146171Y-59402865D01*
X78144500Y-59410548D01*
X78144500Y-59494092D01*
X78144766Y-59499881D01*
X78158484Y-59649176D01*
X78160582Y-59660497D01*
X78215213Y-59854203D01*
X78219339Y-59864955D01*
X78250563Y-59928270D01*
X78262753Y-59998212D01*
X78235194Y-60063641D01*
X78176636Y-60103785D01*
X78138692Y-60109993D01*
X76530910Y-60124477D01*
X76462612Y-60105089D01*
X76415638Y-60051855D01*
X76404901Y-59981675D01*
X76416749Y-59942795D01*
X76431331Y-59913198D01*
X76431333Y-59913193D01*
X76432194Y-59911446D01*
X76441184Y-59889921D01*
X76460773Y-59834213D01*
X76461277Y-59832466D01*
X76467233Y-59811802D01*
X76467240Y-59811775D01*
X76467536Y-59810749D01*
X76475931Y-59777485D01*
X76477334Y-59771024D01*
X76479963Y-59758121D01*
X76480302Y-59756341D01*
X76482983Y-59741007D01*
X76483293Y-59739060D01*
X76485607Y-59722764D01*
X76485648Y-59722478D01*
X76485656Y-59722419D01*
X76485723Y-59721946D01*
X76486004Y-59719696D01*
X76487687Y-59704343D01*
X76487941Y-59701654D01*
X76488957Y-59689319D01*
X76488973Y-59689094D01*
X76488978Y-59689027D01*
X76489166Y-59686345D01*
X76489169Y-59686299D01*
X76489186Y-59686057D01*
X76489368Y-59683075D01*
X76489747Y-59676826D01*
X76489751Y-59676752D01*
X76489771Y-59676425D01*
X76489975Y-59672452D01*
X76490285Y-59665504D01*
X76490467Y-59660687D01*
X76490474Y-59660497D01*
X76490638Y-59655460D01*
X76490791Y-59649906D01*
X76490798Y-59649661D01*
X76490888Y-59645891D01*
X76491028Y-59638976D01*
X76491077Y-59636187D01*
X76491198Y-59628020D01*
X76491224Y-59626001D01*
X76491328Y-59616445D01*
X76491342Y-59614888D01*
X76491429Y-59603810D01*
X76491437Y-59602720D01*
X76491510Y-59589982D01*
X76491514Y-59589124D01*
X76491573Y-59574592D01*
X76491575Y-59574004D01*
X76491623Y-59557542D01*
X76491624Y-59557042D01*
X76491660Y-59538514D01*
X76491750Y-59538514D01*
X76491679Y-59538185D01*
X76491661Y-59538185D01*
X76491688Y-59517455D01*
X76491688Y-59517209D01*
X76491707Y-59494142D01*
X76491707Y-59493980D01*
X76491720Y-59468440D01*
X76491720Y-59468307D01*
X76491727Y-59440159D01*
X76491727Y-59440081D01*
X76491730Y-59409189D01*
X76491730Y-59131047D01*
X76490027Y-59115486D01*
X76480926Y-59032361D01*
X76479561Y-59019895D01*
X76476249Y-59004950D01*
X76471797Y-58986481D01*
X76466370Y-58965668D01*
X76452790Y-58921742D01*
X76452318Y-58920428D01*
X76452275Y-58920298D01*
X76449678Y-58849349D01*
X76485852Y-58788259D01*
X76549310Y-58756423D01*
X76624135Y-58765788D01*
X76649019Y-58777152D01*
X76793753Y-58797962D01*
X76937231Y-58797962D01*
X76976702Y-58795139D01*
X77003604Y-58793215D01*
X77003605Y-58793215D01*
X77010342Y-58792733D01*
X77016824Y-58790830D01*
X77016828Y-58790829D01*
X77059707Y-58778239D01*
X77121236Y-58775854D01*
X77144713Y-58780811D01*
X77146844Y-58781261D01*
X77147805Y-58781432D01*
X77147812Y-58781433D01*
X77151338Y-58782059D01*
X77163684Y-58784251D01*
X77190677Y-58788307D01*
X77209378Y-58790611D01*
X77210036Y-58790679D01*
X77210048Y-58790680D01*
X77214533Y-58791141D01*
X77229961Y-58792727D01*
X77230643Y-58792783D01*
X77230651Y-58792784D01*
X77250552Y-58794426D01*
X77250649Y-58794434D01*
X77251018Y-58794464D01*
X77251394Y-58794492D01*
X77251463Y-58794497D01*
X77259929Y-58795119D01*
X77260000Y-58795124D01*
X77260206Y-58795139D01*
X77263619Y-58795359D01*
X77274693Y-58795931D01*
X77276260Y-58796012D01*
X77276266Y-58796012D01*
X77276706Y-58796035D01*
X77278493Y-58796104D01*
X77280402Y-58796179D01*
X77280465Y-58796181D01*
X77280744Y-58796192D01*
X77281081Y-58796202D01*
X77281163Y-58796205D01*
X77285914Y-58796348D01*
X77289633Y-58796461D01*
X77289899Y-58796467D01*
X77289909Y-58796467D01*
X77296453Y-58796608D01*
X77300113Y-58796674D01*
X77309541Y-58796810D01*
X77311449Y-58796834D01*
X77323307Y-58796961D01*
X77324551Y-58796972D01*
X77338665Y-58797089D01*
X77339529Y-58797096D01*
X77355723Y-58797203D01*
X77356363Y-58797207D01*
X77374460Y-58797304D01*
X77374960Y-58797306D01*
X77394558Y-58797392D01*
X77394786Y-58797393D01*
X77394970Y-58797394D01*
X77395124Y-58797395D01*
X77395166Y-58797395D01*
X77416545Y-58797473D01*
X77416906Y-58797474D01*
X77416906Y-58797475D01*
X77416922Y-58797475D01*
X77416928Y-58797474D01*
X77438982Y-58797539D01*
X77439661Y-58797541D01*
X77439666Y-58797541D01*
X77439930Y-58797542D01*
X77439930Y-58797541D01*
X77463887Y-58797599D01*
X77464144Y-58797600D01*
X77489126Y-58797648D01*
X77489621Y-58797648D01*
X77514988Y-58797687D01*
X77515168Y-58797687D01*
X77515401Y-58797688D01*
X77541907Y-58797716D01*
X77542089Y-58797716D01*
X77569093Y-58797735D01*
X77569285Y-58797735D01*
X77596612Y-58797744D01*
X77624441Y-58797744D01*
X77651886Y-58797734D01*
X77652076Y-58797734D01*
X77679316Y-58797714D01*
X77679494Y-58797714D01*
X77706354Y-58797685D01*
X77706455Y-58797685D01*
X77706697Y-58797684D01*
X77706869Y-58797684D01*
X77732695Y-58797645D01*
X77733067Y-58797645D01*
X77758640Y-58797597D01*
X77758884Y-58797597D01*
X77783548Y-58797539D01*
X77783800Y-58797538D01*
X77783940Y-58797538D01*
X77807050Y-58797472D01*
X77807382Y-58797471D01*
X77807395Y-58797471D01*
X77807694Y-58797470D01*
X77830017Y-58797393D01*
X77830360Y-58797392D01*
X77830463Y-58797392D01*
X77851249Y-58797306D01*
X77851692Y-58797304D01*
X77870970Y-58797208D01*
X77871496Y-58797205D01*
X77888988Y-58797100D01*
X77889708Y-58797095D01*
X77905239Y-58796980D01*
X77906191Y-58796972D01*
X77919584Y-58796848D01*
X77920994Y-58796833D01*
X77932074Y-58796700D01*
X77934398Y-58796667D01*
X77942989Y-58796525D01*
X77943149Y-58796522D01*
X77943237Y-58796520D01*
X77946047Y-58796460D01*
X77947669Y-58796426D01*
X77953596Y-58796274D01*
X77963108Y-58795942D01*
X77963943Y-58795905D01*
X77964721Y-58795871D01*
X77964747Y-58795870D01*
X77965416Y-58795840D01*
X77966085Y-58795796D01*
X77966101Y-58795795D01*
X77986951Y-58794420D01*
X77986965Y-58794419D01*
X77987631Y-58794375D01*
X77997605Y-58793500D01*
X78015833Y-58791901D01*
X78085441Y-58805873D01*
X78136445Y-58855261D01*
X78147740Y-58881919D01*
X78148975Y-58886124D01*
X78150365Y-58887329D01*
X78158048Y-58889000D01*
X79030385Y-58889000D01*
X79045624Y-58884525D01*
X79046829Y-58883135D01*
X79048500Y-58875452D01*
X79048500Y-57729706D01*
X79044694Y-57716744D01*
X79029778Y-57714808D01*
X79007200Y-57718687D01*
X78996083Y-57721666D01*
X78860081Y-57771840D01*
X78789248Y-57776652D01*
X78727057Y-57742405D01*
X78693255Y-57679972D01*
X78690470Y-57653618D01*
X78690475Y-57598103D01*
X78690476Y-57573507D01*
X78690489Y-57418269D01*
X78690489Y-57416012D01*
X78689628Y-57403959D01*
X78685742Y-57349605D01*
X78685260Y-57342860D01*
X78659862Y-57256364D01*
X78646603Y-57211206D01*
X78646602Y-57211204D01*
X78644064Y-57202560D01*
X78608281Y-57146880D01*
X78569882Y-57087130D01*
X78569880Y-57087127D01*
X78565010Y-57079550D01*
X78543100Y-57060565D01*
X78461315Y-56989697D01*
X78461312Y-56989695D01*
X78454503Y-56983795D01*
X78409161Y-56963088D01*
X78350972Y-56936514D01*
X78297316Y-56890021D01*
X78277314Y-56821900D01*
X78297316Y-56753779D01*
X78350972Y-56707286D01*
X78403314Y-56695900D01*
X80464420Y-56695900D01*
X80532541Y-56715902D01*
X80553516Y-56732805D01*
X81409961Y-57589251D01*
X81991689Y-58170979D01*
X82005632Y-58178592D01*
X82007466Y-58178461D01*
X82014080Y-58174210D01*
X83035773Y-57152517D01*
X83098085Y-57118491D01*
X83168900Y-57123556D01*
X83207946Y-57146880D01*
X83304395Y-57231464D01*
X83316036Y-57243105D01*
X83339212Y-57269532D01*
X83400620Y-57339555D01*
X83430497Y-57403959D01*
X83420811Y-57474292D01*
X83394983Y-57511727D01*
X82376522Y-58530188D01*
X82368908Y-58544132D01*
X82369039Y-58545965D01*
X82373290Y-58552580D01*
X83814695Y-59993984D01*
X83848720Y-60056296D01*
X83851600Y-60083079D01*
X83851600Y-69502921D01*
X83831598Y-69571042D01*
X83814695Y-69592016D01*
X82376520Y-71030190D01*
X82368908Y-71044131D01*
X82369039Y-71045966D01*
X82373290Y-71052580D01*
X83394983Y-72074273D01*
X83429009Y-72136585D01*
X83423944Y-72207400D01*
X83400620Y-72246445D01*
X83316036Y-72342895D01*
X83304395Y-72354536D01*
X83228124Y-72421424D01*
X83207945Y-72439120D01*
X83143541Y-72468997D01*
X83073208Y-72459311D01*
X83035773Y-72433483D01*
X82017312Y-71415022D01*
X82003368Y-71407408D01*
X82001535Y-71407539D01*
X81994920Y-71411790D01*
X80553516Y-72853195D01*
X80491204Y-72887220D01*
X80464421Y-72890100D01*
X69544579Y-72890100D01*
X69476458Y-72870098D01*
X69455484Y-72853195D01*
X68017310Y-71415020D01*
X68003369Y-71407408D01*
X68001534Y-71407539D01*
X67994920Y-71411790D01*
X66973227Y-72433483D01*
X66910915Y-72467509D01*
X66840100Y-72462444D01*
X66801055Y-72439120D01*
X66780876Y-72421424D01*
X66704605Y-72354536D01*
X66692964Y-72342895D01*
X66608380Y-72246445D01*
X66578503Y-72182041D01*
X66588189Y-72111708D01*
X66614017Y-72074273D01*
X67632478Y-71055812D01*
X67640092Y-71041868D01*
X67639961Y-71040035D01*
X67635710Y-71033420D01*
X66194305Y-69592016D01*
X66160280Y-69529704D01*
X66157400Y-69502921D01*
X66157400Y-60083079D01*
X66177402Y-60014958D01*
X66194305Y-59993984D01*
X67632480Y-58555810D01*
X67640092Y-58541869D01*
X67639961Y-58540034D01*
X67635710Y-58533420D01*
X66614017Y-57511727D01*
X66579991Y-57449415D01*
X66585056Y-57378600D01*
X66608380Y-57339555D01*
X66669788Y-57269532D01*
X66692964Y-57243105D01*
X66704605Y-57231464D01*
X66801054Y-57146880D01*
X66865459Y-57117003D01*
X66935792Y-57126689D01*
X66973227Y-57152517D01*
X67991688Y-58170978D01*
X68005632Y-58178592D01*
X68007465Y-58178461D01*
X68014080Y-58174210D01*
X68599039Y-57589251D01*
X69455484Y-56732805D01*
X69517796Y-56698779D01*
X69544579Y-56695900D01*
X71800030Y-56695900D01*
X71868151Y-56715902D01*
G37*
G04 #@! TD.AperFunction*
M02*
