G04 #@! TF.GenerationSoftware,KiCad,Pcbnew,(6.0.4)*
G04 #@! TF.CreationDate,2022-05-20T19:37:54+02:00*
G04 #@! TF.ProjectId,Unified-Daughterboard-rounded,556e6966-6965-4642-9d44-617567687465,C3*
G04 #@! TF.SameCoordinates,Original*
G04 #@! TF.FileFunction,Paste,Top*
G04 #@! TF.FilePolarity,Positive*
%FSLAX46Y46*%
G04 Gerber Fmt 4.6, Leading zero omitted, Abs format (unit mm)*
G04 Created by KiCad (PCBNEW (6.0.4)) date 2022-05-20 19:37:54*
%MOMM*%
%LPD*%
G01*
G04 APERTURE LIST*
G04 Aperture macros list*
%AMRoundRect*
0 Rectangle with rounded corners*
0 $1 Rounding radius*
0 $2 $3 $4 $5 $6 $7 $8 $9 X,Y pos of 4 corners*
0 Add a 4 corners polygon primitive as box body*
4,1,4,$2,$3,$4,$5,$6,$7,$8,$9,$2,$3,0*
0 Add four circle primitives for the rounded corners*
1,1,$1+$1,$2,$3*
1,1,$1+$1,$4,$5*
1,1,$1+$1,$6,$7*
1,1,$1+$1,$8,$9*
0 Add four rect primitives between the rounded corners*
20,1,$1+$1,$2,$3,$4,$5,0*
20,1,$1+$1,$4,$5,$6,$7,0*
20,1,$1+$1,$6,$7,$8,$9,0*
20,1,$1+$1,$8,$9,$2,$3,0*%
G04 Aperture macros list end*
%ADD10RoundRect,0.125000X0.000000X-0.150000X0.000000X-0.150000X0.000000X0.150000X0.000000X0.150000X0*%
%ADD11R,0.250000X0.550000*%
%ADD12R,0.300000X0.550000*%
%ADD13RoundRect,0.250000X-0.475000X0.250000X-0.475000X-0.250000X0.475000X-0.250000X0.475000X0.250000X0*%
%ADD14RoundRect,0.237500X-0.237500X0.287500X-0.237500X-0.287500X0.237500X-0.287500X0.237500X0.287500X0*%
%ADD15RoundRect,0.150000X0.150000X0.575000X-0.150000X0.575000X-0.150000X-0.575000X0.150000X-0.575000X0*%
%ADD16RoundRect,0.075000X0.075000X0.650000X-0.075000X0.650000X-0.075000X-0.650000X0.075000X-0.650000X0*%
%ADD17R,1.200000X1.800000*%
%ADD18R,0.600000X1.550000*%
%ADD19RoundRect,0.160000X-0.252791X0.026517X0.026517X-0.252791X0.252791X-0.026517X-0.026517X0.252791X0*%
%ADD20R,0.900000X1.200000*%
%ADD21RoundRect,0.160000X-0.160000X0.197500X-0.160000X-0.197500X0.160000X-0.197500X0.160000X0.197500X0*%
%ADD22RoundRect,0.250000X0.176777X-0.707107X0.707107X-0.176777X-0.176777X0.707107X-0.707107X0.176777X0*%
G04 APERTURE END LIST*
D10*
X74002500Y-66411400D03*
D11*
X74502500Y-66411400D03*
D12*
X75002500Y-66411400D03*
D11*
X75502500Y-66411400D03*
X76002500Y-66411400D03*
X76002500Y-65641400D03*
X75502500Y-65641400D03*
D12*
X75002500Y-65641400D03*
D11*
X74502500Y-65641400D03*
X74002500Y-65641400D03*
D13*
X81702500Y-62293000D03*
X81702500Y-64193000D03*
D14*
X68202500Y-62968000D03*
X68202500Y-64718000D03*
D15*
X78252500Y-64118000D03*
X77452500Y-64118000D03*
D16*
X76252500Y-64118000D03*
X75256500Y-64118000D03*
X74752500Y-64118000D03*
X73752500Y-64118000D03*
D15*
X71752500Y-64118000D03*
X72552500Y-64118000D03*
D16*
X73252500Y-64118000D03*
X74252500Y-64118000D03*
X75752500Y-64118000D03*
X76752500Y-64118000D03*
D17*
X72204500Y-71893000D03*
X77804500Y-71893000D03*
D18*
X73504500Y-68018000D03*
X74504500Y-68018000D03*
X75504500Y-68018000D03*
X76504500Y-68018000D03*
D19*
X77480004Y-66420504D03*
X78324996Y-67265496D03*
D20*
X70452500Y-67243000D03*
X67152500Y-67243000D03*
D21*
X72102500Y-66445500D03*
X72102500Y-67640500D03*
D22*
X79712551Y-68432949D03*
X81692449Y-66453051D03*
M02*
