G04 #@! TF.GenerationSoftware,KiCad,Pcbnew,(6.0.4)*
G04 #@! TF.CreationDate,2022-05-20T19:37:54+02:00*
G04 #@! TF.ProjectId,Unified-Daughterboard-rounded,556e6966-6965-4642-9d44-617567687465,C3*
G04 #@! TF.SameCoordinates,Original*
G04 #@! TF.FileFunction,AssemblyDrawing,Top*
%FSLAX46Y46*%
G04 Gerber Fmt 4.6, Leading zero omitted, Abs format (unit mm)*
G04 Created by KiCad (PCBNEW (6.0.4)) date 2022-05-20 19:37:54*
%MOMM*%
%LPD*%
G01*
G04 APERTURE LIST*
%ADD10C,0.150000*%
%ADD11C,0.063500*%
%ADD12C,0.100000*%
%ADD13C,0.080000*%
%ADD14C,0.060000*%
%ADD15C,0.125000*%
%ADD16C,0.040000*%
%ADD17C,0.090000*%
%ADD18C,0.050800*%
%ADD19C,0.120000*%
%ADD20C,0.050000*%
G04 APERTURE END LIST*
D10*
X61433071Y-74395380D02*
X61433071Y-73395380D01*
X61766404Y-74109666D01*
X62099738Y-73395380D01*
X62099738Y-74395380D01*
X62718785Y-74395380D02*
X62623547Y-74347761D01*
X62575928Y-74300142D01*
X62528309Y-74204904D01*
X62528309Y-73919190D01*
X62575928Y-73823952D01*
X62623547Y-73776333D01*
X62718785Y-73728714D01*
X62861642Y-73728714D01*
X62956880Y-73776333D01*
X63004499Y-73823952D01*
X63052119Y-73919190D01*
X63052119Y-74204904D01*
X63004499Y-74300142D01*
X62956880Y-74347761D01*
X62861642Y-74395380D01*
X62718785Y-74395380D01*
X63909261Y-73728714D02*
X63909261Y-74395380D01*
X63480690Y-73728714D02*
X63480690Y-74252523D01*
X63528309Y-74347761D01*
X63623547Y-74395380D01*
X63766404Y-74395380D01*
X63861642Y-74347761D01*
X63909261Y-74300142D01*
X64385452Y-73728714D02*
X64385452Y-74395380D01*
X64385452Y-73823952D02*
X64433071Y-73776333D01*
X64528309Y-73728714D01*
X64671166Y-73728714D01*
X64766404Y-73776333D01*
X64814023Y-73871571D01*
X64814023Y-74395380D01*
X65147357Y-73728714D02*
X65528309Y-73728714D01*
X65290214Y-73395380D02*
X65290214Y-74252523D01*
X65337833Y-74347761D01*
X65433071Y-74395380D01*
X65528309Y-74395380D01*
X65861642Y-74395380D02*
X65861642Y-73728714D01*
X65861642Y-73395380D02*
X65814023Y-73443000D01*
X65861642Y-73490619D01*
X65909261Y-73443000D01*
X65861642Y-73395380D01*
X65861642Y-73490619D01*
X66337833Y-73728714D02*
X66337833Y-74395380D01*
X66337833Y-73823952D02*
X66385452Y-73776333D01*
X66480690Y-73728714D01*
X66623547Y-73728714D01*
X66718785Y-73776333D01*
X66766404Y-73871571D01*
X66766404Y-74395380D01*
X67671166Y-73728714D02*
X67671166Y-74538238D01*
X67623547Y-74633476D01*
X67575928Y-74681095D01*
X67480690Y-74728714D01*
X67337833Y-74728714D01*
X67242595Y-74681095D01*
X67671166Y-74347761D02*
X67575928Y-74395380D01*
X67385452Y-74395380D01*
X67290214Y-74347761D01*
X67242595Y-74300142D01*
X67194976Y-74204904D01*
X67194976Y-73919190D01*
X67242595Y-73823952D01*
X67290214Y-73776333D01*
X67385452Y-73728714D01*
X67575928Y-73728714D01*
X67671166Y-73776333D01*
X68147357Y-74395380D02*
X68147357Y-73395380D01*
X68147357Y-73871571D02*
X68718785Y-73871571D01*
X68718785Y-74395380D02*
X68718785Y-73395380D01*
X69337833Y-74395380D02*
X69242595Y-74347761D01*
X69194976Y-74300142D01*
X69147357Y-74204904D01*
X69147357Y-73919190D01*
X69194976Y-73823952D01*
X69242595Y-73776333D01*
X69337833Y-73728714D01*
X69480690Y-73728714D01*
X69575928Y-73776333D01*
X69623547Y-73823952D01*
X69671166Y-73919190D01*
X69671166Y-74204904D01*
X69623547Y-74300142D01*
X69575928Y-74347761D01*
X69480690Y-74395380D01*
X69337833Y-74395380D01*
X70242595Y-74395380D02*
X70147357Y-74347761D01*
X70099738Y-74252523D01*
X70099738Y-73395380D01*
X71004500Y-74347761D02*
X70909261Y-74395380D01*
X70718785Y-74395380D01*
X70623547Y-74347761D01*
X70575928Y-74252523D01*
X70575928Y-73871571D01*
X70623547Y-73776333D01*
X70718785Y-73728714D01*
X70909261Y-73728714D01*
X71004500Y-73776333D01*
X71052119Y-73871571D01*
X71052119Y-73966809D01*
X70575928Y-74062047D01*
X71242595Y-74490619D02*
X72004500Y-74490619D01*
X72242595Y-74395380D02*
X72242595Y-73395380D01*
X72623547Y-73395380D01*
X72718785Y-73443000D01*
X72766404Y-73490619D01*
X72814023Y-73585857D01*
X72814023Y-73728714D01*
X72766404Y-73823952D01*
X72718785Y-73871571D01*
X72623547Y-73919190D01*
X72242595Y-73919190D01*
X73671166Y-74395380D02*
X73671166Y-73871571D01*
X73623547Y-73776333D01*
X73528309Y-73728714D01*
X73337833Y-73728714D01*
X73242595Y-73776333D01*
X73671166Y-74347761D02*
X73575928Y-74395380D01*
X73337833Y-74395380D01*
X73242595Y-74347761D01*
X73194976Y-74252523D01*
X73194976Y-74157285D01*
X73242595Y-74062047D01*
X73337833Y-74014428D01*
X73575928Y-74014428D01*
X73671166Y-73966809D01*
X74575928Y-74395380D02*
X74575928Y-73395380D01*
X74575928Y-74347761D02*
X74480690Y-74395380D01*
X74290214Y-74395380D01*
X74194976Y-74347761D01*
X74147357Y-74300142D01*
X74099738Y-74204904D01*
X74099738Y-73919190D01*
X74147357Y-73823952D01*
X74194976Y-73776333D01*
X74290214Y-73728714D01*
X74480690Y-73728714D01*
X74575928Y-73776333D01*
X67242595Y-71495380D02*
X67242595Y-70495380D01*
X67242595Y-70971571D02*
X67814023Y-70971571D01*
X67814023Y-71495380D02*
X67814023Y-70495380D01*
X68242595Y-70590619D02*
X68290214Y-70543000D01*
X68385452Y-70495380D01*
X68623547Y-70495380D01*
X68718785Y-70543000D01*
X68766404Y-70590619D01*
X68814023Y-70685857D01*
X68814023Y-70781095D01*
X68766404Y-70923952D01*
X68194976Y-71495380D01*
X68814023Y-71495380D01*
D11*
X73327309Y-65084904D02*
X73472452Y-65084904D01*
X73399880Y-65338904D02*
X73399880Y-65084904D01*
X73557119Y-65338904D02*
X73557119Y-65084904D01*
X73653880Y-65084904D01*
X73678071Y-65097000D01*
X73690166Y-65109095D01*
X73702261Y-65133285D01*
X73702261Y-65169571D01*
X73690166Y-65193761D01*
X73678071Y-65205857D01*
X73653880Y-65217952D01*
X73557119Y-65217952D01*
X73811119Y-65338904D02*
X73811119Y-65084904D01*
X73871595Y-65084904D01*
X73907880Y-65097000D01*
X73932071Y-65121190D01*
X73944166Y-65145380D01*
X73956261Y-65193761D01*
X73956261Y-65230047D01*
X73944166Y-65278428D01*
X73932071Y-65302619D01*
X73907880Y-65326809D01*
X73871595Y-65338904D01*
X73811119Y-65338904D01*
X74173976Y-65169571D02*
X74173976Y-65338904D01*
X74113500Y-65072809D02*
X74053023Y-65254238D01*
X74210261Y-65254238D01*
X74307023Y-65205857D02*
X74391690Y-65205857D01*
X74427976Y-65338904D02*
X74307023Y-65338904D01*
X74307023Y-65084904D01*
X74427976Y-65084904D01*
X74585214Y-65084904D02*
X74609404Y-65084904D01*
X74633595Y-65097000D01*
X74645690Y-65109095D01*
X74657785Y-65133285D01*
X74669880Y-65181666D01*
X74669880Y-65242142D01*
X74657785Y-65290523D01*
X74645690Y-65314714D01*
X74633595Y-65326809D01*
X74609404Y-65338904D01*
X74585214Y-65338904D01*
X74561023Y-65326809D01*
X74548928Y-65314714D01*
X74536833Y-65290523D01*
X74524738Y-65242142D01*
X74524738Y-65181666D01*
X74536833Y-65133285D01*
X74548928Y-65109095D01*
X74561023Y-65097000D01*
X74585214Y-65084904D01*
X74899690Y-65084904D02*
X74778738Y-65084904D01*
X74766642Y-65205857D01*
X74778738Y-65193761D01*
X74802928Y-65181666D01*
X74863404Y-65181666D01*
X74887595Y-65193761D01*
X74899690Y-65205857D01*
X74911785Y-65230047D01*
X74911785Y-65290523D01*
X74899690Y-65314714D01*
X74887595Y-65326809D01*
X74863404Y-65338904D01*
X74802928Y-65338904D01*
X74778738Y-65326809D01*
X74766642Y-65314714D01*
X75020642Y-65084904D02*
X75020642Y-65290523D01*
X75032738Y-65314714D01*
X75044833Y-65326809D01*
X75069023Y-65338904D01*
X75117404Y-65338904D01*
X75141595Y-65326809D01*
X75153690Y-65314714D01*
X75165785Y-65290523D01*
X75165785Y-65084904D01*
X75335119Y-65084904D02*
X75359309Y-65084904D01*
X75383500Y-65097000D01*
X75395595Y-65109095D01*
X75407690Y-65133285D01*
X75419785Y-65181666D01*
X75419785Y-65242142D01*
X75407690Y-65290523D01*
X75395595Y-65314714D01*
X75383500Y-65326809D01*
X75359309Y-65338904D01*
X75335119Y-65338904D01*
X75310928Y-65326809D01*
X75298833Y-65314714D01*
X75286738Y-65290523D01*
X75274642Y-65242142D01*
X75274642Y-65181666D01*
X75286738Y-65133285D01*
X75298833Y-65109095D01*
X75310928Y-65097000D01*
X75335119Y-65084904D01*
X75637500Y-65084904D02*
X75589119Y-65084904D01*
X75564928Y-65097000D01*
X75552833Y-65109095D01*
X75528642Y-65145380D01*
X75516547Y-65193761D01*
X75516547Y-65290523D01*
X75528642Y-65314714D01*
X75540738Y-65326809D01*
X75564928Y-65338904D01*
X75613309Y-65338904D01*
X75637500Y-65326809D01*
X75649595Y-65314714D01*
X75661690Y-65290523D01*
X75661690Y-65230047D01*
X75649595Y-65205857D01*
X75637500Y-65193761D01*
X75613309Y-65181666D01*
X75564928Y-65181666D01*
X75540738Y-65193761D01*
X75528642Y-65205857D01*
X75516547Y-65230047D01*
X75770547Y-65338904D02*
X75770547Y-65084904D01*
X75831023Y-65084904D01*
X75867309Y-65097000D01*
X75891500Y-65121190D01*
X75903595Y-65145380D01*
X75915690Y-65193761D01*
X75915690Y-65230047D01*
X75903595Y-65278428D01*
X75891500Y-65302619D01*
X75867309Y-65326809D01*
X75831023Y-65338904D01*
X75770547Y-65338904D01*
X76193880Y-65363095D02*
X76169690Y-65351000D01*
X76145500Y-65326809D01*
X76109214Y-65290523D01*
X76085023Y-65278428D01*
X76060833Y-65278428D01*
X76072928Y-65338904D02*
X76048738Y-65326809D01*
X76024547Y-65302619D01*
X76012452Y-65254238D01*
X76012452Y-65169571D01*
X76024547Y-65121190D01*
X76048738Y-65097000D01*
X76072928Y-65084904D01*
X76121309Y-65084904D01*
X76145500Y-65097000D01*
X76169690Y-65121190D01*
X76181785Y-65169571D01*
X76181785Y-65254238D01*
X76169690Y-65302619D01*
X76145500Y-65326809D01*
X76121309Y-65338904D01*
X76072928Y-65338904D01*
X76278547Y-65266333D02*
X76399500Y-65266333D01*
X76254357Y-65338904D02*
X76339023Y-65084904D01*
X76423690Y-65338904D01*
X76653500Y-65338904D02*
X76568833Y-65217952D01*
X76508357Y-65338904D02*
X76508357Y-65084904D01*
X76605119Y-65084904D01*
X76629309Y-65097000D01*
X76641404Y-65109095D01*
X76653500Y-65133285D01*
X76653500Y-65169571D01*
X76641404Y-65193761D01*
X76629309Y-65205857D01*
X76605119Y-65217952D01*
X76508357Y-65217952D01*
D12*
X74583452Y-65725209D02*
X74583452Y-66170447D01*
X74609642Y-66222828D01*
X74635833Y-66249019D01*
X74688214Y-66275209D01*
X74792976Y-66275209D01*
X74845357Y-66249019D01*
X74871547Y-66222828D01*
X74897738Y-66170447D01*
X74897738Y-65725209D01*
X75447738Y-66275209D02*
X75133452Y-66275209D01*
X75290595Y-66275209D02*
X75290595Y-65725209D01*
X75238214Y-65803780D01*
X75185833Y-65856161D01*
X75133452Y-65882352D01*
D10*
X75433071Y-74395380D02*
X75433071Y-73395380D01*
X75766404Y-74109666D01*
X76099738Y-73395380D01*
X76099738Y-74395380D01*
X76718785Y-74395380D02*
X76623547Y-74347761D01*
X76575928Y-74300142D01*
X76528309Y-74204904D01*
X76528309Y-73919190D01*
X76575928Y-73823952D01*
X76623547Y-73776333D01*
X76718785Y-73728714D01*
X76861642Y-73728714D01*
X76956880Y-73776333D01*
X77004500Y-73823952D01*
X77052119Y-73919190D01*
X77052119Y-74204904D01*
X77004500Y-74300142D01*
X76956880Y-74347761D01*
X76861642Y-74395380D01*
X76718785Y-74395380D01*
X77909261Y-73728714D02*
X77909261Y-74395380D01*
X77480690Y-73728714D02*
X77480690Y-74252523D01*
X77528309Y-74347761D01*
X77623547Y-74395380D01*
X77766404Y-74395380D01*
X77861642Y-74347761D01*
X77909261Y-74300142D01*
X78385452Y-73728714D02*
X78385452Y-74395380D01*
X78385452Y-73823952D02*
X78433071Y-73776333D01*
X78528309Y-73728714D01*
X78671166Y-73728714D01*
X78766404Y-73776333D01*
X78814023Y-73871571D01*
X78814023Y-74395380D01*
X79147357Y-73728714D02*
X79528309Y-73728714D01*
X79290214Y-73395380D02*
X79290214Y-74252523D01*
X79337833Y-74347761D01*
X79433071Y-74395380D01*
X79528309Y-74395380D01*
X79861642Y-74395380D02*
X79861642Y-73728714D01*
X79861642Y-73395380D02*
X79814023Y-73443000D01*
X79861642Y-73490619D01*
X79909261Y-73443000D01*
X79861642Y-73395380D01*
X79861642Y-73490619D01*
X80337833Y-73728714D02*
X80337833Y-74395380D01*
X80337833Y-73823952D02*
X80385452Y-73776333D01*
X80480690Y-73728714D01*
X80623547Y-73728714D01*
X80718785Y-73776333D01*
X80766404Y-73871571D01*
X80766404Y-74395380D01*
X81671166Y-73728714D02*
X81671166Y-74538238D01*
X81623547Y-74633476D01*
X81575928Y-74681095D01*
X81480690Y-74728714D01*
X81337833Y-74728714D01*
X81242595Y-74681095D01*
X81671166Y-74347761D02*
X81575928Y-74395380D01*
X81385452Y-74395380D01*
X81290214Y-74347761D01*
X81242595Y-74300142D01*
X81194976Y-74204904D01*
X81194976Y-73919190D01*
X81242595Y-73823952D01*
X81290214Y-73776333D01*
X81385452Y-73728714D01*
X81575928Y-73728714D01*
X81671166Y-73776333D01*
X82147357Y-74395380D02*
X82147357Y-73395380D01*
X82147357Y-73871571D02*
X82718785Y-73871571D01*
X82718785Y-74395380D02*
X82718785Y-73395380D01*
X83337833Y-74395380D02*
X83242595Y-74347761D01*
X83194976Y-74300142D01*
X83147357Y-74204904D01*
X83147357Y-73919190D01*
X83194976Y-73823952D01*
X83242595Y-73776333D01*
X83337833Y-73728714D01*
X83480690Y-73728714D01*
X83575928Y-73776333D01*
X83623547Y-73823952D01*
X83671166Y-73919190D01*
X83671166Y-74204904D01*
X83623547Y-74300142D01*
X83575928Y-74347761D01*
X83480690Y-74395380D01*
X83337833Y-74395380D01*
X84242595Y-74395380D02*
X84147357Y-74347761D01*
X84099738Y-74252523D01*
X84099738Y-73395380D01*
X85004500Y-74347761D02*
X84909261Y-74395380D01*
X84718785Y-74395380D01*
X84623547Y-74347761D01*
X84575928Y-74252523D01*
X84575928Y-73871571D01*
X84623547Y-73776333D01*
X84718785Y-73728714D01*
X84909261Y-73728714D01*
X85004500Y-73776333D01*
X85052119Y-73871571D01*
X85052119Y-73966809D01*
X84575928Y-74062047D01*
X85242595Y-74490619D02*
X86004500Y-74490619D01*
X86242595Y-74395380D02*
X86242595Y-73395380D01*
X86623547Y-73395380D01*
X86718785Y-73443000D01*
X86766404Y-73490619D01*
X86814023Y-73585857D01*
X86814023Y-73728714D01*
X86766404Y-73823952D01*
X86718785Y-73871571D01*
X86623547Y-73919190D01*
X86242595Y-73919190D01*
X87671166Y-74395380D02*
X87671166Y-73871571D01*
X87623547Y-73776333D01*
X87528309Y-73728714D01*
X87337833Y-73728714D01*
X87242595Y-73776333D01*
X87671166Y-74347761D02*
X87575928Y-74395380D01*
X87337833Y-74395380D01*
X87242595Y-74347761D01*
X87194976Y-74252523D01*
X87194976Y-74157285D01*
X87242595Y-74062047D01*
X87337833Y-74014428D01*
X87575928Y-74014428D01*
X87671166Y-73966809D01*
X88575928Y-74395380D02*
X88575928Y-73395380D01*
X88575928Y-74347761D02*
X88480690Y-74395380D01*
X88290214Y-74395380D01*
X88194976Y-74347761D01*
X88147357Y-74300142D01*
X88099738Y-74204904D01*
X88099738Y-73919190D01*
X88147357Y-73823952D01*
X88194976Y-73776333D01*
X88290214Y-73728714D01*
X88480690Y-73728714D01*
X88575928Y-73776333D01*
X81242595Y-71495380D02*
X81242595Y-70495380D01*
X81242595Y-70971571D02*
X81814023Y-70971571D01*
X81814023Y-71495380D02*
X81814023Y-70495380D01*
X82194976Y-70495380D02*
X82814023Y-70495380D01*
X82480690Y-70876333D01*
X82623547Y-70876333D01*
X82718785Y-70923952D01*
X82766404Y-70971571D01*
X82814023Y-71066809D01*
X82814023Y-71304904D01*
X82766404Y-71400142D01*
X82718785Y-71447761D01*
X82623547Y-71495380D01*
X82337833Y-71495380D01*
X82242595Y-71447761D01*
X82194976Y-71400142D01*
X80474880Y-63885857D02*
X80474880Y-64457285D01*
X80474880Y-64171571D02*
X79474880Y-64171571D01*
X79617738Y-64266809D01*
X79712976Y-64362047D01*
X79760595Y-64457285D01*
X79474880Y-63266809D02*
X79474880Y-63171571D01*
X79522500Y-63076333D01*
X79570119Y-63028714D01*
X79665357Y-62981095D01*
X79855833Y-62933476D01*
X80093928Y-62933476D01*
X80284404Y-62981095D01*
X80379642Y-63028714D01*
X80427261Y-63076333D01*
X80474880Y-63171571D01*
X80474880Y-63266809D01*
X80427261Y-63362047D01*
X80379642Y-63409666D01*
X80284404Y-63457285D01*
X80093928Y-63504904D01*
X79855833Y-63504904D01*
X79665357Y-63457285D01*
X79570119Y-63409666D01*
X79522500Y-63362047D01*
X79474880Y-63266809D01*
X79808214Y-62076333D02*
X80474880Y-62076333D01*
X79808214Y-62504904D02*
X80332023Y-62504904D01*
X80427261Y-62457285D01*
X80474880Y-62362047D01*
X80474880Y-62219190D01*
X80427261Y-62123952D01*
X80379642Y-62076333D01*
D13*
X81881071Y-63326333D02*
X81904880Y-63350142D01*
X81928690Y-63421571D01*
X81928690Y-63469190D01*
X81904880Y-63540619D01*
X81857261Y-63588238D01*
X81809642Y-63612047D01*
X81714404Y-63635857D01*
X81642976Y-63635857D01*
X81547738Y-63612047D01*
X81500119Y-63588238D01*
X81452500Y-63540619D01*
X81428690Y-63469190D01*
X81428690Y-63421571D01*
X81452500Y-63350142D01*
X81476309Y-63326333D01*
X81928690Y-62850142D02*
X81928690Y-63135857D01*
X81928690Y-62993000D02*
X81428690Y-62993000D01*
X81500119Y-63040619D01*
X81547738Y-63088238D01*
X81571547Y-63135857D01*
D10*
X61433071Y-61895380D02*
X61433071Y-60895380D01*
X61766404Y-61609666D01*
X62099738Y-60895380D01*
X62099738Y-61895380D01*
X62718785Y-61895380D02*
X62623547Y-61847761D01*
X62575928Y-61800142D01*
X62528309Y-61704904D01*
X62528309Y-61419190D01*
X62575928Y-61323952D01*
X62623547Y-61276333D01*
X62718785Y-61228714D01*
X62861642Y-61228714D01*
X62956880Y-61276333D01*
X63004499Y-61323952D01*
X63052119Y-61419190D01*
X63052119Y-61704904D01*
X63004499Y-61800142D01*
X62956880Y-61847761D01*
X62861642Y-61895380D01*
X62718785Y-61895380D01*
X63909261Y-61228714D02*
X63909261Y-61895380D01*
X63480690Y-61228714D02*
X63480690Y-61752523D01*
X63528309Y-61847761D01*
X63623547Y-61895380D01*
X63766404Y-61895380D01*
X63861642Y-61847761D01*
X63909261Y-61800142D01*
X64385452Y-61228714D02*
X64385452Y-61895380D01*
X64385452Y-61323952D02*
X64433071Y-61276333D01*
X64528309Y-61228714D01*
X64671166Y-61228714D01*
X64766404Y-61276333D01*
X64814023Y-61371571D01*
X64814023Y-61895380D01*
X65147357Y-61228714D02*
X65528309Y-61228714D01*
X65290214Y-60895380D02*
X65290214Y-61752523D01*
X65337833Y-61847761D01*
X65433071Y-61895380D01*
X65528309Y-61895380D01*
X65861642Y-61895380D02*
X65861642Y-61228714D01*
X65861642Y-60895380D02*
X65814023Y-60943000D01*
X65861642Y-60990619D01*
X65909261Y-60943000D01*
X65861642Y-60895380D01*
X65861642Y-60990619D01*
X66337833Y-61228714D02*
X66337833Y-61895380D01*
X66337833Y-61323952D02*
X66385452Y-61276333D01*
X66480690Y-61228714D01*
X66623547Y-61228714D01*
X66718785Y-61276333D01*
X66766404Y-61371571D01*
X66766404Y-61895380D01*
X67671166Y-61228714D02*
X67671166Y-62038238D01*
X67623547Y-62133476D01*
X67575928Y-62181095D01*
X67480690Y-62228714D01*
X67337833Y-62228714D01*
X67242595Y-62181095D01*
X67671166Y-61847761D02*
X67575928Y-61895380D01*
X67385452Y-61895380D01*
X67290214Y-61847761D01*
X67242595Y-61800142D01*
X67194976Y-61704904D01*
X67194976Y-61419190D01*
X67242595Y-61323952D01*
X67290214Y-61276333D01*
X67385452Y-61228714D01*
X67575928Y-61228714D01*
X67671166Y-61276333D01*
X68147357Y-61895380D02*
X68147357Y-60895380D01*
X68147357Y-61371571D02*
X68718785Y-61371571D01*
X68718785Y-61895380D02*
X68718785Y-60895380D01*
X69337833Y-61895380D02*
X69242595Y-61847761D01*
X69194976Y-61800142D01*
X69147357Y-61704904D01*
X69147357Y-61419190D01*
X69194976Y-61323952D01*
X69242595Y-61276333D01*
X69337833Y-61228714D01*
X69480690Y-61228714D01*
X69575928Y-61276333D01*
X69623547Y-61323952D01*
X69671166Y-61419190D01*
X69671166Y-61704904D01*
X69623547Y-61800142D01*
X69575928Y-61847761D01*
X69480690Y-61895380D01*
X69337833Y-61895380D01*
X70242595Y-61895380D02*
X70147357Y-61847761D01*
X70099738Y-61752523D01*
X70099738Y-60895380D01*
X71004500Y-61847761D02*
X70909261Y-61895380D01*
X70718785Y-61895380D01*
X70623547Y-61847761D01*
X70575928Y-61752523D01*
X70575928Y-61371571D01*
X70623547Y-61276333D01*
X70718785Y-61228714D01*
X70909261Y-61228714D01*
X71004500Y-61276333D01*
X71052119Y-61371571D01*
X71052119Y-61466809D01*
X70575928Y-61562047D01*
X71242595Y-61990619D02*
X72004500Y-61990619D01*
X72242595Y-61895380D02*
X72242595Y-60895380D01*
X72623547Y-60895380D01*
X72718785Y-60943000D01*
X72766404Y-60990619D01*
X72814023Y-61085857D01*
X72814023Y-61228714D01*
X72766404Y-61323952D01*
X72718785Y-61371571D01*
X72623547Y-61419190D01*
X72242595Y-61419190D01*
X73671166Y-61895380D02*
X73671166Y-61371571D01*
X73623547Y-61276333D01*
X73528309Y-61228714D01*
X73337833Y-61228714D01*
X73242595Y-61276333D01*
X73671166Y-61847761D02*
X73575928Y-61895380D01*
X73337833Y-61895380D01*
X73242595Y-61847761D01*
X73194976Y-61752523D01*
X73194976Y-61657285D01*
X73242595Y-61562047D01*
X73337833Y-61514428D01*
X73575928Y-61514428D01*
X73671166Y-61466809D01*
X74575928Y-61895380D02*
X74575928Y-60895380D01*
X74575928Y-61847761D02*
X74480690Y-61895380D01*
X74290214Y-61895380D01*
X74194976Y-61847761D01*
X74147357Y-61800142D01*
X74099738Y-61704904D01*
X74099738Y-61419190D01*
X74147357Y-61323952D01*
X74194976Y-61276333D01*
X74290214Y-61228714D01*
X74480690Y-61228714D01*
X74575928Y-61276333D01*
X67242595Y-58995380D02*
X67242595Y-57995380D01*
X67242595Y-58471571D02*
X67814023Y-58471571D01*
X67814023Y-58995380D02*
X67814023Y-57995380D01*
X68814023Y-58995380D02*
X68242595Y-58995380D01*
X68528309Y-58995380D02*
X68528309Y-57995380D01*
X68433071Y-58138238D01*
X68337833Y-58233476D01*
X68242595Y-58281095D01*
X75433071Y-61895380D02*
X75433071Y-60895380D01*
X75766404Y-61609666D01*
X76099738Y-60895380D01*
X76099738Y-61895380D01*
X76718785Y-61895380D02*
X76623547Y-61847761D01*
X76575928Y-61800142D01*
X76528309Y-61704904D01*
X76528309Y-61419190D01*
X76575928Y-61323952D01*
X76623547Y-61276333D01*
X76718785Y-61228714D01*
X76861642Y-61228714D01*
X76956880Y-61276333D01*
X77004500Y-61323952D01*
X77052119Y-61419190D01*
X77052119Y-61704904D01*
X77004500Y-61800142D01*
X76956880Y-61847761D01*
X76861642Y-61895380D01*
X76718785Y-61895380D01*
X77909261Y-61228714D02*
X77909261Y-61895380D01*
X77480690Y-61228714D02*
X77480690Y-61752523D01*
X77528309Y-61847761D01*
X77623547Y-61895380D01*
X77766404Y-61895380D01*
X77861642Y-61847761D01*
X77909261Y-61800142D01*
X78385452Y-61228714D02*
X78385452Y-61895380D01*
X78385452Y-61323952D02*
X78433071Y-61276333D01*
X78528309Y-61228714D01*
X78671166Y-61228714D01*
X78766404Y-61276333D01*
X78814023Y-61371571D01*
X78814023Y-61895380D01*
X79147357Y-61228714D02*
X79528309Y-61228714D01*
X79290214Y-60895380D02*
X79290214Y-61752523D01*
X79337833Y-61847761D01*
X79433071Y-61895380D01*
X79528309Y-61895380D01*
X79861642Y-61895380D02*
X79861642Y-61228714D01*
X79861642Y-60895380D02*
X79814023Y-60943000D01*
X79861642Y-60990619D01*
X79909261Y-60943000D01*
X79861642Y-60895380D01*
X79861642Y-60990619D01*
X80337833Y-61228714D02*
X80337833Y-61895380D01*
X80337833Y-61323952D02*
X80385452Y-61276333D01*
X80480690Y-61228714D01*
X80623547Y-61228714D01*
X80718785Y-61276333D01*
X80766404Y-61371571D01*
X80766404Y-61895380D01*
X81671166Y-61228714D02*
X81671166Y-62038238D01*
X81623547Y-62133476D01*
X81575928Y-62181095D01*
X81480690Y-62228714D01*
X81337833Y-62228714D01*
X81242595Y-62181095D01*
X81671166Y-61847761D02*
X81575928Y-61895380D01*
X81385452Y-61895380D01*
X81290214Y-61847761D01*
X81242595Y-61800142D01*
X81194976Y-61704904D01*
X81194976Y-61419190D01*
X81242595Y-61323952D01*
X81290214Y-61276333D01*
X81385452Y-61228714D01*
X81575928Y-61228714D01*
X81671166Y-61276333D01*
X82147357Y-61895380D02*
X82147357Y-60895380D01*
X82147357Y-61371571D02*
X82718785Y-61371571D01*
X82718785Y-61895380D02*
X82718785Y-60895380D01*
X83337833Y-61895380D02*
X83242595Y-61847761D01*
X83194976Y-61800142D01*
X83147357Y-61704904D01*
X83147357Y-61419190D01*
X83194976Y-61323952D01*
X83242595Y-61276333D01*
X83337833Y-61228714D01*
X83480690Y-61228714D01*
X83575928Y-61276333D01*
X83623547Y-61323952D01*
X83671166Y-61419190D01*
X83671166Y-61704904D01*
X83623547Y-61800142D01*
X83575928Y-61847761D01*
X83480690Y-61895380D01*
X83337833Y-61895380D01*
X84242595Y-61895380D02*
X84147357Y-61847761D01*
X84099738Y-61752523D01*
X84099738Y-60895380D01*
X85004500Y-61847761D02*
X84909261Y-61895380D01*
X84718785Y-61895380D01*
X84623547Y-61847761D01*
X84575928Y-61752523D01*
X84575928Y-61371571D01*
X84623547Y-61276333D01*
X84718785Y-61228714D01*
X84909261Y-61228714D01*
X85004500Y-61276333D01*
X85052119Y-61371571D01*
X85052119Y-61466809D01*
X84575928Y-61562047D01*
X85242595Y-61990619D02*
X86004500Y-61990619D01*
X86242595Y-61895380D02*
X86242595Y-60895380D01*
X86623547Y-60895380D01*
X86718785Y-60943000D01*
X86766404Y-60990619D01*
X86814023Y-61085857D01*
X86814023Y-61228714D01*
X86766404Y-61323952D01*
X86718785Y-61371571D01*
X86623547Y-61419190D01*
X86242595Y-61419190D01*
X87671166Y-61895380D02*
X87671166Y-61371571D01*
X87623547Y-61276333D01*
X87528309Y-61228714D01*
X87337833Y-61228714D01*
X87242595Y-61276333D01*
X87671166Y-61847761D02*
X87575928Y-61895380D01*
X87337833Y-61895380D01*
X87242595Y-61847761D01*
X87194976Y-61752523D01*
X87194976Y-61657285D01*
X87242595Y-61562047D01*
X87337833Y-61514428D01*
X87575928Y-61514428D01*
X87671166Y-61466809D01*
X88575928Y-61895380D02*
X88575928Y-60895380D01*
X88575928Y-61847761D02*
X88480690Y-61895380D01*
X88290214Y-61895380D01*
X88194976Y-61847761D01*
X88147357Y-61800142D01*
X88099738Y-61704904D01*
X88099738Y-61419190D01*
X88147357Y-61323952D01*
X88194976Y-61276333D01*
X88290214Y-61228714D01*
X88480690Y-61228714D01*
X88575928Y-61276333D01*
X81242595Y-58995380D02*
X81242595Y-57995380D01*
X81242595Y-58471571D02*
X81814023Y-58471571D01*
X81814023Y-58995380D02*
X81814023Y-57995380D01*
X82718785Y-58328714D02*
X82718785Y-58995380D01*
X82480690Y-57947761D02*
X82242595Y-58662047D01*
X82861642Y-58662047D01*
X66939166Y-69581095D02*
X66939166Y-69104904D01*
X67224880Y-69676333D02*
X66224880Y-69343000D01*
X67224880Y-69009666D01*
X67177261Y-68723952D02*
X67224880Y-68581095D01*
X67224880Y-68343000D01*
X67177261Y-68247761D01*
X67129642Y-68200142D01*
X67034404Y-68152523D01*
X66939166Y-68152523D01*
X66843928Y-68200142D01*
X66796309Y-68247761D01*
X66748690Y-68343000D01*
X66701071Y-68533476D01*
X66653452Y-68628714D01*
X66605833Y-68676333D01*
X66510595Y-68723952D01*
X66415357Y-68723952D01*
X66320119Y-68676333D01*
X66272500Y-68628714D01*
X66224880Y-68533476D01*
X66224880Y-68295380D01*
X66272500Y-68152523D01*
X67224880Y-67723952D02*
X66224880Y-67723952D01*
X66939166Y-67390619D01*
X66224880Y-67057285D01*
X67224880Y-67057285D01*
X67224880Y-66581095D02*
X66224880Y-66581095D01*
X66224880Y-66343000D01*
X66272500Y-66200142D01*
X66367738Y-66104904D01*
X66462976Y-66057285D01*
X66653452Y-66009666D01*
X66796309Y-66009666D01*
X66986785Y-66057285D01*
X67082023Y-66104904D01*
X67177261Y-66200142D01*
X67224880Y-66343000D01*
X67224880Y-66581095D01*
X67224880Y-65057285D02*
X67224880Y-65628714D01*
X67224880Y-65343000D02*
X66224880Y-65343000D01*
X66367738Y-65438238D01*
X66462976Y-65533476D01*
X66510595Y-65628714D01*
X66320119Y-64676333D02*
X66272500Y-64628714D01*
X66224880Y-64533476D01*
X66224880Y-64295380D01*
X66272500Y-64200142D01*
X66320119Y-64152523D01*
X66415357Y-64104904D01*
X66510595Y-64104904D01*
X66653452Y-64152523D01*
X67224880Y-64723952D01*
X67224880Y-64104904D01*
X66224880Y-63485857D02*
X66224880Y-63390619D01*
X66272500Y-63295380D01*
X66320119Y-63247761D01*
X66415357Y-63200142D01*
X66605833Y-63152523D01*
X66843928Y-63152523D01*
X67034404Y-63200142D01*
X67129642Y-63247761D01*
X67177261Y-63295380D01*
X67224880Y-63390619D01*
X67224880Y-63485857D01*
X67177261Y-63581095D01*
X67129642Y-63628714D01*
X67034404Y-63676333D01*
X66843928Y-63723952D01*
X66605833Y-63723952D01*
X66415357Y-63676333D01*
X66320119Y-63628714D01*
X66272500Y-63581095D01*
X66224880Y-63485857D01*
X66224880Y-62295380D02*
X66224880Y-62485857D01*
X66272500Y-62581095D01*
X66320119Y-62628714D01*
X66462976Y-62723952D01*
X66653452Y-62771571D01*
X67034404Y-62771571D01*
X67129642Y-62723952D01*
X67177261Y-62676333D01*
X67224880Y-62581095D01*
X67224880Y-62390619D01*
X67177261Y-62295380D01*
X67129642Y-62247761D01*
X67034404Y-62200142D01*
X66796309Y-62200142D01*
X66701071Y-62247761D01*
X66653452Y-62295380D01*
X66605833Y-62390619D01*
X66605833Y-62581095D01*
X66653452Y-62676333D01*
X66701071Y-62723952D01*
X66796309Y-62771571D01*
X66843928Y-61771571D02*
X66843928Y-61009666D01*
X67224880Y-60009666D02*
X67224880Y-60581095D01*
X67224880Y-60295380D02*
X66224880Y-60295380D01*
X66367738Y-60390619D01*
X66462976Y-60485857D01*
X66510595Y-60581095D01*
X66224880Y-59104904D02*
X66224880Y-59581095D01*
X66701071Y-59628714D01*
X66653452Y-59581095D01*
X66605833Y-59485857D01*
X66605833Y-59247761D01*
X66653452Y-59152523D01*
X66701071Y-59104904D01*
X66796309Y-59057285D01*
X67034404Y-59057285D01*
X67129642Y-59104904D01*
X67177261Y-59152523D01*
X67224880Y-59247761D01*
X67224880Y-59485857D01*
X67177261Y-59581095D01*
X67129642Y-59628714D01*
X66224880Y-58438238D02*
X66224880Y-58343000D01*
X66272500Y-58247761D01*
X66320119Y-58200142D01*
X66415357Y-58152523D01*
X66605833Y-58104904D01*
X66843928Y-58104904D01*
X67034404Y-58152523D01*
X67129642Y-58200142D01*
X67177261Y-58247761D01*
X67224880Y-58343000D01*
X67224880Y-58438238D01*
X67177261Y-58533476D01*
X67129642Y-58581095D01*
X67034404Y-58628714D01*
X66843928Y-58676333D01*
X66605833Y-58676333D01*
X66415357Y-58628714D01*
X66320119Y-58581095D01*
X66272500Y-58533476D01*
X66224880Y-58438238D01*
D14*
X68173928Y-63976333D02*
X68173928Y-64109666D01*
X68383452Y-64109666D02*
X67983452Y-64109666D01*
X67983452Y-63919190D01*
X68383452Y-63557285D02*
X68383452Y-63785857D01*
X68383452Y-63671571D02*
X67983452Y-63671571D01*
X68040595Y-63709666D01*
X68078690Y-63747761D01*
X68097738Y-63785857D01*
D15*
X71035833Y-57219190D02*
X71321547Y-57219190D01*
X71178690Y-57719190D02*
X71178690Y-57219190D01*
X71583452Y-57481095D02*
X71583452Y-57719190D01*
X71416785Y-57219190D02*
X71583452Y-57481095D01*
X71750119Y-57219190D01*
X71916785Y-57719190D02*
X71916785Y-57219190D01*
X72107261Y-57219190D01*
X72154880Y-57243000D01*
X72178690Y-57266809D01*
X72202500Y-57314428D01*
X72202500Y-57385857D01*
X72178690Y-57433476D01*
X72154880Y-57457285D01*
X72107261Y-57481095D01*
X71916785Y-57481095D01*
X72416785Y-57457285D02*
X72583452Y-57457285D01*
X72654880Y-57719190D02*
X72416785Y-57719190D01*
X72416785Y-57219190D01*
X72654880Y-57219190D01*
X72869166Y-57528714D02*
X73250119Y-57528714D01*
X73773928Y-57671571D02*
X73750119Y-57695380D01*
X73678690Y-57719190D01*
X73631071Y-57719190D01*
X73559642Y-57695380D01*
X73512023Y-57647761D01*
X73488214Y-57600142D01*
X73464404Y-57504904D01*
X73464404Y-57433476D01*
X73488214Y-57338238D01*
X73512023Y-57290619D01*
X73559642Y-57243000D01*
X73631071Y-57219190D01*
X73678690Y-57219190D01*
X73750119Y-57243000D01*
X73773928Y-57266809D01*
X73988214Y-57528714D02*
X74369166Y-57528714D01*
X74559642Y-57219190D02*
X74869166Y-57219190D01*
X74702500Y-57409666D01*
X74773928Y-57409666D01*
X74821547Y-57433476D01*
X74845357Y-57457285D01*
X74869166Y-57504904D01*
X74869166Y-57623952D01*
X74845357Y-57671571D01*
X74821547Y-57695380D01*
X74773928Y-57719190D01*
X74631071Y-57719190D01*
X74583452Y-57695380D01*
X74559642Y-57671571D01*
X75345357Y-57719190D02*
X75059642Y-57719190D01*
X75202500Y-57719190D02*
X75202500Y-57219190D01*
X75154880Y-57290619D01*
X75107261Y-57338238D01*
X75059642Y-57362047D01*
X75559642Y-57528714D02*
X75940595Y-57528714D01*
X76178690Y-57719190D02*
X76178690Y-57219190D01*
X76345357Y-57576333D01*
X76512023Y-57219190D01*
X76512023Y-57719190D01*
X77012023Y-57719190D02*
X76726309Y-57719190D01*
X76869166Y-57719190D02*
X76869166Y-57219190D01*
X76821547Y-57290619D01*
X76773928Y-57338238D01*
X76726309Y-57362047D01*
X77202500Y-57266809D02*
X77226309Y-57243000D01*
X77273928Y-57219190D01*
X77392976Y-57219190D01*
X77440595Y-57243000D01*
X77464404Y-57266809D01*
X77488214Y-57314428D01*
X77488214Y-57362047D01*
X77464404Y-57433476D01*
X77178690Y-57719190D01*
X77488214Y-57719190D01*
X77583452Y-57766809D02*
X77964404Y-57766809D01*
X78345357Y-57719190D02*
X78059642Y-57719190D01*
X78202500Y-57719190D02*
X78202500Y-57219190D01*
X78154880Y-57290619D01*
X78107261Y-57338238D01*
X78059642Y-57362047D01*
X78512023Y-57219190D02*
X78821547Y-57219190D01*
X78654880Y-57409666D01*
X78726309Y-57409666D01*
X78773928Y-57433476D01*
X78797738Y-57457285D01*
X78821547Y-57504904D01*
X78821547Y-57623952D01*
X78797738Y-57671571D01*
X78773928Y-57695380D01*
X78726309Y-57719190D01*
X78583452Y-57719190D01*
X78535833Y-57695380D01*
X78512023Y-57671571D01*
X72276309Y-61069190D02*
X72276309Y-60569190D01*
X72562023Y-61069190D02*
X72347738Y-60783476D01*
X72562023Y-60569190D02*
X72276309Y-60854904D01*
X72776309Y-60807285D02*
X72942976Y-60807285D01*
X73014404Y-61069190D02*
X72776309Y-61069190D01*
X72776309Y-60569190D01*
X73014404Y-60569190D01*
X73228690Y-60807285D02*
X73395357Y-60807285D01*
X73466785Y-61069190D02*
X73228690Y-61069190D01*
X73228690Y-60569190D01*
X73466785Y-60569190D01*
X73681071Y-61069190D02*
X73681071Y-60569190D01*
X73871547Y-60569190D01*
X73919166Y-60593000D01*
X73942976Y-60616809D01*
X73966785Y-60664428D01*
X73966785Y-60735857D01*
X73942976Y-60783476D01*
X73919166Y-60807285D01*
X73871547Y-60831095D01*
X73681071Y-60831095D01*
X74276309Y-60569190D02*
X74371547Y-60569190D01*
X74419166Y-60593000D01*
X74466785Y-60640619D01*
X74490595Y-60735857D01*
X74490595Y-60902523D01*
X74466785Y-60997761D01*
X74419166Y-61045380D01*
X74371547Y-61069190D01*
X74276309Y-61069190D01*
X74228690Y-61045380D01*
X74181071Y-60997761D01*
X74157261Y-60902523D01*
X74157261Y-60735857D01*
X74181071Y-60640619D01*
X74228690Y-60593000D01*
X74276309Y-60569190D01*
X74704880Y-60569190D02*
X74704880Y-60973952D01*
X74728690Y-61021571D01*
X74752500Y-61045380D01*
X74800119Y-61069190D01*
X74895357Y-61069190D01*
X74942976Y-61045380D01*
X74966785Y-61021571D01*
X74990595Y-60973952D01*
X74990595Y-60569190D01*
X75157261Y-60569190D02*
X75442976Y-60569190D01*
X75300119Y-61069190D02*
X75300119Y-60569190D01*
X75942976Y-60569190D02*
X76276309Y-60569190D01*
X75942976Y-61069190D01*
X76276309Y-61069190D01*
X76562023Y-60569190D02*
X76657261Y-60569190D01*
X76704880Y-60593000D01*
X76752500Y-60640619D01*
X76776309Y-60735857D01*
X76776309Y-60902523D01*
X76752500Y-60997761D01*
X76704880Y-61045380D01*
X76657261Y-61069190D01*
X76562023Y-61069190D01*
X76514404Y-61045380D01*
X76466785Y-60997761D01*
X76442976Y-60902523D01*
X76442976Y-60735857D01*
X76466785Y-60640619D01*
X76514404Y-60593000D01*
X76562023Y-60569190D01*
X76990595Y-61069190D02*
X76990595Y-60569190D01*
X77276309Y-61069190D01*
X77276309Y-60569190D01*
X77514404Y-60807285D02*
X77681071Y-60807285D01*
X77752500Y-61069190D02*
X77514404Y-61069190D01*
X77514404Y-60569190D01*
X77752500Y-60569190D01*
D11*
X72583452Y-69517809D02*
X72619738Y-69529904D01*
X72680214Y-69529904D01*
X72704404Y-69517809D01*
X72716500Y-69505714D01*
X72728595Y-69481523D01*
X72728595Y-69457333D01*
X72716500Y-69433142D01*
X72704404Y-69421047D01*
X72680214Y-69408952D01*
X72631833Y-69396857D01*
X72607642Y-69384761D01*
X72595547Y-69372666D01*
X72583452Y-69348476D01*
X72583452Y-69324285D01*
X72595547Y-69300095D01*
X72607642Y-69288000D01*
X72631833Y-69275904D01*
X72692309Y-69275904D01*
X72728595Y-69288000D01*
X72837452Y-69529904D02*
X72837452Y-69275904D01*
X72922119Y-69457333D01*
X73006785Y-69275904D01*
X73006785Y-69529904D01*
X73176119Y-69275904D02*
X73200309Y-69275904D01*
X73224500Y-69288000D01*
X73236595Y-69300095D01*
X73248690Y-69324285D01*
X73260785Y-69372666D01*
X73260785Y-69433142D01*
X73248690Y-69481523D01*
X73236595Y-69505714D01*
X73224500Y-69517809D01*
X73200309Y-69529904D01*
X73176119Y-69529904D01*
X73151928Y-69517809D01*
X73139833Y-69505714D01*
X73127738Y-69481523D01*
X73115642Y-69433142D01*
X73115642Y-69372666D01*
X73127738Y-69324285D01*
X73139833Y-69300095D01*
X73151928Y-69288000D01*
X73176119Y-69275904D01*
X73478500Y-69360571D02*
X73478500Y-69529904D01*
X73418023Y-69263809D02*
X73357547Y-69445238D01*
X73514785Y-69445238D01*
X73696214Y-69396857D02*
X73732500Y-69408952D01*
X73744595Y-69421047D01*
X73756690Y-69445238D01*
X73756690Y-69481523D01*
X73744595Y-69505714D01*
X73732500Y-69517809D01*
X73708309Y-69529904D01*
X73611547Y-69529904D01*
X73611547Y-69275904D01*
X73696214Y-69275904D01*
X73720404Y-69288000D01*
X73732500Y-69300095D01*
X73744595Y-69324285D01*
X73744595Y-69348476D01*
X73732500Y-69372666D01*
X73720404Y-69384761D01*
X73696214Y-69396857D01*
X73611547Y-69396857D01*
X73865547Y-69433142D02*
X74059071Y-69433142D01*
X74167928Y-69517809D02*
X74204214Y-69529904D01*
X74264690Y-69529904D01*
X74288880Y-69517809D01*
X74300976Y-69505714D01*
X74313071Y-69481523D01*
X74313071Y-69457333D01*
X74300976Y-69433142D01*
X74288880Y-69421047D01*
X74264690Y-69408952D01*
X74216309Y-69396857D01*
X74192119Y-69384761D01*
X74180023Y-69372666D01*
X74167928Y-69348476D01*
X74167928Y-69324285D01*
X74180023Y-69300095D01*
X74192119Y-69288000D01*
X74216309Y-69275904D01*
X74276785Y-69275904D01*
X74313071Y-69288000D01*
X74567071Y-69529904D02*
X74482404Y-69408952D01*
X74421928Y-69529904D02*
X74421928Y-69275904D01*
X74518690Y-69275904D01*
X74542880Y-69288000D01*
X74554976Y-69300095D01*
X74567071Y-69324285D01*
X74567071Y-69360571D01*
X74554976Y-69384761D01*
X74542880Y-69396857D01*
X74518690Y-69408952D01*
X74421928Y-69408952D01*
X74663833Y-69517809D02*
X74700119Y-69529904D01*
X74760595Y-69529904D01*
X74784785Y-69517809D01*
X74796880Y-69505714D01*
X74808976Y-69481523D01*
X74808976Y-69457333D01*
X74796880Y-69433142D01*
X74784785Y-69421047D01*
X74760595Y-69408952D01*
X74712214Y-69396857D01*
X74688023Y-69384761D01*
X74675928Y-69372666D01*
X74663833Y-69348476D01*
X74663833Y-69324285D01*
X74675928Y-69300095D01*
X74688023Y-69288000D01*
X74712214Y-69275904D01*
X74772690Y-69275904D01*
X74808976Y-69288000D01*
X74905738Y-69517809D02*
X74942023Y-69529904D01*
X75002500Y-69529904D01*
X75026690Y-69517809D01*
X75038785Y-69505714D01*
X75050880Y-69481523D01*
X75050880Y-69457333D01*
X75038785Y-69433142D01*
X75026690Y-69421047D01*
X75002500Y-69408952D01*
X74954119Y-69396857D01*
X74929928Y-69384761D01*
X74917833Y-69372666D01*
X74905738Y-69348476D01*
X74905738Y-69324285D01*
X74917833Y-69300095D01*
X74929928Y-69288000D01*
X74954119Y-69275904D01*
X75014595Y-69275904D01*
X75050880Y-69288000D01*
X75159738Y-69433142D02*
X75353261Y-69433142D01*
X75437928Y-69275904D02*
X75583071Y-69275904D01*
X75510500Y-69529904D02*
X75510500Y-69275904D01*
X75752404Y-69396857D02*
X75788690Y-69408952D01*
X75800785Y-69421047D01*
X75812880Y-69445238D01*
X75812880Y-69481523D01*
X75800785Y-69505714D01*
X75788690Y-69517809D01*
X75764500Y-69529904D01*
X75667738Y-69529904D01*
X75667738Y-69275904D01*
X75752404Y-69275904D01*
X75776595Y-69288000D01*
X75788690Y-69300095D01*
X75800785Y-69324285D01*
X75800785Y-69348476D01*
X75788690Y-69372666D01*
X75776595Y-69384761D01*
X75752404Y-69396857D01*
X75667738Y-69396857D01*
X75994309Y-69626666D02*
X75982214Y-69614571D01*
X75958023Y-69578285D01*
X75945928Y-69554095D01*
X75933833Y-69517809D01*
X75921738Y-69457333D01*
X75921738Y-69408952D01*
X75933833Y-69348476D01*
X75945928Y-69312190D01*
X75958023Y-69288000D01*
X75982214Y-69251714D01*
X75994309Y-69239619D01*
X76212023Y-69529904D02*
X76091071Y-69529904D01*
X76091071Y-69275904D01*
X76381357Y-69396857D02*
X76296690Y-69396857D01*
X76296690Y-69529904D02*
X76296690Y-69275904D01*
X76417642Y-69275904D01*
X76490214Y-69626666D02*
X76502309Y-69614571D01*
X76526500Y-69578285D01*
X76538595Y-69554095D01*
X76550690Y-69517809D01*
X76562785Y-69457333D01*
X76562785Y-69408952D01*
X76550690Y-69348476D01*
X76538595Y-69312190D01*
X76526500Y-69288000D01*
X76502309Y-69251714D01*
X76490214Y-69239619D01*
X76756309Y-69626666D02*
X76744214Y-69614571D01*
X76720023Y-69578285D01*
X76707928Y-69554095D01*
X76695833Y-69517809D01*
X76683738Y-69457333D01*
X76683738Y-69408952D01*
X76695833Y-69348476D01*
X76707928Y-69312190D01*
X76720023Y-69288000D01*
X76744214Y-69251714D01*
X76756309Y-69239619D01*
X76840976Y-69517809D02*
X76877261Y-69529904D01*
X76937738Y-69529904D01*
X76961928Y-69517809D01*
X76974023Y-69505714D01*
X76986119Y-69481523D01*
X76986119Y-69457333D01*
X76974023Y-69433142D01*
X76961928Y-69421047D01*
X76937738Y-69408952D01*
X76889357Y-69396857D01*
X76865166Y-69384761D01*
X76853071Y-69372666D01*
X76840976Y-69348476D01*
X76840976Y-69324285D01*
X76853071Y-69300095D01*
X76865166Y-69288000D01*
X76889357Y-69275904D01*
X76949833Y-69275904D01*
X76986119Y-69288000D01*
X77094976Y-69529904D02*
X77094976Y-69275904D01*
X77240119Y-69529904D01*
X77240119Y-69275904D01*
X77336880Y-69626666D02*
X77348976Y-69614571D01*
X77373166Y-69578285D01*
X77385261Y-69554095D01*
X77397357Y-69517809D01*
X77409452Y-69457333D01*
X77409452Y-69408952D01*
X77397357Y-69348476D01*
X77385261Y-69312190D01*
X77373166Y-69288000D01*
X77348976Y-69251714D01*
X77336880Y-69239619D01*
D10*
X77310887Y-68680467D02*
X77647604Y-69017185D01*
X78017994Y-68714139D01*
X77950650Y-68714139D01*
X77849635Y-68680467D01*
X77681276Y-68512108D01*
X77647604Y-68411093D01*
X77647604Y-68343750D01*
X77681276Y-68242734D01*
X77849635Y-68074376D01*
X77950650Y-68040704D01*
X78017994Y-68040704D01*
X78119009Y-68074376D01*
X78287368Y-68242734D01*
X78321039Y-68343750D01*
X78321039Y-68411093D01*
X77613933Y-67703986D02*
X77613933Y-67636643D01*
X77681276Y-67636643D01*
X77681276Y-67703986D01*
X77613933Y-67703986D01*
X77681276Y-67636643D01*
X76974169Y-66929536D02*
X77378230Y-67333597D01*
X77176200Y-67131566D02*
X76469093Y-67838673D01*
X76637452Y-67805002D01*
X76772139Y-67805002D01*
X76873154Y-67838673D01*
X76671123Y-66626490D02*
X75964017Y-67333597D01*
X76334406Y-66828521D02*
X76401749Y-66357116D01*
X75930345Y-66828521D02*
X76469093Y-66828521D01*
D16*
X78016310Y-66790472D02*
X77990046Y-66939301D01*
X78121366Y-66895527D02*
X77937518Y-67079375D01*
X77867481Y-67009338D01*
X77858726Y-66983074D01*
X77858726Y-66965565D01*
X77867481Y-66939301D01*
X77893745Y-66913037D01*
X77920009Y-66904282D01*
X77937518Y-66904282D01*
X77963782Y-66913037D01*
X78033819Y-66983074D01*
X77841217Y-66615378D02*
X77946273Y-66720434D01*
X77893745Y-66667906D02*
X77709897Y-66851754D01*
X77753670Y-66843000D01*
X77788689Y-66843000D01*
X77814953Y-66851754D01*
D10*
X65397738Y-65547761D02*
X65540595Y-65595380D01*
X65778690Y-65595380D01*
X65873928Y-65547761D01*
X65921547Y-65500142D01*
X65969166Y-65404904D01*
X65969166Y-65309666D01*
X65921547Y-65214428D01*
X65873928Y-65166809D01*
X65778690Y-65119190D01*
X65588214Y-65071571D01*
X65492976Y-65023952D01*
X65445357Y-64976333D01*
X65397738Y-64881095D01*
X65397738Y-64785857D01*
X65445357Y-64690619D01*
X65492976Y-64643000D01*
X65588214Y-64595380D01*
X65826309Y-64595380D01*
X65969166Y-64643000D01*
X66397738Y-65595380D02*
X66397738Y-64595380D01*
X66731071Y-65309666D01*
X67064404Y-64595380D01*
X67064404Y-65595380D01*
X67873928Y-65071571D02*
X67540595Y-65071571D01*
X67540595Y-65595380D02*
X67540595Y-64595380D01*
X68016785Y-64595380D01*
X68445357Y-65595380D02*
X68635833Y-65595380D01*
X68731071Y-65547761D01*
X68778690Y-65500142D01*
X68873928Y-65357285D01*
X68921547Y-65166809D01*
X68921547Y-64785857D01*
X68873928Y-64690619D01*
X68826309Y-64643000D01*
X68731071Y-64595380D01*
X68540595Y-64595380D01*
X68445357Y-64643000D01*
X68397738Y-64690619D01*
X68350119Y-64785857D01*
X68350119Y-65023952D01*
X68397738Y-65119190D01*
X68445357Y-65166809D01*
X68540595Y-65214428D01*
X68731071Y-65214428D01*
X68826309Y-65166809D01*
X68873928Y-65119190D01*
X68921547Y-65023952D01*
X69350119Y-65500142D02*
X69397738Y-65547761D01*
X69350119Y-65595380D01*
X69302500Y-65547761D01*
X69350119Y-65500142D01*
X69350119Y-65595380D01*
X70016785Y-64595380D02*
X70112023Y-64595380D01*
X70207261Y-64643000D01*
X70254880Y-64690619D01*
X70302500Y-64785857D01*
X70350119Y-64976333D01*
X70350119Y-65214428D01*
X70302500Y-65404904D01*
X70254880Y-65500142D01*
X70207261Y-65547761D01*
X70112023Y-65595380D01*
X70016785Y-65595380D01*
X69921547Y-65547761D01*
X69873928Y-65500142D01*
X69826309Y-65404904D01*
X69778690Y-65214428D01*
X69778690Y-64976333D01*
X69826309Y-64785857D01*
X69873928Y-64690619D01*
X69921547Y-64643000D01*
X70016785Y-64595380D01*
X71350119Y-65500142D02*
X71302500Y-65547761D01*
X71159642Y-65595380D01*
X71064404Y-65595380D01*
X70921547Y-65547761D01*
X70826309Y-65452523D01*
X70778690Y-65357285D01*
X70731071Y-65166809D01*
X70731071Y-65023952D01*
X70778690Y-64833476D01*
X70826309Y-64738238D01*
X70921547Y-64643000D01*
X71064404Y-64595380D01*
X71159642Y-64595380D01*
X71302500Y-64643000D01*
X71350119Y-64690619D01*
X71731071Y-65309666D02*
X72207261Y-65309666D01*
X71635833Y-65595380D02*
X71969166Y-64595380D01*
X72302500Y-65595380D01*
X68264404Y-68295380D02*
X68264404Y-67295380D01*
X68502500Y-67295380D01*
X68645357Y-67343000D01*
X68740595Y-67438238D01*
X68788214Y-67533476D01*
X68835833Y-67723952D01*
X68835833Y-67866809D01*
X68788214Y-68057285D01*
X68740595Y-68152523D01*
X68645357Y-68247761D01*
X68502500Y-68295380D01*
X68264404Y-68295380D01*
X69788214Y-68295380D02*
X69216785Y-68295380D01*
X69502500Y-68295380D02*
X69502500Y-67295380D01*
X69407261Y-67438238D01*
X69312023Y-67533476D01*
X69216785Y-67581095D01*
X73104642Y-81148357D02*
X73152261Y-81195976D01*
X73199880Y-81338833D01*
X73199880Y-81434071D01*
X73152261Y-81576928D01*
X73057023Y-81672166D01*
X72961785Y-81719785D01*
X72771309Y-81767404D01*
X72628452Y-81767404D01*
X72437976Y-81719785D01*
X72342738Y-81672166D01*
X72247500Y-81576928D01*
X72199880Y-81434071D01*
X72199880Y-81338833D01*
X72247500Y-81195976D01*
X72295119Y-81148357D01*
X73199880Y-80576928D02*
X73152261Y-80672166D01*
X73104642Y-80719785D01*
X73009404Y-80767404D01*
X72723690Y-80767404D01*
X72628452Y-80719785D01*
X72580833Y-80672166D01*
X72533214Y-80576928D01*
X72533214Y-80434071D01*
X72580833Y-80338833D01*
X72628452Y-80291214D01*
X72723690Y-80243595D01*
X73009404Y-80243595D01*
X73104642Y-80291214D01*
X73152261Y-80338833D01*
X73199880Y-80434071D01*
X73199880Y-80576928D01*
X72533214Y-79815023D02*
X73199880Y-79815023D01*
X72628452Y-79815023D02*
X72580833Y-79767404D01*
X72533214Y-79672166D01*
X72533214Y-79529309D01*
X72580833Y-79434071D01*
X72676071Y-79386452D01*
X73199880Y-79386452D01*
X72533214Y-78910261D02*
X73199880Y-78910261D01*
X72628452Y-78910261D02*
X72580833Y-78862642D01*
X72533214Y-78767404D01*
X72533214Y-78624547D01*
X72580833Y-78529309D01*
X72676071Y-78481690D01*
X73199880Y-78481690D01*
X73295119Y-78243595D02*
X73295119Y-77481690D01*
X72199880Y-77053119D02*
X72199880Y-76957880D01*
X72247500Y-76862642D01*
X72295119Y-76815023D01*
X72390357Y-76767404D01*
X72580833Y-76719785D01*
X72818928Y-76719785D01*
X73009404Y-76767404D01*
X73104642Y-76815023D01*
X73152261Y-76862642D01*
X73199880Y-76957880D01*
X73199880Y-77053119D01*
X73152261Y-77148357D01*
X73104642Y-77195976D01*
X73009404Y-77243595D01*
X72818928Y-77291214D01*
X72580833Y-77291214D01*
X72390357Y-77243595D01*
X72295119Y-77195976D01*
X72247500Y-77148357D01*
X72199880Y-77053119D01*
X72295119Y-76338833D02*
X72247500Y-76291214D01*
X72199880Y-76195976D01*
X72199880Y-75957880D01*
X72247500Y-75862642D01*
X72295119Y-75815023D01*
X72390357Y-75767404D01*
X72485595Y-75767404D01*
X72628452Y-75815023D01*
X73199880Y-76386452D01*
X73199880Y-75767404D01*
X73199880Y-75434071D02*
X72533214Y-74910261D01*
X72533214Y-75434071D02*
X73199880Y-74910261D01*
X72199880Y-74338833D02*
X72199880Y-74243595D01*
X72247500Y-74148357D01*
X72295119Y-74100738D01*
X72390357Y-74053119D01*
X72580833Y-74005500D01*
X72818928Y-74005500D01*
X73009404Y-74053119D01*
X73104642Y-74100738D01*
X73152261Y-74148357D01*
X73199880Y-74243595D01*
X73199880Y-74338833D01*
X73152261Y-74434071D01*
X73104642Y-74481690D01*
X73009404Y-74529309D01*
X72818928Y-74576928D01*
X72580833Y-74576928D01*
X72390357Y-74529309D01*
X72295119Y-74481690D01*
X72247500Y-74434071D01*
X72199880Y-74338833D01*
X72295119Y-73624547D02*
X72247500Y-73576928D01*
X72199880Y-73481690D01*
X72199880Y-73243595D01*
X72247500Y-73148357D01*
X72295119Y-73100738D01*
X72390357Y-73053119D01*
X72485595Y-73053119D01*
X72628452Y-73100738D01*
X73199880Y-73672166D01*
X73199880Y-73053119D01*
X73295119Y-72862642D02*
X73295119Y-72100738D01*
X72199880Y-71672166D02*
X72199880Y-71481690D01*
X72247500Y-71386452D01*
X72342738Y-71291214D01*
X72533214Y-71243595D01*
X72866547Y-71243595D01*
X73057023Y-71291214D01*
X73152261Y-71386452D01*
X73199880Y-71481690D01*
X73199880Y-71672166D01*
X73152261Y-71767404D01*
X73057023Y-71862642D01*
X72866547Y-71910261D01*
X72533214Y-71910261D01*
X72342738Y-71862642D01*
X72247500Y-71767404D01*
X72199880Y-71672166D01*
X73199880Y-70386452D02*
X72199880Y-70386452D01*
X73152261Y-70386452D02*
X73199880Y-70481690D01*
X73199880Y-70672166D01*
X73152261Y-70767404D01*
X73104642Y-70815023D01*
X73009404Y-70862642D01*
X72723690Y-70862642D01*
X72628452Y-70815023D01*
X72580833Y-70767404D01*
X72533214Y-70672166D01*
X72533214Y-70481690D01*
X72580833Y-70386452D01*
X73199880Y-69481690D02*
X72199880Y-69481690D01*
X73152261Y-69481690D02*
X73199880Y-69576928D01*
X73199880Y-69767404D01*
X73152261Y-69862642D01*
X73104642Y-69910261D01*
X73009404Y-69957880D01*
X72723690Y-69957880D01*
X72628452Y-69910261D01*
X72580833Y-69862642D01*
X72533214Y-69767404D01*
X72533214Y-69576928D01*
X72580833Y-69481690D01*
X73295119Y-69243595D02*
X73295119Y-68481690D01*
X72676071Y-68243595D02*
X72676071Y-67910261D01*
X73199880Y-67767404D02*
X73199880Y-68243595D01*
X72199880Y-68243595D01*
X72199880Y-67767404D01*
X72533214Y-67434071D02*
X73199880Y-67195976D01*
X72533214Y-66957880D01*
X73152261Y-66195976D02*
X73199880Y-66291214D01*
X73199880Y-66481690D01*
X73152261Y-66576928D01*
X73057023Y-66624547D01*
X72676071Y-66624547D01*
X72580833Y-66576928D01*
X72533214Y-66481690D01*
X72533214Y-66291214D01*
X72580833Y-66195976D01*
X72676071Y-66148357D01*
X72771309Y-66148357D01*
X72866547Y-66624547D01*
X72533214Y-65719785D02*
X73199880Y-65719785D01*
X72628452Y-65719785D02*
X72580833Y-65672166D01*
X72533214Y-65576928D01*
X72533214Y-65434071D01*
X72580833Y-65338833D01*
X72676071Y-65291214D01*
X73199880Y-65291214D01*
D17*
X74817500Y-72379428D02*
X74817500Y-72808000D01*
X74788928Y-72893714D01*
X74731785Y-72950857D01*
X74646071Y-72979428D01*
X74588928Y-72979428D01*
X75046071Y-72379428D02*
X75417500Y-72379428D01*
X75217500Y-72608000D01*
X75303214Y-72608000D01*
X75360357Y-72636571D01*
X75388928Y-72665142D01*
X75417500Y-72722285D01*
X75417500Y-72865142D01*
X75388928Y-72922285D01*
X75360357Y-72950857D01*
X75303214Y-72979428D01*
X75131785Y-72979428D01*
X75074642Y-72950857D01*
X75046071Y-72922285D01*
D10*
X70384880Y-67923952D02*
X70384880Y-68400142D01*
X70861071Y-68447761D01*
X70813452Y-68400142D01*
X70765833Y-68304904D01*
X70765833Y-68066809D01*
X70813452Y-67971571D01*
X70861071Y-67923952D01*
X70956309Y-67876333D01*
X71194404Y-67876333D01*
X71289642Y-67923952D01*
X71337261Y-67971571D01*
X71384880Y-68066809D01*
X71384880Y-68304904D01*
X71337261Y-68400142D01*
X71289642Y-68447761D01*
X71289642Y-67447761D02*
X71337261Y-67400142D01*
X71384880Y-67447761D01*
X71337261Y-67495380D01*
X71289642Y-67447761D01*
X71384880Y-67447761D01*
X71384880Y-66447761D02*
X71384880Y-67019190D01*
X71384880Y-66733476D02*
X70384880Y-66733476D01*
X70527738Y-66828714D01*
X70622976Y-66923952D01*
X70670595Y-67019190D01*
X71384880Y-66019190D02*
X70384880Y-66019190D01*
X71003928Y-65923952D02*
X71384880Y-65638238D01*
X70718214Y-65638238D02*
X71099166Y-66019190D01*
D16*
X72220119Y-67086333D02*
X72096309Y-67173000D01*
X72220119Y-67234904D02*
X71960119Y-67234904D01*
X71960119Y-67135857D01*
X71972500Y-67111095D01*
X71984880Y-67098714D01*
X72009642Y-67086333D01*
X72046785Y-67086333D01*
X72071547Y-67098714D01*
X72083928Y-67111095D01*
X72096309Y-67135857D01*
X72096309Y-67234904D01*
X71984880Y-66987285D02*
X71972500Y-66974904D01*
X71960119Y-66950142D01*
X71960119Y-66888238D01*
X71972500Y-66863476D01*
X71984880Y-66851095D01*
X72009642Y-66838714D01*
X72034404Y-66838714D01*
X72071547Y-66851095D01*
X72220119Y-66999666D01*
X72220119Y-66838714D01*
D18*
X79849291Y-69698838D02*
X79780870Y-69767259D01*
X79763765Y-69818575D01*
X79763765Y-69852786D01*
X79780870Y-69938312D01*
X79832186Y-70023838D01*
X79969028Y-70160680D01*
X80020343Y-70177785D01*
X80054554Y-70177785D01*
X80105870Y-70160680D01*
X80174291Y-70092259D01*
X80191396Y-70040943D01*
X80191396Y-70006733D01*
X80174291Y-69955417D01*
X80088764Y-69869891D01*
X80037449Y-69852786D01*
X80003238Y-69852786D01*
X79951922Y-69869891D01*
X79883501Y-69938312D01*
X79866396Y-69989628D01*
X79866396Y-70023838D01*
X79883501Y-70075154D01*
X80105870Y-69442260D02*
X80140080Y-69408049D01*
X80191396Y-69390944D01*
X80225606Y-69390944D01*
X80276922Y-69408049D01*
X80362448Y-69459365D01*
X80447975Y-69544891D01*
X80499290Y-69630417D01*
X80516396Y-69681733D01*
X80516396Y-69715944D01*
X80499290Y-69767259D01*
X80465080Y-69801470D01*
X80413764Y-69818575D01*
X80379554Y-69818575D01*
X80328238Y-69801470D01*
X80242712Y-69750154D01*
X80157185Y-69664628D01*
X80105870Y-69579102D01*
X80088764Y-69527786D01*
X80088764Y-69493575D01*
X80105870Y-69442260D01*
X80944027Y-69322523D02*
X80653238Y-69271207D01*
X80738764Y-69527786D02*
X80379554Y-69168576D01*
X80516396Y-69031734D01*
X80567711Y-69014628D01*
X80601922Y-69014628D01*
X80653238Y-69031734D01*
X80704553Y-69083049D01*
X80721659Y-69134365D01*
X80721659Y-69168576D01*
X80704553Y-69219891D01*
X80567711Y-69356733D01*
X81149290Y-68775155D02*
X81115079Y-68775155D01*
X81063764Y-68792260D01*
X81029553Y-68826471D01*
X81012448Y-68877786D01*
X81012448Y-68911997D01*
X81029553Y-68963313D01*
X81063764Y-68997523D01*
X81115079Y-69014628D01*
X81149290Y-69014628D01*
X81200606Y-68997523D01*
X81234816Y-68963313D01*
X81251921Y-68911997D01*
X81251921Y-68877786D01*
X81115079Y-68740944D02*
X81251921Y-68877786D01*
X81286132Y-68877786D01*
X81303237Y-68860681D01*
X81320342Y-68809365D01*
X81303237Y-68758050D01*
X81217711Y-68672523D01*
X81132185Y-68655418D01*
X81046658Y-68672523D01*
X80961132Y-68723839D01*
X80909816Y-68809365D01*
X80892711Y-68894892D01*
X80909816Y-68980418D01*
X80961132Y-69065944D01*
X81046658Y-69117260D01*
X81132185Y-69134365D01*
X81217711Y-69117260D01*
X81303237Y-69065944D01*
X81354553Y-68980418D01*
X81371658Y-68894892D01*
X81747973Y-68518576D02*
X81542711Y-68723839D01*
X81645342Y-68621208D02*
X81286132Y-68261998D01*
X81303237Y-68347524D01*
X81303237Y-68415945D01*
X81286132Y-68467260D01*
X81611132Y-67936998D02*
X81645342Y-67902787D01*
X81696658Y-67885682D01*
X81730868Y-67885682D01*
X81782184Y-67902787D01*
X81867710Y-67954103D01*
X81953236Y-68039629D01*
X82004552Y-68125156D01*
X82021657Y-68176471D01*
X82021657Y-68210682D01*
X82004552Y-68261998D01*
X81970342Y-68296208D01*
X81919026Y-68313313D01*
X81884815Y-68313313D01*
X81833500Y-68296208D01*
X81747973Y-68244892D01*
X81662447Y-68159366D01*
X81611132Y-68073840D01*
X81594026Y-68022524D01*
X81594026Y-67988314D01*
X81611132Y-67936998D01*
X81953236Y-67594893D02*
X81987447Y-67560682D01*
X82038763Y-67543577D01*
X82072973Y-67543577D01*
X82124289Y-67560682D01*
X82209815Y-67611998D01*
X82295341Y-67697524D01*
X82346657Y-67783051D01*
X82363762Y-67834366D01*
X82363762Y-67868577D01*
X82346657Y-67919893D01*
X82312447Y-67954103D01*
X82261131Y-67971208D01*
X82226920Y-67971208D01*
X82175605Y-67954103D01*
X82090078Y-67902787D01*
X82004552Y-67817261D01*
X81953236Y-67731735D01*
X81936131Y-67680419D01*
X81936131Y-67646209D01*
X81953236Y-67594893D01*
X82586131Y-67680419D02*
X82226920Y-67321209D01*
X82603236Y-67458051D01*
X82466394Y-67081735D01*
X82825604Y-67440946D01*
X82996657Y-67269893D02*
X82637446Y-66910683D01*
X82808499Y-67081735D02*
X83013762Y-66876472D01*
X83201920Y-67064630D02*
X82842709Y-66705420D01*
X83099288Y-66688315D02*
X83287446Y-66500157D01*
X83338762Y-66927788D01*
X83526919Y-66739630D01*
D19*
X80864124Y-67793186D02*
X80594750Y-68062560D01*
X80029064Y-67496874D01*
X81348997Y-67308312D02*
X81025748Y-67631561D01*
X81187373Y-67469937D02*
X80621687Y-66904251D01*
X80648625Y-67038938D01*
X80648625Y-67146688D01*
X80621687Y-67227500D01*
D12*
X73752500Y-65526400D02*
X76252500Y-65526400D01*
X73752500Y-66276400D02*
X74002500Y-66526400D01*
X76252500Y-66526400D02*
X76252500Y-65526400D01*
X74002500Y-66526400D02*
X76252500Y-66526400D01*
X73752500Y-65526400D02*
X73752500Y-66276400D01*
X82327500Y-62243000D02*
X82327500Y-64243000D01*
X81077500Y-64243000D02*
X81077500Y-62243000D01*
X81077500Y-62243000D02*
X82327500Y-62243000D01*
X82327500Y-64243000D02*
X81077500Y-64243000D01*
X67802500Y-64643000D02*
X67802500Y-63043000D01*
X68602500Y-64643000D02*
X67802500Y-64643000D01*
X68602500Y-63043000D02*
X68602500Y-64643000D01*
X67802500Y-63043000D02*
X68602500Y-63043000D01*
D20*
X79302500Y-58043000D02*
X76902500Y-60343000D01*
X80002500Y-60343000D02*
X76902500Y-63443000D01*
X74302500Y-58043000D02*
X70002500Y-62343000D01*
X74902500Y-61443000D02*
X72902500Y-63443000D01*
X80002500Y-58343000D02*
X77902500Y-60343000D01*
D19*
X80002500Y-63443000D02*
X80002500Y-58043000D01*
D20*
X72902500Y-61443000D02*
X70902500Y-63443000D01*
X80002500Y-61343000D02*
X77902500Y-63443000D01*
X77302500Y-58043000D02*
X74902500Y-60343000D01*
D19*
X80002500Y-58043000D02*
X70002500Y-58043000D01*
D20*
X73302500Y-58043000D02*
X70002500Y-61343000D01*
X75902500Y-61443000D02*
X73902500Y-63443000D01*
X71902500Y-61443000D02*
X70002500Y-63343000D01*
X80002500Y-62343000D02*
X78902500Y-63443000D01*
X75302500Y-58043000D02*
X72902500Y-60343000D01*
X73902500Y-61443000D02*
X71902500Y-63443000D01*
D19*
X70002500Y-63443000D02*
X80002500Y-63443000D01*
D20*
X80002500Y-59343000D02*
X75902500Y-63443000D01*
X76302500Y-58043000D02*
X73902500Y-60343000D01*
D19*
X70002500Y-58043000D02*
X70002500Y-63443000D01*
D20*
X76902500Y-61443000D02*
X74902500Y-63443000D01*
X72302500Y-58043000D02*
X70002500Y-60343000D01*
X78302500Y-58043000D02*
X75902500Y-60343000D01*
X71302500Y-58043000D02*
X70002500Y-59343000D01*
D12*
X78464650Y-67023312D02*
X78082812Y-67405150D01*
X78082812Y-67405150D02*
X77340350Y-66662688D01*
X77722188Y-66280850D02*
X78464650Y-67023312D01*
X77340350Y-66662688D02*
X77722188Y-66280850D01*
X67402500Y-66343000D02*
X70202500Y-66343000D01*
X67402500Y-68143000D02*
X67402500Y-66343000D01*
X70202500Y-68143000D02*
X67402500Y-68143000D01*
X68552500Y-67643000D02*
X68552500Y-66843000D01*
X68552500Y-67243000D02*
X68052500Y-67243000D01*
X68552500Y-66843000D02*
X69152500Y-67243000D01*
X69152500Y-67243000D02*
X68552500Y-67643000D01*
X70202500Y-66343000D02*
X70202500Y-68143000D01*
X69152500Y-67243000D02*
X69152500Y-67793000D01*
X69552500Y-67243000D02*
X69152500Y-67243000D01*
X69152500Y-67243000D02*
X69152500Y-66693000D01*
X74182500Y-73208000D02*
X74182500Y-77208000D01*
X73747500Y-73208000D02*
X73747500Y-72208000D01*
X73747500Y-72208000D02*
X76037500Y-72208000D01*
X75852500Y-70238000D02*
X75852500Y-72208000D01*
X74582500Y-70238000D02*
X74182500Y-70238000D01*
X74582500Y-77208000D02*
X74182500Y-77208000D01*
X76037500Y-72208000D02*
X76287500Y-72458000D01*
X75452500Y-73208000D02*
X75452500Y-77208000D01*
X74582500Y-73208000D02*
X74582500Y-77208000D01*
X74182500Y-70238000D02*
X74182500Y-72208000D01*
X74582500Y-70238000D02*
X74582500Y-72208000D01*
X76287500Y-72458000D02*
X76287500Y-73208000D01*
X75852500Y-77208000D02*
X75452500Y-77208000D01*
X75852500Y-73208000D02*
X75852500Y-77208000D01*
X75452500Y-70238000D02*
X75452500Y-72208000D01*
X76287500Y-73208000D02*
X73747500Y-73208000D01*
X75852500Y-70238000D02*
X75452500Y-70238000D01*
X72372500Y-67568000D02*
X71832500Y-67568000D01*
X71832500Y-67568000D02*
X71832500Y-66518000D01*
X71832500Y-66518000D02*
X72372500Y-66518000D01*
X72372500Y-66518000D02*
X72372500Y-67568000D01*
X79005444Y-68008685D02*
X81268185Y-65745944D01*
X81268185Y-65745944D02*
X82399556Y-66877315D01*
X80136815Y-69140056D02*
X79005444Y-68008685D01*
X82399556Y-66877315D02*
X80136815Y-69140056D01*
M02*
